<?xml version="1.0" encoding="UTF-8"?>
<svg version="1.1" xmlns="http://www.w3.org/2000/svg" width="6251" height="1648">
    <path
        d="M0 0 C1.79053802 -0.00101212 1.79053802 -0.00101212 3.61724854 -0.00204468 C62.05921872 0.0501993 122.48151549 7.75725209 175.3125 34.25 C176.04807129 34.61303223 176.78364258 34.97606445 177.54150391 35.35009766 C208.05035013 50.50757177 236.64709635 73.29559516 256.3125 101.25 C256.91819824 102.09715576 256.91819824 102.09715576 257.53613281 102.96142578 C295.12602973 155.80116007 299.82934596 218.6100204 299.66069686 281.28861511 C299.6475678 287.42650446 299.6521377 293.5643863 299.65440369 299.70228577 C299.65596592 310.30021208 299.64677439 320.89807673 299.62969017 331.49598503 C299.61184807 342.59284674 299.60037413 353.68968602 299.59713173 364.78656197 C299.59692551 365.48037712 299.59671929 366.17419228 299.59650682 366.88903213 C299.59549162 370.41355694 299.59458754 373.93808177 299.5937262 377.46260662 C299.58744982 402.33047359 299.56730778 427.19831148 299.53881836 452.06616211 C299.51119914 476.20255378 299.48998075 500.33893745 299.47729492 524.4753418 C299.47690034 525.22128055 299.47650576 525.96721931 299.47609923 526.73576227 C299.47214316 534.22780076 299.4683158 541.71983931 299.46458265 549.21187792 C299.45697705 564.46966729 299.4485133 579.72745614 299.43952942 594.98524475 C299.43911755 595.6865442 299.43870568 596.38784365 299.43828133 597.1103946 C299.41074863 643.8236113 299.36128023 690.53679954 299.3125 737.25 C233.9725 737.25 168.6325 737.25 101.3125 737.25 C100.9825 711.18 100.6525 685.11 100.3125 658.25 C97.0125 662.54 93.7125 666.83 90.3125 671.25 C84.47654539 677.85939438 84.47654539 677.85939438 82.33984375 680.08984375 C81.85370605 680.59757324 81.36756836 681.10530273 80.86669922 681.62841797 C80.35381348 682.16354004 79.84092773 682.69866211 79.3125 683.25 C78.75965332 683.83539551 78.20680664 684.42079102 77.63720703 685.02392578 C59.22668624 704.44674402 37.59104041 719.08574868 13.3125 730.25 C12.59545898 730.5809668 11.87841797 730.91193359 11.13964844 731.25292969 C-5.92407909 739.02268797 -23.54399552 744.45830306 -41.9375 748.0625 C-42.92886963 748.25739014 -43.92023926 748.45228027 -44.94165039 748.65307617 C-61.95171982 751.78204638 -78.86061403 752.62780053 -96.125 752.5625 C-97.13018677 752.56067719 -98.13537354 752.55885437 -99.17102051 752.55697632 C-115.51319063 752.50726519 -131.52013192 751.82098857 -147.6875 749.25 C-149.29165771 749.00056641 -149.29165771 749.00056641 -150.92822266 748.74609375 C-175.52635773 744.78987843 -199.14274335 737.86822012 -221.6875 727.25 C-222.42033203 726.9096875 -223.15316406 726.569375 -223.90820312 726.21875 C-242.78274481 717.39339352 -259.58175895 705.60500392 -274.6875 691.25 C-275.1928125 690.77191895 -275.698125 690.29383789 -276.21875 689.80126953 C-311.95801231 655.76950203 -331.61456381 606.11869727 -332.89233398 557.01342773 C-332.99632005 551.11051639 -333.01378496 545.20889528 -333.00317383 539.30517578 C-333.0000236 535.65236251 -333.02352008 532.00036953 -333.04882812 528.34765625 C-333.10163799 509.11373291 -331.68766148 490.26074402 -326.9375 471.5625 C-326.55343994 470.01671265 -326.55343994 470.01671265 -326.16162109 468.43969727 C-322.25957412 453.18784459 -317.05331805 438.82992328 -309.60009766 424.95751953 C-308.77800155 423.41933329 -307.98663192 421.86481977 -307.19921875 420.30859375 C-303.11948802 412.41345288 -298.0146122 405.33592491 -292.6875 398.25 C-292.02363281 397.35796875 -291.35976563 396.4659375 -290.67578125 395.546875 C-279.6524048 381.42655782 -266.29150569 368.61466674 -251.6875 358.25 C-251.09404785 357.8281543 -250.5005957 357.40630859 -249.88916016 356.97167969 C-226.20903243 340.32955008 -200.08177716 328.37401866 -172.6875 319.25 C-171.32915039 318.7866626 -171.32915039 318.7866626 -169.94335938 318.31396484 C-114.27161367 299.46568931 -53.62583359 295.03148164 4.734375 295.15234375 C7.41864097 295.15421347 10.10290426 295.15568409 12.78717041 295.15663147 C19.07284713 295.15970733 25.3585059 295.16786878 31.64417481 295.17798096 C38.81499543 295.18926025 45.98581703 295.19468195 53.15664434 295.19967639 C67.87527196 295.21005572 82.59388566 295.2275805 97.3125 295.25 C97.18685215 289.49393169 97.05803873 283.73794551 96.92645264 277.98200989 C96.88223377 276.0290869 96.83883884 274.07614506 96.79632568 272.1231842 C96.0012073 235.68589328 93.00353618 198.93954977 66.3125 171.25 C45.81181344 152.79063358 19.00788895 146.79357455 -7.875 146.9375 C-8.96374924 146.94073273 -8.96374924 146.94073273 -10.07449341 146.94403076 C-39.90969994 147.08601915 -67.35676476 154.62113714 -89.26953125 175.73828125 C-106.11012503 193.19972641 -113.3209848 215.68439357 -116.6875 239.25 C-180.7075 239.25 -244.7275 239.25 -310.6875 239.25 C-310.6875 230.76749919 -310.0250339 223.45393538 -308.625 215.1875 C-308.51523834 214.53548615 -308.40547668 213.88347229 -308.29238892 213.21170044 C-303.76275769 186.60835363 -295.47762878 161.03515177 -282.6875 137.25 C-282.34638184 136.60256836 -282.00526367 135.95513672 -281.65380859 135.28808594 C-266.54482411 106.70275991 -244.77259277 81.36965192 -218.6875 62.25 C-218.11821777 61.82525391 -217.54893555 61.40050781 -216.96240234 60.96289062 C-208.22091974 54.44682635 -199.17483235 48.61846401 -189.6875 43.25 C-189.00155762 42.85844727 -188.31561523 42.46689453 -187.60888672 42.06347656 C-142.85593913 16.76700289 -91.4622107 5.7160402 -40.6875 1.25 C-39.60621826 1.15283691 -38.52493652 1.05567383 -37.41088867 0.95556641 C-24.95873467 -0.02276067 -12.4836789 0.00635812 0 0 Z M-111.375 462.7421875 C-125.25302367 477.79234154 -132.05832801 496.92500913 -132.6875 517.25 C-132.72746094 518.23871094 -132.76742187 519.22742187 -132.80859375 520.24609375 C-133.30167449 543.47889813 -128.699944 565.48551715 -113.2890625 583.55078125 C-92.91886636 604.68562439 -64.05191882 610.88851125 -35.6875 611.4375 C4.32021714 610.95721528 41.65468087 598.82743254 70.3125 570.25 C92.13209502 546.69088787 97.71779001 516.12313231 97.5078125 485.18359375 C97.50406849 483.52637404 97.50122811 481.86915207 97.49923706 480.21192932 C97.49170959 475.91307131 97.47215898 471.61435494 97.4498291 467.31555176 C97.4291318 462.90374669 97.42018503 458.49191806 97.41015625 454.08007812 C97.38889927 445.46998808 97.35490035 436.86001181 97.3125 428.25 C85.57456108 428.20307846 73.83664549 428.16783387 62.09863091 428.14637566 C56.64465837 428.1360623 51.19075129 428.1221396 45.73681641 428.09912109 C-38.39883402 426.14732337 -38.39883402 426.14732337 -111.375 462.7421875 Z "
        fill="#FFFFFF" transform="translate(332.6875,895.75)" />
    <path
        d="M0 0 C1.04684967 0.00060425 2.09369934 0.0012085 3.17227173 0.00183105 C18.60426334 0.02602584 33.85429247 0.28986409 49.1875 2.1875 C50.27337402 2.31640625 51.35924805 2.4453125 52.47802734 2.578125 C88.3574021 6.9387636 122.98858997 15.85375819 156.1875 30.1875 C157.38922852 30.70546143 157.38922852 30.70546143 158.61523438 31.23388672 C189.12254102 44.56921723 216.23237611 64.23154708 240.1875 87.1875 C241.00863281 87.96738281 241.82976563 88.74726562 242.67578125 89.55078125 C247.47588936 94.21824388 251.77214435 99.16417039 255.94921875 104.39453125 C257.38359581 106.18437348 258.84267734 107.95485706 260.33203125 109.69921875 C335.21323006 197.80268329 330.1875 319.35753061 330.1875 427.1875 C175.4175 427.1875 20.6475 427.1875 -138.8125 427.1875 C-132.07545861 481.08383113 -124.10775588 541.66176599 -78.5 577.87890625 C-46.54862021 602.16744797 -3.94694793 608.11556629 35.08251953 603.31396484 C60.29060963 599.67095876 84.84596574 591.18560605 104.1875 574.1875 C105.41339844 573.17623047 105.41339844 573.17623047 106.6640625 572.14453125 C125.31753712 556.29196536 135.29296879 534.16927069 142.1875 511.1875 C204.2275 511.1875 266.2675 511.1875 330.1875 511.1875 C326.66557243 532.31906541 326.66557243 532.31906541 324 541.9375 C323.69521729 543.04182373 323.39043457 544.14614746 323.07641602 545.28393555 C313.14328982 580.48851236 296.85604075 612.49234894 274.1875 641.1875 C273.38699219 642.21359375 272.58648438 643.2396875 271.76171875 644.296875 C258.88090671 660.15650322 243.79834307 675.27631009 227.1875 687.1875 C226.07700803 688.01412657 224.96765146 688.8422804 223.859375 689.671875 C143.88928136 748.89961787 35.0251407 762.37667049 -61.42991638 748.23974609 C-147.60639644 735.27859396 -225.24439364 695.62984155 -277.83203125 625.17578125 C-285.20620541 615.09705965 -291.48575289 604.50754372 -297.49755859 593.57080078 C-298.63246939 591.51380129 -299.78854249 589.47160356 -300.95703125 587.43359375 C-324.45786525 545.36183594 -335.62342466 496.39047565 -341.0625 448.9375 C-341.18712616 447.85545792 -341.18712616 447.85545792 -341.31427002 446.7515564 C-343.05465047 431.44744942 -343.96390574 416.23678867 -344.015625 400.83203125 C-344.02265033 399.40839611 -344.02973712 397.98476127 -344.03688049 396.56112671 C-344.05625821 392.04074645 -344.06131417 387.52041762 -344.0625 383 C-344.06294186 382.22966557 -344.06338371 381.45933113 -344.06383896 380.66565323 C-344.07093629 357.06565281 -343.83434952 333.62875245 -340.8125 310.1875 C-340.72528687 309.50798279 -340.63807373 308.82846558 -340.54821777 308.12835693 C-331.54186802 238.70019827 -307.99439225 168.95872419 -261.8125 115.1875 C-260.96198615 114.15492512 -260.11311936 113.12099209 -259.265625 112.0859375 C-247.50401598 97.86525288 -234.43874872 84.46277819 -219.8125 73.1875 C-218.67676914 72.2548446 -217.54417042 71.31836715 -216.4140625 70.37890625 C-207.33337824 62.87211056 -197.86213889 56.32796218 -187.8125 50.1875 C-186.72291992 49.51702637 -186.72291992 49.51702637 -185.61132812 48.83300781 C-129.5208044 14.57190955 -65.25286179 -0.06940358 0 0 Z M-95.37890625 184.1953125 C-118.40440293 212.50595529 -135.8125 255.57528109 -135.8125 292.1875 C-47.0425 292.1875 41.7275 292.1875 133.1875 292.1875 C132.41177784 276.20474935 132.41177784 276.20474935 130.5 260.4375 C130.32774902 259.35041748 130.15549805 258.26333496 129.97802734 257.14331055 C124.18138604 222.30534473 110.98868954 186.24861976 81.6171875 164.4609375 C70.15984152 156.35732921 58.06642156 150.80801268 44.625 146.875 C43.79919434 146.63233398 42.97338867 146.38966797 42.12255859 146.13964844 C29.76305259 142.72829933 17.43514095 141.83537599 4.68432617 141.87182617 C2.38737267 141.874983 0.09171738 141.85142755 -2.20507812 141.82617188 C-38.92742602 141.66904077 -71.12888039 156.80248329 -95.37890625 184.1953125 Z "
        fill="#FFFFFF" transform="translate(2586.8125,895.8125)" />
    <path
        d="M0 0 C1.04851135 0.00093658 2.09702271 0.00187317 3.17730713 0.00283813 C18.60222543 0.03271712 33.86849954 0.20632823 49.1875 2.1875 C50.44062988 2.34879395 51.69375977 2.51008789 52.98486328 2.67626953 C95.26992848 8.23858788 136.43134103 18.84320859 174.1875 39.1875 C174.89632324 39.56197266 175.60514648 39.93644531 176.33544922 40.32226562 C195.32934861 50.37664945 213.09464622 62.5291016 228.921875 77.10546875 C230.99642036 79.0119044 233.11015931 80.8551561 235.25 82.6875 C242.47892836 89.01644129 248.88961631 95.82107648 254.8828125 103.328125 C256.40734903 105.21958388 257.96461945 107.08516273 259.5546875 108.921875 C335.30321962 196.52880353 330.1875 319.60820385 330.1875 427.1875 C175.4175 427.1875 20.6475 427.1875 -138.8125 427.1875 C-132.82261948 478.10148446 -125.40986612 531.21416022 -87.8125 569.1875 C-87.19890625 569.86167969 -86.5853125 570.53585937 -85.953125 571.23046875 C-69.58445025 588.93618872 -43.83568969 597.88935634 -20.8125 602.1875 C-19.02199219 602.52974609 -19.02199219 602.52974609 -17.1953125 602.87890625 C21.17408378 608.8819956 64.97507912 603.008702 97.09765625 580.11328125 C99.5258593 578.20299477 101.86017936 576.21876571 104.1875 574.1875 C105.25097656 573.35605469 105.25097656 573.35605469 106.3359375 572.5078125 C124.74349088 557.55582871 136.5235772 533.84319122 142.1875 511.1875 C204.2275 511.1875 266.2675 511.1875 330.1875 511.1875 C325.51020805 536.91260574 325.51020805 536.91260574 322.9375 545.75 C322.6386792 546.78898437 322.3398584 547.82796875 322.03198242 548.8984375 C306.45366502 601.79770447 274.42510552 651.91460649 229.78857422 684.9921875 C228.28065636 686.11795234 226.79756562 687.2767547 225.31640625 688.4375 C182.20857187 721.91931311 128.78690215 739.75700187 75.375 748 C74.1271875 748.19489014 72.879375 748.38978027 71.59375 748.59057617 C50.22898305 751.70444155 28.81810234 752.57053823 7.25 752.5 C6.05338745 752.49784485 4.8567749 752.4956897 3.62390137 752.49346924 C-77.20451949 752.26102606 -158.27619263 732.90111141 -222.8125 682.1875 C-223.79605469 681.41792969 -224.77960938 680.64835937 -225.79296875 679.85546875 C-239.46802432 668.90358442 -252.63715283 656.71345979 -263.55078125 643 C-265.03245871 641.15749953 -266.55003121 639.34317125 -268.10546875 637.5625 C-327.02026249 569.90179071 -344.59538833 473.34384163 -344.20361328 386.28076172 C-344.18652283 382.45321171 -344.19672442 378.62628827 -344.2139349 374.79875946 C-344.27543441 358.61636588 -343.83823367 342.56357854 -342.43359375 326.4375 C-342.34182169 325.37955986 -342.34182169 325.37955986 -342.24819565 324.30024719 C-333.96443221 231.01405736 -297.46315797 141.73124044 -226.875 78.55859375 C-224.23164062 76.37056914 -221.53912836 74.27084875 -218.8125 72.1875 C-217.52786643 71.17546772 -216.2440783 70.16236177 -214.9609375 69.1484375 C-153.6319482 21.0443354 -77.18902972 -0.08890119 0 0 Z M-33.8125 145.1875 C-34.8950708 145.47753906 -34.8950708 145.47753906 -35.99951172 145.7734375 C-68.3563781 154.76261195 -92.77950451 175.96527507 -109.375 204.75 C-124.23601707 231.51682969 -133.04724134 261.76965478 -135.8125 292.1875 C-47.0425 292.1875 41.7275 292.1875 133.1875 292.1875 C129.82943518 246.8536249 122.17293432 199.70075607 86.1875 168.1875 C72.09187087 156.50130299 55.88937287 149.45779752 38.1875 145.1875 C36.30417969 144.70796875 36.30417969 144.70796875 34.3828125 144.21875 C13.59203122 139.56209074 -13.24234568 139.54259561 -33.8125 145.1875 Z "
        fill="#FFFFFF" transform="translate(5920.8125,895.8125)" />
    <path
        d="M0 0 C0.88122528 -0.00067474 1.76245056 -0.00134949 2.67037964 -0.00204468 C40.01476601 0.04314446 79.1692252 5.75359018 112.19628906 24.27490234 C113.96944184 25.26788779 115.75959108 26.22313315 117.5546875 27.17578125 C129.17244535 33.44959151 139.11226942 41.36204534 148.796875 50.296875 C150.53091258 51.87902608 152.28449382 53.35946881 154.125 54.8125 C157.80406507 58.00102306 160.8415414 61.50038412 163.9375 65.25 C165.17693359 66.73306641 165.17693359 66.73306641 166.44140625 68.24609375 C177.69193274 81.9658019 186.46612163 97.19331326 193.9375 113.25 C194.45828125 114.36246094 194.9790625 115.47492188 195.515625 116.62109375 C215.85306756 162.05922199 220.13654348 212.46197363 220.05775452 261.64338684 C220.05819186 263.71153692 220.05906976 265.77968694 220.06034368 267.84783667 C220.06255659 273.46697973 220.05861182 279.08610336 220.05356562 284.70524395 C220.04921475 290.78877626 220.05071081 296.87230763 220.0514679 302.95584106 C220.05199021 313.47479814 220.04890936 323.99374969 220.04323006 334.51270485 C220.03729485 345.5340967 220.03346046 356.55548606 220.03237724 367.5768795 C220.0323085 368.26445032 220.03223976 368.95202114 220.03216894 369.66042743 C220.03183057 373.15284162 220.0315292 376.64525581 220.03124207 380.13767 C220.02914664 404.81696073 220.02242328 429.49624821 220.01293945 454.17553711 C220.00374186 478.13777652 219.99666471 502.10001504 219.99243164 526.06225586 C219.99223435 527.17193147 219.99223435 527.17193147 219.99203308 528.30402476 C219.99071446 535.7338425 219.98943866 543.16366025 219.98819422 550.59347801 C219.98565861 565.72627441 219.98283736 580.85907075 219.97984314 595.99186707 C219.97970585 596.68751197 219.97956856 597.38315688 219.97942711 598.09988193 C219.97024034 644.48325628 219.95375232 690.86662746 219.9375 737.25 C152.9475 737.25 85.9575 737.25 16.9375 737.25 C16.92291748 723.00634277 16.90833496 708.76268555 16.89331055 694.08740234 C16.86069388 663.59574517 16.82420312 633.1040978 16.77851868 602.61245728 C16.77752311 601.94727894 16.77652754 601.2821006 16.77550181 600.59676534 C16.75383874 586.13752288 16.73151572 571.67828152 16.70851372 557.21904113 C16.69723609 550.12731016 16.68610415 543.03557897 16.67504883 535.94384766 C16.67394626 535.23816892 16.6728437 534.53249018 16.67170772 533.80542724 C16.63609641 510.96935016 16.61008918 488.13327453 16.58911031 465.29717971 C16.56748454 441.812505 16.53607396 418.32786293 16.49250887 394.8432182 C16.46447724 379.7211129 16.44490139 364.59905346 16.43815396 349.4769233 C16.4328802 339.55210364 16.41659678 329.62733926 16.39183434 319.70254926 C16.3778873 313.98449451 16.36862296 308.26653854 16.37249184 302.54846573 C16.37593621 297.29819718 16.36534354 292.04813855 16.34426448 286.79791291 C16.3390548 284.91328815 16.33869919 283.02864124 16.34410437 281.14401703 C16.38779145 264.16228839 15.23524694 246.7082662 10.25 230.375 C9.99581299 229.52043213 9.74162598 228.66586426 9.47973633 227.78540039 C2.85541557 206.52848844 -9.91536579 187.73400376 -29.76953125 176.84375 C-45.28570663 169.33414199 -61.83588255 165.15290306 -79.12109375 165.046875 C-80.24222313 165.03832489 -80.24222313 165.03832489 -81.38600159 165.02960205 C-82.96166601 165.0202162 -84.5373495 165.01364384 -86.11303711 165.00976562 C-88.46310082 165.00015096 -90.81225341 164.96910466 -93.16210938 164.9375 C-120.520329 164.74608081 -149.79034861 172.39104632 -171.0625 190.25 C-171.90941406 190.95898438 -172.75632812 191.66796875 -173.62890625 192.3984375 C-197.87148596 213.49503358 -209.73466721 241.95825319 -214.0625 273.25 C-214.1514829 273.89001713 -214.2404658 274.53003426 -214.33214515 275.18944585 C-215.37588522 283.99282876 -215.21616316 292.83816881 -215.22071838 301.68814087 C-215.22528902 303.56943185 -215.23028978 305.45072182 -215.23568195 307.33201063 C-215.2492153 312.48572943 -215.25666745 317.63944167 -215.26310861 322.79317355 C-215.27113373 328.35679309 -215.28482421 333.92039905 -215.29782104 339.48400879 C-215.31955388 349.1180847 -215.33771002 358.75216201 -215.35342598 368.38624954 C-215.37615372 382.31546564 -215.4042925 396.2446667 -215.43374526 410.17387001 C-215.48138559 432.77394721 -215.52466782 455.37403028 -215.56518555 477.97412109 C-215.60455147 499.9259489 -215.64599441 521.8777712 -215.69018555 543.82958984 C-215.69296289 545.21066701 -215.69574016 546.59174418 -215.69851738 547.97282135 C-215.72003091 558.66599389 -215.7416764 569.35916616 -215.76335371 580.05233836 C-215.86954722 632.45154781 -215.9652882 684.85077163 -216.0625 737.25 C-282.7225 737.25 -349.3825 737.25 -418.0625 737.25 C-418.0625 498.99 -418.0625 260.73 -418.0625 15.25 C-351.4025 15.25 -284.7425 15.25 -216.0625 15.25 C-215.7325 49.24 -215.4025 83.23 -215.0625 118.25 C-211.4325 112.31 -207.8025 106.37 -204.0625 100.25 C-200.79760199 95.80157647 -197.54879146 91.50740266 -194.0625 87.25 C-193.4452002 86.48042969 -193.4452002 86.48042969 -192.81542969 85.6953125 C-181.65487768 71.79433061 -169.12392298 59.06195733 -154.74511719 48.49267578 C-153.09672918 47.27527953 -151.47371934 46.02938723 -149.8515625 44.77734375 C-107.414238 12.60701116 -52.33385584 0.03616968 0 0 Z "
        fill="#FFFFFF" transform="translate(3458.0625,895.75)" />
    <path
        d="M0 0 C66.99 0 133.98 0 203 0 C203.04898438 33.09796875 203.09796875 66.1959375 203.1484375 100.296875 C203.18382435 121.26953376 203.21969265 142.24219004 203.2578125 163.21484375 C203.2765453 173.53424174 203.2951985 183.85363987 203.31362569 194.17303841 C203.31612502 195.57255012 203.31862721 196.97206182 203.3211323 198.37157352 C203.36094946 220.62935676 203.39448364 242.88714394 203.42468691 265.14494213 C203.45668207 288.6977322 203.49596546 312.25049798 203.54279006 335.8032639 C203.57056925 349.89268377 203.5926477 363.98208827 203.60726251 378.07152805 C203.6178644 387.75389445 203.63574903 397.43623097 203.65916704 407.11857477 C203.67243693 412.69153515 203.68268204 418.26445394 203.68421364 423.83743095 C202.07447859 491.70660352 202.07447859 491.70660352 231 551 C231.60328125 551.69738281 232.2065625 552.39476562 232.828125 553.11328125 C248.63435437 570.21455883 274.4016277 577.17253463 296.97216797 578.12548828 C331.6475116 579.15462973 366.88295772 572.69492277 393.3125 548.5625 C395.23922614 546.73620592 397.11952833 544.8750989 399 543 C399.77859375 542.24460937 400.5571875 541.48921875 401.359375 540.7109375 C412.28205929 529.4396569 420.13733115 514.83469075 425 500 C425.22381348 499.32565918 425.44762695 498.65131836 425.67822266 497.95654297 C431.79623209 479.05307121 433.45721245 459.65835538 433.39872742 439.89102173 C433.40418536 437.97462235 433.41094448 436.05822633 433.41886932 434.14183557 C433.43668148 428.94677698 433.43636414 423.75186287 433.43273985 418.55678105 C433.43211054 412.92791707 433.44878666 407.29909932 433.46325684 401.67025757 C433.48594708 391.94143953 433.49791132 382.21265707 433.50238609 372.48381424 C433.50887151 358.41791485 433.53185071 344.35207951 433.55872939 330.28620605 C433.60190634 307.45985326 433.63195046 284.63351023 433.65356445 261.80712891 C433.67457983 239.64630805 433.70191614 217.4855094 433.73754883 195.32470703 C433.73978488 193.92859042 433.74202075 192.5324738 433.74425644 191.13635719 C433.76160059 180.32542084 433.77934401 169.51448516 433.79718363 158.70354962 C433.88438559 105.80238026 433.93998375 52.90122069 434 0 C500.66 0 567.32 0 636 0 C636 238.26 636 476.52 636 722 C569.34 722 502.68 722 434 722 C433.505 672.005 433.505 672.005 433 621 C430.36 625.62 427.72 630.24 425 635 C423.22128452 637.77576415 421.45121035 640.49407235 419.5625 643.1875 C419.09714844 643.85620117 418.63179687 644.52490234 418.15234375 645.21386719 C410.9027018 655.51885687 402.61913111 664.83894748 394 674 C393.34515625 674.70898438 392.6903125 675.41796875 392.015625 676.1484375 C386.47347863 681.95111212 380.19583116 686.79763625 373.81152344 691.62841797 C372.65425384 692.50463638 371.50083867 693.38598456 370.35253906 694.27392578 C344.07128559 714.5441271 312.15034388 726.45382739 279.8125 732.8125 C278.82942871 733.00739014 277.84635742 733.20228027 276.83349609 733.40307617 C259.77970721 736.5505503 242.68172108 737.381424 225.375 737.3125 C224.41743805 737.31067719 223.4598761 737.30885437 222.47329712 737.30697632 C207.14052318 737.25803159 192.13607296 736.65646055 177 734 C175.56019775 733.75056641 175.56019775 733.75056641 174.09130859 733.49609375 C139.87285814 727.3233985 107.13422541 713.93985562 80 692 C79.45424316 691.56107422 78.90848633 691.12214844 78.34619141 690.66992188 C29.47555699 651.06666896 8.75542729 591.56046851 1.38549805 530.81713867 C1.25828369 529.55748291 1.13106934 528.29782715 1 527 C0.91678436 526.18307232 0.83356873 525.36614463 0.7478314 524.52446157 C-0.19752101 513.99245253 -0.13640337 503.48924331 -0.12025452 492.92326355 C-0.1206911 490.79189631 -0.12156761 488.66052913 -0.12284368 486.52916223 C-0.12507149 480.69811794 -0.12109088 474.86709214 -0.11606562 469.0360502 C-0.11173664 462.73833301 -0.11320928 456.44061682 -0.1139679 450.14289856 C-0.11449158 439.24019784 -0.11139607 428.33750399 -0.10573006 417.43480492 C-0.09980532 406.00488443 -0.09596256 394.57496634 -0.09487724 383.14504433 C-0.0948085 382.4333557 -0.09473976 381.72166707 -0.09466894 380.98841212 C-0.09433059 377.3738455 -0.09402921 373.75927887 -0.09374207 370.14471225 C-0.09164378 344.56807151 -0.08491236 318.9914339 -0.07543945 293.41479492 C-0.06624948 268.57332374 -0.05916858 243.73185341 -0.05493164 218.89038086 C-0.05480011 218.12414596 -0.05466859 217.35791106 -0.05453308 216.56845692 C-0.05321451 208.87334443 -0.05193871 201.17823192 -0.05069422 193.48311941 C-0.04815826 177.80843312 -0.04533701 162.13374688 -0.04234314 146.45906067 C-0.04220585 145.73842413 -0.04206856 145.01778759 -0.04192711 144.27531359 C-0.03770551 122.19486913 -0.03227512 100.11442519 -0.02565002 78.03398132 C-0.02527947 76.79734416 -0.02490891 75.560707 -0.02452713 74.28659598 C-0.01703382 49.5243971 -0.00836478 24.7621986 0 0 Z "
        fill="#FFFFFF" transform="translate(4314,911)" />
    <path
        d="M0 0 C1.08442383 0.12890625 2.16884766 0.2578125 3.28613281 0.390625 C78.29596047 9.5057433 152.52545626 39.38789115 201.875 98.625 C203.26562143 100.40456919 204.64003217 102.19689658 206 104 C206.4031543 104.52142578 206.80630859 105.04285156 207.22167969 105.58007812 C244.30207854 153.59265758 260.72489376 210.38649076 267 270 C202.65 270 138.3 270 72 270 C70.02 261.42 68.04 252.84 66 244 C55.7631481 212.9538098 40.02284769 183.4656432 9.80126953 167.90673828 C-20.62384188 152.59108854 -57.54074045 151.86167539 -89.6875 162.1875 C-123.53767628 173.72488876 -148.21271915 199.4890397 -164 231 C-176.31877634 256.88509451 -182.88355864 284.70204222 -186.3125 313.0625 C-186.39381165 313.72880432 -186.47512329 314.39510864 -186.55889893 315.081604 C-188.93704056 334.92604522 -189.20510008 354.71662716 -189.1875 374.6875 C-189.18659363 376.5839325 -189.18659363 376.5839325 -189.18566895 378.51867676 C-189.10579439 440.07858384 -184.96761116 513.45089415 -139.63671875 560.3984375 C-138.76660156 561.25695313 -137.89648438 562.11546875 -137 563 C-136.20207031 563.79664063 -135.40414063 564.59328125 -134.58203125 565.4140625 C-110.09536474 588.66241472 -75.14482473 597.63186878 -42.078125 597.1484375 C-9.05241087 595.55582692 19.29910272 584.12370647 43 561 C43.63035156 560.43152344 44.26070312 559.86304688 44.91015625 559.27734375 C69.85349725 536.22096944 80.1416155 500.22111475 86 468 C147.05 468 208.1 468 271 468 C268.66012437 492.56869407 268.66012437 492.56869407 266.75 502.8125 C266.42358521 504.58185913 266.42358521 504.58185913 266.09057617 506.38696289 C256.74047471 555.7909222 237.68887804 604.25046213 205 643 C203.88044922 644.39412109 203.88044922 644.39412109 202.73828125 645.81640625 C191.38865247 659.80818219 178.43583211 673.18742826 164 684 C162.62883926 685.06111136 161.25775225 686.12231799 159.88671875 687.18359375 C110.72561406 724.77614912 51.04357866 743.18536775 -10 749 C-10.96744141 749.09571289 -11.93488281 749.19142578 -12.93164062 749.29003906 C-25.21852326 750.34223067 -37.55214198 750.24378288 -49.875 750.25 C-51.07663788 750.25067474 -52.27827576 750.25134949 -53.5163269 750.25204468 C-72.52844777 750.23511492 -91.1551787 749.66847922 -110 747 C-111.78639893 746.75056641 -111.78639893 746.75056641 -113.60888672 746.49609375 C-176.10538504 737.43498244 -239.47007187 713.93498983 -286 670 C-287.22531703 668.95380771 -288.45447636 667.91209828 -289.6875 666.875 C-300.04628905 657.82158681 -309.57480525 647.86626938 -318 637 C-319.07670866 635.66161975 -320.15495889 634.32447887 -321.234375 632.98828125 C-364.52166553 578.97652705 -385.44646639 511.68990637 -393.25 443.75 C-393.33317474 443.02827606 -393.41634949 442.30655212 -393.50204468 441.56295776 C-395.23650941 426.30982596 -396.15095958 411.14639341 -396.203125 395.79296875 C-396.21014986 394.38627594 -396.21723665 392.97958344 -396.22438049 391.57289124 C-396.24374375 387.11108936 -396.2488136 382.64933967 -396.25 378.1875 C-396.25044186 377.42733078 -396.25088371 376.66716156 -396.25133896 375.88395691 C-396.25827283 353.13381792 -396.05169928 330.58375522 -393 308 C-392.91278687 307.33830811 -392.82557373 306.67661621 -392.73571777 305.99487305 C-383.95170943 239.45413627 -361.84152627 174.20922409 -320 121 C-319.21882813 120.00484375 -318.43765625 119.0096875 -317.6328125 117.984375 C-303.70612155 100.63796279 -287.80353575 83.39647205 -270 70 C-268.7924374 69.06448755 -267.58544939 68.12823315 -266.37890625 67.19140625 C-191.56279749 9.59347991 -92.96941494 -11.57008613 0 0 Z "
        fill="#FFFFFF" transform="translate(1889,898)" />
    <path
        d="M0 0 C1.08442383 0.12890625 2.16884766 0.2578125 3.28613281 0.390625 C79.87992783 9.69822541 156.30365889 40.85257166 205 103 C205.77859375 103.96164062 206.5571875 104.92328125 207.359375 105.9140625 C239.73322842 146.63913288 256.65267791 196.650559 264.375 247.5625 C264.54281982 248.66174805 264.71063965 249.76099609 264.88354492 250.89355469 C265.03283447 251.9405957 265.18212402 252.98763672 265.3359375 254.06640625 C265.53002197 255.4268103 265.53002197 255.4268103 265.72802734 256.81469727 C266.10201598 261.19479582 266 265.60396419 266 270 C201.98 270 137.96 270 72 270 C70.02 261.75 68.04 253.5 66 245 C58.7994089 221.20674244 48.68754186 200.68754186 31 183 C30.33484375 182.33484375 29.6696875 181.6696875 28.984375 180.984375 C4.26946728 157.93097368 -28.89264322 154.89109169 -61 156 C-93.88707025 158.13494186 -123.00315909 175.69418885 -144.5 199.9453125 C-173.5209121 235.40523948 -184.58009117 283.23139613 -188 328 C-188.08757568 329.09046631 -188.17515137 330.18093262 -188.26538086 331.30444336 C-189.18463258 344.4257162 -189.18610857 357.54778118 -189.18530273 370.6965332 C-189.18747076 374.63439049 -189.20563377 378.57195829 -189.22460938 382.50976562 C-189.34509076 436.26692239 -185.40040376 498.73473003 -153 544 C-152.26265625 545.03253906 -151.5253125 546.06507813 -150.765625 547.12890625 C-132.05832485 572.66092069 -105.78720825 588.31369383 -74.8359375 594.41015625 C-40.11594206 599.74897429 -4.10564295 596.85784583 25.34375 575.984375 C26.2203125 575.32953125 27.096875 574.6746875 28 574 C28.8353125 573.38640625 29.670625 572.7728125 30.53125 572.140625 C64.12371278 546.41475161 77.95479071 508.22604647 86 468 C147.05 468 208.1 468 271 468 C267.48733115 499.61401962 267.48733115 499.61401962 265.25 510.6875 C264.99395996 511.9758374 264.73791992 513.2641748 264.47412109 514.59155273 C262.03295534 526.6168943 258.84179514 538.35035717 255 550 C254.69868164 550.91507324 254.39736328 551.83014648 254.08691406 552.77294922 C242.13213171 588.45386312 224.11605543 621.86216915 199 650 C198.278125 650.83144531 197.55625 651.66289063 196.8125 652.51953125 C187.07501032 663.59950572 176.66871734 673.96295083 165 683 C164.01902344 683.78632812 163.03804687 684.57265625 162.02734375 685.3828125 C113.21730935 724.21629042 51.44611259 743.35846844 -10 749 C-10.96164062 749.0942627 -11.92328125 749.18852539 -12.9140625 749.28564453 C-25.20732633 750.33962221 -37.54559802 750.24377958 -49.875 750.25 C-51.07663788 750.25067474 -52.27827576 750.25134949 -53.5163269 750.25204468 C-72.52844777 750.23511492 -91.1551787 749.66847922 -110 747 C-111.78639893 746.75056641 -111.78639893 746.75056641 -113.60888672 746.49609375 C-170.68013966 738.22156654 -226.46829225 718.06272428 -272 682 C-273.34191406 680.94619141 -273.34191406 680.94619141 -274.7109375 679.87109375 C-290.5299751 667.20226564 -305.50773846 652.97084225 -318 637 C-318.85645845 635.94400105 -319.71460529 634.88936977 -320.57421875 633.8359375 C-373.53691706 568.4557819 -395.97800825 480.20601837 -396.203125 397.234375 C-396.20595238 396.50850441 -396.20877975 395.78263382 -396.21169281 395.03476715 C-396.2265583 391.17535566 -396.23586107 387.31598016 -396.24023438 383.45654297 C-396.2445678 380.35453193 -396.25827581 377.25280709 -396.28125 374.15087891 C-396.48920112 345.43269156 -395.30959228 316.75890366 -390.1875 288.4375 C-389.92603576 286.93770349 -389.66481194 285.43786506 -389.40380859 283.93798828 C-375.10036007 202.90468025 -337.08571765 120.87164692 -270 70 C-268.50339844 68.81277344 -268.50339844 68.81277344 -266.9765625 67.6015625 C-253.7662858 57.15505199 -239.62359223 48.31952858 -225 40 C-224.40848145 39.65759277 -223.81696289 39.31518555 -223.20751953 38.96240234 C-194.07863274 22.17300958 -160.83023 11.57242183 -128 5 C-126.59355225 4.71068604 -126.59355225 4.71068604 -125.15869141 4.41552734 C-84.68522655 -3.78497861 -40.98468016 -5.10056216 0 0 Z "
        fill="#FFFFFF" transform="translate(1139,898)" />
    <path
        d="M0 0 C0 71.94 0 143.88 0 218 C45.54 218 91.08 218 138 218 C138 267.83 138 317.66 138 369 C92.46 369 46.92 369 0 369 C0.06146355 413.5023301 0.13357774 458.00458499 0.22898628 502.50685255 C0.24025356 507.76856553 0.25139216 513.03027877 0.26245117 518.29199219 C0.2657567 519.86316747 0.2657567 519.86316747 0.269129 521.46608368 C0.30443829 538.394864 0.32933831 555.32364428 0.35034702 572.25244769 C0.37215992 589.64120441 0.40526215 607.02991362 0.44870156 624.41862988 C0.47512398 635.1361846 0.49288852 645.8536802 0.49934604 656.57126585 C0.50462885 663.93479491 0.52094203 671.29824976 0.54566566 678.66173896 C0.55958223 682.90111057 0.56888878 687.14034965 0.56500816 691.37974548 C0.16258944 733.483945 0.16258944 733.483945 18.8828125 770.16796875 C34.03225059 785.05819592 55.19219871 788.23124608 75.49365234 788.18066406 C88.68917704 788.04845808 101.74515677 786.85845057 114.6875 784.25 C115.69901123 784.05132324 115.69901123 784.05132324 116.73095703 783.84863281 C125.40949535 781.94975972 133.50593996 778.83135335 142 776 C142 828.47 142 880.94 142 935 C109.53577491 943.11605627 109.53577491 943.11605627 98.0625 944.8125 C96.77384033 945.01133789 95.48518066 945.21017578 94.1574707 945.41503906 C83.46575035 947.02309727 72.78234808 948.22801624 62 949 C61.29858887 949.05639648 60.59717773 949.11279297 59.87451172 949.17089844 C-7.52556039 954.55525778 -85.97918571 947.05120227 -139.8125 902.29736328 C-142.5949542 899.92193296 -145.30815463 897.47720392 -148 895 C-148.74378906 894.32710937 -149.48757812 893.65421875 -150.25390625 892.9609375 C-182.73035257 862.12471574 -196.45796911 816.16271441 -201.75 773.0625 C-201.86585449 772.13687256 -201.98170898 771.21124512 -202.10107422 770.25756836 C-204.6616663 747.03101049 -204.1449741 723.45939296 -204.11606562 700.12410259 C-204.11167675 695.66371361 -204.11321342 691.20332572 -204.1139679 686.74293518 C-204.11448787 679.04678876 -204.11139664 671.35065094 -204.10573006 663.65450668 C-204.09754291 652.52768435 -204.09499251 641.40086609 -204.09374207 630.27404107 C-204.09156278 612.2139417 -204.08493339 594.1538469 -204.07543945 576.09375 C-204.06623611 558.56803408 -204.05916963 541.04231941 -204.05493164 523.51660156 C-204.05466892 522.43317899 -204.05440619 521.34975641 -204.05413551 520.23350285 C-204.05283031 514.79735334 -204.05156664 509.36120383 -204.05032361 503.92505431 C-204.03998602 458.95003215 -204.02156677 413.97501845 -204 369 C-231.72 369 -259.44 369 -288 369 C-288 319.17 -288 269.34 -288 218 C-260.28 218 -232.56 218 -204 218 C-204 173.45 -204 128.9 -204 83 C-179.88483854 72.6649308 -179.88483854 72.6649308 -171.03515625 69.08203125 C-170.01370514 68.66651505 -168.99225403 68.25099884 -167.93984985 67.82289124 C-164.64812715 66.48429661 -161.35531656 65.14840126 -158.0625 63.8125 C-155.70084211 62.85258693 -153.33927181 61.89245835 -150.9777832 60.93212891 C-146.08676558 58.94333583 -141.19537899 56.95545443 -136.30371094 54.96826172 C-125.88234759 50.73394495 -115.46520844 46.48926459 -105.04815674 42.24435425 C-101.6889572 40.87559376 -98.32960323 39.50721292 -94.97021484 38.13891602 C-83.84241067 33.60608155 -72.71644578 29.06879369 -61.59375 24.5234375 C-24.27414759 9.27319024 -24.27414759 9.27319024 -10.5 3.75 C-9.50315186 3.34942383 -8.50630371 2.94884766 -7.47924805 2.53613281 C-6.60953369 2.18905273 -5.73981934 1.84197266 -4.84375 1.484375 C-4.11349609 1.19272461 -3.38324219 0.90107422 -2.63085938 0.60058594 C-1 0 -1 0 0 0 Z "
        fill="#FFFFFF" transform="translate(4054,693)" />
    <path
        d="M0 0 C6.7490618 1.12484363 6.7490618 1.12484363 9.92675781 2.44848633 C10.64798828 2.74509155 11.36921875 3.04169678 12.11230469 3.34729004 C13.27101074 3.83473694 13.27101074 3.83473694 14.453125 4.33203125 C15.69835938 4.84642761 15.69835938 4.84642761 16.96875 5.37121582 C18.77602506 6.11828825 20.58217661 6.86808306 22.3873291 7.62026978 C27.37737594 9.69849842 32.37671002 11.75419472 37.375 13.8125 C38.42101379 14.24379715 39.46702759 14.6750943 40.54473877 15.11946106 C51.41523758 19.59576653 62.32938951 23.96021972 73.25 28.3125 C77.47167044 29.99660403 81.69296987 31.68163577 85.9140625 33.3671875 C87.01827545 33.80811737 88.1224884 34.24904724 89.26016235 34.70333862 C104.39411599 40.75067784 119.50883306 46.84587359 134.625 52.9375 C136.16350143 53.55744817 137.70200445 54.17739241 139.24050903 54.79733276 C146.26522273 57.62799608 153.28980288 60.45899059 160.31426334 63.29028225 C174.62073098 69.05664459 188.92855404 74.81964077 203.23651123 80.58230591 C206.9570018 82.08077106 210.67746452 83.57930533 214.3979187 85.07786083 C238.71830688 94.87380346 263.04018332 104.66604752 287.36239624 114.4574585 C311.31731856 124.10102993 335.27111796 133.7473852 359.22406006 143.39587402 C382.50464015 152.77351064 405.78631544 162.14842317 429.06882095 171.52127838 C448.82367468 179.47400504 468.57845398 187.42691569 488.33203125 195.3828125 C489.07961323 195.68390364 489.82719521 195.98499477 490.59743118 196.29520988 C498.76664244 199.58541157 506.93569804 202.87599918 515.10449219 206.16723633 C518.03970102 207.34980322 520.97492372 208.53233569 523.91015625 209.71484375 C524.63669781 210.00754717 525.36323936 210.30025059 526.11179733 210.60182381 C536.48033263 214.77882424 546.85064859 218.95137986 557.22209167 223.12115479 C563.12452078 225.49420599 569.02651558 227.86833648 574.92841434 230.2427063 C579.75294668 232.18352608 584.57806038 234.12289122 589.40361118 236.06117725 C592.37067574 237.25336704 595.33718045 238.4469448 598.30352974 239.64091301 C599.6800125 240.19461749 601.05673047 240.74773763 602.43369865 241.30023384 C604.31612074 242.05562491 606.19763477 242.81327763 608.07910156 243.57104492 C609.65863617 244.205951 609.65863617 244.205951 611.27008057 244.85368347 C613.55331251 245.8124321 615.78507842 246.89253921 618 248 C618 299.15 618 350.3 618 403 C613.29910906 405.35044547 608.89302466 407.54287919 604.06689453 409.47924805 C602.9602092 409.92522842 601.85352386 410.3712088 600.71330261 410.83070374 C599.53174088 411.30293869 598.35017914 411.77517365 597.1328125 412.26171875 C595.86892144 412.76970965 594.60515588 413.2780129 593.34150696 413.78660583 C590.66169429 414.8644755 587.98107672 415.94030732 585.29977417 417.01446533 C581.08399558 418.70338832 576.8700764 420.39691482 572.65649414 422.09130859 C568.41500877 423.7967132 564.17344072 425.5019091 559.93122864 427.20550537 C548.42551199 431.82609709 536.92881993 436.46871505 525.4375 441.125 C523.75538136 441.80625906 522.07325253 442.48749298 520.39111328 443.16870117 C515.59376276 445.11169602 510.79679971 447.05564578 506 449 C505.2281134 449.31287964 504.45622681 449.62575928 503.66094971 449.94812012 C496.75897757 452.74589963 489.85719243 455.54414025 482.95556641 458.34277344 C471.40961452 463.02447559 459.86152114 467.70087472 448.3125 472.375 C447.00232407 472.90525787 447.00232407 472.90525787 445.66567993 473.44622803 C438.5515678 476.32542004 431.43734596 479.20434092 424.32312012 482.08325195 C418.11119584 484.5970422 411.89931432 487.11093806 405.6875 489.625 C404.81364655 489.97866638 403.93979309 490.33233276 403.03945923 490.69671631 C390.85795718 495.62699904 378.67820788 500.56158642 366.5 505.5 C348.11356155 512.9559277 329.72235098 520.40004466 311.33056641 527.84277344 C306.04710875 529.98089308 300.76376921 532.11930446 295.48046875 534.2578125 C294.61522583 534.60803467 293.74998291 534.95825684 292.85852051 535.3190918 C290.23901165 536.37938953 287.61950532 537.43969351 285 538.5 C275.33233453 542.41321536 265.66466433 546.32641888 255.99667358 550.23883057 C238.49581219 557.32103273 220.99577738 564.40524636 203.5 571.5 C190.43935465 576.79625287 177.37674506 582.08763258 164.3125 587.375 C163.43904938 587.72850525 162.56559875 588.0820105 161.66567993 588.44622803 C154.5515678 591.32542004 147.43734596 594.20434092 140.32312012 597.08325195 C134.11119584 599.5970422 127.89931432 602.11093806 121.6875 604.625 C120.81364655 604.97866638 119.93979309 605.33233276 119.03945923 605.69671631 C107.61202456 610.32180143 96.18597822 614.95029487 84.76159668 619.58291626 C71.39585344 625.00276229 58.02946841 630.42102353 44.66113281 635.83447266 C42.88714582 636.55290877 41.11321707 637.27148872 39.33935547 637.99023438 C34.40762265 639.98842826 29.47446602 641.9830406 24.53973389 643.97381592 C21.8183697 645.07338805 19.09894769 646.17769535 16.37939453 647.28173828 C14.54597441 648.02264897 12.71248045 648.76337695 10.87890625 649.50390625 C10.0186937 649.85436508 9.15848114 650.20482391 8.27220154 650.56590271 C7.08280724 651.04483727 7.08280724 651.04483727 5.86938477 651.53344727 C5.1688649 651.81728775 4.46834503 652.10112823 3.74659729 652.39356995 C2 653 2 653 0 653 C0 589.31 0 525.62 0 460 C63.29166667 436.265625 63.29166667 436.265625 81.37841797 429.64331055 C102.4506114 421.92540957 123.47714747 414.09042212 144.48168945 406.19052124 C162.29502175 399.49271954 180.13692185 392.87642411 198 386.3125 C216.57210427 379.48803202 235.12052549 372.60533462 253.64004517 365.63943481 C268.3036065 360.12430638 282.98742696 354.6670326 297.6875 349.25 C317.50217738 341.94801161 337.26514354 334.51485699 357 327 C318.87153913 311.89096808 280.68120464 296.94268768 242.47216797 282.03881836 C229.64461064 277.0348146 216.82166662 272.01907587 204 267 C189.39865596 261.28442108 174.79521475 255.57427856 160.1875 249.875 C159.34907562 249.54788025 158.51065125 249.2207605 157.64682007 248.88372803 C151.76466923 246.5888379 145.88235482 244.29436721 140 242 C133.27071807 239.37529539 126.54151351 236.75039268 119.8125 234.125 C118.97447845 233.79804138 118.13645691 233.47108276 117.27304077 233.13421631 C101.58715366 227.01378356 85.90680207 220.87924093 70.22827148 214.73999023 C60.62144533 210.97877792 51.01239197 207.22342681 41.3984375 203.48046875 C39.5247379 202.75065535 37.65103996 202.02083772 35.77734375 201.29101562 C32.28315469 199.93008482 28.78827016 198.57096157 25.29296875 197.21289062 C23.70309919 196.59381627 22.11325412 195.97467905 20.5234375 195.35546875 C19.83470551 195.08848679 19.14597351 194.82150482 18.43637085 194.5464325 C12.24362404 192.1314011 6.14181747 189.55909061 0 187 C0 125.29 0 63.58 0 0 Z "
        fill="#FFFFFF" transform="translate(3642,0)" />
    <path
        d="M0 0 C0 66 0 132 0 200 C-21.285 200.99 -21.285 200.99 -43 202 C-93.86517066 206.46185708 -148.85342509 217.73199651 -184 258 C-212.46764579 292.26547452 -215.4680696 335.94780638 -215.43273985 378.5567323 C-215.43210841 383.31372719 -215.4488061 388.07066807 -215.46325684 392.82763672 C-215.48590747 401.04276383 -215.49790436 409.25784893 -215.50238609 417.47300529 C-215.50888153 429.3503087 -215.53187797 441.22753659 -215.55872939 453.10480935 C-215.60186779 472.38114152 -215.6319082 491.65747048 -215.65356445 510.93383789 C-215.67461313 529.64414038 -215.70195574 548.35441657 -215.73754883 567.06469727 C-215.73976234 568.232342 -215.74197585 569.39998674 -215.74425644 570.60301465 C-215.76161969 579.73658187 -215.77934459 588.87014838 -215.79718363 598.00371468 C-215.88432865 642.66912675 -215.93996854 687.33452735 -216 732 C-282.66 732 -349.32 732 -418 732 C-418 493.74 -418 255.48 -418 10 C-351.34 10 -284.68 10 -216 10 C-215.67 51.58 -215.34 93.16 -215 136 C-210.71 127.75 -206.42 119.5 -202 111 C-198.75762856 105.57000445 -195.53162608 100.23118513 -192 95 C-191.59716797 94.401875 -191.19433594 93.80375 -190.77929688 93.1875 C-171.35803681 64.62501294 -146.54393469 41.18678782 -116 25 C-115.30471191 24.63036133 -114.60942383 24.26072266 -113.89306641 23.87988281 C-79.05428499 5.6936534 -38.87496069 0 0 0 Z "
        fill="#FFFFFF" transform="translate(5514,901)" />
</svg>