<?xml version="1.0" encoding="UTF-8"?>
<svg version="1.1" xmlns="http://www.w3.org/2000/svg" width="3840" height="2000">
    <path
        d="M0 0 C56.43 0 112.86 0 171 0 C180.97557252 11.08396947 180.97557252 11.08396947 184.4375 15.4375 C188.29825137 20.211403 192.37437075 24.73388428 196.53125 29.25 C199.72881296 32.81184229 202.71388343 36.52565833 205.71875 40.25 C208.06718968 43.08099578 210.50909902 45.79383598 213 48.5 C217.09351091 52.94727112 220.92442499 57.54717463 224.71875 62.25 C227.06718968 65.08099578 229.50909902 67.79383598 232 70.5 C236.09351091 74.94727112 239.92442499 79.54717463 243.71875 84.25 C246.06718968 87.08099578 248.50909902 89.79383598 251 92.5 C255.09351091 96.94727112 258.92442499 101.54717463 262.71875 106.25 C265.06718968 109.08099578 267.50909902 111.79383598 270 114.5 C274.09351091 118.94727112 277.92442499 123.54717463 281.71875 128.25 C284.06718968 131.08099578 286.50909902 133.79383598 289 136.5 C293.09351091 140.94727112 296.92442499 145.54717463 300.71875 150.25 C303.06718968 153.08099578 305.50909902 155.79383598 308 158.5 C312.09351091 162.94727112 315.92442499 167.54717463 319.71875 172.25 C322.06718968 175.08099578 324.50909902 177.79383598 327 180.5 C331.09351091 184.94727112 334.92442499 189.54717463 338.71875 194.25 C341.06718968 197.08099578 343.50909902 199.79383598 346 202.5 C350.09351091 206.94727112 353.92442499 211.54717463 357.71875 216.25 C360.06718968 219.08099578 362.50909902 221.79383598 365 224.5 C369.09351091 228.94727112 372.92442499 233.54717463 376.71875 238.25 C379.06718968 241.08099578 381.50909902 243.79383598 384 246.5 C388.09351091 250.94727112 391.92442499 255.54717463 395.71875 260.25 C398.06718968 263.08099578 400.50909902 265.79383598 403 268.5 C407.89661131 273.82306579 412.46149131 279.3715345 417 285 C418.65839866 287.00712736 420.32789773 289.00426503 422 291 C430.43195056 282.66037006 438.36348294 273.92815302 445.7890625 264.6796875 C448.1093495 261.86746685 450.53071134 259.18202737 453 256.5 C456.29331699 252.92207537 459.44651321 249.28460334 462.5 245.5 C466.33719031 240.74404581 470.39385101 236.24495199 474.53125 231.75 C476.94378104 229.06262366 479.2325621 226.31034556 481.5 223.5 C485.33719031 218.74404581 489.39385101 214.24495199 493.53125 209.75 C495.94378104 207.06262366 498.2325621 204.31034556 500.5 201.5 C504.33719031 196.74404581 508.39385101 192.24495199 512.53125 187.75 C514.94378104 185.06262366 517.2325621 182.31034556 519.5 179.5 C523.33719031 174.74404581 527.39385101 170.24495199 531.53125 165.75 C533.94378104 163.06262366 536.2325621 160.31034556 538.5 157.5 C542.33719031 152.74404581 546.39385101 148.24495199 550.53125 143.75 C552.94378104 141.06262366 555.2325621 138.31034556 557.5 135.5 C561.33719031 130.74404581 565.39385101 126.24495199 569.53125 121.75 C571.94378104 119.06262366 574.2325621 116.31034556 576.5 113.5 C580.33719031 108.74404581 584.39385101 104.24495199 588.53125 99.75 C590.94378104 97.06262366 593.2325621 94.31034556 595.5 91.5 C599.33719031 86.74404581 603.39385101 82.24495199 607.53125 77.75 C609.94378104 75.06262366 612.2325621 72.31034556 614.5 69.5 C618.33719031 64.74404581 622.39385101 60.24495199 626.53125 55.75 C628.94378104 53.06262366 631.2325621 50.31034556 633.5 47.5 C637.33719031 42.74404581 641.39385101 38.24495199 645.53125 33.75 C647.94378104 31.06262366 650.2325621 28.31034556 652.5 25.5 C656.37595154 20.69957238 660.45315823 16.1303997 664.62890625 11.58984375 C667.3764995 8.58876579 670.05678622 5.53452883 672.72265625 2.4609375 C673.45832299 1.61953273 674.20969387 0.79030613 675 0 C731.1 0 787.2 0 845 0 C845 260.04 845 520.08 845 788 C780.32 788 715.64 788 649 788 C648.67 626.63 648.34 465.26 648 299 C642.27273872 305.29998741 636.78862572 311.41181094 631.46875 317.99609375 C626.97577164 323.4630247 622.29253937 328.76675791 617.64648438 334.10351562 C615.06362591 337.07855189 612.49943086 340.0694406 609.9375 343.0625 C609.44660889 343.63589111 608.95571777 344.20928223 608.44995117 344.80004883 C607.46114797 345.95530518 606.47245951 347.11065976 605.48388672 348.26611328 C602.99104476 351.17894046 600.49537234 354.08934061 598 357 C596.9999866 358.16665518 595.99998659 359.33332184 595 360.5 C469 507.5 469 507.5 467.49926758 509.25073242 C466.50154805 510.41481977 465.50398886 511.57904456 464.5065918 512.7434082 C461.97301257 515.70069887 459.43649863 518.65538369 456.89453125 521.60546875 C456.38398193 522.19948486 455.87343262 522.79350098 455.34741211 523.40551758 C454.33219059 524.58415634 453.31351981 525.75983372 452.29125977 526.93237305 C449.94364568 529.64240415 447.70022809 532.35802063 445.6328125 535.2890625 C440.44405129 542.43515001 440.44405129 542.43515001 436.703125 543.8984375 C433.75001692 544.23776979 430.9726769 544.12484568 428 544 C426.34205779 544.05582412 424.68448425 544.12323158 423.02734375 544.19921875 C421.22664088 544.26017366 419.42585594 544.31874858 417.625 544.375 C416.75641357 544.41391357 415.88782715 544.45282715 414.99291992 544.49291992 C410.44933821 544.54802303 408.60881693 544.47079798 404.8984375 541.6015625 C403 539 403 539 403 537 C402.34 537 401.68 537 401 537 C399.41466298 535.28667246 397.90458785 533.50310953 396.4375 531.6875 C395.63183594 530.70136719 394.82617188 529.71523437 393.99609375 528.69921875 C392 526 392 526 391 523 C390.34 523 389.68 523 389 523 C387.41466298 521.28667246 385.90458785 519.50310953 384.4375 517.6875 C383.63183594 516.70136719 382.82617188 515.71523437 381.99609375 514.69921875 C380 512 380 512 379 509 C378.34 509 377.68 509 377 509 C375.41466298 507.28667246 373.90458785 505.50310953 372.4375 503.6875 C371.63183594 502.70136719 370.82617188 501.71523437 369.99609375 500.69921875 C368 498 368 498 367 495 C366.34 495 365.68 495 365 495 C363.41466298 493.28667246 361.90458785 491.50310953 360.4375 489.6875 C359.63183594 488.70136719 358.82617188 487.71523437 357.99609375 486.69921875 C356 484 356 484 355 481 C354.34 481 353.68 481 353 481 C351.41466298 479.28667246 349.90458785 477.50310953 348.4375 475.6875 C347.63183594 474.70136719 346.82617188 473.71523437 345.99609375 472.69921875 C344 470 344 470 343 467 C342.34 467 341.68 467 341 467 C339.41466298 465.28667246 337.90458785 463.50310953 336.4375 461.6875 C335.63183594 460.70136719 334.82617188 459.71523437 333.99609375 458.69921875 C332 456 332 456 331 453 C330.34 453 329.68 453 329 453 C327.41466298 451.28667246 325.90458785 449.50310953 324.4375 447.6875 C323.63183594 446.70136719 322.82617188 445.71523437 321.99609375 444.69921875 C320 442 320 442 319 439 C318.34 439 317.68 439 317 439 C315.41466298 437.28667246 313.90458785 435.50310953 312.4375 433.6875 C311.63183594 432.70136719 310.82617188 431.71523437 309.99609375 430.69921875 C308 428 308 428 307 425 C306.34 425 305.68 425 305 425 C303.41466298 423.28667246 301.90458785 421.50310953 300.4375 419.6875 C299.63183594 418.70136719 298.82617188 417.71523437 297.99609375 416.69921875 C296 414 296 414 295 411 C294.34 411 293.68 411 293 411 C289 406.52941176 289 406.52941176 289 404 C288.34 404 287.68 404 287 404 C285.77248618 402.30802149 284.55061861 400.61125177 283.375 398.8828125 C281.88380039 396.73941089 281.88380039 396.73941089 279.1875 394.1875 C278.465625 393.465625 277.74375 392.74375 277 392 C277 391.34 277 390.68 277 390 C276.34 390 275.68 390 275 390 C271 385.52941176 271 385.52941176 271 383 C270.01 382.67 269.02 382.34 268 382 C265 378.55555556 265 378.55555556 265 376 C264.34 376 263.68 376 263 376 C259 371.52941176 259 371.52941176 259 369 C258.01 368.67 257.02 368.34 256 368 C253 364.55555556 253 364.55555556 253 362 C252.34 362 251.68 362 251 362 C249.41466298 360.28667246 247.90458785 358.50310953 246.4375 356.6875 C245.63183594 355.70136719 244.82617188 354.71523437 243.99609375 353.69921875 C242 351 242 351 241 348 C240.34 348 239.68 348 239 348 C237.41466298 346.28667246 235.90458785 344.50310953 234.4375 342.6875 C233.63183594 341.70136719 232.82617188 340.71523437 231.99609375 339.69921875 C230 337 230 337 229 334 C228.34 334 227.68 334 227 334 C225.41466298 332.28667246 223.90458785 330.50310953 222.4375 328.6875 C221.63183594 327.70136719 220.82617188 326.71523438 219.99609375 325.69921875 C218 323 218 323 217 320 C216.34 320 215.68 320 215 320 C213.58561594 318.42713316 212.24395599 316.78860004 210.9375 315.125 C206.49919926 309.49084607 201.84298943 304.38109936 197 299 C196.505 541.055 196.505 541.055 196 788 C131.32 788 66.64 788 0 788 C0 527.96 0 267.92 0 0 Z "
        fill="#FFFFFF" transform="translate(1001,686)" />
    <path
        d="M0 0 C516.94479385 0 516.94479385 0 628 80 C628.9892749 80.7110791 628.9892749 80.7110791 629.99853516 81.43652344 C640.13763594 88.77077513 649.68475715 96.64967223 659 105 C659.53608887 105.47824219 660.07217773 105.95648437 660.62451172 106.44921875 C733.21771492 171.3806902 772.07162898 263.96871961 780.80810547 371.74609375 C781.18544144 379.36797084 781.19769405 386.99541512 781.1875 394.625 C781.18659363 395.89257645 781.18659363 395.89257645 781.18566895 397.1857605 C781.06302892 460.97128446 769.27032139 524.51068872 741 582 C740.55543457 582.90830566 740.11086914 583.81661133 739.65283203 584.75244141 C730.05692795 604.17213914 718.29434282 621.9300439 705 639 C703.92298828 640.39798828 703.92298828 640.39798828 702.82421875 641.82421875 C698.47141021 647.38081001 693.80869006 652.58577435 689.00390625 657.75 C686.97671183 659.82915215 686.97671183 659.82915215 686 662 C685.34 662 684.68 662 684 662 C683.79375 662.53625 683.5875 663.0725 683.375 663.625 C681.46749574 666.91978009 678.95180616 669.59363628 676 672 C675.34 672 674.68 672 674 672 C674 672.66 674 673.32 674 674 C672.6015625 675.41015625 672.6015625 675.41015625 670.625 677.0625 C667.45515833 679.74937105 664.36589155 682.49398472 661.3125 685.3125 C655.47567341 690.57009953 649.30220396 695.32329245 643 700 C642.45891602 700.40331543 641.91783203 700.80663086 641.36035156 701.22216797 C625.74503773 712.80064783 609.15832334 722.8877504 592 732 C591.20916016 732.42603516 590.41832031 732.85207031 589.60351562 733.29101562 C420.99195734 823.5470044 159.63858413 788 0 788 C0 527.96 0 267.92 0 0 Z M196 145 C196 309.34 196 473.68 196 643 C286.66497845 645.90442229 286.66497845 645.90442229 380.75 639.3125 C381.80815918 639.14516357 382.86631836 638.97782715 383.95654297 638.80541992 C428.76009365 631.33816147 471.34333481 614.07052701 504.87890625 582.91015625 C507 581 507 581 509.27734375 579.37109375 C509.84582031 578.91863281 510.41429688 578.46617187 511 578 C511 577.34 511 576.68 511 576 C511.66 576 512.32 576 513 576 C514.43700222 574.657446 514.43700222 574.657446 515.9375 572.8125 C516.55882813 572.07773438 517.18015625 571.34296875 517.8203125 570.5859375 C518.53960938 569.73257812 519.25890625 568.87921875 520 568 C520.84304688 567.04351563 521.68609375 566.08703125 522.5546875 565.1015625 C568.04593059 513.21655827 582.37658939 440.01865269 578.484375 372.81713867 C574.57658265 313.34135326 555.64772969 256.660913 514 213 C513.31164063 212.27039063 512.62328125 211.54078125 511.9140625 210.7890625 C462.76317938 160.03325258 390.36765804 147.40598779 323 145 C281.09 145 239.18 145 196 145 Z "
        fill="#FFFFFF" transform="translate(1995,686)" />
    <path
        d="M0 0 C74.91 0 149.82 0 227 0 C231.70801861 9.41603723 236.29905681 18.66207773 240.44100952 28.30508423 C241.92021585 31.74700523 243.41627916 35.18161487 244.91015625 38.6171875 C245.3937133 39.73052208 245.3937133 39.73052208 245.88703918 40.86634827 C250.09510204 50.54106226 254.39541129 60.17485668 258.6875 69.8125 C260.4105634 73.68341264 262.13317016 77.55452826 263.85546875 81.42578125 C264.2845755 82.39027695 264.71368225 83.35477264 265.15579224 84.34849548 C269.6218345 94.39106477 274.0621218 104.44496104 278.5 114.5 C284.97815277 129.17642651 291.47957462 143.84230607 298 158.5 C304.91539511 174.04557243 311.80649162 189.60164132 318.67724609 205.16699219 C324.76365733 218.95411353 330.87454416 232.73018411 337 246.5 C343.91539511 262.04557243 350.80649162 277.60164132 357.67724609 293.16699219 C363.76365733 306.95411353 369.87454416 320.73018411 376 334.5 C382.91508983 350.04488616 389.80636429 365.60005885 396.67623901 381.16497803 C403.19925619 395.94286169 409.75679285 410.70516935 416.32562256 425.46273804 C422.67768535 439.73649184 428.97108843 454.03502669 435.23449707 468.34786987 C441.21941613 482.01766141 447.31753743 495.63381564 453.46246338 509.23233032 C458.76180207 520.96390419 463.94779419 532.73474792 469.03076172 544.56176758 C473.55388272 555.05064416 478.23505936 565.46546297 482.9375 575.875 C488.31671097 587.78411141 493.65952575 599.70570739 498.875 611.6875 C504.41947753 624.42261215 510.03934476 637.12303164 515.6875 649.8125 C522.31297323 664.69899131 528.92075955 679.59301546 535.5 694.5 C541.71376635 708.57811766 547.94821458 722.64685526 554.20227051 736.7071228 C556.69280578 742.3069617 559.18145592 747.90763867 561.67010498 753.50831604 C563.42647397 757.46075106 565.18347795 761.41289707 566.94335938 765.36376953 C568.54956868 768.96991167 570.15029211 772.57846857 571.75 776.1875 C572.19794922 777.19055176 572.64589844 778.19360352 573.10742188 779.22705078 C573.49994141 780.11505371 573.89246094 781.00305664 574.296875 781.91796875 C574.63041992 782.66844482 574.96396484 783.4189209 575.30761719 784.19213867 C576 786 576 786 576 788 C506.37 788 436.74 788 365 788 C360.50017071 779.00034141 360.50017071 779.00034141 359.10327148 775.59912109 C358.78375015 774.82541672 358.46422882 774.05171234 358.13502502 773.25456238 C357.63312904 772.02640556 357.63312904 772.02640556 357.12109375 770.7734375 C356.57478554 769.44721123 356.57478554 769.44721123 356.0174408 768.0941925 C354.82137725 765.18891766 353.62947789 762.2819532 352.4375 759.375 C351.59162953 757.31863423 350.74543232 755.26240284 349.89892578 753.20629883 C348.13982965 748.93281822 346.38214012 744.65876325 344.62548828 740.38427734 C340.94554691 731.43244982 337.25033237 722.48693735 333.55429077 713.54174805 C332.37551775 710.68875312 331.19712526 707.83560127 330.01879883 704.98242188 C324.56399295 691.77588573 319.09821121 678.57391847 313.625 665.375 C313.27169617 664.5229599 312.91839233 663.6709198 312.55438232 662.7930603 C311.87348716 661.15115943 311.19245131 659.50931689 310.51126099 657.86753845 C309.87429188 656.3317205 309.23793685 654.79564769 308.6022644 653.2592926 C307.22451537 649.93242417 305.83821786 646.61031368 304.41699219 643.30175781 C303.95711914 642.22506836 303.49724609 641.14837891 303.0234375 640.0390625 C302.62817871 639.12592285 302.23291992 638.2127832 301.82568359 637.27197266 C301 635 301 635 301 632 C185.17 632 69.34 632 -50 632 C-50.99 635.3 -51.98 638.6 -53 642 C-53.74543337 644.13406426 -54.51444969 646.26014719 -55.31469727 648.37426758 C-55.75202179 649.53470581 -56.18934631 650.69514404 -56.6399231 651.89074707 C-57.11536335 653.14202903 -57.59085957 654.39328973 -58.06640625 655.64453125 C-58.5745935 656.9893466 -59.08246831 658.33428005 -59.59005737 659.67932129 C-60.67663942 662.55670471 -61.76531021 665.43328533 -62.85568237 668.30923462 C-64.58229771 672.86335915 -66.30433923 677.41920437 -68.02563477 681.9753418 C-70.13352927 687.55393831 -72.24249274 693.13212834 -74.35277843 698.70982075 C-80.15656726 714.05062714 -85.93765119 729.39997975 -91.71871948 744.74935913 C-93.41490819 749.25277885 -95.11178633 753.75593858 -96.80883789 758.2590332 C-97.34254027 759.67525198 -97.87624186 761.09147105 -98.40994263 762.50769043 C-99.15968758 764.49719476 -99.90944127 766.4866958 -100.65923691 768.47618103 C-101.33465436 770.26835832 -102.00998034 772.06057009 -102.68530273 773.8527832 C-103.06210678 774.85267776 -103.43891083 775.85257233 -103.82713318 776.88276672 C-105.22101503 780.58741146 -106.61018532 784.29382753 -108 788 C-176.64 788 -245.28 788 -316 788 C-315.15081568 783.75407842 -314.08262759 780.41439992 -312.47485352 776.43530273 C-312.21522512 775.78915827 -311.95559673 775.1430138 -311.68810081 774.4772892 C-310.81824655 772.31523687 -309.94227929 770.15571406 -309.06640625 767.99609375 C-308.43801807 766.4373805 -307.81006407 764.87849216 -307.18251038 763.31944275 C-305.83095994 759.96345165 -304.47701975 756.60843827 -303.12139893 753.25408936 C-301.00366601 748.0121214 -298.89501577 742.76653339 -296.78857422 737.52001953 C-293.78928799 730.05053901 -290.78822987 722.58177604 -287.78466797 715.11401367 C-287.39274639 714.13956708 -287.00082481 713.16512049 -286.59702682 712.16114521 C-285.78999113 710.15461599 -284.98294731 708.14809004 -284.17589569 706.14156723 C-282.04557679 700.84487963 -279.91563549 695.54804019 -277.78564453 690.2512207 C-273.81511297 680.3775429 -269.84425755 670.50399538 -265.87324905 660.63050938 C-261.80890746 650.52494246 -257.74484951 640.41926149 -253.68082237 630.31356812 C-243.73915898 605.59249284 -233.79667974 580.8717457 -223.85415649 556.15101624 C-218.11104046 541.87153651 -212.36797365 527.59203699 -206.625 513.3125 C-206.2450161 512.3676965 -205.8650322 511.42289299 -205.47353363 510.44945908 C-192.32764499 477.76306828 -179.18456649 445.07554816 -166.0425415 412.38760376 C-153.81511247 381.97456072 -141.58543323 351.56242346 -129.35412598 321.15093994 C-117.47690191 291.61980166 -105.60177944 262.08781916 -93.72831726 232.55516815 C-79.05828335 196.06669581 -64.38753099 159.57851246 -49.71191406 123.09228516 C-49.33855801 122.16405127 -48.96520195 121.23581738 -48.58053207 120.27945518 C-45.4341146 112.45687022 -45.4341146 112.45687022 -44.05956268 109.03953171 C-39.28247803 97.16290717 -34.50657047 85.28581022 -29.73202896 73.40816307 C-26.42461781 65.18031806 -23.11668304 56.9526837 -19.80837631 48.72519875 C-17.84320046 43.83787237 -15.87833009 38.95042366 -13.91418457 34.06268311 C-12.09737956 29.54159965 -10.27981066 25.0208241 -8.4616394 20.50028992 C-7.79473578 18.84174882 -7.12812523 17.18308985 -6.46182251 15.52430725 C-5.55507176 13.26703328 -4.64729778 11.01017356 -3.73925781 8.75341797 C-3.34078833 7.76038445 -3.34078833 7.76038445 -2.93426895 6.74728966 C-2.01417695 4.46289636 -1.10188931 2.20377862 0 0 Z M116 190 C115.744534 190.68615891 115.48906799 191.37231781 115.2258606 192.07926941 C102.89364253 225.19877857 90.5325796 258.30711806 78.0625 291.375 C77.79687382 292.07939964 77.53124763 292.78379929 77.25757217 293.50954437 C74.55036424 300.68832972 71.84220575 307.86675623 69.13345623 315.04496002 C63.46879383 330.05641071 57.81021728 345.0701547 52.1522789 360.08414078 C51.31428029 362.30777598 50.4761983 364.53137974 49.63809204 366.75497437 C43.213374 383.80078921 36.79902069 400.8503613 30.41784668 417.91253662 C26.37887169 428.70881013 22.30052058 439.48992554 18.20703125 450.265625 C17.69552539 451.61241122 17.18402026 452.95919772 16.67251587 454.3059845 C14.38155253 460.33727045 12.08937737 466.36808836 9.79302692 472.39732552 C8.62257823 475.47147436 7.45408767 478.54636771 6.28515625 481.62109375 C5.85161331 482.75746277 5.41807037 483.89383179 4.97138977 485.06463623 C4.57872421 486.09832336 4.18605865 487.1320105 3.78149414 488.19702148 C3.26311729 489.55826393 3.26311729 489.55826393 2.73426819 490.94700623 C1.94387234 492.79353946 1.94387234 492.79353946 2 494 C81.2 494 160.4 494 242 494 C241.06631319 489.33156594 239.61636057 485.33182808 237.78125 480.984375 C237.28709595 479.79808502 237.28709595 479.79808502 236.78295898 478.58782959 C235.69284436 475.97344187 234.5963712 473.36176938 233.5 470.75 C232.7293317 468.90449975 231.9591575 467.0587931 231.18945312 465.21289062 C229.5891567 461.37614893 227.98673198 457.54030657 226.3828125 453.70507812 C223.0869653 445.81973034 219.81693051 437.92371298 216.54693604 430.02761841 C214.77987762 425.76140802 213.0109627 421.49596757 211.2421875 417.23046875 C210.89106903 416.38363022 210.53995056 415.53679169 210.17819214 414.66429138 C208.07403936 409.58953973 205.96919739 404.51507451 203.86383057 399.44082642 C195.65696578 379.66097184 187.46649912 359.87444817 179.29455566 340.08013916 C173.66510089 326.44493861 168.02662513 312.8135266 162.375 299.1875 C162.02725525 298.34907562 161.6795105 297.51065125 161.32122803 296.64682007 C158.88128184 290.76435453 156.44071722 284.88214566 154 279 C151.5578171 273.11432203 149.11599245 267.22849576 146.6746521 261.34246826 C145.63299521 258.83177079 144.59058855 256.32138561 143.5480957 253.81103516 C140.05197329 245.38816294 136.5695224 236.95994257 133.11157227 228.52131653 C131.35820894 224.24288141 129.60142856 219.96585234 127.84466553 215.68881226 C126.99390311 213.61439291 126.14496729 211.53922344 125.2979126 209.46328735 C124.12101142 206.57915298 122.93808996 203.69755657 121.75390625 200.81640625 C121.2269944 199.51796783 121.2269944 199.51796783 120.68943787 198.19329834 C120.36339066 197.40320374 120.03734344 196.61310913 119.70141602 195.79907227 C119.41959976 195.10999283 119.13778351 194.42091339 118.84742737 193.71095276 C118.01578801 191.80258627 118.01578801 191.80258627 116 190 Z "
        fill="#FFFFFF" transform="translate(335,686)" />
    <path
        d="M0 0 C296.34 0 592.68 0 898 0 C898 297 898 594 898 900 C890.12690255 893.25163076 890.12690255 893.25163076 887.02416992 890.12182617 C886.3304277 889.42478073 885.63668549 888.72773529 884.92192078 888.00956726 C884.19874161 887.27808975 883.47556244 886.54661224 882.73046875 885.79296875 C881.96825516 885.02696854 881.20604156 884.26096832 880.42073059 883.47175598 C878.007201 881.04609351 875.59695948 878.61720501 873.1875 876.1875 C869.99633481 872.96981281 866.80192189 869.75540193 863.60546875 866.54296875 C862.87216843 865.80137009 862.1388681 865.05977142 861.38334656 864.29570007 C860.70536514 863.61441544 860.02738373 862.9331308 859.32885742 862.23120117 C858.43453255 861.32902107 858.43453255 861.32902107 857.5221405 860.40861511 C856.03563464 858.90145472 856.03563464 858.90145472 854 858 C854 857.34 854 856.68 854 856 C853.34 856 852.68 856 852 856 C852 855.34 852 854.68 852 854 C851.34 854 850.68 854 850 854 C850 853.34 850 852.68 850 852 C849.34 852 848.68 852 848 852 C848 851.34 848 850.68 848 850 C847.34 850 846.68 850 846 850 C846 849.34 846 848.68 846 848 C845.34 848 844.68 848 844 848 C844 847.34 844 846.68 844 846 C843.34 846 842.68 846 842 846 C842 845.34 842 844.68 842 844 C841.34 844 840.68 844 840 844 C840 843.34 840 842.68 840 842 C839.34 842 838.68 842 838 842 C838 841.34 838 840.68 838 840 C837.34 840 836.68 840 836 840 C836 839.34 836 838.68 836 838 C835.34 838 834.68 838 834 838 C832.44921875 836.42578125 832.44921875 836.42578125 830.6875 834.3125 C827.2534368 830.28120842 823.85161826 826.4130771 819.625 823.1875 C817.35166314 821.29305261 816.04879559 819.74554863 814.2978363 817.42959595 C809.4683981 811.87525191 803.19379647 808.74985538 796.86270058 805.21103013 C773.04441138 791.76348304 751.22383382 775.64988198 730.0625 758.375 C729.12195188 757.61153181 728.18140376 756.84806361 727.21235418 756.06146002 C678.83410613 716.54475487 650.12117312 672.36462148 643.80597036 609.85928237 C638.4483827 553.79934604 639.41880527 497.27863483 641.0625 441.0625 C641.13041077 438.68047746 641.19825458 436.29845301 641.26603174 433.91642666 C643.05248792 371.8535614 646.32010706 309.91032152 651 248 C650.16239803 248.01936574 649.32479605 248.03873147 648.4618122 248.05868405 C598.58443504 249.20523324 548.70847757 250.07760884 498.82051234 250.6043318 C492.80260141 250.66810176 486.78471702 250.73411375 480.7668457 250.80151367 C478.97011398 250.82158042 478.97011398 250.82158042 477.13708464 250.84205256 C457.85506079 251.0627249 438.58095863 251.46407153 419.30360236 251.9347926 C399.45518566 252.41533822 379.61085262 252.69572935 359.75686008 252.79851323 C348.62928745 252.86164987 337.51821603 253.01184488 326.39658165 253.39223289 C250.36360485 255.92021006 250.36360485 255.92021006 225.05897194 232.98876196 C213.84740118 222.42808304 203.03752962 210.18473191 195 197 C195 196.34 195 195.68 195 195 C194.34 195 193.68 195 193 195 C193 194.34 193 193.68 193 193 C192.34 193 191.68 193 191 193 C191 192.34 191 191.68 191 191 C190.34 191 189.68 191 189 191 C189 190.34 189 189.68 189 189 C188.34 189 187.68 189 187 189 C187 188.34 187 187.68 187 187 C186.34 187 185.68 187 185 187 C185 186.34 185 185.68 185 185 C184.34 185 183.68 185 183 185 C183 184.34 183 183.68 183 183 C182.34 183 181.68 183 181 183 C181 182.34 181 181.68 181 181 C180.34 181 179.68 181 179 181 C179 180.34 179 179.68 179 179 C178.34 179 177.68 179 177 179 C177 178.34 177 177.68 177 177 C176.34 177 175.68 177 175 177 C175 176.34 175 175.68 175 175 C174.34 175 173.68 175 173 175 C173 174.34 173 173.68 173 173 C172.34 173 171.68 173 171 173 C171 172.34 171 171.68 171 171 C170.34 171 169.68 171 169 171 C169 170.34 169 169.68 169 169 C168.34 169 167.68 169 167 169 C167 168.34 167 167.68 167 167 C166.34 167 165.68 167 165 167 C165 166.34 165 165.68 165 165 C164.34 165 163.68 165 163 165 C163 164.34 163 163.68 163 163 C162.34 163 161.68 163 161 163 C161 162.34 161 161.68 161 161 C160.34 161 159.68 161 159 161 C159 160.34 159 159.68 159 159 C158.34 159 157.68 159 157 159 C157 158.34 157 157.68 157 157 C156.34 157 155.68 157 155 157 C155 156.34 155 155.68 155 155 C154.34 155 153.68 155 153 155 C153 154.34 153 153.68 153 153 C152.34 153 151.68 153 151 153 C151 152.34 151 151.68 151 151 C150.34 151 149.68 151 149 151 C149 150.34 149 149.68 149 149 C148.34 149 147.68 149 147 149 C147 148.34 147 147.68 147 147 C146.34 147 145.68 147 145 147 C145 146.34 145 145.68 145 145 C144.34 145 143.68 145 143 145 C143 144.34 143 143.68 143 143 C142.34 143 141.68 143 141 143 C141 142.34 141 141.68 141 141 C140.34 141 139.68 141 139 141 C139 140.34 139 139.68 139 139 C138.34 139 137.68 139 137 139 C137 138.34 137 137.68 137 137 C136.34 137 135.68 137 135 137 C135 136.34 135 135.68 135 135 C134.34 135 133.68 135 133 135 C133 134.34 133 133.68 133 133 C132.34 133 131.68 133 131 133 C129.56567383 131.54663086 129.56567383 131.54663086 127.89453125 129.52734375 C124.03099845 124.98501456 119.91411582 120.76561286 115.6875 116.5625 C114.97271484 115.84384766 114.25792969 115.12519531 113.52148438 114.38476562 C112.83763672 113.70220703 112.15378906 113.01964844 111.44921875 112.31640625 C110.52629028 111.39516968 110.52629028 111.39516968 109.5847168 110.45532227 C108.04624733 108.90829075 108.04624733 108.90829075 106 108 C106 107.34 106 106.68 106 106 C105.34 106 104.68 106 104 106 C104 105.34 104 104.68 104 104 C103.34 104 102.68 104 102 104 C102 103.34 102 102.68 102 102 C101.34 102 100.68 102 100 102 C100 101.34 100 100.68 100 100 C99.34 100 98.68 100 98 100 C98 99.34 98 98.68 98 98 C97.34 98 96.68 98 96 98 C96 97.34 96 96.68 96 96 C95.34 96 94.68 96 94 96 C94 95.34 94 94.68 94 94 C93.34 94 92.68 94 92 94 C92 93.34 92 92.68 92 92 C91.34 92 90.68 92 90 92 C90 91.34 90 90.68 90 90 C89.34 90 88.68 90 88 90 C88 89.34 88 88.68 88 88 C87.34 88 86.68 88 86 88 C84.44921875 86.42578125 84.44921875 86.42578125 82.6875 84.3125 C79.2534368 80.28120842 75.85161826 76.4130771 71.625 73.1875 C69.49600637 71.41333864 67.97776499 69.85640342 66.22631836 67.75756836 C61.04497983 61.7807173 55.3854061 56.27482509 49.77774239 50.70257759 C47.72066387 48.6583719 45.66682175 46.6109625 43.61375427 44.56272888 C39.26615373 40.22648684 34.91460164 35.89422383 30.5625 31.5625 C25.49343443 26.51702374 20.42599494 21.46993608 15.36271477 16.41865349 C13.33494353 14.39738409 11.3041968 12.37913631 9.27333069 10.36097717 C8.04218184 9.1334574 6.81117125 7.90579896 5.58032227 6.67797852 C5.01157379 6.11439636 4.44282532 5.55081421 3.85684204 4.97015381 C2.55211614 3.66560771 1.27293522 2.33558456 0 1 C0 0.67 0 0.34 0 0 Z "
        fill="#FFFFFF" transform="translate(2918,626)" />
    <path
        d="M0 0 C0 117.48 0 234.96 0 356 C117.15 356 234.3 356 355 356 C348.25025606 363.87470126 348.25025606 363.87470126 345.73730469 366.3762207 C345.16556519 366.94788971 344.59382568 367.51955872 344.00476074 368.10855103 C343.0974823 369.00807999 343.0974823 369.00807999 342.171875 369.92578125 C341.1901532 370.90531265 341.1901532 370.90531265 340.18859863 371.90463257 C338.77874696 373.31070276 337.36774207 374.71561743 335.95568848 376.11947632 C333.7164234 378.34588381 331.48037934 380.57548233 329.24511719 382.8059082 C323.6951383 388.34257435 318.13971723 393.87376953 312.58447266 399.40515137 C307.88202252 404.08782128 303.18165855 408.77256671 298.48400879 413.46005249 C296.28924252 415.64837273 294.09146837 417.83364051 291.89355469 420.01879883 C290.53826237 421.370456 289.18311173 422.72225524 287.828125 424.07421875 C286.92084656 424.97374771 286.92084656 424.97374771 285.99523926 425.89144897 C282.60380505 429.28246501 279.41786155 432.76776819 276.36541748 436.46809387 C274.17005279 438.93114467 271.53121433 440.89065473 269 443 C267.97914468 444.14846224 266.97968065 445.31621922 266 446.5 C263.29852543 449.76428178 260.25777945 452.28518379 257 455 C255.97914468 456.14846224 254.97968065 457.31621922 254 458.5 C251.29852543 461.76428178 248.25777945 464.28518379 245 467 C243.43233301 468.72323699 241.94086141 470.49596807 240.44921875 472.28515625 C238.41799993 474.68867394 236.3209604 476.87245297 234 479 C233.34 479 232.68 479 232 479 C232 479.66 232 480.32 232 481 C231.34 481 230.68 481 230 481 C230 481.66 230 482.32 230 483 C229.34 483 228.68 483 228 483 C228 483.66 228 484.32 228 485 C227.34 485 226.68 485 226 485 C226 485.66 226 486.32 226 487 C225.34 487 224.68 487 224 487 C224 487.66 224 488.32 224 489 C223.34 489 222.68 489 222 489 C222 489.66 222 490.32 222 491 C221.34 491 220.68 491 220 491 C220 491.66 220 492.32 220 493 C219.34 493 218.68 493 218 493 C218 493.66 218 494.32 218 495 C217.34 495 216.68 495 216 495 C216 495.66 216 496.32 216 497 C215.34 497 214.68 497 214 497 C214 497.66 214 498.32 214 499 C213.34 499 212.68 499 212 499 C211.73381449 499.56645131 211.46762899 500.13290262 211.19337726 500.71651912 C189.62274223 541.99108879 139.58313008 599.21896912 94.50139055 613.68210253 C68.31896308 621.29303422 40.42033476 621.65517118 13.359375 621.546875 C12.38534296 621.54402913 11.41131093 621.54118327 10.40776277 621.53825116 C-14.69911713 621.43937271 -39.72378771 620.29156037 -64.78029203 618.77887774 C-79.31791809 617.91108935 -93.84789264 617.32943199 -108.40576172 616.93261719 C-109.443745 616.90424305 -110.48172829 616.87586891 -111.55116561 616.84663495 C-116.76315445 616.70559863 -121.97525122 616.56914052 -127.18742037 616.4349494 C-169.83193995 615.33120321 -212.41253588 613.44474285 -255 611 C-257.08188747 567.06380228 -258.6564116 523.13299304 -259.59587965 479.15680916 C-259.70837909 473.91012388 -259.8248742 468.66353446 -259.94384766 463.41699219 C-259.96745559 462.37295065 -259.99106353 461.32890912 -260.01538686 460.25322996 C-260.35448391 445.62267804 -260.90809186 431.01421621 -261.63609061 416.39805707 C-262.88942467 391.2297165 -263.7252557 366.08433614 -263.7890625 340.8828125 C-263.79417034 339.41968445 -263.79417034 339.41968445 -263.79938138 337.92699826 C-263.91395747 288.07798446 -260.05158829 247.79951539 -224.00824429 210.90065594 C-206.67827833 193.54673133 -187.09410926 178.40997802 -166.5128988 165.13734043 C-164.84318515 164.05820805 -164.84318515 164.05820805 -164 162 C-163.34 162 -162.68 162 -162 162 C-162 161.34 -162 160.68 -162 160 C-161.34 160 -160.68 160 -160 160 C-160 159.34 -160 158.68 -160 158 C-159.34 158 -158.68 158 -158 158 C-158 157.34 -158 156.68 -158 156 C-157.34 156 -156.68 156 -156 156 C-156 155.34 -156 154.68 -156 154 C-155.34 154 -154.68 154 -154 154 C-154 153.34 -154 152.68 -154 152 C-153.34 152 -152.68 152 -152 152 C-152 151.34 -152 150.68 -152 150 C-151.34 150 -150.68 150 -150 150 C-150 149.34 -150 148.68 -150 148 C-149.34 148 -148.68 148 -148 148 C-148 147.34 -148 146.68 -148 146 C-147.34 146 -146.68 146 -146 146 C-146 145.34 -146 144.68 -146 144 C-144.61694336 142.63598633 -144.61694336 142.63598633 -142.65234375 141.01953125 C-137.35015614 136.50969171 -132.47131131 131.61782546 -127.5625 126.6875 C-126.65306641 125.78193359 -125.74363281 124.87636719 -124.80664062 123.94335938 C-123.94361328 123.07904297 -123.08058594 122.21472656 -122.19140625 121.32421875 C-121.01880249 120.1499231 -121.01880249 120.1499231 -119.82250977 118.9519043 C-117.94470633 117.12569468 -117.94470633 117.12569468 -117 115 C-116.34 115 -115.68 115 -115 115 C-115 114.34 -115 113.68 -115 113 C-114.34 113 -113.68 113 -113 113 C-113 112.34 -113 111.68 -113 111 C-112.34 111 -111.68 111 -111 111 C-111 110.34 -111 109.68 -111 109 C-110.34 109 -109.68 109 -109 109 C-109 108.34 -109 107.68 -109 107 C-108.34 107 -107.68 107 -107 107 C-107 106.34 -107 105.68 -107 105 C-106.34 105 -105.68 105 -105 105 C-105 104.34 -105 103.68 -105 103 C-104.34 103 -103.68 103 -103 103 C-103 102.34 -103 101.68 -103 101 C-102.34 101 -101.68 101 -101 101 C-101 100.34 -101 99.68 -101 99 C-100.34 99 -99.68 99 -99 99 C-99 98.34 -99 97.68 -99 97 C-98.34 97 -97.68 97 -97 97 C-96.74750237 96.42274044 -96.49500473 95.84548088 -96.23485565 95.25072861 C-94.84682 92.72080412 -93.28110331 91.02939228 -91.24230957 88.98834229 C-90.45993423 88.2003273 -89.6775589 87.41231232 -88.87147522 86.60041809 C-88.01218918 85.74518051 -87.15290314 84.88994293 -86.26757812 84.00878906 C-85.3634166 83.10112289 -84.45925507 82.19345673 -83.5276947 81.25828552 C-81.05102095 78.77250137 -78.56807141 76.29307625 -76.08366966 73.81501865 C-73.48576804 71.22218091 -70.89274998 68.62446672 -68.2989502 66.02752686 C-63.94459163 61.66953109 -59.58603563 57.31576668 -55.22509766 52.96435547 C-50.17826187 47.92841741 -45.13869 42.88529623 -40.10280466 37.83840966 C-35.78117798 33.50771939 -31.45568146 29.18092334 -27.12690115 24.85738349 C-24.54037046 22.27397587 -21.95522209 19.68922399 -19.37355042 17.10095978 C-16.49886386 14.21944542 -13.61610767 11.34614109 -10.73242188 8.47363281 C-9.87313583 7.61029831 -9.01384979 6.74696381 -8.12852478 5.85746765 C-7.34614944 5.08073196 -6.56377411 4.30399628 -5.75769043 3.50372314 C-4.73563129 2.48279509 -4.73563129 2.48279509 -3.6929245 1.44124222 C-2 0 -2 0 0 0 Z "
        fill="#FFFFFF" transform="translate(3165,923)" />
</svg>