<?xml version="1.0" encoding="UTF-8"?>
<svg version="1.1" xmlns="http://www.w3.org/2000/svg" width="3525" height="896">
    <path
        d="M0 0 C1.57046249 1.47070998 3.13330462 2.94960988 4.6875 4.4375 C5.42226562 5.10910156 6.15703125 5.78070313 6.9140625 6.47265625 C21.76190224 20.50727509 31.59630288 38.90707209 39.6875 57.4375 C40.22117187 56.50550781 40.75484375 55.57351563 41.3046875 54.61328125 C48.30236578 42.56932269 56.2084296 31.89926808 65.66796875 21.64453125 C67.42654907 19.72267848 69.09569775 17.76102511 70.75 15.75 C95.5361928 -13.33416598 135.51183141 -29.19555639 172.75097656 -32.36621094 C212.08554796 -34.99549223 249.92966329 -26.23949026 280.37109375 -0.2734375 C282.8510096 1.92338294 285.27831471 4.16352409 287.6875 6.4375 C288.36296875 7.06011719 289.0384375 7.68273437 289.734375 8.32421875 C326.08025102 42.99818448 337.96072751 99.20621388 339.6875 147.4375 C339.86804704 156.70092559 339.81421313 165.96772716 339.80102539 175.23242188 C339.80018355 178.02292406 339.80085856 180.81342542 339.8014679 183.60392761 C339.80198906 189.5824987 339.79888515 195.56105876 339.79323006 201.53962708 C339.78505939 210.18334416 339.78249417 218.82705598 339.78124207 227.4707765 C339.77906024 241.4989126 339.77242385 255.52704285 339.76293945 269.55517578 C339.75374276 283.17203747 339.746673 296.78889755 339.74243164 310.40576172 C339.74216892 311.24687789 339.74190619 312.08799406 339.74163551 312.95459861 C339.74033035 317.17476061 339.73906667 321.39492263 339.73782361 325.61508465 C339.72747809 360.55589497 339.70905448 395.49669444 339.6875 430.4375 C312.9575 430.4375 286.2275 430.4375 258.6875 430.4375 C258.64991577 418.74276245 258.64991577 418.74276245 258.61157227 406.81176758 C258.53051589 381.7945972 258.44487234 356.7774445 258.35638306 331.76029937 C258.34261539 327.86681103 258.32888801 323.97332255 258.31518555 320.07983398 C258.31109309 318.91727108 258.31109309 318.91727108 258.30691796 317.73122206 C258.26298224 305.22298824 258.22230108 292.71474589 258.18284739 280.20649723 C258.14221547 267.34797177 258.09802878 254.48946197 258.05062145 241.63095969 C258.02153729 233.71259162 257.99514369 225.79422437 257.97232103 217.87583574 C257.95444783 211.7783862 257.93160114 205.68096399 257.90700912 199.58353806 C257.89774808 197.10096338 257.89003504 194.61838231 257.88408089 192.1357975 C257.89061271 164.43858123 257.89061271 164.43858123 255.4375 136.875 C255.24571167 135.45658813 255.24571167 135.45658813 255.05004883 134.00952148 C250.67188521 103.61618277 239.80559547 71.93490576 214.76171875 52.5 C192.84810716 37.79811065 167.02189981 33.50347349 141.28125 38.40234375 C115.69824368 43.81454698 92.98870035 60.47592387 78.7199707 82.21875 C61.95532283 108.77155227 58.22038192 135.31467884 58.25476015 166.24475682 C58.25539277 169.8020923 58.2386833 173.35935606 58.22424316 176.91665649 C58.20161412 183.05723823 58.18959947 189.19776383 58.18511391 195.33838463 C58.17861297 204.21631307 58.15560716 213.09414073 58.12877061 221.97202823 C58.08565327 236.38115886 58.05560095 250.7902852 58.03393555 265.19946289 C58.01288047 279.18385926 57.98556616 293.16822069 57.94995117 307.15258789 C57.94775235 308.01681186 57.94555352 308.88103582 57.94328807 309.7714484 C57.93221729 314.10767134 57.92102469 318.44389396 57.90977156 322.78011644 C57.81679993 358.66588978 57.7475414 394.55165349 57.6875 430.4375 C30.9575 430.4375 4.2275 430.4375 -23.3125 430.4375 C-23.33231934 422.17203125 -23.35213867 413.9065625 -23.37255859 405.390625 C-23.43754386 378.85991712 -23.51208771 352.32924422 -23.59255161 325.79857904 C-23.60506854 321.66861671 -23.61750162 317.53865414 -23.62988281 313.40869141 C-23.6335818 312.17553414 -23.6335818 312.17553414 -23.63735552 310.91746461 C-23.67693934 297.65467696 -23.70974983 284.39188094 -23.73999982 271.12906909 C-23.77125649 257.49193865 -23.80992501 243.85484332 -23.85529006 230.21775246 C-23.88299171 221.82185693 -23.9051028 213.42598668 -23.91976251 205.03005809 C-23.93041057 199.25084343 -23.94834131 193.47167812 -23.97166704 187.69250089 C-23.98486394 184.37210983 -23.99407919 181.05184572 -23.99671364 177.73142052 C-24.03522276 136.52225317 -26.65128687 92.19505439 -56.3125 60.4375 C-72.84877826 44.08318904 -94.21824764 36.67756371 -117.3125 36.1875 C-140.64038325 36.7120688 -162.85673207 44.86065153 -180.3125 60.4375 C-181.5190625 61.43136719 -181.5190625 61.43136719 -182.75 62.4453125 C-198.25455391 75.57573159 -209.13785724 93.61190676 -216.3125 112.4375 C-216.76496094 113.61828125 -217.21742187 114.7990625 -217.68359375 116.015625 C-224.25041763 134.33258183 -224.76711094 152.33119901 -224.74523985 171.62143326 C-224.74460764 175.10584847 -224.76131303 178.59019028 -224.77575684 182.0745697 C-224.79839336 188.09021195 -224.81040185 194.10579688 -224.81488609 200.12147903 C-224.82138513 208.81878995 -224.84438769 217.51599791 -224.87122939 226.21326701 C-224.91435401 240.3290124 -224.94440221 254.44475342 -224.96606445 268.56054688 C-224.98711732 282.26076401 -225.01442973 295.96094547 -225.05004883 309.66113281 C-225.05224765 310.50769753 -225.05444648 311.35426225 -225.05671193 312.22648044 C-225.06778266 316.4740696 -225.07897527 320.72165842 -225.09022844 324.9692471 C-225.18321042 360.12530978 -225.25246357 395.2813626 -225.3125 430.4375 C-252.0425 430.4375 -278.7725 430.4375 -306.3125 430.4375 C-306.33755615 419.66109863 -306.3626123 408.88469727 -306.38842773 397.78173828 C-306.46961472 363.13784215 -306.55524923 328.49395825 -306.64361694 293.85007972 C-306.65738336 288.45148553 -306.67111093 283.05289123 -306.68481445 277.65429688 C-306.68754276 276.57972075 -306.69027106 275.50514463 -306.69308204 274.39800559 C-306.73692687 257.09286062 -306.77763847 239.78770967 -306.81715261 222.48255433 C-306.85789409 204.67108704 -306.90209427 186.85963064 -306.94937855 169.04817951 C-306.97578015 159.0668844 -307.00066171 149.08559063 -307.02157402 139.10428238 C-306.90556595 71.45954634 -306.90556595 71.45954634 -309.375 3.875 C-309.51316132 1.46805856 -309.64928053 -0.9389739 -309.78282166 -3.34617615 C-309.86330162 -4.78894222 -309.94642148 -6.23156562 -310.03321838 -7.67396545 C-310.31815363 -12.662846 -310.3125 -17.5413956 -310.3125 -22.5625 C-286.2225 -22.5625 -262.1325 -22.5625 -237.3125 -22.5625 C-236.838125 -14.395 -236.36375 -6.2275 -235.875 2.1875 C-235.72748291 4.72018555 -235.57996582 7.25287109 -235.42797852 9.86230469 C-234.6629498 23.05137195 -233.94515093 36.24140094 -233.3125 49.4375 C-232.6525 49.7675 -231.9925 50.0975 -231.3125 50.4375 C-231.05726562 49.72980469 -230.80203125 49.02210938 -230.5390625 48.29296875 C-224.90540947 35.17768095 -213.94311097 23.76410471 -204.3125 13.4375 C-203.57644531 12.63570313 -202.84039063 11.83390625 -202.08203125 11.0078125 C-151.03963536 -42.51402976 -55.78995368 -49.13610599 0 0 Z "
        fill="#FFFFFF" transform="translate(2253.3125,259.5625)" />
    <path
        d="M0 0 C27.06 0 54.12 0 82 0 C82.33 93.39 82.66 186.78 83 283 C85.97 278.38 88.94 273.76 92 269 C94.94435858 265.23776404 97.8753457 261.59825173 101 258 C101.71929687 257.15824219 102.43859375 256.31648438 103.1796875 255.44921875 C132.65522925 221.72542276 175.7768762 204.62262279 219.80249023 201.19628906 C270.53694093 198.08179732 318.32846437 211.47836865 356.84375 245.16015625 C401.59078162 285.07153266 423.33949219 344.58259148 427.82128906 403.32202148 C428.26110904 412.37378094 428.24498487 421.439356 428.25 430.5 C428.25067474 431.59369904 428.25134949 432.68739807 428.25204468 433.8142395 C428.23548035 450.72889864 427.70250917 467.26891466 425 484 C424.83371094 485.06508789 424.66742188 486.13017578 424.49609375 487.22753906 C417.09268809 533.27946427 398.92034562 575.92189539 368 611 C367.27941406 611.84304688 366.55882812 612.68609375 365.81640625 613.5546875 C361.54172229 618.50432155 357.0166954 622.81504293 352 627 C351.12730469 627.76054688 350.25460937 628.52109375 349.35546875 629.3046875 C327.37964848 648.19153705 301.37993053 661.11869567 273.5 668.75 C272.82614258 668.9368335 272.15228516 669.12366699 271.45800781 669.31616211 C255.80784311 673.33713399 240.22627754 674.52068483 224.125 674.375 C222.74435364 674.36802094 222.74435364 674.36802094 221.33581543 674.36090088 C208.04685891 674.28219465 195.00002073 674.01563632 182 671 C181.12118164 670.80132324 180.24236328 670.60264648 179.33691406 670.39794922 C150.81083852 663.75182167 126.33954149 651.23014637 105 631 C104.05382812 630.11828125 103.10765625 629.2365625 102.1328125 628.328125 C91.32504334 618.04687459 82.40307399 606.27981088 75.3046875 593.16015625 C74.18352034 590.86908949 74.18352034 590.86908949 72 590 C71.94695457 591.12514008 71.94695457 591.12514008 71.89283752 592.27301025 C71.55682384 599.3919911 71.2187218 606.51086841 70.87835789 613.62964249 C70.70350598 617.288199 70.52942114 620.94678843 70.35717773 624.60546875 C70.1904762 628.14580026 70.02164431 631.68602469 69.85142326 635.22618866 C69.75641085 637.21324464 69.66352362 639.20040188 69.57069397 641.18756104 C69.51070724 642.42794128 69.45072052 643.66832153 69.38891602 644.94628906 C69.33784195 646.02106506 69.28676788 647.09584106 69.23414612 648.20318604 C68.90904908 653.47482141 68.43861717 658.73659402 68 664 C44.24 664 20.48 664 -4 664 C-3 633 -3 633 -2.47605324 617.84639835 C-1.27603962 582.70286012 -0.69139995 547.60217246 -0.68332577 512.43531644 C-0.67991616 506.23067995 -0.66719147 500.02606652 -0.6549259 493.82144232 C-0.63026048 481.19305386 -0.61410571 468.56466952 -0.60334396 455.93626213 C-0.59270654 443.48869903 -0.57795265 431.0411512 -0.55806351 418.59359932 C-0.55681464 417.81062243 -0.55556577 417.02764553 -0.55427906 416.22094206 C-0.54791259 412.24227877 -0.54147608 408.2636156 -0.53501268 404.28495247 C-0.48972453 376.33019438 -0.45311962 348.37543132 -0.421875 320.4206543 C-0.39155948 293.31550366 -0.35715271 266.21036309 -0.31738281 239.10522461 C-0.31615181 238.26515005 -0.31492081 237.4250755 -0.3136525 236.55954413 C-0.30128235 228.12078815 -0.28883091 219.68203229 -0.27632002 211.24327652 C-0.25085089 194.06278419 -0.22592318 176.88229108 -0.20132446 159.70179749 C-0.20019355 158.91240362 -0.19906264 158.12300976 -0.19789747 157.30969488 C-0.12283721 104.87314137 -0.06082483 52.43657169 0 0 Z M117.89648438 309.14111328 C103.56743727 324.36697837 93.66851009 343.26417999 87.5625 363.1875 C87.33981445 363.90897217 87.11712891 364.63044434 86.88769531 365.3737793 C82.2926147 381.55391483 81.53558788 397.58575331 81.56640625 414.296875 C81.5618287 416.50531166 81.55651856 418.71374691 81.55052185 420.92218018 C81.5416513 425.52435128 81.54394329 430.12634832 81.55395508 434.72851562 C81.56542273 440.5620004 81.545235 446.39487778 81.51603794 452.22828293 C81.49749436 456.78256916 81.49800437 461.33671476 81.50367546 465.89102936 C81.50382654 468.038738 81.49796354 470.18645753 81.48538399 472.33412933 C81.3943097 490.42877726 82.66409995 508.96360575 89.6875 525.875 C90.02998779 526.73101807 90.37247559 527.58703613 90.7253418 528.46899414 C103.20355167 558.76837956 126.71248304 584.79880133 157 598 C183.48022418 608.65406921 212.05069828 611.65802826 240 605 C240.70914551 604.83371094 241.41829102 604.66742187 242.14892578 604.49609375 C275.53902818 596.37234728 301.57090013 574.16042693 319.27734375 545.32421875 C348.23938993 496.81943124 351.89918665 431.15369531 338.53564453 377.17456055 C328.50424594 338.91968646 308.53896095 304.18713087 274.09619141 283.20947266 C221.92223088 253.10583878 158.5724406 267.13503612 117.89648438 309.14111328 Z "
        fill="#FFFFFF" transform="translate(32,26)" />
    <path
        d="M0 0 C0.50982422 0.40444336 1.01964844 0.80888672 1.54492188 1.22558594 C16.97327878 13.53308073 30.08175765 28.25739153 39 46 C39.90628039 39.6135554 40.27138961 33.29506311 40.5 26.8515625 C40.54060547 25.79899261 40.58121094 24.74642273 40.62304688 23.66195679 C40.75195621 20.3164188 40.87647683 16.97074089 41 13.625 C41.12365161 10.28640642 41.24839709 6.9478751 41.37695312 3.60946655 C41.45667059 1.53928383 41.53366672 -0.5310062 41.60742188 -2.60140991 C41.64416016 -3.55584991 41.68089844 -4.51028992 41.71875 -5.49365234 C41.74904297 -6.31779633 41.77933594 -7.14194031 41.81054688 -7.99105835 C42.08417289 -12.3368548 42.56672079 -16.66720793 43 -21 C68.74 -21 94.48 -21 121 -21 C121 1.94933553 121 1.94933553 120.51283264 13.23048401 C119.67066386 36.16963471 119.82363717 59.12890285 119.80144384 82.08008756 C119.79435456 89.19592182 119.78156871 96.3117434 119.76867336 103.42756911 C119.74504064 116.55252246 119.72576313 129.67747868 119.70907402 142.80244255 C119.6925642 155.77491587 119.6740534 168.74738386 119.65294075 181.71985054 C119.65162314 182.53011882 119.65030554 183.34038711 119.648948 184.17520898 C119.64224479 188.29109762 119.63550651 192.40698621 119.62875474 196.52287478 C119.58114606 225.58352266 119.53791737 254.64417554 119.49731445 283.70483398 C119.45788905 311.91544966 119.41644859 340.12606121 119.37231445 368.33666992 C119.37095192 369.20810937 119.36958939 370.07954883 119.36818558 370.97739554 C119.35449877 379.72971974 119.34077136 388.48204387 119.32701423 397.23436797 C119.29899685 415.05969241 119.27125021 432.88501728 119.2436676 450.71034241 C119.2423994 451.52970293 119.2411312 452.34906345 119.23982458 453.19325307 C119.15534271 507.79549539 119.07738769 562.39774723 119 617 C91.28 617 63.56 617 35 617 C34.505 491.765 34.505 491.765 34 364 C30.7 369.28 27.4 374.56 24 380 C21.04590894 383.46613351 18.13688611 386.7324103 15 390 C13.93281814 391.28780119 12.87015966 392.57936692 11.8125 393.875 C-10.83714725 419.56867729 -44.87363326 434.07955688 -78 440 C-78.97428955 440.17877686 -79.9485791 440.35755371 -80.95239258 440.54174805 C-90.49432181 442.11098335 -99.87717022 442.33966039 -109.52954102 442.31567383 C-112.16660409 442.31252495 -114.80252851 442.3360274 -117.43945312 442.36132812 C-132.70462025 442.41897416 -147.70036808 440.74444779 -162.375 436.375 C-163.66325684 435.99649902 -163.66325684 435.99649902 -164.97753906 435.61035156 C-186.19451453 429.12417331 -205.74282301 418.94566465 -223 405 C-223.52013672 404.58137695 -224.04027344 404.16275391 -224.57617188 403.73144531 C-237.68725429 393.11508866 -248.94728877 381.55220457 -259 368 C-259.63550781 367.14792969 -260.27101563 366.29585937 -260.92578125 365.41796875 C-282.88937535 334.97188314 -295.52291203 299.75207668 -302 263 C-302.17789063 262.02530762 -302.35578125 261.05061523 -302.5390625 260.04638672 C-308.08591229 228.13549197 -307.48050622 191.87068075 -302 160 C-301.82307617 158.95247559 -301.64615234 157.90495117 -301.46386719 156.82568359 C-291.72040345 100.79656009 -266.75060655 46.55142675 -221 11 C-220.16057861 10.34596191 -220.16057861 10.34596191 -219.30419922 9.67871094 C-159.18877892 -36.80790427 -62.35518467 -50.13940288 0 0 Z M-177.54296875 74.30859375 C-203.22934558 102.44518141 -215.54102047 139.71229506 -220 177 C-220.14139404 178.13538208 -220.14139404 178.13538208 -220.28564453 179.29370117 C-226.00713275 232.09208575 -217.38364605 290.2033572 -183.625 332.6875 C-163.35031839 356.5689039 -136.1204417 372.40926774 -104.63330078 375.7890625 C-70.49982911 378.5232846 -38.01382957 371.09483499 -11.48535156 348.72265625 C14.50588333 326.5056717 30.67230209 294.84807548 35 261 C35.67202054 252.10668815 35.54128622 243.1818754 35.49609375 234.26953125 C35.4962492 231.73809264 35.49774581 229.20665379 35.50050354 226.67521667 C35.50187784 221.40488914 35.48994069 216.13476969 35.46655273 210.86450195 C35.43991681 204.82152761 35.43821836 198.77893757 35.4499411 192.73592454 C35.46081679 186.85298568 35.45435032 180.97018389 35.44038582 175.08725548 C35.43591326 172.61445194 35.43549719 170.1416372 35.43945122 167.66883278 C35.45366533 150.96898699 34.92354444 134.8639168 29.3125 118.9375 C29.05831299 118.20055908 28.80412598 117.46361816 28.54223633 116.7043457 C22.31432351 99.2770015 12.7889069 84.37328577 0 71 C-0.66128906 70.26394531 -1.32257812 69.52789062 -2.00390625 68.76953125 C-22.17244831 47.14671101 -52.00326428 36.52132909 -81 35 C-118.02056426 33.91645134 -151.81545646 47.77076611 -177.54296875 74.30859375 Z "
        fill="#FFFFFF" transform="translate(3172,258)" />
    <path
        d="M0 0 C1.56745518 1.45300607 3.13046123 2.91083723 4.6875 4.375 C5.27789063 4.9009375 5.86828125 5.426875 6.4765625 5.96875 C30.26925537 28.0700192 42.37481071 62.79810915 47.9375 93.875 C48.08864258 94.71450195 48.23978516 95.55400391 48.39550781 96.41894531 C51.24362161 113.61692366 51.98500165 130.86074226 51.97460938 148.25952148 C51.98065454 150.35857401 51.98758396 152.45762415 51.99531555 154.55667114 C52.01006325 159.03504062 52.01891815 163.51336662 52.02302551 167.99175835 C52.02983181 175.11556654 52.05169672 182.23928373 52.07556152 189.36305237 C52.12425374 204.51284665 52.15667623 219.66266045 52.1875 234.8125 C52.22077386 251.120196 52.25724178 267.42785575 52.31163073 283.73549706 C52.33086368 289.63741083 52.34628086 295.53927767 52.35197449 301.44122124 C52.37374363 323.18613056 52.44516658 344.898996 53.61523438 366.61743164 C53.65607053 367.3774998 53.69690668 368.13756796 53.73898029 368.92066848 C54.76986467 387.54048441 57.0498643 405.91155008 59.6875 424.375 C34.6075 424.375 9.5275 424.375 -16.3125 424.375 C-17.59530172 416.67818969 -18.77050756 409.09870613 -19.6015625 401.359375 C-19.70971283 400.37753235 -19.81786316 399.3956897 -19.92929077 398.38409424 C-20.2684999 395.29806374 -20.60308713 392.21155351 -20.9375 389.125 C-21.16896294 387.011685 -21.40073122 384.89840343 -21.6328125 382.78515625 C-22.196231 377.6488162 -22.75550981 372.51204095 -23.3125 367.375 C-23.9725 367.375 -24.6325 367.375 -25.3125 367.375 C-25.70308594 368.22578125 -25.70308594 368.22578125 -26.1015625 369.09375 C-40.83186507 396.84373936 -76.57666802 417.14460796 -105.3125 426.375 C-124.42565089 432.02796529 -142.91450234 434.79824124 -162.8125 434.75 C-164.1379332 434.74868576 -164.1379332 434.74868576 -165.49014282 434.74734497 C-179.11116656 434.7028283 -192.12531432 434.07261466 -205.3125 430.375 C-206.17746094 430.13894043 -207.04242187 429.90288086 -207.93359375 429.65966797 C-226.01823504 424.57090189 -242.90550262 416.53728108 -257.3125 404.375 C-258.30507813 403.54484375 -259.29765625 402.7146875 -260.3203125 401.859375 C-284.82866053 380.73364881 -299.77942257 348.68611674 -302.18798828 316.55908203 C-304.52379998 275.5861968 -293.79659762 237.35530792 -266.3125 206.375 C-221.39458252 156.69906856 -147.92410127 142.6793993 -84.3125 137.375 C-83.17014893 137.27711182 -82.02779785 137.17922363 -80.85083008 137.07836914 C-70.18630674 136.25802119 -59.56462741 136.26017246 -48.875 136.3125 C-47.06445438 136.31753065 -45.25390739 136.32209076 -43.44335938 136.32617188 C-39.06637154 136.33704063 -34.68945152 136.35421675 -30.3125 136.375 C-31.86245402 103.54558781 -34.58289801 70.09761275 -60.3125 46.375 C-70.5910495 38.23946854 -81.56084675 32.22459235 -94.1875 28.625 C-94.88190186 28.42616211 -95.57630371 28.22732422 -96.29174805 28.02246094 C-108.29286286 24.82654912 -120.37515233 24.00960635 -132.75 24.0625 C-133.44392853 24.06465515 -134.13785706 24.0668103 -134.85281372 24.06903076 C-172.93991297 24.25733558 -214.75353222 33.76719581 -246.64746094 55.47021484 C-248.3125 56.375 -248.3125 56.375 -251.3125 56.375 C-253.90920405 49.04784473 -256.48930704 41.71499993 -259.05786133 34.37792969 C-259.93391338 31.88179026 -260.81378041 29.38698639 -261.69750977 26.89355469 C-262.96591537 23.31267686 -264.22059707 19.72724583 -265.47265625 16.140625 C-265.87154556 15.02383362 -266.27043488 13.90704224 -266.68141174 12.75640869 C-267.04186081 11.71563171 -267.40230988 10.67485474 -267.77368164 9.60253906 C-268.09567032 8.68764709 -268.417659 7.77275513 -268.74940491 6.83013916 C-269.35782839 4.17736463 -269.38880289 2.8623975 -268.3125 0.375 C-266.03157962 -1.21556181 -263.88042621 -2.51944085 -261.4375 -3.8125 C-260.72352051 -4.19978271 -260.00954102 -4.58706543 -259.27392578 -4.98608398 C-256.96489394 -6.22247693 -254.64269861 -7.42901157 -252.3125 -8.625 C-251.56548828 -9.00881836 -250.81847656 -9.39263672 -250.04882812 -9.78808594 C-221.56676545 -24.22673783 -190.89449836 -32.40268995 -159.3125 -36.625 C-158.44093262 -36.74214355 -157.56936523 -36.85928711 -156.67138672 -36.97998047 C-102.68810221 -43.8516942 -42.04945021 -37.29988882 0 0 Z M-58.5 193.625 C-59.77883057 193.67164795 -61.05766113 193.7182959 -62.37524414 193.76635742 C-110.13257165 195.77100044 -164.91416391 202.68183439 -199.55078125 239.203125 C-212.0965808 253.12469287 -218.33739361 271.87845066 -219.3125 290.375 C-219.35375 291.12652344 -219.395 291.87804687 -219.4375 292.65234375 C-220.04353818 315.41665294 -213.33135695 336.36722672 -197.6953125 353.08984375 C-182.27205605 367.88099953 -160.7057619 373.78222105 -139.74682617 373.67749023 C-108.01966501 372.87032663 -79.18782687 360.49725784 -56.82177734 337.97070312 C-47.12252615 327.7160435 -39.87267857 315.72055272 -34.5625 302.6875 C-34.28059814 302.01823486 -33.99869629 301.34896973 -33.70825195 300.65942383 C-28.24636026 286.57332094 -27.88157074 271.66720353 -28.01953125 256.77734375 C-28.02514508 254.96318416 -28.02940669 253.14901994 -28.03239441 251.33485413 C-28.04370279 246.62164149 -28.07304447 241.90871811 -28.10650635 237.19561768 C-28.13751416 232.36157135 -28.15096452 227.52747705 -28.16601562 222.69335938 C-28.19793158 213.25378102 -28.24895222 203.81441481 -28.3125 194.375 C-30.8309683 194.20507241 -33.34958883 194.0385958 -35.8684082 193.87402344 C-36.57199715 193.8261972 -37.27558609 193.77837097 -38.00049591 193.72909546 C-44.84927185 193.2865307 -51.64262076 193.3660461 -58.5 193.625 Z "
        fill="#FFFFFF" transform="translate(813.3125,265.625)" />
    <path
        d="M0 0 C0.69582184 0.00060425 1.39164368 0.0012085 2.10855103 0.00183105 C13.97381048 0.02962212 25.68133886 0.49457507 37.4375 2.1875 C38.68901855 2.36490723 38.68901855 2.36490723 39.96582031 2.54589844 C69.40945823 6.9373025 96.54301308 18.06294574 119.4375 37.1875 C120.07558594 37.70183594 120.71367188 38.21617187 121.37109375 38.74609375 C125.91672228 42.48181073 129.71149922 46.64268049 133.4375 51.1875 C134.200625 52.10144531 134.96375 53.01539063 135.75 53.95703125 C157.65739495 81.17012342 167.16408959 115.03269357 171.4375 149.1875 C171.56111924 150.0894469 171.56111924 150.0894469 171.68723583 151.00961494 C172.76963375 160.022715 172.60605626 169.07637222 172.62695312 178.13916016 C172.63490802 180.05600664 172.64329694 181.97285137 172.65208435 183.88969421 C172.67008538 188.00864772 172.68512296 192.12759748 172.69786072 196.24657059 C172.71825083 202.80294465 172.74589256 209.35927642 172.77453613 215.9156189 C172.8294435 228.70020079 172.87753183 241.48480354 172.92447662 254.26941681 C172.98388319 270.43130914 173.04503989 286.59318924 173.11504889 302.75503957 C173.13835139 308.18321055 173.1599427 313.61137584 173.17713928 319.03956985 C173.24440629 340.17568529 173.38180828 361.30288697 173.91455078 382.43310547 C173.93522141 383.26106416 173.95589205 384.08902285 173.97718906 384.9420712 C174.26384384 396.16270393 174.6717126 407.36305942 175.62988281 418.54931641 C175.81823756 420.75467853 175.98813475 422.96097844 176.15625 425.16796875 C177.18511578 437.9193372 178.84667178 450.46087422 180.4375 463.1875 C155.3575 463.1875 130.2775 463.1875 104.4375 463.1875 C103.4475 455.081875 102.4575 446.97625 101.4375 438.625 C101.12425781 436.07837646 100.81101562 433.53175293 100.48828125 430.90795898 C100.24185668 428.87487731 99.99574221 426.84175802 99.75 424.80859375 C99.62044922 423.76481567 99.49089844 422.7210376 99.35742188 421.64562988 C98.73350485 416.45065414 98.28275212 411.41991276 98.4375 406.1875 C94.96350493 409.61177779 91.6436581 413.12637451 88.375 416.75 C86.40263699 418.90215483 84.42038835 421.04504654 82.4375 423.1875 C81.97456543 423.69265137 81.51163086 424.19780273 81.03466797 424.71826172 C60.34469631 447.11838999 30.93005727 462.20258346 1.4375 469.1875 C0.22537842 469.48164795 0.22537842 469.48164795 -1.01123047 469.78173828 C-14.73901702 472.96088673 -28.34674012 473.57991407 -42.375 473.625 C-43.18567932 473.6311734 -43.99635864 473.6373468 -44.831604 473.64370728 C-60.33880618 473.71966717 -75.8369212 472.19674393 -90.6875 467.5 C-91.50822998 467.24508789 -92.32895996 466.99017578 -93.17456055 466.72753906 C-113.06027865 460.30920452 -129.67352176 449.71443622 -144.5625 435.1875 C-145.20445313 434.60742188 -145.84640625 434.02734375 -146.5078125 433.4296875 C-161.16543414 419.86286561 -171.49437853 399.24594919 -176.5625 380.1875 C-176.75569824 379.51895996 -176.94889648 378.85041992 -177.14794922 378.16162109 C-183.28111371 356.43770212 -183.25228105 328.99832735 -177.5625 307.1875 C-177.36914062 306.41019531 -177.17578125 305.63289063 -176.9765625 304.83203125 C-168.65565607 272.11340537 -150.02735332 244.82585697 -122.5625 225.1875 C-121.70350098 224.56415771 -121.70350098 224.56415771 -120.82714844 223.92822266 C-61.08365246 180.95512474 19.04929428 174.01601972 90.4375 175.1875 C89.70570577 142.17589845 86.15873185 110.27197285 61.4375 86.1875 C60.85484375 85.59582031 60.2721875 85.00414062 59.671875 84.39453125 C49.45778932 74.77368792 35.74034647 69.74936964 22.4375 66.1875 C21.76895996 66.00815918 21.10041992 65.82881836 20.41162109 65.64404297 C-1.83653506 60.06954851 -28.28894352 61.861923 -50.5625 66.1875 C-51.45936523 66.35910645 -52.35623047 66.53071289 -53.28027344 66.70751953 C-78.5577351 71.68560464 -102.96200805 80.22857396 -124.91015625 93.8515625 C-125.78542969 94.29242188 -126.66070313 94.73328125 -127.5625 95.1875 C-130.5625 94.1875 -130.5625 94.1875 -131.61334229 92.11331177 C-131.92946472 91.20080658 -132.24558716 90.28830139 -132.57128906 89.34814453 C-132.9346637 88.31682404 -133.29803833 87.28550354 -133.67242432 86.22293091 C-134.05380554 85.10006683 -134.43518677 83.97720276 -134.828125 82.8203125 C-135.22578064 81.67464813 -135.62343628 80.52898376 -136.03314209 79.34860229 C-136.87255245 76.92106192 -137.70606725 74.49147625 -138.53417969 72.06005859 C-139.80653632 68.32998329 -141.10099202 64.60813127 -142.3984375 60.88671875 C-143.20966734 58.5317091 -144.01960672 56.17625445 -144.828125 53.8203125 C-145.21760315 52.70149689 -145.6070813 51.58268127 -146.00836182 50.42996216 C-146.35912781 49.39233734 -146.7098938 48.35471252 -147.07128906 47.28564453 C-147.38422913 46.37154816 -147.69716919 45.45745178 -148.01959229 44.51565552 C-148.5625 42.1875 -148.5625 42.1875 -147.5625 39.1875 C-146.06640625 38.0559082 -146.06640625 38.0559082 -144.125 36.98828125 C-143.40497803 36.58810791 -142.68495605 36.18793457 -141.94311523 35.77563477 C-141.15751221 35.35467529 -140.37190918 34.93371582 -139.5625 34.5 C-138.33092163 33.8347229 -138.33092163 33.8347229 -137.07446289 33.15600586 C-134.57745369 31.81951415 -132.07091717 30.50242478 -129.5625 29.1875 C-128.90749512 28.83494141 -128.25249023 28.48238281 -127.57763672 28.11914062 C-89.40768908 7.72655863 -42.73698166 -0.06934799 0 0 Z M62.8125 232.4375 C60.96422607 232.50855957 60.96422607 232.50855957 59.07861328 232.58105469 C12.08662644 234.63788295 -43.60032514 240.69135976 -77.5625 277.1875 C-95.12312364 297.10741353 -98.73934953 320.41449531 -97.5625 346.1875 C-95.9121651 365.26202297 -87.05573543 381.6811247 -73.37890625 394.8359375 C-55.18347862 410.0282363 -31.6129045 413.52801409 -8.62109375 411.91015625 C21.37573143 408.78238401 48.73675936 395.24140208 68.4375 372.1875 C78.56545273 359.33836442 86.16853881 344.98927495 90.4375 329.1875 C90.6120874 328.57498886 90.7866748 327.96247772 90.96655273 327.33140564 C93.19990621 318.1697053 92.68670718 308.76018417 92.6328125 299.3984375 C92.6290767 297.48459013 92.62623241 295.57074084 92.62423706 293.65689087 C92.61664527 288.64937954 92.5970356 283.64198648 92.5748291 278.63452148 C92.55427413 273.51287434 92.54521481 268.39120786 92.53515625 263.26953125 C92.51378505 253.24213589 92.47970361 243.21482783 92.4375 233.1875 C89.9137363 233.01768151 87.38982398 232.85118289 84.86572266 232.68652344 C84.16000626 232.6386972 83.45428986 232.59087097 82.72718811 232.54159546 C76.0717086 232.1120243 69.47630571 232.17401856 62.8125 232.4375 Z "
        fill="#FFFFFF" transform="translate(1666.5625,226.8125)" />
    <path
        d="M0 0 C0.66 0.66 1.32 1.32 2 2 C1.6627278 7.89820853 -0.26516451 13.17316148 -2.23828125 18.703125 C-2.56032028 19.62156189 -2.88235931 20.53999878 -3.2141571 21.48626709 C-4.24090404 24.4096763 -5.27661051 27.32981958 -6.3125 30.25 C-6.99732424 32.19641081 -7.68157448 34.14302367 -8.36523438 36.08984375 C-11.52629701 45.07811926 -14.70640181 54.05928372 -18 63 C-21.56585248 61.60781556 -24.95985926 60.03936873 -28.36401367 58.28466797 C-62.37129042 40.78766192 -104.82264327 30.13804611 -142.35546875 42.06640625 C-158.38109628 47.75897969 -171.33885526 56.60482325 -179.52734375 71.8203125 C-185.96021637 85.7098571 -187.40186666 101.48258107 -183.04296875 116.2578125 C-173.55307471 141.20876987 -149.24976226 152.55099099 -126.36901855 162.95452881 C-120.01339564 165.75932772 -113.52199824 168.23851648 -107.04876709 170.75610352 C-90.67198442 177.14226049 -74.60668909 183.87579685 -59 192 C-58.28827637 192.3702832 -57.57655273 192.74056641 -56.84326172 193.12207031 C-25.17914425 209.85176249 1.9834791 235.43433487 13.05029297 270.12524414 C23.01431818 303.34914994 20.39057117 342.21594852 4.125 373.0625 C-14.52171273 406.79511005 -47.27435665 427.58913932 -83.3671875 438.4296875 C-103.15052576 444.10439978 -123.49341053 446.26349573 -144 447 C-145.72476562 447.06380859 -145.72476562 447.06380859 -147.484375 447.12890625 C-190.50821794 447.87240584 -242.34371448 440.43752368 -279 416 C-276.92688103 408.11167448 -274.57864971 400.34215846 -272.05859375 392.5859375 C-271.69024918 391.44967926 -271.3219046 390.31342102 -270.94239807 389.14273071 C-270.16986017 386.76410805 -269.39582886 384.38596995 -268.62036133 382.00830078 C-267.43031326 378.35292506 -266.25124193 374.69411569 -265.07226562 371.03515625 C-264.31838005 368.7185313 -263.56384632 366.40211715 -262.80859375 364.0859375 C-262.28041298 362.43928604 -262.28041298 362.43928604 -261.74156189 360.7593689 C-261.41104324 359.75386993 -261.0805246 358.74837097 -260.73999023 357.71240234 C-260.4514769 356.82402679 -260.16296356 355.93565125 -259.8657074 355.02035522 C-259 353 -259 353 -257 352 C-254.33606319 353.39174604 -251.77149999 354.84615157 -249.1875 356.375 C-209.20113458 379.17494891 -159.10003039 391.55781349 -113.65234375 379.93359375 C-95.92852481 375.00613844 -80.75299398 365.84861522 -71 350 C-62.16428666 334.3534243 -60.88651597 316.48243449 -65.09765625 299.2109375 C-71.3915449 276.81450257 -88.29846823 263.6247461 -107.74316406 252.65600586 C-122.54149876 244.59253371 -138.5385623 238.75098266 -154.30664062 232.89331055 C-195.70723895 217.48614872 -237.31235943 192.58204242 -256.875 151.25 C-269.31060252 121.94064706 -268.92915653 88.7188519 -257.140625 59.1875 C-251.8042027 46.48497931 -244.90533758 35.52297381 -236 25 C-235.31164063 24.17628906 -234.62328125 23.35257812 -233.9140625 22.50390625 C-207.19943707 -8.40597624 -165.97962002 -22.59658684 -126.2722168 -25.78613281 C-83.60801456 -28.57460115 -37.50705545 -21.52551902 0 0 Z "
        fill="#FFFFFF" transform="translate(1412,253)" />
    <path
        d="M0 0 C27.39 0 54.78 0 83 0 C83 219.12 83 438.24 83 664 C55.61 664 28.22 664 0 664 C0 444.88 0 225.76 0 0 Z "
        fill="#FFFFFF" transform="translate(973,26)" />
    <path
        d="M0 0 C27.39 0 54.78 0 83 0 C83 149.49 83 298.98 83 453 C55.61 453 28.22 453 0 453 C0 303.51 0 154.02 0 0 Z "
        fill="#FFFFFF" transform="translate(2702,237)" />
    <path
        d="M0 0 C10.37809081 8.78265297 16.62150336 20.506526 18.3671875 34.02734375 C19.52420401 50.12094038 17.07944737 63.98584217 6.84765625 76.953125 C-2.75044905 87.48535247 -16.57244599 92.40868751 -30.49609375 93.1875 C-44.21700029 93.56544114 -56.65519001 90.72160958 -67.328125 81.765625 C-78.27111703 71.36161616 -83.54976058 59.61599928 -84.9453125 44.68359375 C-85.27730788 28.58181786 -79.79533889 14.85733895 -68.86328125 3.12890625 C-50.83828255 -14.25098724 -19.65333005 -14.72541792 0 0 Z "
        fill="#FFFFFF" transform="translate(2775.6328125,68.97265625)" />
    <path
        d="M0 0 C1.62748169 0.00858032 1.62748169 0.00858032 3.2878418 0.01733398 C22.46307566 0.43890808 38.36651641 7.71332426 51.8125 21.5 C64.18785981 34.73721522 69.8125 51.54208671 69.8125 69.5 C68.49431494 89.56112889 60.96665134 107.04436266 45.8125 120.5 C29.18529405 134.00991756 9.68875511 136.81982526 -11.1875 135.5 C-24.69819437 133.77074359 -37.04246211 127.40783815 -47.1875 118.5 C-47.86425781 117.91734375 -48.54101562 117.3346875 -49.23828125 116.734375 C-61.23786894 105.64349395 -68.74654577 89.10497961 -69.5234375 72.7734375 C-69.86144887 54.51158813 -66.17281701 38.33822942 -53.8125 24.1875 C-52.28871217 22.60755918 -50.74757091 21.0441247 -49.1875 19.5 C-48.19169922 18.45392578 -48.19169922 18.45392578 -47.17578125 17.38671875 C-42.71983965 13.01565223 -37.8899991 10.0138636 -32.375 7.1875 C-31.74779053 6.86185059 -31.12058105 6.53620117 -30.47436523 6.20068359 C-20.76537592 1.48057578 -10.713583 -0.06652307 0 0 Z M-39.1875 32.5 C-48.92744161 44.92682205 -52.07396336 58.98689126 -51.1875 74.5 C-48.90905858 90.12083991 -40.89912005 102.96500311 -28.3125 112.375 C-16.61572151 120.11202664 -2.84531527 122.21987616 10.88671875 120.00390625 C24.39226929 116.5938029 35.83200383 109.35260979 43.27490234 97.36035156 C50.95200415 84.05819209 53.05041273 69.75842252 50.05078125 54.66796875 C49.12417061 51.52188758 48.06815452 48.52834325 46.8125 45.5 C46.36197266 44.38431641 46.36197266 44.38431641 45.90234375 43.24609375 C40.4113476 31.09934468 30.30010581 22.1628956 17.9765625 17.2421875 C-3.05208278 10.03019724 -24.25671946 16.34622038 -39.1875 32.5 Z "
        fill="#FFFFFF" transform="translate(3434.1875,223.5)" />
    <path
        d="M0 0 C2.00101671 -0.00969133 4.00189127 -0.04089599 6.00268555 -0.07226562 C14.75978869 -0.10727653 22.55718036 0.37313576 30.14135742 5.05273438 C34.3307619 9.49604216 35.41767655 13.21576295 35.64135742 19.24023438 C35.4818116 24.40313705 34.92478286 27.4262858 31.20385742 31.24023438 C28.62605911 33.08503279 25.98216446 34.71621158 23.20385742 36.24023438 C24.11135742 36.73523438 25.01885742 37.23023438 25.95385742 37.74023438 C32.55417694 42.17679949 34.11940509 50.75411399 35.89135742 58.05273438 C36.31128753 59.7260729 36.7318341 61.39925688 37.15307617 63.07226562 C37.33185303 63.8016333 37.51062988 64.53100098 37.69482422 65.2824707 C38.12951962 66.95432799 38.65759129 68.60143598 39.20385742 70.24023438 C36.26483393 70.37505197 33.33196183 70.47422854 30.39135742 70.55273438 C29.55797852 70.59462891 28.72459961 70.63652344 27.8659668 70.6796875 C25.55349288 70.72612272 23.4729182 70.69128675 21.20385742 70.24023438 C17.95171257 66.81829883 17.21874332 62.18679388 16.14135742 57.67773438 C14.84750826 51.68580771 14.84750826 51.68580771 12.20385742 46.24023438 C7.00336733 43.32557525 7.00336733 43.32557525 -4.79614258 43.24023438 C-4.79614258 52.15023437 -4.79614258 61.06023437 -4.79614258 70.24023438 C-10.07614258 70.24023438 -15.35614258 70.24023438 -20.79614258 70.24023438 C-20.81869576 61.39140714 -20.83705891 52.54259885 -20.84795475 43.69374943 C-20.85318304 39.58529153 -20.86027971 35.47685424 -20.87158203 31.3684082 C-20.88241283 27.40676609 -20.88841982 23.44514385 -20.89101982 19.48348808 C-20.89287372 17.96875127 -20.89649367 16.45401559 -20.90187263 14.93928719 C-20.90908565 12.82481625 -20.91013341 10.71042844 -20.90966797 8.59594727 C-20.91188858 7.39015518 -20.91410919 6.1843631 -20.91639709 4.94203186 C-20.79614258 2.24023438 -20.79614258 2.24023438 -19.79614258 1.24023438 C-13.19222261 0.08080288 -6.68696071 0.01954061 0 0 Z M-3.79614258 12.24023438 C-3.79614258 18.51023437 -3.79614258 24.78023438 -3.79614258 31.24023438 C6.49991081 31.67991882 6.49991081 31.67991882 15.57885742 27.36523438 C17.27427395 25.14815122 18.03570952 24.01467477 18.20385742 21.24023438 C17.45719187 17.92172082 16.32988895 16.36976678 13.95385742 13.92773438 C8.85517865 10.73785745 1.89040744 12.02564758 -3.79614258 12.24023438 Z "
        fill="#FFFFFF" transform="translate(3428.796142578125,256.759765625)" />
    <path
        d="M0 0 C0.66 0.33 1.32 0.66 2 1 C-5.92 8.92 -13.84 16.84 -22 25 C-22.66 24.67 -23.32 24.34 -24 24 C-16.32908807 15.59591248 -8.68092794 7.38078896 0 0 Z "
        fill="#FFFFFF" transform="translate(2947,272)" />
    <path
        d="M0 0 C0.66 0.33 1.32 0.66 2 1 C-5.26 8.26 -12.52 15.52 -20 23 C-20.66 22.67 -21.32 22.34 -22 22 C-15.003724 14.22235297 -7.95768603 6.81332853 0 0 Z "
        fill="#FFFFFF" transform="translate(153,264)" />
    <path
        d="M0 0 C0.66 0.33 1.32 0.66 2 1 C-4.6 7.6 -11.2 14.2 -18 21 C-18.66 20.67 -19.32 20.34 -20 20 C-7.23404255 5.85106383 -7.23404255 5.85106383 0 0 Z "
        fill="#FFFFFF" transform="translate(1537,457)" />
    <path
        d="M0 0 C0.66 0.33 1.32 0.66 2 1 C-4.27 7.27 -10.54 13.54 -17 20 C-17.66 19.67 -18.32 19.34 -19 19 C-6.51480638 5.18223235 -6.51480638 5.18223235 0 0 Z "
        fill="#FFFFFF" transform="translate(1193,261)" />
    <path
        d="M0 0 C0.66 0.33 1.32 0.66 2 1 C-4.6 7.6 -11.2 14.2 -18 21 C-18.66 20.67 -19.32 20.34 -20 20 C-13.97501417 13.25511696 -7.98873663 6.77411663 -1 1 C-0.67 0.67 -0.34 0.34 0 0 Z "
        fill="#FFFFFF" transform="translate(2336,264)" />
    <path
        d="M0 0 C0.66 0.33 1.32 0.66 2 1 C-2.62 5.62 -7.24 10.24 -12 15 C-12 10.09687565 -8.29800369 7.38658643 -5 4 C-3.37458956 2.61667196 -1.72614587 1.25537882 0 0 Z "
        fill="#FFFFFF" transform="translate(2713,67)" />
</svg>