<?xml version="1.0" encoding="UTF-8"?>
<svg version="1.1" xmlns="http://www.w3.org/2000/svg" width="301" height="167">
<path d="M0 0 C99.33 0 198.66 0 301 0 C301 55.11 301 110.22 301 167 C201.67 167 102.34 167 0 167 C0 111.89 0 56.78 0 0 Z " fill="#C32140" transform="translate(0,0)"/>
<path d="M0 0 C8.20384989 0.19707689 8.20384989 0.19707689 12.11987305 3.70556641 C13.09813484 5.30635843 14.02918848 6.93624622 14.93237305 8.58056641 C15.77468712 9.76124012 16.6343 10.92967686 17.5065918 12.08837891 C25.5854339 22.86298674 25.5854339 22.86298674 25.93237305 26.58056641 C24.80834961 28.71533203 24.80834961 28.71533203 23.07299805 30.98681641 C22.45166992 31.81310547 21.8303418 32.63939453 21.19018555 33.49072266 C20.52760742 34.34537109 19.8650293 35.20001953 19.18237305 36.08056641 C18.53526367 36.93521484 17.8881543 37.78986328 17.22143555 38.67041016 C16.01128134 40.2665189 14.79598768 41.85875309 13.57397461 43.44580078 C11.90487684 45.5499719 11.90487684 45.5499719 10.51977539 47.80737305 C8.43165044 50.13989405 7.23160962 50.17936695 4.14331055 50.35791016 C-10.74027056 51.07030636 -10.74027056 51.07030636 -16.2043457 47.57275391 C-18.53433628 44.70314253 -20.28205765 41.81595694 -22.06762695 38.58056641 C-23.30401329 36.74888295 -24.58435098 34.95403193 -25.87109375 33.1574707 C-27.65091973 30.66322941 -29.35775859 28.12313661 -31.06762695 25.58056641 C-27.33212658 19.76453418 -23.34332077 14.15151795 -19.25512695 8.58056641 C-18.51685669 7.57401001 -18.51685669 7.57401001 -17.76367188 6.54711914 C-12.38071401 -0.75785535 -8.87708255 0.05450129 0 0 Z " fill="#B5B2AE" transform="translate(220.067626953125,58.41943359375)"/>
<path d="M0 0 C3.50625 -0.061875 7.0125 -0.12375 10.625 -0.1875 C11.71893066 -0.21481201 12.81286133 -0.24212402 13.93994141 -0.27026367 C19.37158388 -0.31659854 23.35021183 -0.1552134 28 3 C30.18553732 5.69549602 30.91865919 7.52212274 31.5 10.9375 C30.80385649 15.20137899 28.95466281 16.89760405 26 20 C26.804375 20.804375 27.60875 21.60875 28.4375 22.4375 C32.18417047 26.18417047 32.18417047 26.18417047 32.3125 30.75 C32.2762165 34.37834995 32.12200473 35.79084903 30.25 39 C26.3426383 42.4732104 23.57558426 43.25080409 18.359375 43.1953125 C17.39483398 43.19031738 16.43029297 43.18532227 15.43652344 43.18017578 C14.2199707 43.16196777 13.00341797 43.14375977 11.75 43.125 C5.93375 43.063125 5.93375 43.063125 0 43 C0 28.81 0 14.62 0 0 Z " fill="#FAF5F6" transform="translate(112,62)"/>
<path d="M0 0 C13.88675242 -1.20029553 13.88675242 -1.20029553 18.26953125 1.2890625 C20.12249255 3.40802068 21.52515157 5.59989289 23 8 C23.85467198 9.17653492 24.72013192 10.34527645 25.59375 11.5078125 C33.6573255 22.32811757 33.6573255 22.32811757 34 26 C32.87597656 28.13476562 32.87597656 28.13476562 31.140625 30.40625 C30.51929688 31.23253906 29.89796875 32.05882812 29.2578125 32.91015625 C28.59523437 33.76480469 27.93265625 34.61945313 27.25 35.5 C26.60289062 36.35464844 25.95578125 37.20929688 25.2890625 38.08984375 C24.07890829 39.68595249 22.86361464 41.27818669 21.64160156 42.86523438 C19.97256671 44.98012762 19.97256671 44.98012762 18.52514648 47.25097656 C17 49 17 49 13.20703125 49.390625 C11.74167769 49.36410276 10.27658449 49.31649117 8.8125 49.25 C8.06291016 49.23195312 7.31332031 49.21390625 6.54101562 49.1953125 C4.6934629 49.14824109 2.84656841 49.07649766 1 49 C3.10798351 45.06166983 5.30407315 41.49118487 8.0859375 37.9921875 C8.62347656 37.31542969 9.16101563 36.63867188 9.71484375 35.94140625 C10.83465415 34.54757165 11.96516351 33.16227432 13.10546875 31.78515625 C13.63527344 31.11097656 14.16507813 30.43679687 14.7109375 29.7421875 C15.19868652 29.1426123 15.68643555 28.54303711 16.18896484 27.92529297 C17.25677234 25.94370622 17.25677234 25.94370622 16.32861328 23.53613281 C15.04278069 21.08166222 13.6721954 18.91037934 12.03125 16.6796875 C11.46019531 15.89722656 10.88914063 15.11476563 10.30078125 14.30859375 C9.40939453 13.10396484 9.40939453 13.10396484 8.5 11.875 C7.32256919 10.26848378 6.1454719 8.66172305 4.96875 7.0546875 C4.44732422 6.34812012 3.92589844 5.64155273 3.38867188 4.91357422 C2.22011175 3.30331151 1.10362741 1.65544111 0 0 Z " fill="#FCFAFB" transform="translate(212,59)"/>
<path d="M0 0 C1.62890625 0.828125 1.62890625 0.828125 3.87890625 2.328125 C2.80489517 5.24329792 2.10080449 7.10622676 -0.12109375 9.328125 C-2.06035119 9.31666705 -3.99958808 9.22120803 -5.93359375 9.078125 C-10.2195318 8.88803763 -10.2195318 8.88803763 -13.98828125 10.5859375 C-17.60290572 15.01331777 -18.45866829 18.4113975 -18.4140625 23.93359375 C-17.93904868 27.81604003 -16.3703513 30.15270257 -14.12109375 33.328125 C-11.76838782 34.50447797 -10.30034175 34.46171859 -7.68359375 34.453125 C-6.90113281 34.45570312 -6.11867187 34.45828125 -5.3125 34.4609375 C-2.94214028 34.41195048 -2.94214028 34.41195048 -0.12109375 33.328125 C3.86013949 37.67128854 3.86013949 37.67128854 3.94140625 40.515625 C2.40051877 43.14419776 0.7491277 43.40045674 -2.12109375 44.328125 C-9.33380617 45.20547158 -15.57846753 45.2086667 -21.5390625 40.75390625 C-26.31382684 36.45072358 -28.83827899 32.26479451 -29.45703125 25.83984375 C-29.60281974 11.56715095 -29.60281974 11.56715095 -25.12109375 6.328125 C-17.98937344 -0.18656518 -9.62087258 -3.04749555 0 0 Z " fill="#FBF7F8" transform="translate(178.12109375,61.671875)"/>
<path d="M0 0 C0.928125 0.495 1.85625 0.99 2.8125 1.5 C1.60868552 3.99361571 0.35821278 6.18143083 -1.1875 8.5 C-3.83203125 8.6171875 -3.83203125 8.6171875 -7 8.375 C-12.0761577 8.18086087 -12.0761577 8.18086087 -16.375 10.875 C-19.56865928 15.50029965 -19.70272727 18.96808617 -19.1875 24.5 C-18.06732618 28.60987911 -16.82892683 31.07238212 -13.1875 33.5 C-10.34425941 33.55350421 -10.34425941 33.55350421 -7.25 33.3125 C-1.54982898 33.20208506 -1.54982898 33.20208506 1.625 35.8125 C2.8125 38.5 2.8125 38.5 1.8125 41.5 C-3.79083567 44.52965166 -10.00752336 43.98378605 -16.1875 43.5 C-22.32476925 41.60302587 -25.85424253 36.97997786 -29.33203125 31.79296875 C-31.67018207 25.52587043 -31.41620377 16.07948826 -29.2421875 9.74609375 C-23.03191577 -0.54577167 -11.24004828 -4.83024478 0 0 Z " fill="#FCF8F9" transform="translate(85.1875,62.5)"/>
<path d="M0 0 C3.3 0 6.6 0 10 0 C10 14.19 10 28.38 10 43 C6.7 43 3.4 43 0 43 C0 28.81 0 14.62 0 0 Z " fill="#FEFCFC" transform="translate(93,62)"/>
<path d="M0 0 C5.17226615 4.6873662 8.98925493 10.31728181 13 16 C11.24933204 19.88609811 8.81675994 23.27812258 6.375 26.75 C5.95476562 27.35199219 5.53453125 27.95398438 5.1015625 28.57421875 C4.07006863 30.05113043 3.03535421 31.52579194 2 33 C-2.17655968 31.60781344 -3.79405816 28.63900018 -6.25 25.1875 C-6.72179687 24.55779297 -7.19359375 23.92808594 -7.6796875 23.27929688 C-11.0716614 18.55334493 -11.0716614 18.55334493 -10.73510742 15.95458984 C-9.65220195 13.07523374 -7.90701954 10.88907661 -6.0625 8.4375 C-3.97988335 5.6518585 -1.92961929 2.89442894 0 0 Z " fill="#C12241" transform="translate(217,67)"/>
<path d="M0 0 C1.258125 -0.04125 2.51625 -0.0825 3.8125 -0.125 C4.52019531 -0.14820312 5.22789062 -0.17140625 5.95703125 -0.1953125 C8 0 8 0 11 2 C11.5 4.9375 11.5 4.9375 11 8 C8.1769966 10.49088536 6.44702321 10.9746968 2.6875 11.1875 C1.3571875 11.0946875 1.3571875 11.0946875 0 11 C0 7.37 0 3.74 0 0 Z " fill="#C11B3D" transform="translate(123,87)"/>
<path d="M0 0 C3.25295114 -0.22179212 5.42797793 -0.28601103 8.375 1.1875 C10 3 10 3 10.4375 5.5625 C10.293125 6.366875 10.14875 7.17125 10 8 C6.3558226 10.4294516 4.28758728 10.16179575 0 10 C0 6.7 0 3.4 0 0 Z " fill="#BE2142" transform="translate(123,69)"/>
<path d="M0 0 C1.32 0.66 2.64 1.32 4 2 C4.3125 4.8125 4.3125 4.8125 4 8 C1.1769966 10.49088536 -0.55297679 10.9746968 -4.3125 11.1875 C-5.6428125 11.0946875 -5.6428125 11.0946875 -7 11 C-6.67 10.34 -6.34 9.68 -6 9 C-4.02 9 -2.04 9 0 9 C-0.37125 8.443125 -0.7425 7.88625 -1.125 7.3125 C-2 5 -2 5 -1.125 2.25 C-0.75375 1.5075 -0.3825 0.765 0 0 Z " fill="#BE2C49" transform="translate(130,87)"/>
</svg>
