<svg version="1.2" xmlns="http://www.w3.org/2000/svg" viewBox="0 0 1543 395" width="1543" height="395">
	<title>cibc-logo-grey-142x36-svg</title>
	<style>
		.s0 { fill: #ffffff } 
		.s1 { fill: #b8baba } 
	</style>
	<g id="Logo-/-grey-/-desktop-header-142x36">
		<g id="Group">
			<path id="Path" fill-rule="evenodd" class="s0" d="m274.6 346.7c-11.9 8.2-37.8 31.1-104.7 31.1-104.8 0-168.9-69.3-168.9-180.5 0-108.3 61.3-180.9 168.9-180.9 49.4 0 74.9 10.7 101 28.1l-41.9 56.7c-15-10.5-33.1-15.9-51.4-15.4-56.4 0-93.2 42.3-93.2 111.5 0 68.2 37.2 111 93.2 111 19.6 0.7 38.9-5.6 54.4-17.6z"/>
			<path id="Path" fill-rule="evenodd" class="s0" d="m1032.3 346.9c-11.9 8.2-37.9 31.1-104.7 31.1-104.8 0-168.9-69.3-168.9-180.5 0-108.3 61.5-180.9 168.9-180.9 49.4 0 74.9 10.7 100.9 28.1l-41.8 56.7c-15-10.5-33.1-15.9-51.4-15.4-56.1 0-93.2 42.3-93.2 111.5 0 68.2 37.2 111 93.2 111 19.9 0.4 39.4-6 55.1-18.4z"/>
			<path id="Combined-Shape" fill-rule="evenodd" class="s0" d="m591.4 22.7c77.1 0 117.9 31 117.9 89.4 0 42.3-27.6 64-54.1 74.8l-0.2 0.7c31.1 8.8 67.5 29 67.5 84.4 0 64.2-47.5 99.6-133.8 99.6h-122.6v-348.9zm-10.5 197.4h-33.8v90.4h34.8c35.2 0 58.5-13.8 58.5-44.2 0-32.1-23.1-46.2-59.5-46.2zm0-139.3h-33.8v80.9h31.8c30.6 0 52.8-12.2 52.8-40 0-18.7-11.4-40.9-50.8-40.9z"/>
			<path id="Path" class="s0" d="m310.5 22.7h80.8v348.9h-80.8z"/>
			<path id="Fill-3" fill-rule="evenodd" class="s0" d="m1543 197.3l-134.3 182.2c-7.2 10-18.9 15.6-31.2 15.1h-130.1c12.5 0.5 24.4-5.3 31.6-15.5 13.1-17.5 134-181.8 134-181.8 0 0-120.9-164.3-134-181.7-7.2-10.2-19.1-16.1-31.6-15.6h130.1c12.3-0.5 24 5.2 31.2 15.2z"/>
			<path id="Fill-6" fill-rule="evenodd" class="s1" d="m1211.8 197.4l100.6 136.5-33.4 45.2c-7.2 10.1-19.1 16-31.6 15.4-12.3 0.6-24-5.1-31.3-15l-134.3-182.1 134.3-182.2c7.2-10 19-15.7 31.3-15.2 12.5-0.5 24.4 5.4 31.6 15.6 3.9 5.2 17 22.8 33.4 45.1z"/>
		</g>
	</g>
</svg>