<?xml version="1.0" standalone="no"?>
<!DOCTYPE svg PUBLIC "-//W3C//DTD SVG 20010904//EN"
 "http://www.w3.org/TR/2001/REC-SVG-20010904/DTD/svg10.dtd">
<svg version="1.0" xmlns="http://www.w3.org/2000/svg"
 width="920.000000pt" height="200.000000pt" viewBox="0 0 920.000000 200.000000"
 preserveAspectRatio="xMidYMid meet">

<g transform="translate(0.000000,200.000000) scale(0.100000,-0.100000)"
fill="#FFFFFF" stroke="none">
<path d="M2940 1015 l0 -815 200 0 200 0 0 815 0 815 -200 0 -200 0 0 -815z"/>
<path d="M4850 1695 l0 -135 200 0 200 0 0 135 0 135 -200 0 -200 0 0 -135z"/>
<path d="M170 1010 l0 -812 353 4 c400 5 435 10 597 89 68 34 102 59 171 128
73 73 93 101 132 181 54 113 74 189 88 336 18 191 -11 374 -82 521 -47 98
-177 225 -281 276 -152 73 -196 80 -610 84 l-368 5 0 -812z m691 435 c137 -48
209 -189 209 -413 0 -238 -66 -381 -205 -444 -39 -17 -74 -23 -157 -26 l-108
-4 0 457 0 458 108 -6 c59 -3 128 -13 153 -22z"/>
<path d="M5830 1765 c-69 -12 -158 -28 -197 -35 l-73 -12 0 -154 0 -154 -70 0
-70 0 0 -155 0 -155 70 0 70 0 0 -292 c0 -381 15 -452 107 -539 76 -73 156
-94 329 -87 92 4 138 11 202 32 l82 27 0 153 0 153 -67 -18 c-74 -21 -164 -25
-194 -9 -45 24 -49 54 -49 325 l0 255 130 0 130 0 0 155 0 155 -130 0 -130 0
0 190 c0 105 -3 190 -7 189 -5 0 -64 -11 -133 -24z"/>
<path d="M6700 1754 c-107 -18 -196 -33 -197 -33 -2 -1 -3 -71 -3 -156 l0
-155 -70 0 -70 0 0 -155 0 -155 70 0 70 0 0 -242 c0 -431 28 -546 151 -624
108 -68 351 -74 516 -12 l53 19 0 154 0 153 -61 -19 c-68 -21 -155 -25 -192
-8 -43 20 -47 44 -47 319 l0 260 130 0 130 0 0 155 0 155 -130 0 -130 0 -2
187 c-2 114 -7 187 -13 188 -5 2 -98 -12 -205 -31z"/>
<path d="M2065 1415 c-203 -42 -343 -178 -401 -390 -25 -93 -30 -294 -10 -396
48 -237 198 -387 435 -435 117 -23 364 -15 470 15 60 18 124 43 139 56 1 1
-11 61 -28 133 -16 71 -30 132 -30 134 0 3 -32 -6 -71 -19 -143 -46 -306 -52
-394 -14 -66 29 -125 113 -125 179 0 9 80 12 366 12 l367 0 -6 163 c-3 99 -11
183 -21 216 -47 166 -157 279 -321 331 -91 28 -270 36 -370 15z m256 -291 c32
-16 61 -55 77 -103 26 -74 32 -71 -164 -71 l-177 0 7 42 c21 127 144 191 257
132z"/>
<path d="M3965 1419 c-295 -50 -456 -265 -456 -610 -1 -239 68 -403 219 -518
103 -79 208 -111 368 -111 182 0 311 47 420 155 111 109 164 262 164 467 0
139 -18 226 -66 326 -107 223 -366 339 -649 291z m201 -318 c30 -14 47 -30 62
-62 49 -102 54 -335 9 -447 -29 -73 -69 -102 -141 -102 -122 0 -176 97 -176
318 0 162 33 258 100 293 44 24 94 24 146 0z"/>
<path d="M7745 1414 c-198 -39 -345 -181 -401 -389 -25 -94 -30 -294 -10 -396
48 -237 198 -387 435 -435 117 -23 364 -15 470 15 60 18 124 43 139 56 1 1
-11 61 -28 133 -16 71 -30 132 -30 134 0 3 -30 -6 -68 -18 -138 -47 -310 -53
-397 -15 -66 29 -125 113 -125 179 0 9 80 12 366 12 l367 0 -6 163 c-7 209
-32 298 -114 402 -35 45 -143 118 -205 139 -111 37 -267 45 -393 20z m257
-290 c37 -19 76 -79 84 -131 l7 -43 -178 0 -178 0 7 42 c21 128 144 191 258
132z"/>
<path d="M4850 805 l0 -605 200 0 200 0 0 605 0 605 -200 0 -200 0 0 -605z"/>
</g>
</svg>
