<?xml version="1.0" standalone="no"?>
<!DOCTYPE svg PUBLIC "-//W3C//DTD SVG 20010904//EN" "http://www.w3.org/TR/2001/REC-SVG-20010904/DTD/svg10.dtd">
<svg version="1.0" xmlns="http://www.w3.org/2000/svg" width="603.000000pt" height="103.000000pt"
    viewBox="0 0 603.000000 103.000000" preserveAspectRatio="xMidYMid meet">

    <g transform="translate(0.000000,103.000000) scale(0.100000,-0.100000)" fill="#FFFFFF" stroke="none">
        <path d="M391 994 c-174 -47 -318 -201 -357 -383 -22 -108 -28 -101 80 -101
l94 0 12 52 c22 106 77 180 172 230 62 33 203 33 269 0 111 -54 173 -157 173
-282 0 -54 -6 -88 -21 -121 -44 -97 -140 -172 -238 -186 l-45 -6 0 -93 0 -94
38 0 c90 0 211 53 295 130 293 268 177 754 -204 855 -68 19 -198 18 -268 -1z" />
        <path d="M2012 774 c-26 -18 -30 -65 -6 -88 23 -24 70 -20 88 6 21 30 20 54
-4 78 -24 24 -48 25 -78 4z" />
        <path d="M2671 764 c-25 -32 -26 -42 -5 -72 24 -35 84 -28 103 12 12 25 11 31
-6 55 -28 37 -65 39 -92 5z" />
        <path d="M3970 781 c-86 -28 -150 -82 -191 -161 -33 -64 -34 -185 -1 -251 31
-64 86 -117 149 -146 46 -21 66 -25 131 -21 94 4 157 33 213 96 127 144 75
388 -100 465 -49 22 -160 32 -201 18z m160 -113 c24 -13 57 -40 74 -61 64 -80
41 -217 -47 -275 -35 -23 -51 -27 -113 -27 -65 0 -76 3 -111 31 -58 46 -86
107 -79 173 13 139 155 220 276 159z" />
        <path d="M1430 491 l0 -291 83 0 c287 1 402 87 401 300 -1 133 -44 204 -154
254 -37 16 -71 21 -187 24 l-143 4 0 -291z m240 188 c94 -20 140 -79 140 -181
-1 -133 -57 -187 -202 -196 l-78 -5 0 197 0 196 45 0 c24 0 67 -5 95 -11z" />
        <path d="M3570 490 l0 -290 50 0 50 0 0 290 0 290 -50 0 -50 0 0 -290z" />
        <path d="M2890 665 c0 -54 0 -55 -30 -55 -29 0 -30 -2 -30 -45 0 -43 1 -45 29
-45 l29 0 4 -122 c5 -163 22 -187 134 -191 l49 -2 3 41 c3 41 3 41 -36 48 -23
3 -42 13 -46 22 -3 8 -6 58 -6 110 l0 94 45 0 45 0 0 45 0 45 -45 0 -45 0 0
55 0 55 -50 0 -50 0 0 -55z" />
        <path d="M2308 610 c-86 -26 -132 -103 -126 -209 4 -79 31 -128 88 -159 62
-34 111 -36 183 -7 34 14 16 -63 -22 -92 -9 -7 -37 -13 -63 -13 -38 0 -54 6
-80 29 l-33 29 -34 -30 -33 -30 23 -24 c56 -59 168 -82 246 -49 50 21 72 42
94 90 16 35 19 68 19 253 l0 212 -45 0 c-33 0 -45 -4 -45 -15 0 -19 2 -19 -45
5 -41 21 -81 24 -127 10z m133 -109 c17 -18 29 -41 30 -58 3 -80 -12 -113 -60
-133 -38 -15 -75 -7 -107 25 -20 20 -24 34 -24 80 0 49 4 60 29 86 22 21 39
29 66 29 27 0 44 -8 66 -29z" />
        <path d="M3242 608 c-18 -6 -47 -24 -64 -40 l-31 -29 33 -34 32 -33 22 24 c14
17 36 27 63 31 35 5 45 2 67 -20 44 -44 35 -55 -46 -54 -85 0 -129 -18 -158
-66 -37 -60 -18 -142 40 -172 36 -19 117 -19 150 0 32 18 40 18 40 0 0 -11 12
-15 51 -15 l51 0 -3 159 c-4 173 -9 188 -71 234 -30 23 -128 31 -176 15z m132
-244 c9 -3 16 -16 16 -29 0 -40 -86 -69 -131 -45 -21 12 -25 50 -7 68 12 12
95 16 122 6z" />
        <path d="M4536 605 c-116 -41 -167 -186 -107 -303 35 -68 93 -102 176 -102 65
0 109 16 148 55 l28 28 -28 29 c-33 35 -40 35 -74 2 -37 -36 -99 -37 -135 -3
-58 55 -54 161 9 199 43 27 75 25 121 -6 l38 -26 32 32 31 31 -33 28 c-57 49
-133 62 -206 36z" />
        <path d="M4913 601 c-79 -37 -124 -145 -103 -246 13 -64 65 -128 116 -145 57
-19 155 -9 198 20 48 33 52 48 20 81 l-27 28 -31 -23 c-43 -32 -79 -39 -120
-22 -35 14 -56 41 -56 70 0 14 19 16 136 16 l137 0 -7 57 c-13 109 -70 170
-168 179 -39 4 -64 0 -95 -15z m134 -93 c42 -39 31 -48 -57 -48 -81 0 -81 0
-69 23 28 51 86 63 126 25z" />
        <path d="M5325 602 c-22 -11 -50 -30 -62 -44 l-23 -24 35 -34 c29 -29 35 -31
41 -16 8 22 56 46 92 46 33 0 72 -32 72 -59 0 -17 -8 -19 -67 -18 -111 1 -166
-35 -180 -116 -7 -44 18 -97 56 -120 35 -21 116 -22 151 -2 32 18 40 18 40 0
0 -11 12 -15 50 -15 l50 0 0 148 c0 170 -14 218 -71 247 -50 27 -136 30 -184
7z m143 -241 c8 -4 12 -19 10 -32 -2 -18 -14 -28 -46 -39 -38 -13 -46 -13 -70
1 -57 32 -30 79 46 79 26 0 53 -4 60 -9z" />
        <path d="M5793 606 c-18 -8 -33 -11 -33 -6 0 6 -22 10 -50 10 l-50 0 0 -205 0
-205 50 0 50 0 0 140 c0 136 1 142 25 165 29 30 74 32 106 6 23 -18 24 -26 27
-165 l3 -146 51 0 50 0 -4 153 c-3 166 -12 197 -70 240 -34 26 -113 32 -155
13z" />
        <path d="M2000 405 l0 -205 50 0 50 0 0 205 0 205 -50 0 -50 0 0 -205z" />
        <path d="M2660 405 l0 -205 50 0 50 0 0 205 0 205 -50 0 -50 0 0 -205z" />
        <path d="M330 295 l0 -95 -75 0 -75 0 0 60 0 60 -60 0 -60 0 0 -60 0 -60 60 0
60 0 0 -75 0 -75 75 0 75 0 0 75 0 75 95 0 95 0 0 95 0 95 -95 0 -95 0 0 -95z" />
    </g>
</svg>