<svg xmlns="http://www.w3.org/2000/svg" width="140" height="28" fill="none">
  <path fill-rule="evenodd" clip-rule="evenodd" d="M13.507 10.316l.012.023c.353 0 .615-.394.674-.893-.29.097-.575.199-.858.3-.035.06-.07.12-.11.173-.13.14.104.396.282.396zm16.748.33c-.741-3-6.543-3.746-13.487-1.96-.248.186-.531.27-.75.305-.577.085-.784.123-.84.496-.055.373.93.557 1.593.073.446-.324.767-1.027 1.163-1.076.514-.061.607 1.289.313 1.954-.295.665-1.287 1.094-1.66.758-.128-.122-.11-.19-.128-.475-.018-.286-.674-.233-.674.201.02.303.006.61-.044.91-.184.954-1.893 1.106-2.336 1.056-.44-.05-.98-.397-.717-.613.603-.475.227-1.586-.645-2.038-.274.11-.545.224-.814.341a.461.461 0 00.32.274.923.923 0 01.044 1.753c-1.14.63-1.913-.537-1.98-.793-.055-.21-.137-.292-.341-.315-5.29 2.689-8.665 6.198-8.03 8.805.823 3.354 7.986 3.894 15.995 1.222 8.01-2.671 13.843-7.522 13.018-10.879z" fill="url(#prefix__paint0_linear_12_232)"/>
  <path fill-rule="evenodd" clip-rule="evenodd" d="M13.592 7.755a.38.38 0 00-.312.367c.011.214.262.362.262.733a1.51 1.51 0 01-.318 1.064c-.128.14.105.397.283.397l.012.023c.405 0 .691-.519.685-1.126.05-.732-.239-1.583-.612-1.46v.002zm2.403-.006a.351.351 0 00.123-.146.345.345 0 00-.213-.467c-.187.042-.38.045-.566.012a1.488 1.488 0 01-.525-.207c-.269-.213-.134-.915-.134-.915.011-.234-.24-.324-.33-.33-.093-.006-.306-.044-.44.306-.068.266-.056.572.017.837.073.266.213.508.405.703.228.19.508.31.803.347.294.038.595-.011.863-.14h-.003zM28.63 23.333c-.613-1.814-3.53-5.49-6.834-8.035-.606-.654-.735-1.59-.991-2.488a8.132 8.132 0 01-.496-3.007c.157-.727.361-1.441.612-2.138.406-1.485.738-2.993.992-4.51a6.323 6.323 0 00-.061-2.487c-.277-1.112-4.498 2.126-5.282 2.657a8.325 8.325 0 00-2.605-.808c-1.811-.181-3.64.055-5.343.691C7.14 2.181 4.675.116 3.842.434h.017c-.767.318-.406 1.887-.251 2.835.373 2.249 1.312 4.827 1.557 6.88.884 7.42 1.208 11.802 8.943 16.36.854.435 1.75.785 2.672 1.044 1.898.251 2.604-.659 2.604-1.271a2.851 2.851 0 00-.863-1.741c-.624-.698-1.642-1.503-2.115-2.077a28.649 28.649 0 003.678-.68 5.057 5.057 0 011.225-.286.95.95 0 01.551.275c.523.434 1.018.898 1.49 1.388a17.28 17.28 0 001.987 1.907 2.353 2.353 0 002.923.053c.247-.219.417-.51.484-.834a1.52 1.52 0 00-.111-.957l-.003.003zM18.25 10.438c-.295.665-1.287 1.094-1.66.759-.128-.123-.11-.19-.128-.476-.018-.286-.674-.233-.674.202.02.303.006.61-.044.91-.184.953-1.893 1.105-2.336 1.055-.44-.05-.98-.396-.718-.612.64-.502.184-1.712-.79-2.109-.35-.134-.484-.184-.613-.055a.462.462 0 00-.09.213.5.5 0 00.02.227c.027.073.07.14.129.19.058.052.128.09.204.108a.917.917 0 01.66.86.91.91 0 01-.164.545.92.92 0 01-.452.348c-1.14.63-1.914-.537-1.98-.794-.068-.256-.173-.323-.497-.323-1.551-.05-1.525-.666-1.68-1.118-.154-.452.24-.665.307-.612.23.198.519.318.822.341.324-.055.295.146.613.557.54.697 1.006-.219.7-.39-.674-.386-.496-1.004-.257-1.138a.384.384 0 00.149-.105.392.392 0 00.079-.347.394.394 0 00-.088-.16.442.442 0 00-.612 0c-.412.379-.155.848-.496.88-.508.038-1.374-.574-1.018-1.796.356-1.222 1.837-1.222 1.837-1.222l-.038.422a1.886 1.886 0 00.744 1.322c.925.525 1.881.268 1.954-.085.044-.219-.256-.475-.735-.446a1.224 1.224 0 01-1.312-.881 1.434 1.434 0 01.227-.948c.184-.28.458-.49.78-.592a1.084 1.084 0 011.324.49c.034.064.043.14.09.195a.446.446 0 00.589.097s.589-.904 1.298-.855c.204.015.4.079.574.184.175.105.321.254.426.429 0 0 1.625-.324 1.893 1.105.312 1.64-.691 2.091-1.269 2.176-.577.084-.784.122-.84.496-.055.373.93.557 1.593.073.446-.324.767-1.027 1.164-1.077.513-.06.606 1.29.312 1.954l.003.003z" fill="white"/>
  <path d="M13.589 12.97c-.076 0-.137-.003-.187-.01-.341-.037-.773-.253-.843-.49-.026-.093.003-.183.088-.25.21-.166.3-.426.256-.738-.073-.516-.496-1.03-1.03-1.248-.352-.137-.443-.158-.53-.076a.387.387 0 00-.073.175.431.431 0 00.017.192.402.402 0 00.28.251.998.998 0 01.715.93.985.985 0 01-.66.96c-.402.222-.801.251-1.183.088-.522-.225-.85-.75-.896-.93-.055-.21-.116-.269-.426-.269-1.429-.044-1.58-.58-1.7-1.012a3.213 3.213 0 00-.047-.157c-.108-.316.024-.546.181-.654.076-.052.178-.09.242-.038.219.187.487.3.773.327.269-.041.347.087.467.28.05.082.114.187.207.306.14.181.28.257.411.222.137-.038.236-.199.254-.333.006-.038.009-.134-.058-.172-.444-.254-.51-.583-.51-.758 0-.216.104-.423.25-.508l.009-.005a.32.32 0 00.122-.085.32.32 0 00.067-.28.284.284 0 00-.073-.128.365.365 0 00-.253-.1.38.38 0 00-.257.103c-.19.175-.222.364-.254.533-.029.17-.061.347-.288.368-.3.02-.654-.155-.884-.438-.3-.37-.376-.886-.21-1.452.367-1.26 1.893-1.275 1.907-1.275h.079l-.044.493c.027.248.1.484.222.703.122.219.286.405.487.557.618.35 1.251.344 1.607.184.134-.061.219-.14.236-.222.012-.052-.011-.114-.06-.172-.091-.102-.296-.207-.599-.187a1.297 1.297 0 01-1.388-.933V6.71c-.041-.35.044-.702.236-.997.193-.295.481-.513.817-.621.256-.097.54-.097.799 0 .26.096.475.283.61.525.017.032.029.064.04.093a.26.26 0 00.044.09.37.37 0 00.32.14.396.396 0 00.161-.05c.082-.122.654-.924 1.357-.874a1.347 1.347 0 011.03.604c.186-.03.848-.097 1.355.248.304.204.496.516.572.924.128.677.05 1.225-.233 1.625-.339.478-.878.603-1.097.636-.59.087-.732.12-.779.434-.011.079.056.137.114.172.254.155.887.181 1.365-.169.178-.128.338-.324.493-.513.228-.28.443-.543.706-.575.131-.014.25.041.341.166.268.362.292 1.336.047 1.89-.207.47-.732.805-1.14.893-.269.058-.494.017-.636-.111-.132-.125-.138-.216-.146-.411 0-.035-.003-.073-.006-.114-.006-.09-.126-.11-.196-.11-.134.002-.332.09-.332.306.02.303.006.615-.044.921-.175.91-1.601 1.126-2.228 1.126l.006.012zm-2.13-3.005c.12 0 .263.056.47.135.59.239 1.041.787 1.12 1.362.053.364-.058.674-.312.872-.047.038-.047.07-.038.096.04.143.382.347.718.385.41.047 2.082-.096 2.254-.997.047-.292.061-.595.041-.893 0-.289.245-.45.475-.458.193-.006.336.096.345.245 0 .044.005.082.005.117.01.19.012.227.1.312.105.096.285.122.504.076.374-.079.852-.385 1.039-.808.224-.508.21-1.424-.03-1.747-.06-.082-.128-.117-.207-.108-.204.026-.4.265-.61.522-.16.195-.326.4-.521.54-.493.358-1.188.382-1.526.174-.134-.081-.201-.195-.18-.317.063-.432.344-.473.9-.558.199-.029.692-.145.998-.577.26-.368.333-.875.21-1.514-.07-.37-.242-.65-.51-.831-.537-.362-1.292-.219-1.298-.216l-.05.009-.026-.044a1.198 1.198 0 00-.942-.574c-.66-.047-1.228.813-1.234.822l-.009.015-.014.008a.496.496 0 01-.24.08.555.555 0 01-.247-.042.542.542 0 01-.202-.151.411.411 0 01-.067-.135.546.546 0 00-.029-.072 1.005 1.005 0 00-1.234-.458 1.395 1.395 0 00-.743.563c-.172.265-.248.58-.216.895a1.154 1.154 0 001.23.822c.307-.02.575.07.721.237.079.09.114.195.093.297-.026.129-.14.245-.317.327-.391.175-1.08.187-1.745-.19l-.008-.006a1.95 1.95 0 01-.773-1.37v-.006l.029-.344c-.306.023-1.4.172-1.689 1.166-.152.52-.084.986.184 1.322.23.285.545.4.758.385.102-.01.123-.059.155-.248.029-.172.073-.406.297-.613a.518.518 0 01.712 0 .438.438 0 01.11.411.445.445 0 01-.271.318c-.087.053-.172.196-.172.38 0 .142.056.414.435.63.1.055.149.171.131.314-.023.184-.151.4-.358.455-.135.038-.339.02-.563-.27-.1-.126-.164-.234-.216-.319-.12-.195-.149-.239-.327-.21h-.017a1.527 1.527 0 01-.852-.35.284.284 0 00-.155.111c-.058.076-.116.21-.046.414l.05.164c.119.423.241.863 1.563.904.355 0 .487.087.565.379.03.117.313.618.814.831.341.146.697.117 1.062-.084l.011-.006a.838.838 0 00.566-.82.854.854 0 00-.606-.793.552.552 0 01-.38-.344.584.584 0 01-.026-.266.586.586 0 01.102-.245l.006-.008a.297.297 0 01.222-.097l.011-.006zm2.06.447h-.044l-.015-.03a.471.471 0 01-.32-.256c-.044-.096-.033-.19.032-.257.224-.283.332-.641.3-1.009 0-.201-.076-.327-.149-.446-.055-.094-.108-.181-.116-.289a.455.455 0 01.367-.443.317.317 0 01.295.061c.27.21.452.857.408 1.476.006.408-.122.784-.338 1.003a.595.595 0 01-.42.19zm.146-2.596c-.018 0-.033 0-.05.009h-.009a.335.335 0 00-.18.105.293.293 0 00-.074.192c.003.067.047.134.094.216.076.125.169.28.169.516.035.397-.085.79-.335 1.109-.012.011-.038.04-.01.105.042.09.152.175.234.175h.044l.011.023a.46.46 0 00.275-.143c.186-.19.3-.537.297-.904.038-.56-.125-1.179-.353-1.356a.186.186 0 00-.114-.044v-.003zm1.66.157a1.607 1.607 0 01-1.044-.376 1.687 1.687 0 01-.43-.74 1.772 1.772 0 01-.017-.873v-.009c.148-.382.396-.361.501-.352h.015c.146.011.414.14.4.408v.009c-.036.183-.085.694.107.845a1.371 1.371 0 001.03.181h.035a.411.411 0 01.289.336.43.43 0 01-.03.227.403.403 0 01-.148.178l-.009.006c-.222.105-.46.157-.703.157l.003.003zm-1.351-1.95a1.63 1.63 0 00.017.792c.067.254.201.485.388.671.213.178.478.292.761.327.28.035.563-.012.82-.131a.284.284 0 00.093-.111.29.29 0 00.02-.149.307.307 0 00-.06-.137.251.251 0 00-.109-.076 1.503 1.503 0 01-1.126-.207c-.294-.233-.186-.89-.168-.986.005-.186-.222-.245-.263-.248h-.018c-.09-.008-.242-.02-.35.254h-.005z" fill="gray"/>
  <path d="M38.5 6.953v13.458s11.993 2.476 11.993-6.726S38.5 6.953 38.5 6.953zm3.106 11.122v-8.71s5.749-1.201 5.749 4.335c0 4.966-5.749 4.377-5.749 4.377v-.003zm15.782-8.28c-2.875 0-4.987 2.44-4.987 5.456 0 3.016 2.111 5.46 4.987 5.46s4.959-2.441 4.959-5.457-2.083-5.457-4.959-5.457v-.003zm-.008 8.455c-1.707 0-2.08-1.739-2.08-2.996s.198-2.954 2.08-2.954c1.88 0 2.067 1.694 2.067 2.954 0 1.26-.373 2.996-2.067 2.996zm7.463-7.753v9.858h2.797v-7.933s1.7-.505 3.226.198c.45-1.706.552-2.307.552-2.307s-1.424-.612-3.285-.493c-1.86.123-3.29.674-3.29.674v.003zm12.851-.703c-3.083-.265-4.497.557-4.497.557l.268 2.211s1.776-.726 3.68-.37c1.33.25 1.235 1.872 1.235 1.872h-2.57c-.793 0-1.58.178-2.266.58-.753.444-1.383 1.126-1.444 2.415-.117 2.477 1.383 3.215 2.383 3.43 1.257 0 3.558.044 4.632 0a5.074 5.074 0 001.849-.466v-7.618s-.187-2.351-3.27-2.614v.003zm.686 8.526h-2.485s-.983-.094-.983-1.074c0-.869.566-1.271 1.1-1.271h2.365v2.345h.003zm24.654-8.526c-3.083-.265-4.497.557-4.497.557l.265 2.211s1.776-.726 3.681-.37c1.333.25 1.234 1.872 1.234 1.872h-2.57c-.793 0-1.58.178-2.266.58-.753.444-1.383 1.126-1.444 2.415-.117 2.477 1.383 3.215 2.383 3.43 1.257 0 3.558.044 4.632 0 1-.04 1.849-.466 1.849-.466v-7.618s-.187-2.351-3.27-2.614l.003.003zm.686 8.526h-2.485s-.983-.094-.983-1.074c0-.869.565-1.271 1.099-1.271h2.366v2.345h.003zM92.105 6.705v5.451h-5.121v-5.45h-3.098v13.582h3.098v-5.454h5.121v5.454h3.098V6.705h-3.1.002zm24.687 3.687l-.575 2.158s-4.695-1.403-4.649 2.698c.05 4.101 3.699 3.15 4.822 2.573.25 1.683.399 2.333.399 2.333s-2.351.834-4.398.353c-2.051-.478-4.049-2.01-3.9-5.384.149-3.378 2.453-4.512 3.55-4.988 1.852-.796 4.748.257 4.748.257h.003zm2.1-4.716l2.972-.452v8.534l3.351-3.716h3.25l-3.996 4.544s3.447 3.999 4.176 5.702c-.974-.029-3.374 0-3.374 0s-1.047-2.52-3.351-4.313v4.313h-2.926l-.099-14.615-.003.003zm18.366 4.693l-.574 2.108s-3.632-1.047-3.9.277c-.198 1.004 1.989 1.5 2.526 1.756 1.423.68 2.357 1.406 2.357 2.964 0 1.557-.709 3.19-4.256 3.19-3.546 0-3.774-.726-3.774-.726l.575-2.26s1.359.913 3.675.647c1.423-.166.959-1.274-.237-1.747-1.193-.475-4.305-1.12-3.491-4.194 1.106-4.145 7.099-2.013 7.099-2.013v-.002z" fill="white"/>
  <defs>
    <linearGradient id="prefix__paint0_linear_12_232" x1="5.833" y1="25.421" x2="25.632" y2="5.567" gradientUnits="userSpaceOnUse">
      <stop stop-color="white"/>
      <stop offset=".98" stop-color="gray"/>
    </linearGradient>
  </defs>
</svg>
