<?xml version="1.0" encoding="UTF-8"?>
<svg version="1.1" xmlns="http://www.w3.org/2000/svg" width="310" height="153">
    <path
        d="M0 0 C3.63 0 7.26 0 11 0 C13.66150628 3.12215159 15.16298565 5.44776231 17 9 C18.27581005 11.0308813 19.5675511 13.05184153 20.875 15.0625 C21.90625 16.691875 22.9375 18.32125 24 20 C24.33 13.4 24.66 6.8 25 0 C27.64 0 30.28 0 33 0 C33 11.55 33 23.1 33 35 C22 35 22 35 19.55786133 33.07226562 C19.0708374 32.19248047 18.58381348 31.31269531 18.08203125 30.40625 C17.53095703 29.45878906 16.97988281 28.51132813 16.41210938 27.53515625 C15.88423828 26.53355469 15.35636719 25.53195313 14.8125 24.5 C14.24208984 23.49839844 13.67167969 22.49679688 13.08398438 21.46484375 C11.6856389 18.99717526 10.33772214 16.50105124 9 14 C8.67 20.93 8.34 27.86 8 35 C5.36 35 2.72 35 0 35 C0 23.45 0 11.9 0 0 Z "
        fill="#FFFFFF" transform="translate(103,117)" />
    <path
        d="M0 0 C3.63 0 7.26 0 11 0 C13.92424785 3.26094164 15.63241229 5.61662319 17.625 9.375 C18.13933594 10.26445313 18.65367187 11.15390625 19.18359375 12.0703125 C20.87065954 15.00821072 22.48496227 17.96992454 24 21 C24.33 14.07 24.66 7.14 25 0 C27.64 0 30.28 0 33 0 C33 11.55 33 23.1 33 35 C22 35 22 35 19.55786133 33.07226562 C19.0708374 32.19248047 18.58381348 31.31269531 18.08203125 30.40625 C17.53095703 29.45878906 16.97988281 28.51132813 16.41210938 27.53515625 C15.88423828 26.53355469 15.35636719 25.53195313 14.8125 24.5 C14.24208984 23.49839844 13.67167969 22.49679688 13.08398438 21.46484375 C11.6856389 18.99717526 10.33772214 16.50105124 9 14 C8.67 20.93 8.34 27.86 8 35 C5.36 35 2.72 35 0 35 C0 23.45 0 11.9 0 0 Z "
        fill="#FFFFFF" transform="translate(277,117)" />
    <path
        d="M0 0 C3.78443516 2.69610086 6.30988589 5.82809517 7.79296875 10.27734375 C8.27811357 15.78890708 8.56034191 20.65405437 6.16796875 25.71484375 C2.1472502 30.05298745 -1.49083137 33.97398049 -7.6953125 34.48046875 C-17.53739891 34.64382288 -17.53739891 34.64382288 -22.20703125 31.27734375 C-26.91696211 26.47854627 -29.35484088 23.37409838 -29.45703125 16.52734375 C-29.39889564 11.66139309 -29.15789771 8.31019457 -26.20703125 4.27734375 C-18.40896703 -3.1816742 -9.6849596 -5.43208313 0 0 Z M-19.20703125 9.27734375 C-21.40737485 12.07778107 -21.20266664 13.55231429 -21.14453125 17.21484375 C-20.44950331 21.54664578 -18.78615042 23.65265636 -15.20703125 26.27734375 C-11.49234713 27.54191707 -9.74787667 27.45762556 -6.01953125 26.21484375 C-2.58273445 23.84727262 -1.50121908 22.23603594 -0.20703125 18.27734375 C-0.30022947 12.96504495 -1.51651596 10.07969283 -5.20703125 6.27734375 C-10.67130482 3.54520697 -15.17136305 5.12637075 -19.20703125 9.27734375 Z "
        fill="#FFFFFF" transform="translate(58.20703125,118.72265625)" />
    <path
        d="M0 0 C3.42372679 2.44658472 5.90508266 5.50547782 7.79296875 9.28125 C8.28184607 15.08366278 8.64842313 20.43873286 6.16796875 25.78125 C1.13093184 31.08339412 -2.82614598 34.37870696 -10.39453125 34.65625 C-16.22187113 34.60229315 -19.830119 33.06975659 -24.20703125 29.28125 C-29.00728345 24.11174763 -29.56065054 19.92216243 -29.48828125 13.07421875 C-28.95368976 7.76542825 -26.63666131 4.6375657 -22.76953125 0.96875 C-15.37139448 -3.90319373 -7.79074202 -4.35410732 0 0 Z M-19.20703125 9.28125 C-21.04251397 12.36819821 -21.20910126 14.16532944 -21.14453125 17.78125 C-20.00584962 22.03232809 -18.70186462 23.64070923 -15.20703125 26.28125 C-11.49234713 27.54582332 -9.74787667 27.46153181 -6.01953125 26.21875 C-2.55670258 23.8332458 -1.49047251 22.28256688 -0.20703125 18.28125 C0.03145759 15.38531406 -0.2024206 13.01446444 -1.20703125 10.28125 C-4.29830808 6.74836219 -6.12197221 5.45257511 -10.76953125 4.71875 C-14.8045885 5.37903209 -16.41223178 6.3267477 -19.20703125 9.28125 Z "
        fill="#FFFFFF" transform="translate(266.20703125,118.71875)" />
    <path
        d="M0 0 C4.2384375 -0.0928125 4.2384375 -0.0928125 8.5625 -0.1875 C9.43849854 -0.21481201 10.31449707 -0.24212402 11.21704102 -0.27026367 C17.21873752 -0.33329674 22.03076563 0.44352915 26.7421875 4.5 C31.33679886 10.58389918 31.57563239 15.57007827 31 23 C29.23692004 28.28923987 26.38844888 30.80008936 22 34 C19.17588235 34.94137255 17.47081968 35.11725382 14.55078125 35.09765625 C13.78677002 35.09515869 13.02275879 35.09266113 12.2355957 35.09008789 C11.27097412 35.08098389 10.30635254 35.07187988 9.3125 35.0625 C4.7028125 35.0315625 4.7028125 35.0315625 0 35 C0 23.45 0 11.9 0 0 Z M8 7 C8 13.93 8 20.86 8 28 C15.55187299 28.50310106 15.55187299 28.50310106 21 25 C22.91154658 20.93910679 23.08098031 17.61747488 22.5 13.1875 C21.2411521 9.84373277 21.2411521 9.84373277 18.3125 8.0625 C14.46887047 6.64366785 14.46887047 6.64366785 8 7 Z "
        fill="#FFFFFF" transform="translate(140,117)" />
    <path
        d="M0 0 C2.31 0 4.62 0 7 0 C10.51368132 7.59553239 13.82448319 15.25714411 17 23 C19.18639521 20.26632529 20.71054657 17.68588702 22.04296875 14.453125 C22.56987305 13.18662109 22.56987305 13.18662109 23.10742188 11.89453125 C23.64206055 10.58548828 23.64206055 10.58548828 24.1875 9.25 C24.73954102 7.91775391 24.73954102 7.91775391 25.30273438 6.55859375 C26.20692623 4.374442 27.10581317 2.1882624 28 0 C30.31 0 32.62 0 35 0 C35 11.55 35 23.1 35 35 C33.35 35 31.7 35 30 35 C29.67 27.74 29.34 20.48 29 13 C28.39671875 14.50433594 27.7934375 16.00867188 27.171875 17.55859375 C26.36538246 19.51855818 25.55804703 21.47817593 24.75 23.4375 C24.35425781 24.43072266 23.95851563 25.42394531 23.55078125 26.44726562 C23.15761719 27.39150391 22.76445313 28.33574219 22.359375 29.30859375 C22.00327148 30.18314209 21.64716797 31.05769043 21.28027344 31.95874023 C20 34 20 34 17.85253906 34.79321289 C17.24120117 34.86145264 16.62986328 34.92969238 16 35 C12.26285906 27.81196721 9.05392376 20.50392695 6 13 C5.67 20.26 5.34 27.52 5 35 C3.35 35 1.7 35 0 35 C0 23.45 0 11.9 0 0 Z "
        fill="#FFFFFF" transform="translate(51,39)" />
    <path
        d="M0 0 C2.64 0 5.28 0 8 0 C8.01981934 0.67579102 8.03963867 1.35158203 8.06005859 2.04785156 C8.15543238 5.11562044 8.26506165 8.18271998 8.375 11.25 C8.4059375 12.31347656 8.436875 13.37695312 8.46875 14.47265625 C8.50742188 15.49746094 8.54609375 16.52226562 8.5859375 17.578125 C8.6173584 18.52075195 8.6487793 19.46337891 8.68115234 20.43457031 C9.01249226 23.10051202 9.50610212 24.77337777 11 27 C13.86637282 28.08892339 13.86637282 28.08892339 17 28 C19.25808805 26.94943341 19.25808805 26.94943341 21 25 C21.64249463 22.30267111 21.64249463 22.30267111 21.609375 19.23828125 C21.65771484 17.56088867 21.65771484 17.56088867 21.70703125 15.84960938 C21.72121094 14.68236328 21.73539063 13.51511719 21.75 12.3125 C21.79447266 10.54422852 21.79447266 10.54422852 21.83984375 8.74023438 C21.91061656 5.82675368 21.96327725 2.91407664 22 0 C24.97 0 27.94 0 31 0 C31.05847045 3.85410207 31.09375405 7.70808865 31.125 11.5625 C31.14175781 12.64853516 31.15851563 13.73457031 31.17578125 14.85351562 C31.21079613 20.61346262 31.15315086 25.61712285 29 31 C23.5579115 36.16998408 19.5945487 36.34596946 12.28125 36.28125 C7.68298819 35.88711327 5.55551672 34.92342486 2 32 C-0.00313161 28.13537659 -0.2362163 24.92081953 -0.1953125 20.60546875 C-0.18886719 19.40341797 -0.18242188 18.20136719 -0.17578125 16.96289062 C-0.15902344 15.71701172 -0.14226562 14.47113281 -0.125 13.1875 C-0.11597656 11.92228516 -0.10695313 10.65707031 -0.09765625 9.35351562 C-0.07412394 6.23548436 -0.04124545 3.11783903 0 0 Z "
        fill="#FFFFFF" transform="translate(69,117)" />
    <path
        d="M0 0 C8 0 8 0 10.25 1.984375 C10.8275 2.89703125 11.405 3.8096875 12 4.75 C12.6496875 5.74128906 13.299375 6.73257813 13.96875 7.75390625 C14.6390625 8.82511719 15.309375 9.89632812 16 11 C16.75575414 12.13722692 17.51622225 13.2713345 18.28125 14.40234375 C20.20769034 17.25469644 22.10637926 20.12575423 24 23 C24.33 15.41 24.66 7.82 25 0 C26.98 0 28.96 0 31 0 C31 11.55 31 23.1 31 35 C23 35 23 35 20.71484375 32.98046875 C20.12832031 32.05878906 19.54179687 31.13710937 18.9375 30.1875 C18.28652344 29.19492188 17.63554687 28.20234375 16.96484375 27.1796875 C16.31644531 26.13039063 15.66804687 25.08109375 15 24 C13.98099609 22.42605469 13.98099609 22.42605469 12.94140625 20.8203125 C11.269192 18.22955802 9.63122485 15.61675653 8 13 C7.67 20.26 7.34 27.52 7 35 C4.69 35 2.38 35 0 35 C0 23.45 0 11.9 0 0 Z "
        fill="#FFFFFF" transform="translate(126,78)" />
    <path
        d="M0 0 C5.59209656 3.05982642 9.11543837 6.79948922 11.3125 12.8125 C12.29931057 19.2869401 11.05856902 24.44881027 7.3125 29.8125 C2.81881378 34.1909635 -1.29283947 35.90276787 -7.5 36.1875 C-13.97632168 36.04272381 -18.55559287 34.00050995 -23.0625 29.375 C-26.30342097 24.26431693 -27.42828163 19.88922434 -26.6875 13.8125 C-24.54984535 7.17451978 -21.49097419 3.34647644 -15.375 0 C-9.68846292 -1.8312577 -5.68653708 -1.8312577 0 0 Z M-15.6875 7.8125 C-18.47695399 11.04239409 -19.58269026 13.0788318 -20.1875 17.3125 C-19.44750464 22.49246752 -17.39214268 25.46672946 -13.3125 28.6875 C-10.08585874 30.07034626 -8.17063618 30.31009088 -4.6875 29.8125 C-0.37103449 27.52731238 2.4101625 25.35697291 4.3125 20.8125 C4.85001218 16.58919003 4.59875223 14.38500446 2.6875 10.5625 C0.06485879 7.52575755 -1.94771904 6.21491786 -5.6875 4.8125 C-10.15788145 4.8125 -11.93529819 5.46737387 -15.6875 7.8125 Z "
        fill="#FFFFFF" transform="translate(111.6875,78.1875)" />
    <path
        d="M0 0 C2.64 0 5.28 0 8 0 C13.55497286 11.45713152 18.36560934 23.14318235 23 35 C19.7 35 16.4 35 13 35 C11 31 11 31 11 28 C4.565 28.495 4.565 28.495 -2 29 C-2.66 30.98 -3.32 32.96 -4 35 C-7.3 35 -10.6 35 -14 35 C-11.57606156 27.26490635 -8.50605264 19.88362854 -5.3125 12.4375 C-4.80138672 11.23802734 -4.29027344 10.03855469 -3.76367188 8.80273438 C-2.51224198 5.86713715 -1.25761707 2.93295065 0 0 Z M4 13 C1.7986134 16.80427492 1.7986134 16.80427492 1 21 C2.98 21 4.96 21 7 21 C6.45276317 17.62537285 5.9451 15.91765 4 13 Z "
        fill="#FFFFFF" transform="translate(182,117)" />
    <path
        d="M0 0 C3.01125 -0.061875 6.0225 -0.12375 9.125 -0.1875 C10.06230957 -0.21481201 10.99961914 -0.24212402 11.96533203 -0.27026367 C17.07598263 -0.32088034 20.58790197 0.12906759 25 3 C30.40210403 8.84011246 30.34067885 13.90771588 30.28515625 21.6015625 C29.82471238 27.08904427 28.03653127 29.21032101 23.9375 32.8125 C20.76535644 34.75671702 18.18392922 35.12203979 14.55078125 35.09765625 C13.78677002 35.09515869 13.02275879 35.09266113 12.2355957 35.09008789 C11.27097412 35.08098389 10.30635254 35.07187988 9.3125 35.0625 C4.7028125 35.0315625 4.7028125 35.0315625 0 35 C0 23.45 0 11.9 0 0 Z M7 6 C7 13.59 7 21.18 7 29 C16.05141009 29.7202003 16.05141009 29.7202003 20 27.5625 C22.82531551 23.9425645 23.8300574 20.58072561 24 16 C23.01634403 11.1652381 20.99606747 8.9970506 17 6 C13.7 6 10.4 6 7 6 Z "
        fill="#FFFFFF" transform="translate(5,78)" />
    <path
        d="M0 0 C6.93 0 13.86 0 21 0 C21 2.31 21 4.62 21 7 C17.04 7 13.08 7 9 7 C9 8.98 9 10.96 9 13 C12.96 13 16.92 13 21 13 C21 15.31 21 17.62 21 20 C17.04 20 13.08 20 9 20 C9 24.95 9 29.9 9 35 C6.03 35 3.06 35 0 35 C0 23.45 0 11.9 0 0 Z "
        fill="#FFFFFF" transform="translate(5,117)" />
    <path
        d="M0 0 C2.80463933 1.6827836 3.29518411 3.2299542 4.1875 6.3125 C2.2075 6.9725 0.2275 7.6325 -1.8125 8.3125 C-2.4725 7.6525 -3.1325 6.9925 -3.8125 6.3125 C-6.89597826 6.14568891 -6.89597826 6.14568891 -9.8125 6.3125 C-9.77251498 8.70343341 -9.77251498 8.70343341 -8.8125 11.3125 C-6.14023175 13.29997102 -6.14023175 13.29997102 -2.875 14.875 C2.83601485 17.82240099 2.83601485 17.82240099 4.57421875 20.24609375 C5.6910336 24.00911959 5.16151072 27.55461468 4.1875 31.3125 C2.28686318 33.76493461 0.92895145 34.94177427 -1.8125 36.3125 C-3.43415752 36.43398305 -5.06134327 36.48793652 -6.6875 36.5 C-7.55117187 36.51417969 -8.41484375 36.52835938 -9.3046875 36.54296875 C-12.00361813 36.29493618 -13.55035306 35.78632301 -15.8125 34.3125 C-17.8125 31.3125 -17.8125 31.3125 -17.4375 28.625 C-17.23125 27.861875 -17.025 27.09875 -16.8125 26.3125 C-15.0625 25.5625 -15.0625 25.5625 -12.8125 25.3125 C-12.19375 25.9725 -11.575 26.6325 -10.9375 27.3125 C-9.885625 28.3025 -9.885625 28.3025 -8.8125 29.3125 C-5.61295046 29.16900653 -5.61295046 29.16900653 -2.8125 28.3125 C-2.8125 26.3325 -2.8125 24.3525 -2.8125 22.3125 C-3.67875 22.065 -4.545 21.8175 -5.4375 21.5625 C-9.88709725 19.91450102 -13.45591652 17.66908348 -16.8125 14.3125 C-17.50244819 9.70749693 -17.73330622 5.61432948 -15 1.75 C-10.25953178 -1.36516483 -5.40667558 -1.32163181 0 0 Z "
        fill="#FFFFFF" transform="translate(78.8125,77.6875)" />
    <path
        d="M0 0 C1.65 0 3.3 0 5 0 C9.15053523 7.95086905 12.94902734 15.98687681 16.4375 24.25 C16.79134766 25.08378174 17.14519531 25.91756348 17.50976562 26.77661133 C17.99799805 27.9467981 17.99799805 27.9467981 18.49609375 29.140625 C18.78669678 29.83704102 19.0772998 30.53345703 19.37670898 31.25097656 C20 33 20 33 20 35 C18.02 35 16.04 35 14 35 C13.01 32.03 12.02 29.06 11 26 C5.72 26.33 0.44 26.66 -5 27 C-5.99 29.64 -6.98 32.28 -8 35 C-9.98 35 -11.96 35 -14 35 C-13.33728786 30.6834155 -11.8147579 26.91450039 -10.05859375 22.94921875 C-9.6278933 21.96100883 -9.6278933 21.96100883 -9.18849182 20.95283508 C-8.27611147 18.86233508 -7.35692318 16.77491066 -6.4375 14.6875 C-5.81530233 13.26517199 -5.19355266 11.8426479 -4.57226562 10.41992188 C-3.05335398 6.94432338 -1.52833217 3.47146568 0 0 Z M2 8 C1.16235732 9.95649397 0.33000941 11.91525556 -0.5 13.875 C-0.9640625 14.96554688 -1.428125 16.05609375 -1.90625 17.1796875 C-3.12052456 19.80661929 -3.12052456 19.80661929 -3 22 C0.96 22 4.92 22 9 22 C8.2169216 19.85101768 7.42328757 17.70587905 6.625 15.5625 C6.18414062 14.36753906 5.74328125 13.17257813 5.2890625 11.94140625 C4.32914764 8.89803102 4.32914764 8.89803102 2 8 Z "
        fill="#FFFFFF" transform="translate(30,39)" />
    <path
        d="M0 0 C8.25 0 16.5 0 25 0 C25 2.31 25 4.62 25 7 C22.36 7 19.72 7 17 7 C17 16.24 17 25.48 17 35 C14.03 35 11.06 35 8 35 C8 25.76 8 16.52 8 7 C5.36 7 2.72 7 0 7 C0 4.69 0 2.38 0 0 Z "
        fill="#FFFFFF" transform="translate(199,117)" />
    <path
        d="M0 0 C6.6 0 13.2 0 20 0 C20 1.65 20 3.3 20 5 C15.38 5 10.76 5 6 5 C6 7.64 6 10.28 6 13 C10.62 13 15.24 13 20 13 C20 14.65 20 16.3 20 18 C15.38 18 10.76 18 6 18 C6 21.96 6 25.92 6 30 C10.62 30 15.24 30 20 30 C20 31.65 20 33.3 20 35 C13.4 35 6.8 35 0 35 C0 23.45 0 11.9 0 0 Z "
        fill="#FFFFFF" transform="translate(89,39)" />
    <path
        d="M0 0 C2.31830344 1.90919107 2.82111836 2.81247746 3.125 5.75 C0.75 6.375 0.75 6.375 -1.875 6.75 C-2.535 6.09 -3.195 5.43 -3.875 4.75 C-6.95847826 4.58318891 -6.95847826 4.58318891 -9.875 4.75 C-10.20925735 7.12374861 -10.20925735 7.12374861 -9.875 9.75 C-8.09885684 11.60014912 -6.24974681 12.57732994 -3.93359375 13.64453125 C3.36422826 17.01792596 3.36422826 17.01792596 5.125 21.75 C5.65755319 26.72049643 5.2779475 29.80881562 2.125 33.75 C-2.10132464 36.32724701 -6.05581425 36.2921584 -10.875 35.75 C-13.8125 34.625 -13.8125 34.625 -15.875 32.75 C-17.1875 29.5625 -17.1875 29.5625 -17.875 26.75 C-16.225 26.09 -14.575 25.43 -12.875 24.75 C-12.4625 25.554375 -12.05 26.35875 -11.625 27.1875 C-10.13822799 29.82098084 -10.13822799 29.82098084 -7.9375 30.6875 C-5.25535799 30.76877703 -4.01865057 30.37621767 -1.875 28.75 C-0.70522506 26.40127469 -0.70522506 26.40127469 -0.875 23.75 C-3.42799298 20.08701007 -7.00604576 18.55127896 -10.97265625 16.77734375 C-13.0537287 15.65347916 -14.37308095 14.57471956 -15.875 12.75 C-16.87805755 8.88106373 -17.2570015 6.65474039 -15.6875 2.9375 C-11.4924414 -2.12550176 -5.99271688 -2.60552908 0 0 Z "
        fill="#FFFFFF" transform="translate(126.875,39.25)" />
    <path
        d="M0 0 C3.0625 -0.625 3.0625 -0.625 7 0 C9.96599371 3.16067283 14 7.48346076 14 12 C16.83007518 9.48437762 18.54630207 7.04846235 20.3125 3.75 C21.5625 1.640625 21.5625 1.640625 23 0 C26.8125 -0.5 26.8125 -0.5 30 0 C28.74850192 3.68610636 26.9807849 6.48833175 24.67358398 9.60693359 C18.6663454 17.89580753 17.67258232 24.91553541 18 35 C16.02 35 14.04 35 12 35 C12.05542969 34.04222656 12.11085938 33.08445313 12.16796875 32.09765625 C12.384182 20.17417582 8.08521538 12.8940815 0.99389648 3.53369141 C0 2 0 2 0 0 Z "
        fill="#FFFFFF" transform="translate(32,78)" />
    <path
        d="M0 0 C1.32 0 2.64 0 4 0 C4 4.62 4 9.24 4 14 C9.94 14 15.88 14 22 14 C22 9.38 22 4.76 22 0 C23.32 0 24.64 0 26 0 C26 11.55 26 23.1 26 35 C24.68 35 23.36 35 22 35 C22 29.39 22 23.78 22 18 C16.06 18 10.12 18 4 18 C4 23.61 4 29.22 4 35 C2.68 35 1.36 35 0 35 C0 23.45 0 11.9 0 0 Z "
        fill="#FFFFFF" transform="translate(26,0)" />
    <path
        d="M0 0 C5.94 0 11.88 0 18 0 C18 1.32 18 2.64 18 4 C13.38 4 8.76 4 4 4 C4 7.3 4 10.6 4 14 C8.62 14 13.24 14 18 14 C18 15.32 18 16.64 18 18 C13.38 18 8.76 18 4 18 C4 22.29 4 26.58 4 31 C8.62 31 13.24 31 18 31 C18 32.32 18 33.64 18 35 C12.06 35 6.12 35 0 35 C0 23.45 0 11.9 0 0 Z "
        fill="#FFFFFF" transform="translate(56,0)" />
    <path d="M0 0 C2.64 0 5.28 0 8 0 C8 11.55 8 23.1 8 35 C5.36 35 2.72 35 0 35 C0 23.45 0 11.9 0 0 Z " fill="#FFFFFF"
        transform="translate(226,117)" />
    <path
        d="M0 0 C1.65 0 3.3 0 5 0 C5.04952706 4.34161825 5.08577954 8.68308575 5.10986328 13.02490234 C5.11990591 14.50116847 5.13354265 15.97741479 5.15087891 17.45361328 C5.17520421 19.57850034 5.1865004 21.70312385 5.1953125 23.828125 C5.20578613 25.1059082 5.21625977 26.38369141 5.22705078 27.70019531 C5.01434847 30.79146893 4.73915628 32.47711687 3 35 C-0.17746491 36.58873246 -3.54012202 36.41026221 -7 36 C-9.5 34.5 -9.5 34.5 -11 33 C-10.34 31.68 -9.68 30.36 -9 29 C-5.04 29.99 -5.04 29.99 -1 31 C-0.67 20.77 -0.34 10.54 0 0 Z "
        fill="#FFFFFF" transform="translate(11,39)" />
    <path
        d="M0 0 C7.59 0 15.18 0 23 0 C23 1.32 23 2.64 23 4 C20.03 4 17.06 4 14 4 C14 14.23 14 24.46 14 35 C12.68 35 11.36 35 10 35 C10 24.77 10 14.54 10 4 C6.7 4 3.4 4 0 4 C0 2.68 0 1.36 0 0 Z "
        fill="#FFFFFF" transform="translate(1,0)" />
</svg>