<?xml version="1.0" encoding="UTF-8"?>
<svg version="1.1" xmlns="http://www.w3.org/2000/svg" width="1550" height="1000">
    <path
        d="M0 0 C14.85 0 29.7 0 45 0 C48.3 5.61 51.6 11.22 55 17 C57.56994315 21.21773023 60.14818559 25.42722727 62.75 29.625 C64.14109696 31.87731483 65.53181193 34.12986 66.921875 36.3828125 C67.60701172 37.49301758 68.29214844 38.60322266 68.99804688 39.74707031 C72.01749973 44.65331298 75.00987569 49.57584697 78 54.5 C82.77852638 62.36346756 87.57541827 70.21545473 92.39477539 78.05395508 C93.39977707 79.68864172 94.40400522 81.32380385 95.40820312 82.95898438 C96.03533203 83.97798828 96.66246094 84.99699219 97.30859375 86.046875 C97.85314209 86.93213867 98.39769043 87.81740234 98.95874023 88.72949219 C101.9403105 93.50656614 104.97675705 98.24918966 108 103 C108.33 69.01 108.66 35.02 109 0 C119.89 0 130.78 0 142 0 C142 49.5 142 99 142 150 C127.81 150 113.62 150 99 150 C93.65438726 141.68460241 88.35254661 133.39522886 83.25 124.9375 C78.70392957 117.43475618 74.12875919 109.95201919 69.5 102.5 C64.36996888 94.2374651 59.30223445 85.93859398 54.25463867 77.62548828 C49.60193073 69.97025541 44.89988772 62.346467 40.17382812 54.73632812 C39.66916016 53.92357422 39.16449219 53.11082031 38.64453125 52.2734375 C38.20471924 51.56622559 37.76490723 50.85901367 37.31176758 50.13037109 C35.85543581 47.76522108 34.42904258 45.38173763 33 43 C32.67 78.31 32.34 113.62 32 150 C21.44 150 10.88 150 0 150 C0 100.5 0 51 0 0 Z "
        fill="#FFFFFF" transform="translate(648,798)" />
    <path
        d="M0 0 C14.52 0 29.04 0 44 0 C48.69192218 6.70274597 53.05110131 13.26455895 57.125 20.3125 C61.47018962 27.74726623 65.88547833 35.12745604 70.4375 42.4375 C75.00076639 49.76644506 79.52061663 57.11945839 84 64.5 C89.19619602 73.06061859 94.44054366 81.58970381 99.73828125 90.08789062 C100.23972656 90.89419922 100.74117187 91.70050781 101.2578125 92.53125 C101.6923877 93.22798828 102.12696289 93.92472656 102.57470703 94.64257812 C104.44013059 97.72797208 106.21118271 100.86956974 108 104 C108.33 69.68 108.66 35.36 109 0 C119.56 0 130.12 0 141 0 C141 49.5 141 99 141 150 C127.14 150 113.28 150 99 150 C92.25664677 139.88497016 92.25664677 139.88497016 89.80859375 135.828125 C89.26332031 134.92771484 88.71804688 134.02730469 88.15625 133.09960938 C87.5890625 132.15923828 87.021875 131.21886719 86.4375 130.25 C81.82920987 122.64289686 77.19336134 115.05492098 72.5 107.5 C67.36765765 99.23387395 62.29769267 90.93135865 57.24804688 82.61450195 C52.68638684 75.10878731 48.07692741 67.63366081 43.4375 60.17578125 C39.8998278 54.48234005 36.44978781 48.74964635 33 43 C32.67 78.31 32.34 113.62 32 150 C21.44 150 10.88 150 0 150 C0 100.5 0 51 0 0 Z "
        fill="#FFFFFF" transform="translate(1401,798)" />
    <path
        d="M0 0 C15.12253505 12.49585527 24.96818196 30.38466381 27.31640625 49.9140625 C28.95442814 73.26562457 23.62548218 94.03498893 8.06640625 112.0390625 C-7.19259402 128.24694178 -26.23354649 137.75618591 -48.63061523 138.89086914 C-69.96299373 139.4675597 -89.27276242 132.60453981 -105.68359375 118.9140625 C-106.658125 118.13933594 -107.63265625 117.36460937 -108.63671875 116.56640625 C-122.49270774 104.96700769 -130.07135553 86.82839932 -132.37109375 69.2890625 C-134.05379214 49.69263752 -130.10666743 28.79070927 -117.4765625 13.1875 C-115.26696479 10.70307671 -113.00382132 8.2950063 -110.68359375 5.9140625 C-109.85859375 5.0271875 -109.03359375 4.1403125 -108.18359375 3.2265625 C-77.51914808 -25.13804975 -32.62591271 -25.18662114 0 0 Z M-87.0546875 25.87109375 C-96.63755315 37.88989167 -99.52513564 51.90656555 -98.68359375 66.9140625 C-97.03268199 79.15599291 -91.99124481 90.55916312 -82.68359375 98.9140625 C-70.43702419 107.60517638 -58.50922505 110.11261365 -43.68359375 108.9140625 C-31.55372994 106.72259113 -21.74715341 99.42958299 -14.40625 89.70703125 C-6.36938807 76.6767449 -4.56339952 61.1813804 -7.3671875 46.28125 C-11.42666547 33.3785109 -18.92415015 22.68003086 -30.68359375 15.9140625 C-50.10252533 6.12692099 -71.9799317 10.02686086 -87.0546875 25.87109375 Z "
        fill="#FFFFFF" transform="translate(1359.68359375,813.0859375)" />
    <path
        d="M0 0 C1.65334351 0.00241699 1.65334351 0.00241699 3.34008789 0.00488281 C12.11149264 0.13615466 19.59714992 1.34293578 27.875 4.375 C28.77863281 4.67535156 29.68226563 4.97570312 30.61328125 5.28515625 C49.07910805 11.91906914 64.77122838 27.18960073 73.1875 44.6875 C81.87897789 63.83241012 83.19270683 86.4665329 75.875 106.375 C72.4310911 114.85925894 68.00681352 122.54525649 61.875 129.375 C61.15828125 130.18453125 60.4415625 130.9940625 59.703125 131.828125 C44.47844265 148.04788462 24.10817818 156.43334246 2.0546875 157.3359375 C-19.19573113 157.79726299 -39.73316355 150.04953408 -55.06811523 135.44067383 C-56.43432867 134.09948177 -57.78030113 132.73776199 -59.125 131.375 C-59.80304688 130.69566406 -60.48109375 130.01632812 -61.1796875 129.31640625 C-76.92727876 112.48398092 -79.98461578 91.44744239 -79.29980469 69.33007812 C-78.34049079 53.11284988 -70.90997172 38.2952319 -60.125 26.375 C-59.45984375 25.61703125 -58.7946875 24.8590625 -58.109375 24.078125 C-43.05959437 7.91354581 -21.78650423 -0.03318837 0 0 Z M-35.53125 46.09375 C-43.96830788 58.17032305 -47.72152301 72.10620843 -45.65625 86.68359375 C-43.16015577 100.24867729 -37.95281523 110.61927028 -27.125 119.375 C-15.12190972 127.42157791 -1.7966647 129.41176343 12.29296875 126.72265625 C24.05009318 123.17878821 34.42110371 115.4214793 40.41015625 104.6015625 C47.14058522 90.27732591 48.71251339 75.50649395 43.90625 60.3125 C39.04336003 47.43241304 30.42744755 38.13776962 18.1015625 31.9921875 C-1.03634193 24.49432357 -22.5602043 30.18586376 -35.53125 46.09375 Z "
        fill="#FFFFFF" transform="translate(406.125,794.625)" />
    <path
        d="M0 0 C89.21915584 0 89.21915584 0 111.25 20.6875 C126.45340545 36.69622227 131.60919997 57.45487045 131.25 79.07421875 C129.92523788 99.87712398 123.17615015 117.88175864 107.87890625 132.4921875 C79.0522725 157.60304078 34.13615235 150 0 150 C0 100.5 0 51 0 0 Z M33 28 C33 59.02 33 90.04 33 122 C60.00102577 122.97063513 60.00102577 122.97063513 84.375 112.75 C95.41852523 101.18059261 97.56623968 87.51673286 97.33642578 72.0246582 C97.15360073 66.18958675 96.77384803 60.59522349 95 55 C94.74347656 54.1646875 94.48695313 53.329375 94.22265625 52.46875 C91.06517079 43.470594 85.85403916 37.33916036 77.33203125 33.02734375 C62.47683064 26.48309289 50.37240428 28 33 28 Z "
        fill="#FFFFFF" transform="translate(809,798)" />
    <path
        d="M0 0 C10.56 0 21.12 0 32 0 C32.029729 4.13946167 32.029729 4.13946167 32.06005859 8.36254883 C32.12715778 17.51082872 32.20479389 26.65899775 32.28752708 35.80714893 C32.33733637 41.35016725 32.38366713 46.89316791 32.421875 52.4362793 C32.4589227 57.79208932 32.5053341 63.14774592 32.55806351 68.50342369 C32.5765044 70.54017109 32.59164979 72.57695124 32.60334396 74.61374855 C32.20053336 96.60870637 32.20053336 96.60870637 41.6015625 115.8515625 C48.18355011 121.9526743 56.16087602 124 65 124 C74.01555581 123.25452768 82.03815447 121.52945136 88.3125 114.6875 C98.08783368 102.07758446 96.32335259 84.09362869 96.4140625 68.9453125 C96.43281257 66.94749181 96.45238871 64.94967872 96.4727478 62.95187378 C96.52366994 57.7406669 96.56350704 52.52943446 96.60089111 47.31811523 C96.64118366 41.98154587 96.69215967 36.64507916 96.7421875 31.30859375 C96.838473 20.87246144 96.92203686 10.43628529 97 0 C107.56 0 118.12 0 129 0 C129.09076583 13.39668722 129.16398292 26.79316653 129.20724869 40.19009304 C129.22802556 46.41240909 129.25616048 52.63450186 129.30175781 58.85668945 C129.34557088 64.873807 129.36921133 70.89071126 129.37950897 76.90797615 C129.38683717 79.19102391 129.4011452 81.47406146 129.42292023 83.75701714 C129.60273376 103.41050729 128.95086286 122.83407686 114.625 137.875 C99.53474238 151.91593507 79.5508038 154.42811015 59.6418457 153.97631836 C43.80370277 153.30541611 26.45594263 149.89156504 14.515625 138.67578125 C3.50147007 126.49775943 -0.34769748 111.16153162 -0.22705078 95.13427734 C-0.22734283 94.0989386 -0.22763489 93.06359985 -0.22793579 91.99688721 C-0.22655392 88.60981563 -0.21104685 85.22297016 -0.1953125 81.8359375 C-0.19157831 79.4736849 -0.18873325 77.11143074 -0.18673706 74.74917603 C-0.17913262 68.55800027 -0.15951168 62.36691965 -0.1373291 56.17578125 C-0.11680176 49.84766934 -0.10772065 43.51954192 -0.09765625 37.19140625 C-0.07626264 24.7942225 -0.04110665 12.39713408 0 0 Z "
        fill="#FFFFFF" transform="translate(501,798)" />
    <path
        d="M0 0 C9.24 0 18.48 0 28 0 C33.62245935 11.2449187 33.62245935 11.2449187 35.92578125 16.6640625 C36.18579926 17.27315964 36.44581726 17.88225677 36.7137146 18.5098114 C37.28164406 19.84121738 37.84816935 21.17322304 38.41342163 22.50576782 C39.35122592 24.71628149 40.29297117 26.92508267 41.2355957 29.13354492 C42.67811984 32.51381311 44.11924743 35.8946722 45.55957031 39.27587891 C49.74391427 49.09464438 53.94556884 58.90601077 58.14779663 68.71713257 C59.17423195 71.11396574 60.20029401 73.51095879 61.22598267 75.90811157 C66.76997502 88.86415082 72.33774103 101.80877425 77.98828125 114.71875 C78.45892502 115.79521286 78.92956879 116.87167572 79.41447449 117.98075867 C81.63837156 123.06571587 83.86816462 128.14794132 86.1081543 133.22583008 C86.89521235 135.02156264 87.68208867 136.81737486 88.46875 138.61328125 C88.82999466 139.42611572 89.19123932 140.2389502 89.56343079 141.07641602 C92 146.659657 92 146.659657 92 150 C79.79 150 67.58 150 55 150 C49.3673257 138.7346514 49.3673257 138.7346514 47.76171875 134.71875 C47.41689453 133.85765625 47.07207031 132.9965625 46.71679688 132.109375 C46.37712891 131.24828125 46.03746094 130.3871875 45.6875 129.5 C45.32849609 128.60796875 44.96949219 127.7159375 44.59960938 126.796875 C42 120.26071429 42 120.26071429 42 118 C23.19 118 4.38 118 -15 118 C-15.33 119.98 -15.66 121.96 -16 124 C-16.69516171 126.02616244 -17.44848992 128.03303543 -18.25 130.01953125 C-18.6934375 131.12361328 -19.136875 132.22769531 -19.59375 133.36523438 C-20.0578125 134.50283203 -20.521875 135.64042969 -21 136.8125 C-21.4640625 137.96943359 -21.928125 139.12636719 -22.40625 140.31835938 C-25.85498768 148.85498768 -25.85498768 148.85498768 -27 150 C-29.6662603 150.08855161 -32.30647114 150.11524673 -34.97265625 150.09765625 C-35.77029892 150.0962413 -36.56794159 150.09482635 -37.38975525 150.09336853 C-39.94737435 150.08775316 -42.50490718 150.07519812 -45.0625 150.0625 C-46.79231645 150.05748698 -48.52213426 150.05292373 -50.25195312 150.04882812 C-54.50133553 150.03777875 -58.75065312 150.02050386 -63 150 C-62.4208081 144.06297558 -60.07202158 139.10622215 -57.6796875 133.71875 C-57.23311798 132.69768158 -56.78654846 131.67661316 -56.32644653 130.62460327 C-55.35705299 128.40959148 -54.38467611 126.19588349 -53.40966797 123.9833374 C-51.0492851 118.62582026 -48.7073414 113.26026954 -46.36502838 107.89483261 C-45.54828571 106.0244017 -44.73078499 104.15430324 -43.91326904 102.28421021 C-38.1904153 89.18409275 -32.5885097 76.03291757 -27 62.875 C-26.03880454 60.61357806 -25.07754213 58.35218456 -24.11621094 56.09082031 C-22.72229744 52.81168805 -21.32846476 49.53252171 -19.93505859 46.25317383 C-15.68173872 36.24495279 -11.40832758 26.24540968 -7.125 16.25 C-6.65126953 15.14347076 -6.65126953 15.14347076 -6.16796875 14.0145874 C-5.30275235 11.99381237 -4.43670903 9.97339428 -3.5703125 7.953125 C-3.09352051 6.84098633 -2.61672852 5.72884766 -2.12548828 4.58300781 C-1.45282027 3.03922743 -0.75309231 1.50618461 0 0 Z M13 46 C9.29045952 54.81308615 5.70225311 63.67003386 2.1875 72.5625 C1.93589111 73.19196533 1.68428223 73.82143066 1.42504883 74.4699707 C0.68859178 76.31265303 -0.04058693 78.15823907 -0.76953125 80.00390625 C-1.19854736 81.08486572 -1.62756348 82.1658252 -2.06958008 83.27954102 C-3.16180283 85.99390172 -3.16180283 85.99390172 -3 89 C7.89 89 18.78 89 30 89 C28.1295264 82.76508799 26.27134214 76.80722923 23.86328125 70.8046875 C23.57897751 70.08636749 23.29467377 69.36804749 23.00175476 68.62796021 C22.10920708 66.37541376 21.21097836 64.12518646 20.3125 61.875 C19.69948901 60.33088028 19.08685579 58.78661053 18.47460938 57.2421875 C16.98742121 53.49304831 15.49514024 49.74597463 14 46 C13.67 46 13.34 46 13 46 Z "
        fill="#FFFFFF" transform="translate(993,798)" />
    <path
        d="M0 0 C9.9 0 19.8 0 30 0 C39.85534257 10.01316834 39.85534257 10.01316834 42.26171875 14.6640625 C43.06488525 16.16694824 43.06488525 16.16694824 43.88427734 17.70019531 C44.41746582 18.70663086 44.9506543 19.71306641 45.5 20.75 C46.6315361 22.70656716 47.77344256 24.65717454 48.92578125 26.6015625 C51.21577944 30.48335318 53.45459098 34.3889679 55.66870117 38.31445312 C59.29538534 44.63332698 63.40490284 50.53626593 67.6410675 56.45648193 C72.10411587 62.69459888 76.39353973 69.02718285 80.60546875 75.4375 C81.23111725 76.3892511 81.85676575 77.3410022 82.50137329 78.32159424 C84.39900826 81.21292227 86.29352562 84.10627304 88.1875 87 C90.13005934 89.96367607 92.07350268 92.92676505 94.01838684 95.88891602 C95.21297949 97.70874116 96.40616239 99.52949277 97.59770203 101.35131836 C98.40048332 102.57540405 98.40048332 102.57540405 99.21948242 103.82421875 C99.6857756 104.53666748 100.15206879 105.24911621 100.63249207 105.9831543 C102.02331636 108.03438774 103.51302242 110.01736323 105 112 C105.33 75.04 105.66 38.08 106 0 C114.25 0 122.5 0 131 0 C131 49.5 131 99 131 150 C101 150 101 150 94.43359375 144.52734375 C92.95230046 141.99170106 91.68518227 139.57313957 90.4375 136.9375 C89.67543705 135.56311177 88.90073459 134.19566708 88.11450195 132.83496094 C86.48753053 130.00047504 84.9146998 127.1448879 83.37304688 124.26318359 C80.01584606 118.09942565 76.0095076 112.39315181 72.00073242 106.64147949 C69.79057195 103.45813346 67.62465798 100.24491452 65.453125 97.03515625 C64.56074735 95.72007878 63.6681666 94.40513911 62.77539062 93.09033203 C58.31651494 86.52026734 53.86474002 79.94539539 49.41445923 73.36950684 C47.99844907 71.27754399 46.58165032 69.18611699 45.16479492 67.09472656 C38.39592676 57.09352341 31.69929034 47.0489355 25 37 C24.67 74.29 24.34 111.58 24 150 C16.08 150 8.16 150 0 150 C0 100.5 0 51 0 0 Z "
        fill="#FFFFFF" transform="translate(749,629)" />
    <path
        d="M0 0 C16.43258598 12.98942497 26.36474756 31.61259858 29.125 52.25 C30.61825139 75.18061375 25.10823122 95.7479753 9.875 113.375 C-5.15335979 129.33789645 -24.65746555 139.45141613 -46.7890625 140.37109375 C-69.10941046 140.82389317 -89.06384933 133.98084106 -105.875 119.25 C-106.56335938 118.65703125 -107.25171875 118.0640625 -107.9609375 117.453125 C-122.13431626 104.34415018 -130.11146628 85.11684022 -131.16015625 66.04296875 C-131.87485542 43.66012229 -124.70317664 24.50531089 -110.1875 7.5625 C-81.14052226 -23.2610513 -33.05337952 -24.72991528 0 0 Z M-92.65234375 26.25390625 C-101.23573235 37.06504457 -105.70839832 50.42437683 -105.21875 64.27734375 C-103.87579843 75.89082265 -100.54180623 85.5708983 -93.875 95.25 C-93.153125 96.301875 -92.43125 97.35375 -91.6875 98.4375 C-79.58617162 110.53882838 -65.98383652 116.54934648 -49.00756836 116.56469727 C-34.4930913 116.31976999 -23.08967781 110.3958247 -12.625 100.5625 C-2.35135015 89.71809183 3.13677678 76.39375011 3.5 61.4375 C2.74194146 45.07810764 -3.6584035 30.55260965 -15.54296875 19.16796875 C-39.72275776 -0.71859139 -72.18006032 3.17196911 -92.65234375 26.25390625 Z "
        fill="#FFFFFF" transform="translate(701.875,642.75)" />
    <path
        d="M0 0 C8.58 0 17.16 0 26 0 C42.19746556 37.44349181 57.53896435 75.24803803 73 113 C75.60952969 110.39047031 76.58647072 107.42009603 77.9140625 104.046875 C78.20042572 103.33230637 78.48678894 102.61773773 78.78182983 101.8815155 C79.40510937 100.32571125 80.02624431 98.76904654 80.64550781 97.2116394 C82.32675945 92.98635273 84.02648202 88.76852026 85.7265625 84.55078125 C86.0789801 83.67591568 86.43139771 82.80105011 86.79449463 81.89967346 C90.43904911 72.8739056 94.207076 63.90172305 98 54.9375 C99.3230243 51.80863926 100.64590835 48.67971922 101.96875 45.55078125 C102.2964035 44.77605469 102.62405701 44.00132812 102.9616394 43.203125 C106.84052667 34.02409869 110.67130674 24.82505006 114.5 15.625 C114.83177246 14.82794647 115.16354492 14.03089294 115.50537109 13.20968628 C117.33791282 8.80687172 119.1691468 4.40351762 121 0 C129.58 0 138.16 0 147 0 C147 49.17 147 98.34 147 149 C141.06 149 135.12 149 129 149 C128.67 110.72 128.34 72.44 128 33 C108.84204501 78.3100236 108.84204501 78.3100236 89.99609375 123.75 C89.66906967 124.54678665 89.34204559 125.3435733 89.00511169 126.164505 C87.43365811 129.99387801 85.86492696 133.82431955 84.30151367 137.65698242 C83.74536074 139.01484429 83.18913141 140.37267487 82.6328125 141.73046875 C82.14699707 142.92051514 81.66118164 144.11056152 81.16064453 145.33666992 C80 148 80 148 79 149 C77.14712498 149.07226502 75.29166122 149.0838122 73.4375 149.0625 C72.42558594 149.05347656 71.41367187 149.04445313 70.37109375 149.03515625 C69.19740234 149.01775391 69.19740234 149.01775391 68 149 C60.39885942 131.6161841 52.95703371 114.18066434 45.73721313 96.63444519 C41.80369452 87.08370866 37.83016573 77.54953858 33.85916138 68.01434326 C32.52291691 64.80504031 31.18808106 61.59515386 29.85327148 58.38525391 C29.01685779 56.37658868 28.18035447 54.36796077 27.34375 52.359375 C26.77564354 50.99221848 26.77564354 50.99221848 26.19606018 49.59744263 C25.83423141 48.72965179 25.47240265 47.86186096 25.09960938 46.96777344 C24.63427795 45.84988434 24.63427795 45.84988434 24.1595459 44.70941162 C22.48137535 40.78817419 20.73228218 36.8976349 19 33 C18.67 71.28 18.34 109.56 18 149 C12.06 149 6.12 149 0 149 C0 99.83 0 50.66 0 0 Z "
        fill="#FFFFFF" transform="translate(424,461)" />
    <path
        d="M0 0 C87.88790036 0 87.88790036 0 109 21 C109.82951172 21.77730469 109.82951172 21.77730469 110.67578125 22.5703125 C125.22468853 37.550589 127.62319896 59.27288218 127.46875 78.98925781 C126.97880937 99.33710474 120.96717494 117.67199268 106 132 C105.39929688 132.63164063 104.79859375 133.26328125 104.1796875 133.9140625 C79.16815166 158.49249816 26.74012867 150 0 150 C0 100.5 0 51 0 0 Z M25 23 C25 57.32 25 91.64 25 127 C59.06218834 128.9850495 59.06218834 128.9850495 87.875 114.875 C99.7850451 101.99402731 101.6946073 86.07946838 101.28125 69.296875 C100.6670436 54.81184064 95.67473113 42.05490804 85 32 C69.63151412 18.47573242 42.2455595 23 25 23 Z "
        fill="#FFFFFF" transform="translate(225,629)" />
    <path
        d="M0 0 C29.04 0 58.08 0 88 0 C88 9.24 88 18.48 88 28 C69.85 28 51.7 28 33 28 C33 37.57 33 47.14 33 57 C51.15 57 69.3 57 88 57 C88 66.24 88 75.48 88 85 C69.85 85 51.7 85 33 85 C33 106.45 33 127.9 33 150 C22.11 150 11.22 150 0 150 C0 100.5 0 51 0 0 Z "
        fill="#FFFFFF" transform="translate(225,798)" />
    <path
        d="M0 0 C4.90162193 3.93258727 8.32529049 8.32961584 11 14 C11 15.32 11 16.64 11 18 C8.26070622 19.54074107 5.50712161 21.05392858 2.75 22.5625 C1.97269531 23.00013672 1.19539062 23.43777344 0.39453125 23.88867188 C-0.35957031 24.29794922 -1.11367188 24.70722656 -1.890625 25.12890625 C-2.58188477 25.51119385 -3.27314453 25.89348145 -3.98535156 26.28735352 C-6.44149831 27.15617227 -7.59854175 26.94326006 -10 26 C-11.67578125 24.2578125 -11.67578125 24.2578125 -13.3125 22.125 C-17.45647931 17.25691483 -20.74824632 15.32892259 -27.05078125 14.69140625 C-33.8213424 14.43370323 -39.54050614 14.69695065 -45 19 C-48.83627076 23.13136851 -49.76034223 27.05976647 -50.09765625 32.5390625 C-49.90159856 37.47971641 -47.97385955 40.79005329 -44.9375 44.5625 C-37.69584228 50.57153513 -29.19062934 54.427818 -20.6875 58.3125 C-6.20055713 65.10731211 7.77125984 72.36034405 14.2734375 87.82421875 C18.16009411 99.46329259 16.89527213 113.66338956 11.74609375 124.68359375 C5.26306567 136.28945055 -3.70454115 143.19122395 -16.42578125 147.03515625 C-31.79974202 150.71190994 -48.7835064 150.22468269 -62.859375 142.37109375 C-71.95872439 136.54286084 -78.04115017 128.44299941 -81 118 C-81.09375 115.53515625 -81.09375 115.53515625 -80 113 C-77.36434366 111.16429327 -74.50728131 109.94818217 -71.5625 108.6875 C-70.77294922 108.32849609 -69.98339844 107.96949219 -69.16992188 107.59960938 C-63.36165179 105 -63.36165179 105 -61 105 C-60.72027344 105.65226563 -60.44054687 106.30453125 -60.15234375 106.9765625 C-56.66002357 114.59004509 -53.01375028 118.80379702 -45.6875 122.8125 C-37.77181091 125.36162022 -29.92268358 125.81752858 -22 123 C-17.55983208 120.63291557 -14.67741439 118.07962918 -12 113.8125 C-10.32985685 107.44507922 -9.84245734 100.98564691 -12.3125 94.75 C-17.63445379 85.80766949 -30.08964341 82.01987597 -39.07666016 77.83911133 C-53.48251735 71.05527156 -68.00978697 62.95994636 -75 48 C-78.91832377 36.55366377 -78.24282475 23.89270111 -73 13 C-71.26946848 10.02532896 -69.33932854 7.51927689 -67 5 C-66.43667969 4.38382813 -65.87335938 3.76765625 -65.29296875 3.1328125 C-49.08261288 -12.77039979 -18.20080739 -11.67122831 0 0 Z "
        fill="#FFFFFF" transform="translate(546,634)" />
    <path
        d="M0 0 C34.98 0 69.96 0 106 0 C106 9.24 106 18.48 106 28 C93.79 28 81.58 28 69 28 C69 68.26 69 108.52 69 150 C58.11 150 47.22 150 36 150 C36 109.74 36 69.48 36 28 C24.12 28 12.24 28 0 28 C0 18.76 0 9.52 0 0 Z "
        fill="#FFFFFF" transform="translate(1063,798)" />
    <path
        d="M0 0 C5.94 0 11.88 0 18 0 C28.03414477 22.63135913 38.02552653 45.27842029 47.82582092 68.01210022 C48.15142502 68.76736496 48.47702911 69.5226297 48.8125 70.30078125 C49.1407225 71.06220932 49.46894501 71.82363739 49.80711365 72.60813904 C54.73960187 84.04287528 59.71701931 95.45818829 64.68991089 106.87539673 C67.06526339 112.32902003 69.43723892 117.78408369 71.80340576 123.24169922 C72.63128103 125.15005623 73.46033837 127.05790072 74.29034424 128.96533203 C75.56306946 131.89200012 76.83091617 134.82073727 78.09765625 137.75 C78.4900499 138.65000732 78.88244354 139.55001465 79.28672791 140.47729492 C79.82167625 141.71829956 79.82167625 141.71829956 80.36743164 142.984375 C80.68361954 143.71366211 80.99980743 144.44294922 81.32557678 145.19433594 C82 147 82 147 82 149 C75.07 149 68.14 149 61 149 C54.99074787 136.98149575 50.13769784 124.41610311 45 112 C21.24 112 -2.52 112 -27 112 C-31.89213974 123.42818424 -31.89213974 123.42818424 -36.78295898 134.85693359 C-37.39562262 136.28745543 -38.00833112 137.71795806 -38.62109375 139.1484375 C-38.93985474 139.89391846 -39.25861572 140.63939941 -39.58703613 141.4074707 C-41.8859282 146.7718564 -41.8859282 146.7718564 -43 149 C-49.93 149 -56.86 149 -64 149 C-63.30603782 145.53018911 -62.80877222 143.22607107 -61.44042969 140.14477539 C-60.96212204 139.05746124 -60.96212204 139.05746124 -60.47415161 137.94818115 C-59.95327469 136.78467133 -59.95327469 136.78467133 -59.421875 135.59765625 C-59.05939667 134.77694641 -58.69691833 133.95623657 -58.32345581 133.11065674 C-57.54361864 131.34644989 -56.76150814 129.58324652 -55.97735596 127.82095337 C-54.31379018 124.08212879 -52.66121491 120.33847945 -51.00784302 116.59513855 C-50.17385378 114.70735756 -49.33927843 112.81983539 -48.50411987 110.93257141 C-45.17484596 103.40799132 -41.88707262 95.86648966 -38.625 88.3125 C-37.59909967 85.94004305 -36.57305181 83.56764988 -35.546875 81.1953125 C-35.27904205 80.57598846 -35.01120911 79.95666443 -34.73526001 79.318573 C-24.98194354 56.77244982 -15.20472675 34.23557061 -5.3125 11.75 C-4.87341309 10.75186279 -4.43432617 9.75372559 -3.98193359 8.7253418 C-1.13713501 2.27427003 -1.13713501 2.27427003 0 0 Z M8 25 C-3.15473879 51.41564291 -3.15473879 51.41564291 -14.21716309 77.87002563 C-14.99044687 79.72705827 -15.76717502 81.58265544 -16.54394531 83.43823242 C-17.00381836 84.54658447 -17.46369141 85.65493652 -17.9375 86.796875 C-18.53884766 88.24078613 -18.53884766 88.24078613 -19.15234375 89.71386719 C-20.1158845 91.90617077 -20.1158845 91.90617077 -20 94 C-0.86 94 18.28 94 38 94 C31.88961083 78.72402708 25.76375648 63.46240859 19.5 48.25 C18.44620809 45.68767786 17.39275111 43.12521836 16.33947754 40.56268311 C15.69653966 38.99876845 15.0532541 37.43499667 14.4095459 35.87139893 C12.92146395 32.25467478 11.44388828 28.6346768 10 25 C9.34 25 8.68 25 8 25 Z "
        fill="#FFFFFF" transform="translate(334,461)" />
    <path
        d="M0 0 C26.07 0 52.14 0 79 0 C79 5.94 79 11.88 79 18 C58.87 18 38.74 18 18 18 C18 31.53 18 45.06 18 59 C38.13 59 58.26 59 79 59 C79 64.94 79 70.88 79 77 C58.87 77 38.74 77 18 77 C18 95.48 18 113.96 18 133 C38.13 133 58.26 133 79 133 C79 138.61 79 144.22 79 150 C52.93 150 26.86 150 0 150 C0 100.5 0 51 0 0 Z "
        fill="#FFFFFF" transform="translate(590,460)" />
    <path
        d="M0 0 C6.41606153 4.48144756 12.02192652 10.257259 14.671875 17.6796875 C4.29829869 25.16260322 4.29829869 25.16260322 -1.328125 27.6796875 C-1.740625 27.01582031 -2.153125 26.35195313 -2.578125 25.66796875 C-7.12222911 18.71995242 -11.38298758 14.32806664 -19.328125 11.6796875 C-27.05841308 11.03461558 -33.95028112 10.85852115 -40.328125 15.6796875 C-44.99786835 19.84185005 -46.36341976 23.69903593 -47.234375 29.87109375 C-47.42903502 35.70278338 -45.44768525 40.50099756 -42.140625 45.2421875 C-35.70417565 52.07014837 -25.20975285 55.41841407 -16.77734375 59.12890625 C-1.27925054 65.96781006 13.12543445 72.32808277 20.046875 88.9296875 C24.3491895 100.37758521 23.87495718 113.25999252 19.671875 124.6796875 C14.43190846 135.91051921 6.14221062 143.96524738 -5.328125 148.6796875 C-19.88798118 153.11968967 -36.37286051 153.64237277 -50.203125 146.4296875 C-58.52129236 141.22890383 -63.81207999 135.38920288 -68.328125 126.6796875 C-68.85792969 125.68001953 -68.85792969 125.68001953 -69.3984375 124.66015625 C-70.61764904 122.13935401 -71.32259997 120.02776441 -71.3671875 117.21875 C-70.01407374 113.91226902 -68.08527871 113.16567576 -64.90820312 111.75195312 C-64.20115234 111.45998047 -63.49410156 111.16800781 -62.765625 110.8671875 C-61.69924805 110.40022461 -61.69924805 110.40022461 -60.61132812 109.92382812 C-58.85758299 109.15877152 -57.09373409 108.41695146 -55.328125 107.6796875 C-53.38688001 110.59155498 -52.31787955 113.17326555 -51.078125 116.4296875 C-47.78898016 124.36966396 -44.16512083 129.44508065 -36.19921875 132.96875 C-27.7301549 136.18664065 -19.55962394 134.90311482 -11.328125 131.6796875 C-4.77903614 128.09622379 -0.19143149 123.04850019 2.1640625 115.94140625 C4.02731943 107.64274653 2.87490908 100.04765689 -1.328125 92.6796875 C-8.39115192 82.34043725 -22.99465595 77.7651376 -34.078125 73.1796875 C-46.96155535 67.81532635 -57.77929608 61.27734534 -64.203125 48.4296875 C-67.86651364 39.01631993 -68.1723425 26.73444295 -64.890625 17.1171875 C-59.81210776 6.97784821 -51.82653407 0.6082957 -41.328125 -3.3203125 C-27.90540249 -7.29234263 -12.37553319 -7.01833929 0 0 Z "
        fill="#FFFFFF" transform="translate(747.328125,462.3203125)" />
    <path
        d="M0 0 C8.91742806 -1.51587532 18.22695374 -2.72644091 27 0 C33.53735272 5.07777926 36.75149801 13.1493465 40.23144531 20.45703125 C43.25740556 26.51897701 46.94187483 32.15561152 50.5625 37.875 C51.85937416 39.97415472 53.15251898 42.07561936 54.44140625 44.1796875 C55.03711426 45.15131836 55.63282227 46.12294922 56.24658203 47.12402344 C58.8546987 51.40188675 61.43253854 55.69763833 64 60 C64.40532959 59.11187622 64.40532959 59.11187622 64.81884766 58.20581055 C68.55574428 50.14531535 73.50413606 42.90463808 78.36865234 35.50097656 C81.36902415 30.90118477 84.30668322 26.26142396 87.25 21.625 C87.81581787 20.73458008 88.38163574 19.84416016 88.96459961 18.92675781 C89.79423218 17.62109863 89.79423218 17.62109863 90.640625 16.2890625 C91.20128662 15.43256104 91.76194824 14.57605957 92.33959961 13.69360352 C94.06903832 10.98673067 94.06903832 10.98673067 95.50610352 7.91381836 C97.11271574 4.81981425 98.50838048 2.4449684 101 0 C105.55353923 -1.3197155 109.74608426 -1.05349697 114.4375 -0.6875 C116.25024414 -0.61305664 116.25024414 -0.61305664 118.09960938 -0.53710938 C121.07261433 -0.40784829 124.03317145 -0.22758099 127 0 C122.9879093 7.63692822 118.59130706 14.88439539 113.8125 22.0625 C109.25531926 28.97392743 104.76825998 35.90624929 100.5 43 C95.57799358 51.1751861 90.38120874 59.1592548 85.125 67.12304688 C84.51785156 68.04537109 83.91070312 68.96769531 83.28515625 69.91796875 C82.74769775 70.73031982 82.21023926 71.5426709 81.65649414 72.37963867 C81.10985107 73.24435791 80.56320801 74.10907715 80 75 C79.28481201 75.9389209 78.56962402 76.8778418 77.83276367 77.84521484 C74.53479543 83.72817466 75.3943347 91.00127678 75.390625 97.55859375 C75.37562912 99.07318376 75.35889903 100.5877575 75.34051514 102.10231018 C75.29698667 106.06917102 75.27687506 110.03581132 75.26177979 114.00286865 C75.24215602 118.05868492 75.20019211 122.11426483 75.16015625 126.16992188 C75.08501126 134.1132481 75.03669244 142.05640299 75 150 C67.08 150 59.16 150 51 150 C51.04882324 147.06722168 51.04882324 147.06722168 51.09863281 144.07519531 C51.19308148 137.52916066 51.23024642 130.98463621 51.23059464 124.43794632 C51.23281124 120.47799151 51.25621237 116.52079855 51.33251953 112.56152344 C51.67126989 94.1233365 51.57525942 79.19282322 39.58309937 64.06733704 C36.79009504 60.42000989 34.4611236 56.47537675 32.0625 52.5625 C31.06370763 50.98751477 30.06403971 49.41308336 29.0625 47.83984375 C24.20552617 40.18449135 19.45998828 32.45988411 14.69824219 24.74511719 C12.9007673 21.83959567 11.09568944 18.93890135 9.2890625 16.0390625 C8.68634521 15.0701709 8.08362793 14.1012793 7.46264648 13.10302734 C6.29719059 11.22989881 5.13008787 9.35779373 3.96118164 7.48681641 C3.44160889 6.65069824 2.92203613 5.81458008 2.38671875 4.953125 C1.92483154 4.21223633 1.46294434 3.47134766 0.98706055 2.70800781 C0 1 0 1 0 0 Z "
        fill="#FFFFFF" transform="translate(341,629)" />
    <path
        d="M0 0 C4.95 0 9.9 0 15 0 C15 19.8 15 39.6 15 60 C41.4 60 67.8 60 95 60 C95 40.2 95 20.4 95 0 C99.62 0 104.24 0 109 0 C109 49.17 109 98.34 109 149 C104.38 149 99.76 149 95 149 C95 123.59 95 98.18 95 72 C68.6 72 42.2 72 15 72 C15 97.41 15 122.82 15 149 C10.05 149 5.1 149 0 149 C0 99.83 0 50.66 0 0 Z "
        fill="#FFFFFF" transform="translate(316,292)" />
    <path d="M0 0 C10.89 0 21.78 0 33 0 C33 49.5 33 99 33 150 C22.11 150 11.22 150 0 150 C0 100.5 0 51 0 0 Z "
        fill="#FFFFFF" transform="translate(1181,798)" />
    <path
        d="M0 0 C24.42 0 48.84 0 74 0 C74 4.29 74 8.58 74 13 C54.2 13 34.4 13 14 13 C14 28.18 14 43.36 14 59 C33.8 59 53.6 59 74 59 C74 63.29 74 67.58 74 72 C54.2 72 34.4 72 14 72 C14 93.12 14 114.24 14 136 C33.8 136 53.6 136 74 136 C74 140.29 74 144.58 74 149 C49.58 149 25.16 149 0 149 C0 99.83 0 50.66 0 0 Z "
        fill="#FFFFFF" transform="translate(446,292)" />
    <path
        d="M0 0 C6.27 0 12.54 0 19 0 C19.09287403 16.33419433 19.16412004 32.66827855 19.20724869 49.00267315 C19.22781259 56.58821835 19.25581392 64.17359575 19.30175781 71.7590332 C19.34181594 78.37591146 19.36747759 84.9926681 19.37635398 91.60966426 C19.38153692 95.10847183 19.39358694 98.60693171 19.42292023 102.10562706 C19.45551603 106.02580308 19.45594735 109.94564908 19.45410156 113.8659668 C19.46848267 115.006772 19.48286377 116.14757721 19.49768066 117.32295227 C19.44092313 128.5375555 17.28911323 138.9968497 9.21484375 147.19140625 C0.53607335 154.27830342 -10.2254152 154.69800019 -21 154 C-29.83544126 152.42622575 -37.40244849 148.01541461 -44 142 C-44.70226554 140.68506832 -45.37530495 139.35350594 -46 138 C-44.26461877 136.12997712 -42.5140665 134.28011908 -40.75 132.4375 C-40.25886719 131.90447266 -39.76773438 131.37144531 -39.26171875 130.82226562 C-37.796875 129.30859375 -37.796875 129.30859375 -35 127 C-31.6339906 126.96266903 -29.61024056 128.8740824 -27.0625 130.9375 C-21.21898084 135.41681524 -16.3800867 136.89775652 -9 136 C-5.77323855 134.75804505 -5.12855281 134.2190159 -3.3125 131.125 C-1.51678404 126.84948581 -0.87461437 123.44557121 -0.84178162 118.8114624 C-0.8319928 117.76260864 -0.82220398 116.71375488 -0.81211853 115.63311768 C-0.80636307 114.4880072 -0.8006076 113.34289673 -0.79467773 112.16308594 C-0.78477814 110.95305908 -0.77487854 109.74303223 -0.76467896 108.49633789 C-0.73851401 105.18263614 -0.71664258 101.86895819 -0.69667697 98.55521679 C-0.67478759 95.0905163 -0.64741336 91.62585926 -0.62062073 88.16119385 C-0.57073372 81.6023137 -0.52578011 75.04340939 -0.48259836 68.48448205 C-0.43319184 61.01654626 -0.37828639 53.54865408 -0.32291877 46.08076048 C-0.20916002 30.72054704 -0.10250277 15.3602929 0 0 Z "
        fill="#FFFFFF" transform="translate(249,460)" />
    <path
        d="M0 0 C32.01 0 64.02 0 97 0 C97 4.29 97 8.58 97 13 C83.47 13 69.94 13 56 13 C56 57.88 56 102.76 56 149 C51.05 149 46.1 149 41 149 C41 104.12 41 59.24 41 13 C27.47 13 13.94 13 0 13 C0 8.71 0 4.42 0 0 Z "
        fill="#FFFFFF" transform="translate(208,292)" />
</svg>