<svg version="1.1" id="Layer_1" xmlns="http://www.w3.org/2000/svg" xmlns:xlink="http://www.w3.org/1999/xlink" x="0px"
	y="0px" width="100%" viewBox="0 0 900 280" enable-background="new 0 0 900 280" xml:space="preserve">
	<path fill="#FFFFFF" opacity="1.000000" stroke="none" d="
M887.644470,201.947586 
	C889.557434,205.362457 891.195190,208.566528 893.196899,212.482635 
	C889.080261,212.482635 885.494507,212.482635 881.037354,212.486847 
	C873.770447,212.591080 867.374939,212.691086 860.534607,212.641632 
	C854.039001,212.474442 847.988220,212.456711 841.712524,212.153412 
	C839.369141,208.232544 837.250671,204.597229 835.073364,200.606140 
	C832.934937,196.510147 830.855347,192.769943 828.628174,188.711639 
	C827.332947,188.342834 826.185425,188.292145 824.657593,188.171661 
	C823.508850,188.152115 822.740417,188.202377 821.513062,188.163086 
	C814.042419,188.134888 807.030701,188.196243 799.554321,188.183716 
	C793.391113,188.159973 787.692505,188.210129 781.743164,188.175720 
	C781.324707,188.146164 781.157104,188.201187 780.526855,188.184418 
	C773.713074,188.160141 767.361938,188.207642 760.760620,188.172455 
	C760.343994,188.145477 760.177490,188.201172 759.549438,188.182648 
	C754.384033,188.157562 749.680176,188.206711 744.653931,188.153580 
	C743.595459,188.372849 742.859436,188.694397 741.890747,189.246582 
	C741.116638,190.654114 740.575195,191.831009 739.756104,193.203735 
	C738.233215,195.889969 736.987854,198.380371 735.488770,201.091431 
	C733.513916,204.618958 731.792725,207.925812 729.900269,211.314941 
	C729.520020,211.583359 729.441772,211.813889 729.028442,212.209335 
	C726.064148,212.477646 723.565552,212.625412 720.614136,212.631683 
	C713.766968,212.590469 707.372681,212.690720 700.533936,212.641541 
	C694.362793,212.546677 688.636047,212.601273 682.568909,212.479416 
	C681.842102,211.550781 681.455688,210.798599 681.033020,210.028290 
	C680.996704,210.010162 681.055603,210.066376 681.276367,209.912933 
	C681.427795,209.250153 681.358398,208.740829 681.582275,208.017349 
	C681.931519,207.567627 681.987427,207.332062 682.285095,206.878693 
	C683.457642,205.220322 684.388550,203.779739 685.328613,202.268494 
	C685.337830,202.197845 685.263062,202.319168 685.533081,202.221802 
	C685.917419,201.767593 686.031738,201.410782 686.393433,200.824951 
	C690.181519,194.101639 693.722290,187.607330 697.521240,180.912384 
	C698.902466,178.571304 700.025513,176.430893 701.427246,174.080414 
	C703.986938,169.669174 706.267944,165.467987 708.772827,161.025574 
	C712.630310,154.192215 716.263977,147.600067 720.119019,140.802841 
	C720.560974,140.053253 720.781433,139.508728 721.273071,138.767303 
	C724.726685,132.723892 727.909119,126.877373 731.362854,120.831146 
	C739.006836,107.413368 746.379639,94.195290 753.991211,80.719292 
	C756.484558,77.607376 758.739136,74.753365 761.453979,71.995255 
	C768.279297,72.031418 774.644409,71.971687 781.469360,72.005028 
	C788.282654,72.036148 794.636230,71.974205 801.445068,72.004730 
	C804.046021,72.109680 806.234619,72.400772 808.328430,72.077759 
	C812.954346,71.364120 815.412415,73.384819 817.513977,77.417053 
	C821.695679,85.440422 826.458130,93.161072 831.027832,101.358536 
	C834.349182,107.324020 837.623352,112.937759 840.899414,118.791748 
	C841.197327,119.379448 841.493225,119.726898 841.834961,120.383232 
	C842.228760,121.192253 842.576721,121.692398 842.973755,122.536392 
	C846.466248,128.902802 849.909668,134.925369 853.434204,141.273346 
	C855.984436,145.787994 858.453430,149.977203 860.976807,154.501221 
	C862.300720,156.916611 863.570374,158.997192 864.876587,161.381226 
	C865.263672,162.154160 865.614319,162.623627 865.964905,163.093094 
	C866.161255,163.615234 866.357605,164.137375 866.786743,165.064087 
	C867.091492,165.809097 867.291382,166.037704 867.619141,166.154510 
	C869.320068,169.269730 871.020996,172.384949 872.954773,176.014801 
	C873.431213,176.736542 873.674866,176.943649 873.918518,177.150757 
	C873.918518,177.150772 873.942200,177.059296 873.923767,177.336624 
	C874.155151,177.865784 874.405029,178.117599 874.654846,178.369415 
	C874.654846,178.369431 874.570496,178.320419 874.590454,178.557373 
	C874.610352,178.794342 874.930359,179.009567 874.930359,179.009567 
	C875.127747,179.552811 875.325073,180.096069 875.787476,181.128357 
	C876.375610,181.796646 876.698669,181.975906 877.021729,182.155151 
	C880.470886,188.682373 883.920105,195.209579 887.644470,201.947586 
M767.241028,140.148315 
	C764.173889,145.844437 761.106750,151.540543 757.949158,157.404633 
	C766.240845,157.404633 773.667053,157.404633 781.989502,157.632568 
	C788.315002,157.540527 794.640564,157.448486 801.855164,157.633072 
	C805.224243,157.453705 808.593262,157.274323 812.012939,157.372681 
	C812.012939,157.372681 812.246216,157.211884 812.246216,157.211884 
	C812.246216,157.211884 811.932983,157.136780 812.218811,156.479584 
	C811.762512,155.662903 811.306213,154.846237 810.814880,153.506180 
	C810.569824,153.268707 810.324768,153.031250 809.983582,152.102509 
	C804.267883,141.731079 798.552246,131.359650 792.748230,120.301010 
	C790.410095,116.058289 788.071960,111.815567 785.344299,106.865997 
	C779.191772,118.377235 773.488037,129.048737 767.241028,140.148315 
z" />
	<path fill="#FFFFFF" opacity="1.000000" stroke="none" d="
M7.060636,161.463135 
	C7.021253,154.642090 7.081596,148.280136 7.051203,141.456909 
	C7.027101,134.637863 7.093733,128.280045 7.060638,121.463165 
	C7.021255,114.642128 7.081599,108.280159 7.051204,101.456963 
	C7.027098,94.637901 7.093732,88.280067 7.060638,81.463165 
	C7.027524,78.636887 7.094136,76.269669 7.335437,73.296051 
	C8.004951,72.438950 8.499777,72.188263 8.994604,71.937584 
	C12.697225,71.990150 16.399845,72.042717 21.015896,72.096725 
	C28.283110,72.035172 34.636894,71.972168 41.451931,72.001350 
	C48.278721,72.033028 54.644260,71.972519 61.469559,72.005081 
	C68.276672,72.088654 74.624016,72.079155 81.136955,72.356354 
	C83.710152,75.429733 86.117760,78.216415 88.628975,81.296196 
	C92.793892,86.480560 96.855202,91.371834 101.003235,96.564911 
	C102.321396,98.266785 103.552849,99.666840 104.881271,101.399185 
	C110.310127,108.185356 115.642006,114.639244 121.017120,121.351913 
	C121.325127,121.822861 121.589890,122.035027 121.966805,122.560043 
	C127.380867,129.258316 132.682785,135.643723 138.025330,142.308807 
	C138.592804,143.103348 139.119659,143.618225 139.772217,144.457367 
	C144.308228,150.170822 148.718521,155.560028 153.238403,161.262634 
	C155.844315,164.504166 158.340668,167.432312 160.928070,170.663666 
	C162.289917,172.354767 163.560684,173.742645 164.917938,175.334396 
	C165.174713,175.333267 165.345001,175.128250 165.607224,174.472641 
	C165.602051,169.689682 165.504944,165.357330 165.525085,160.569855 
	C165.560608,153.721741 165.478867,147.328735 165.525452,140.489044 
	C165.567703,133.705887 165.481613,127.369408 165.517731,120.578491 
	C165.558990,113.727943 165.478058,107.331833 165.525452,100.489052 
	C165.598877,93.721832 165.543976,87.401291 165.603302,80.639359 
	C165.842117,77.632072 165.966721,75.066170 166.117859,71.953819 
	C171.455048,71.953819 176.233643,71.953819 181.474594,72.029251 
	C188.287872,72.040459 194.638809,71.976242 201.411575,72.003906 
	C203.556137,72.048241 205.278854,72.000694 207.226593,72.050240 
	C207.451630,72.147331 207.940720,72.115112 207.948547,72.068634 
	C207.956375,72.022148 207.883804,72.082329 208.006561,72.317780 
	C208.268646,72.662376 208.407990,72.771538 208.469238,73.331329 
	C208.498093,76.196732 208.605057,78.611511 208.565842,81.471878 
	C208.493393,88.241211 208.567123,94.564964 208.493378,101.343727 
	C208.443817,108.223709 208.541763,114.648689 208.522858,121.523590 
	C208.507446,128.291763 208.608902,134.610031 208.563263,141.380402 
	C208.514786,148.230453 208.613403,154.628387 208.565826,161.471924 
	C208.516541,168.254456 208.613449,174.591370 208.563293,181.380310 
	C208.512527,188.246185 208.608841,194.660019 208.561951,201.504745 
	C208.469467,204.985840 208.520187,208.036057 208.389008,211.376770 
	C208.151291,211.888870 208.095474,212.110458 207.604126,212.371399 
	C205.154694,212.511581 203.140778,212.612411 200.672150,212.561035 
	C193.769379,212.509506 187.321304,212.610153 180.429230,212.592896 
	C173.664978,212.578629 167.344696,212.682266 160.578552,212.638794 
	C153.729004,212.590530 147.325317,212.689377 140.532257,212.641846 
	C138.752502,212.474060 137.362137,212.452667 135.924377,212.292419 
	C135.876999,212.153549 135.586899,212.109406 135.553955,211.920517 
	C135.397949,211.480072 135.197662,211.335327 134.759186,211.003296 
	C132.909149,208.732498 131.220062,206.755783 129.416748,204.536743 
	C129.151657,204.198807 129.000778,204.103226 128.757004,203.690216 
	C122.496666,195.887665 116.329224,188.402573 110.053223,180.593903 
	C106.998825,176.772141 104.052971,173.273941 100.999901,169.462006 
	C98.601654,166.429581 96.310616,163.710892 93.915565,160.669815 
	C89.549042,155.218033 85.286537,150.088623 80.926086,144.654617 
	C79.850998,143.246140 78.873878,142.142288 77.787216,140.723679 
	C71.514534,132.916840 65.351395,125.424751 59.117889,117.658371 
	C58.748276,117.174088 58.449028,116.964088 58.133339,116.820007 
	C58.116905,116.885918 58.251514,116.867546 58.161686,116.569160 
	C57.766224,115.999985 57.460587,115.729195 57.084488,115.201904 
	C56.414124,114.310425 55.814213,113.675453 55.119316,112.747345 
	C54.719303,112.194725 54.414276,111.935234 54.011971,111.365723 
	C53.041576,110.093628 52.168457,109.131546 51.138924,107.886040 
	C50.698788,109.059486 50.415062,110.516373 50.045364,112.419228 
	C50.022739,115.583427 50.086079,118.301659 50.057636,121.479050 
	C50.026604,128.286102 50.087357,134.633987 50.058159,141.443848 
	C50.029892,148.277100 50.091579,154.648376 50.061218,161.478821 
	C50.029068,168.285645 50.088974,174.633316 50.058659,181.443176 
	C50.030052,188.276825 50.091663,194.648239 50.061584,201.466171 
	C49.962894,205.240326 49.955891,208.567978 49.696812,212.024017 
	C49.323257,212.296677 49.201782,212.440933 48.637783,212.517471 
	C45.822098,212.539627 43.448929,212.629501 40.627171,212.568146 
	C33.747341,212.517395 27.316103,212.617905 20.884865,212.718414 
	C16.660816,212.576645 12.436767,212.434860 7.779047,211.961945 
	C7.351607,211.354034 7.244177,211.132294 7.023087,210.965591 
	C7.068548,207.940948 7.114010,204.916290 7.060192,201.447845 
	C7.021253,194.642090 7.081596,188.280136 7.051203,181.456909 
	C7.027099,174.637848 7.093729,168.280045 7.060636,161.463135 
z" />

	<path fill="#FFFFFF" opacity="1.000000" stroke="none" d="
M672.040344,200.991592 
	C671.973816,204.028473 671.907288,207.065338 671.831421,210.778870 
	C671.822144,211.455505 671.853027,211.943741 671.853027,211.943726 
	C668.513672,212.124435 665.174255,212.305145 660.956543,212.489563 
	C653.743225,212.589798 647.408325,212.686310 640.624329,212.639511 
	C636.402588,212.576416 632.629883,212.656616 628.675293,212.625366 
	C628.493286,212.513916 628.110779,212.703339 627.835571,212.472244 
	C627.328186,211.825485 627.096069,211.409821 626.957886,210.663300 
	C626.988342,209.882599 626.924805,209.432755 626.934692,208.543518 
	C626.944885,205.731216 626.881653,203.358292 626.913269,200.526306 
	C626.970581,194.046097 626.933105,188.024963 626.981445,181.750031 
	C627.011353,181.326553 626.955444,181.156906 626.958252,180.522873 
	C626.950806,173.700775 626.884644,167.343063 626.913269,160.526306 
	C626.970581,154.046127 626.933105,148.024994 626.981445,141.750031 
	C627.011353,141.326553 626.955444,141.156906 626.958252,140.522873 
	C626.950806,133.700821 626.884583,127.343147 626.913208,120.526382 
	C626.970520,114.046158 626.933044,108.025032 626.981384,101.750076 
	C627.011353,101.326584 626.955444,101.156921 626.958252,100.522881 
	C626.949890,93.700142 626.882812,87.341774 626.908813,80.548370 
	C626.989929,77.738869 626.977966,75.364410 627.166687,72.852753 
	C627.627686,72.518112 627.854004,72.287285 628.505066,72.065048 
	C632.972412,72.040016 636.981079,71.973022 641.451050,71.998093 
	C648.278381,72.029732 654.644409,71.969315 661.450562,72.000809 
	C665.108887,72.149452 668.326965,72.206184 671.568665,72.475067 
	C671.592224,72.687233 671.896973,72.986221 671.865234,73.430771 
	C671.903931,76.247765 671.974426,78.620216 671.950012,81.453476 
	C671.921692,88.278999 671.988342,94.643715 671.957642,101.467552 
	C671.922485,108.281754 671.984680,114.636826 671.951050,121.452637 
	C671.921875,128.278412 671.988403,134.643433 671.957642,141.467590 
	C671.922485,148.281708 671.984619,154.636719 671.951050,161.452332 
	C671.921875,168.278061 671.988464,174.643188 671.957642,181.467529 
	C671.920288,188.281677 671.980286,194.636642 672.040344,200.991592 
z" />

	<path fill="#FFFFFF" opacity="1.000000" stroke="none" d="
M234.198914,201.176605 
	C231.306351,194.614487 228.710083,188.204880 226.019485,181.413513 
	C225.835205,174.593491 225.745270,168.155228 225.474731,161.352859 
	C225.324631,154.639984 225.355103,148.291199 225.270081,141.488007 
	C225.257416,134.558319 225.360260,128.083054 225.312744,121.287941 
	C225.382935,115.954063 225.603470,110.940018 225.918655,105.222954 
	C225.968903,104.336670 225.924530,104.153412 225.880142,103.970154 
	C225.972534,103.229431 226.064926,102.488716 226.101196,101.378410 
	C227.795563,93.809624 230.084503,86.878944 235.846329,81.307289 
	C237.533844,79.851540 239.091385,78.703827 240.828400,77.288361 
	C247.421310,75.025734 253.834732,73.030846 260.634308,70.910141 
	C261.792023,70.770927 262.563568,70.757515 263.981201,70.702332 
	C265.174042,70.486252 265.720825,70.311928 266.267609,70.137604 
	C267.908813,70.110748 269.549988,70.083893 271.849365,70.057564 
	C272.672424,69.994728 272.837341,69.931374 273.002228,69.868011 
	C275.371704,69.875099 277.741180,69.882187 280.544769,69.794296 
	C287.338531,69.762199 293.698181,69.825073 300.775146,69.904541 
	C301.661713,69.864456 301.830963,69.807800 302.000244,69.751137 
	C307.691437,69.798149 313.382629,69.845161 319.790833,69.907379 
	C320.677307,69.866837 320.846741,69.811096 321.016205,69.755363 
	C327.363403,69.799561 333.710632,69.843758 340.775146,69.904541 
	C341.661713,69.864456 341.830963,69.807800 342.000244,69.751137 
	C347.683929,69.800545 353.367615,69.849945 359.513977,69.832306 
	C366.646271,70.293655 373.315826,70.822037 380.429901,71.322128 
	C386.987488,73.813644 393.100616,76.333458 399.539917,78.956451 
	C400.423004,79.645409 400.979919,80.231201 401.955292,81.200958 
	C407.951477,86.881927 410.333435,93.762299 411.945190,101.385124 
	C412.021240,102.531487 412.145416,103.293167 412.206726,104.406967 
	C412.261292,105.459061 412.378754,106.159027 412.419098,107.280228 
	C412.528992,112.130623 412.716003,116.559784 412.786896,121.445992 
	C412.749329,128.271973 412.827850,134.640915 412.798767,141.467529 
	C412.763092,148.280502 412.835052,154.635803 412.788849,161.442810 
	C412.512909,168.254730 412.355164,174.614914 412.076569,181.360809 
	C411.129883,188.901688 408.549164,195.345917 404.136169,201.047821 
	C403.203766,201.895844 402.271332,202.743866 401.188751,203.872070 
	C394.576538,206.961166 388.114471,209.770065 381.327026,212.763565 
	C374.639404,213.377274 368.277191,213.806381 361.463257,214.352570 
	C354.642792,214.415207 348.273956,214.360748 341.446289,214.408401 
	C334.634216,214.443375 328.280975,214.376236 321.470276,214.411713 
	C314.643616,214.444977 308.274414,214.375610 301.446350,214.408386 
	C294.645813,214.440247 288.304138,214.369980 281.502808,214.379105 
	C274.625793,214.044464 268.208466,213.630432 261.369141,213.277573 
	C254.529648,211.323105 248.112152,209.307465 241.348129,207.235077 
	C238.832794,205.228592 236.664001,203.278839 234.198914,201.176605 
M372.190155,120.122940 
	C372.132965,108.787308 370.027466,106.123901 360.094208,105.718582 
	C353.722229,105.761139 347.350220,105.803688 340.065491,105.623825 
	C333.717896,105.697708 327.370270,105.771591 320.109589,105.598412 
	C313.732483,105.681023 307.355347,105.763626 300.065491,105.623825 
	C293.715973,105.700180 287.366486,105.776527 280.143707,105.629723 
	C278.815582,105.684196 277.483459,105.690598 276.160034,105.801125 
	C268.760437,106.419106 266.270691,109.014580 265.933777,116.523872 
	C265.867157,118.008141 266.022125,119.502350 265.894257,121.914848 
	C265.956329,128.280426 266.018402,134.645996 265.891357,141.930191 
	C265.941620,148.282669 265.991882,154.635147 265.843872,161.890106 
	C265.875061,164.207626 265.790009,166.533707 265.959869,168.841019 
	C266.416901,175.050552 268.590881,177.413834 274.704773,178.243027 
	C276.809204,178.528458 278.967987,178.413269 282.004395,178.678802 
	C288.315948,178.589813 294.627533,178.500824 301.851624,178.671692 
	C308.243713,178.588791 314.635773,178.505905 321.931702,178.668518 
	C328.267487,178.582962 334.603302,178.497391 341.851288,178.671661 
	C348.252930,178.506332 354.654572,178.341003 361.872070,178.323120 
	C369.755768,177.450012 371.807159,175.304764 372.136597,167.388916 
	C372.225037,165.263901 372.054199,163.128082 372.190277,160.076569 
	C372.125397,153.718399 372.060547,147.360229 372.201355,140.083923 
	C372.134308,133.722000 372.067230,127.360069 372.190155,120.122940 
z" />
	<path fill="#FFFFFF" opacity="1.000000" stroke="none" d="
M430.286438,72.124069 
	C433.558899,72.113487 436.831390,72.102905 440.547028,71.999153 
	C447.355682,71.968216 453.721130,72.030457 460.548004,72.001289 
	C465.302032,71.909889 469.594666,71.909889 474.713257,71.909889 
	C474.713257,74.970062 474.713257,77.552673 474.719971,81.030624 
	C474.798798,88.280952 474.870880,94.635918 474.830078,101.448624 
	C474.787964,108.275208 474.858734,114.644066 474.822845,121.469917 
	C474.716187,127.250580 474.716187,132.574249 474.716187,139.266541 
	C477.986755,136.159561 480.108459,134.143936 482.534790,132.001953 
	C486.802765,128.227921 490.766144,124.580261 495.049896,120.814674 
	C497.691559,118.531723 500.012817,116.366714 502.637878,114.078506 
	C507.649902,109.643402 512.358093,105.331505 517.362061,100.931793 
	C518.806885,99.696442 519.955933,98.548889 521.429932,97.271400 
	C527.659546,91.797760 533.564209,86.454056 539.468933,81.110367 
	C540.210144,80.567787 540.951355,80.025200 541.798340,79.226196 
	C546.855103,73.735008 552.621399,70.658386 560.542603,72.003387 
	C567.356445,71.970642 573.721558,72.031670 580.547974,72.001289 
	C587.363647,71.971603 593.717834,72.033318 600.531982,72.001266 
	C603.071899,72.044968 605.151917,72.182434 608.415100,72.398094 
	C592.170776,85.850197 576.737122,98.631035 560.829224,111.805115 
	C556.943787,115.141197 553.532471,118.084023 549.797668,121.129822 
	C546.610352,123.694763 543.746521,126.156746 540.557617,128.746918 
	C536.708313,131.755402 533.184204,134.635727 529.284363,137.823074 
	C531.570312,139.601715 533.242126,140.902466 535.058350,142.504425 
	C537.116028,144.250198 539.029114,145.694748 541.079712,147.399567 
	C541.859070,148.091049 542.500977,148.522278 543.271240,149.219025 
	C543.893494,149.793442 544.387390,150.102341 545.053467,150.683350 
	C548.166016,153.300491 551.106262,155.645508 554.124023,158.216736 
	C554.405945,158.724731 554.682251,158.861832 555.172485,159.125061 
	C556.150757,159.953735 556.986816,160.511597 557.991211,161.364349 
	C565.737427,167.889526 573.315430,174.119827 580.949829,180.554535 
	C581.189697,181.016144 581.437988,181.124207 581.915771,181.384003 
	C588.380310,186.813293 594.680359,191.941666 601.124390,197.363953 
	C603.156372,199.140854 605.044495,200.623840 606.932556,202.106812 
	C610.230774,204.929230 613.528931,207.751648 617.142456,211.210495 
	C617.399170,212.145630 617.340576,212.444336 617.281921,212.743042 
	C612.171509,212.639481 607.061035,212.535919 601.486450,212.474640 
	C594.651917,212.492050 588.281494,212.467194 581.442871,212.478836 
	C574.636230,212.489944 568.297913,212.464554 561.495483,212.477295 
	C557.348999,212.783951 554.534119,211.381226 551.781433,208.832214 
	C541.932373,199.711990 531.837708,190.856964 521.421753,181.571304 
	C521.007629,181.240967 520.616028,181.022919 520.592651,180.866089 
	C520.422729,180.498123 520.235229,180.451324 519.813477,180.330505 
	C519.432007,180.011765 519.243896,179.931381 518.938599,179.541626 
	C512.931702,174.040131 507.041901,168.848007 501.016663,163.391113 
	C499.958405,162.397583 499.035583,161.668808 497.965210,160.637787 
	C492.261597,155.445587 486.705536,150.555664 481.002625,145.386597 
	C479.235077,143.740173 477.614288,142.372864 475.940247,140.811844 
	C475.608612,140.743622 475.330231,140.869110 474.894012,141.440582 
	C474.800659,148.261093 474.865082,154.635590 474.827515,161.468719 
	C474.797943,168.281952 474.870392,174.636551 474.829956,181.448761 
	C474.778809,188.263046 474.840546,194.619720 474.902313,200.976410 
	C474.680237,204.548538 474.458160,208.120667 474.192291,212.397461 
	C470.007751,212.397461 465.953827,212.397461 461.434204,212.456024 
	C454.630402,212.489594 448.292328,212.464584 441.489929,212.477692 
	C437.631836,212.439240 434.238098,212.362671 430.416138,211.814240 
	C429.915985,210.904510 429.844055,210.466614 429.772125,210.028732 
	C429.824585,207.307999 429.877014,204.587250 429.931122,200.962341 
	C429.872162,193.714706 429.811554,187.371246 429.840149,180.564850 
	C429.868805,173.727051 429.808258,167.352158 429.840088,160.518494 
	C429.871979,153.715729 429.811462,147.371750 429.840149,140.564880 
	C429.868927,133.725571 429.808502,127.349174 429.840332,120.514397 
	C429.880798,113.716721 429.828949,107.377434 429.870667,100.575699 
	C429.902222,93.728798 429.840240,87.344330 429.778259,80.959862 
	C429.836853,78.598869 429.895447,76.237877 430.062317,73.241653 
	C430.170624,72.606430 430.286438,72.124077 430.286438,72.124069 
z" />
</svg>