<svg width="28" height="7" viewBox="0 0 28 7" fill="none" xmlns="http://www.w3.org/2000/svg">
<path d="M7 2.09667H6.03827V0L3.69525 1.87758V0H3.30475V1.87758L0.961733 0V2.09667H0V5.11688H0.958506V7L3.30475 5.20563V7H3.69525V5.20563L6.0415 7V5.11688H7V2.09667ZM5.64776 0.770999V2.0939H3.99539L5.64776 0.770999ZM1.35224 0.770999L3.00461 2.0939H1.35224V0.770999ZM0.390502 4.7813V2.43225H2.99816L0.958506 4.04358V4.7813H0.390502ZM1.34901 4.19057L3.30475 2.6458V4.75634L1.34901 6.25119V4.1878V4.19057ZM5.65099 6.25119L3.69525 4.75634V2.6458L5.65099 4.19057V6.25396V6.25119ZM6.6095 4.7813H6.0415V4.04358L4.00184 2.43225H6.6095V4.7813Z" fill="#FCFCF9"/>
<path d="M15.1463 1.87151H15.3401V2.26704H15.0899C14.8938 2.26704 14.7473 2.31397 14.6504 2.40782C14.5535 2.50168 14.5062 2.65587 14.5062 2.86816V4.16425H14.1117V1.88045H14.5062V2.24469C14.5062 2.2648 14.5174 2.27598 14.5377 2.27598C14.558 2.27598 14.558 2.27374 14.5648 2.26704C14.5715 2.26034 14.576 2.24916 14.5828 2.23129C14.6594 1.99218 14.8488 1.87151 15.1508 1.87151H15.1463ZM17.7292 2.36089C17.8329 2.54413 17.8847 2.76536 17.8847 3.02235C17.8847 3.27933 17.8329 3.50056 17.7292 3.6838C17.6255 3.86704 17.4903 4.00335 17.3257 4.09497C17.1612 4.18659 16.9832 4.23129 16.7916 4.23129C16.4174 4.23129 16.1537 4.08156 16.0005 3.78212C15.9892 3.75978 15.9734 3.74637 15.9554 3.74637C15.9374 3.74637 15.9284 3.75531 15.9284 3.77319V4.99777H15.5339V1.88045H15.9284V2.27151C15.9284 2.28939 15.9374 2.29832 15.9554 2.29832C15.9734 2.29832 15.987 2.28715 16.0005 2.26257C16.1537 1.96313 16.4174 1.81341 16.7916 1.81341C17.1657 1.81341 17.159 1.8581 17.3257 1.94972C17.4903 2.04134 17.6255 2.17765 17.7292 2.36089ZM17.4903 3.02011C17.4903 2.74972 17.4182 2.53967 17.2716 2.38994C17.1274 2.24022 16.9358 2.16425 16.6992 2.16425C16.4625 2.16425 16.2709 2.24022 16.1267 2.38994C15.9824 2.5419 15.9284 2.75196 15.9284 3.02011C15.9284 3.28827 15.9824 3.50056 16.1267 3.65028C16.2709 3.80224 16.4625 3.87598 16.6992 3.87598C16.9358 3.87598 17.1274 3.8 17.2716 3.65028C17.4159 3.50056 17.4903 3.28827 17.4903 3.02011ZM11.1953 2.36313C11.2989 2.54637 11.3508 2.7676 11.3508 3.02458C11.3508 3.28157 11.2989 3.50279 11.1953 3.68603C11.0916 3.86927 10.9563 4.00559 10.7918 4.09721C10.6273 4.18883 10.4492 4.23352 10.2577 4.23352C9.88351 4.23352 9.61981 4.0838 9.46655 3.78436C9.45528 3.76201 9.4395 3.7486 9.42147 3.7486C9.40344 3.7486 9.39442 3.75754 9.39442 3.77542V5H9V1.88268H9.39442V2.27374C9.39442 2.29162 9.40344 2.30056 9.42147 2.30056C9.4395 2.30056 9.45303 2.28939 9.46655 2.2648C9.61981 1.96536 9.88351 1.81564 10.2577 1.81564C10.6318 1.81564 10.625 1.86034 10.7918 1.95196C10.9563 2.04358 11.0916 2.17989 11.1953 2.36313ZM10.9563 3.02458C10.9563 2.75419 10.8842 2.54413 10.74 2.39441C10.5957 2.24469 10.4042 2.16872 10.1675 2.16872C9.93084 2.16872 9.73927 2.24469 9.59502 2.39441C9.45077 2.54637 9.39668 2.75643 9.39668 3.02458C9.39668 3.29274 9.45077 3.50503 9.59502 3.65475C9.73927 3.8067 9.93084 3.88045 10.1675 3.88045C10.4042 3.88045 10.5957 3.80447 10.74 3.65475C10.8842 3.50503 10.9563 3.29274 10.9563 3.02458ZM13.3815 3.43799H13.7985C13.7421 3.65251 13.6294 3.83799 13.4581 3.99441C13.2868 4.15084 13.0412 4.22905 12.7211 4.22905C12.4011 4.22905 12.2703 4.17989 12.0855 4.08156C11.903 3.98324 11.761 3.84469 11.6618 3.66145C11.5626 3.48045 11.513 3.26592 11.513 3.02011C11.513 2.7743 11.5626 2.55978 11.6573 2.37877C11.7542 2.19777 11.8894 2.05698 12.063 1.95866C12.2365 1.86034 12.4416 1.81117 12.676 1.81117C12.9104 1.81117 13.1043 1.86034 13.2665 1.95643C13.4288 2.05251 13.5505 2.18212 13.6317 2.34078C13.7128 2.49944 13.7534 2.67598 13.7534 2.86592V3.12961H11.93C11.9435 3.35754 12.0224 3.53855 12.1599 3.67486C12.2996 3.80894 12.4867 3.87598 12.7211 3.87598C12.9555 3.87598 13.0569 3.83799 13.1584 3.75978C13.2598 3.68156 13.3342 3.5743 13.3792 3.43575L13.3815 3.43799ZM11.9345 2.80112H13.3139C13.3139 2.60224 13.262 2.44581 13.1606 2.33408C13.0592 2.22235 12.8969 2.16425 12.6783 2.16425C12.4597 2.16425 12.3064 2.22011 12.1757 2.32961C12.045 2.43911 11.9661 2.59777 11.9368 2.80112H11.9345ZM18.198 4.16201H18.5924V1H18.198V4.16201ZM23.6861 1.63017H24.1482V1.13631H23.6861V1.63017ZM25.3134 3.82235C25.2413 3.82905 25.1985 3.83352 25.1827 3.83352C25.1669 3.83352 25.1466 3.82682 25.1331 3.81564C25.1218 3.80447 25.1151 3.78883 25.1151 3.76648C25.1151 3.74413 25.1196 3.70838 25.1263 3.63687C25.1331 3.56536 25.1376 3.45363 25.1376 3.30615V2.21341H25.7011L25.5906 1.87821H25.1376V1.26369H24.7432V1.87821H24.3127V2.21341H24.7432V3.41564C24.7432 3.66816 24.804 3.85587 24.928 3.97877C25.052 4.10168 25.239 4.16425 25.4915 4.16425H25.798V3.81341H25.6447C25.496 3.81341 25.3855 3.81788 25.3134 3.82458V3.82235ZM27.6281 1.87821L26.9722 3.7933C26.9632 3.81788 26.9497 3.84693 26.9046 3.84693C26.8595 3.84693 26.846 3.81564 26.837 3.7933L26.1811 1.87821H25.7777L26.535 4.16201H26.8032C26.8212 4.16201 26.8348 4.16201 26.8438 4.16648C26.8528 4.16872 26.8595 4.17765 26.8663 4.18883C26.8776 4.2067 26.8776 4.23352 26.8618 4.26704L26.7378 4.6C26.7198 4.64469 26.686 4.66704 26.6364 4.66704C26.5868 4.66704 26.5778 4.66257 26.5125 4.65587C26.4471 4.64916 26.3637 4.64469 26.2623 4.64469H25.9422V4.99553H26.3637C26.6094 4.99553 26.7581 4.95307 26.8843 4.87039C27.0128 4.78771 27.1097 4.64022 27.1818 4.42793L28 1.96313V1.87598H27.6236L27.6281 1.87821ZM22.3924 2.73184L21.7726 1.88045H21.3376V1.9676L22.0791 2.95531L21.1731 4.07486V4.16201H21.6171L22.3383 3.24358L23.01 4.16201H23.4359V4.07486L22.6493 3.02011L23.5013 1.96983V1.87821H23.0573L22.3902 2.72961L22.3924 2.73184ZM23.7267 4.16201H24.1211V1.87821H23.7267V4.16201ZM21.1934 3.43799C21.137 3.65251 21.0243 3.83799 20.853 3.99441C20.6817 4.15084 20.4361 4.22905 20.116 4.22905C19.796 4.22905 19.6652 4.17989 19.4804 4.08156C19.2979 3.98324 19.1559 3.84469 19.0567 3.66145C18.9575 3.48045 18.9079 3.26592 18.9079 3.02011C18.9079 2.7743 18.9575 2.55978 19.0522 2.37877C19.1491 2.19777 19.2843 2.05698 19.4579 1.95866C19.6314 1.86034 19.8365 1.81117 20.0709 1.81117C20.3053 1.81117 20.4992 1.86034 20.6614 1.95643C20.8237 2.05251 20.9454 2.18212 21.0266 2.34078C21.1077 2.49944 21.1483 2.67598 21.1483 2.86592V3.12961H19.3249C19.3384 3.35754 19.4173 3.53855 19.5548 3.67486C19.6945 3.80894 19.8816 3.87598 20.116 3.87598C20.3504 3.87598 20.4518 3.83799 20.5533 3.75978C20.6547 3.68156 20.7291 3.5743 20.7741 3.43575H21.1911L21.1934 3.43799ZM19.3317 2.80112H20.711C20.711 2.60224 20.6592 2.44581 20.5578 2.33408C20.4563 2.22235 20.2941 2.16425 20.0754 2.16425C19.8568 2.16425 19.7036 2.22011 19.5728 2.32961C19.4421 2.43911 19.3632 2.59777 19.3339 2.80112H19.3317Z" fill="#FCFCF9"/>
</svg>
