<?xml version="1.0" encoding="UTF-8"?>
<svg version="1.1" xmlns="http://www.w3.org/2000/svg" width="2000" height="871">
    <path
        d="M0 0 C47.34723808 -0.02293215 94.69447557 -0.0405316 142.04171812 -0.05106533 C147.6424768 -0.05231591 153.24323547 -0.05361024 158.84399414 -0.05493164 C159.95891692 -0.05519395 161.0738397 -0.05545626 162.22254802 -0.05572652 C180.23110308 -0.06006757 198.23965493 -0.06794647 216.2482081 -0.0771528 C234.75228168 -0.08653294 253.25635358 -0.09206482 271.76042944 -0.09408849 C283.16124982 -0.09545469 294.56206108 -0.09975604 305.96287865 -0.10791647 C313.80063252 -0.11323781 321.63838174 -0.11479215 329.47613727 -0.11350138 C333.98545896 -0.11286635 338.49476483 -0.11377936 343.00408363 -0.11920547 C393.90589557 -0.17737581 393.90589557 -0.17737581 412.5 2.25 C413.51513672 2.37858398 414.53027344 2.50716797 415.57617188 2.63964844 C469.25374437 9.79115271 528.25553169 29.71697106 562.85546875 74.07421875 C585.05859789 104.36591953 595.48816994 136.88361763 595.3125 174.5 C595.31034485 175.33415436 595.3081897 176.16830872 595.30596924 177.02774048 C595.25009315 190.55088492 594.5654143 203.69191331 592 217 C591.80664062 218.02464355 591.61328125 219.04928711 591.4140625 220.10498047 C577.9785585 289.44918282 543.64072753 365.14411791 487.953125 411.35546875 C485.57217133 413.36023174 483.33193281 415.49485872 481.0625 417.625 C462.76289899 434.24274468 441.58722537 448.05180685 420 460 C419.15808105 460.46615723 418.31616211 460.93231445 417.44873047 461.41259766 C353.10995614 496.69140165 279.7124815 512.79944163 207 518 C205.72592285 518.09498779 204.4518457 518.18997559 203.13916016 518.2878418 C189.81189983 519.20002279 176.47123938 519.18612114 163.11816406 519.18530273 C159.16720595 519.18747678 155.21653358 519.20566194 151.265625 519.22460938 C135.01647746 519.25915941 118.94578258 518.59773117 102.75753784 517.18061829 C99.83091081 516.98892469 96.93205699 516.97018997 94 517 C90.58179176 527.83284737 87.16527987 538.66622907 83.75 549.5 C83.49040874 550.32344784 83.23081749 551.14689568 82.96335983 551.99529648 C75.42867137 575.89742365 67.92469081 599.80883474 60.46327209 623.73392868 C53.71723078 645.36425246 46.90986855 666.97475928 40.07666016 688.57769775 C29.73966659 721.23256953 29.73966659 721.23256953 19.5625 753.9375 C19.32047852 754.72005157 19.07845703 755.50260315 18.82910156 756.30886841 C18.17614274 758.42248491 17.52669559 760.53713802 16.87890625 762.65234375 C16.5341626 763.77632568 16.18941895 764.90030762 15.83422852 766.05834961 C12.12849217 779.12548958 13.37114456 791.86220766 19.5078125 803.9765625 C25.03253743 813.30435389 31.98767062 819.52138698 41.8359375 823.9921875 C44 825 44 825 47 827 C-53.32 827 -153.64 827 -257 827 C-253.90171263 824.67628447 -251.2726129 823.04102318 -247.875 821.3125 C-242.00029025 818.14499381 -237.04726053 814.34336366 -232 810 C-231.17628906 809.31035156 -230.35257813 808.62070312 -229.50390625 807.91015625 C-212.38137829 793.13830295 -202.36405364 775.29371384 -195.69140625 753.984375 C-195.29265289 752.72958344 -194.89389954 751.47479187 -194.48306274 750.18197632 C-193.39561599 746.75834918 -192.3170748 743.33197732 -191.24041367 739.90494537 C-190.32112735 736.98272697 -189.39659016 734.0621799 -188.47219944 731.14157295 C-180.92313761 707.28551274 -173.51641859 683.38527013 -166.13473415 659.47698975 C-159.18040146 636.95567412 -152.11705352 614.470384 -145 592 C-137.24867168 567.52573027 -129.57455209 543.02955948 -122 518.5 C-114.17774568 493.16827735 -106.24410735 467.87377193 -98.23962402 442.59906006 C-90.74253325 418.92489201 -83.32685053 395.2273985 -76 371.5 C-68.17774568 346.16827735 -60.24410735 320.87377193 -52.23962402 295.59906006 C-44.51246017 271.1983717 -36.87664281 246.77139718 -29.32555389 222.31567001 C-22.10493859 198.93165058 -14.78416563 175.5809505 -7.396492 152.24917984 C-0.07452959 129.12349857 7.22258497 105.99128004 14.375 82.8125 C14.70860535 81.73545807 15.04221069 80.65841614 15.38592529 79.54873657 C16.31062321 76.56100732 17.2304288 73.57182161 18.1484375 70.58203125 C18.54349487 69.30791382 18.54349487 69.30791382 18.9465332 68.00805664 C23.93313315 51.67508728 25.35815298 37.08349412 17.71484375 21.35546875 C13.78151042 14.22287823 8.35992249 8.12386199 1.7265625 3.37109375 C1.15679687 2.91863281 0.58703125 2.46617188 0 2 C0 1.34 0 0.68 0 0 Z M235 65 C224.98650294 96.43465174 215.00902444 127.87978418 205.1875 159.375 C203.52382908 164.70975763 201.85997521 170.04445801 200.1953125 175.37890625 C199.98599154 176.04968138 199.77667057 176.7204565 199.56100655 177.41155815 C194.26178272 194.38911983 188.91228938 211.35081903 183.5625 228.3125 C181.61558281 234.48558168 179.66886983 240.6587277 177.72265625 246.83203125 C177.48272383 247.59308418 177.2427914 248.35413712 176.9955883 249.13825226 C171.59531828 266.26969287 166.22460315 283.41035693 160.85745239 300.5521965 C153.37555098 324.44785028 145.85696425 348.33179549 138.32548141 372.21186447 C130.1541264 398.12181061 122.03419766 424.0471328 114 450 C131.27914055 461.51942704 166.8352052 454.96241433 186.0625 451.3125 C232.77323631 441.61390879 274.60359662 412.97920862 302.76611328 374.67382812 C303.95944103 373.05502024 305.18047253 371.4567481 306.40234375 369.859375 C344.13929855 319.77102821 366.09108275 251.94492086 374 190 C374.10022461 189.31728027 374.20044922 188.63456055 374.30371094 187.93115234 C375.26661848 180.75731982 375.22179852 173.52658802 375.24023438 166.30126953 C375.24986211 164.03249316 375.28093054 161.76465568 375.3125 159.49609375 C375.49334626 134.51625876 369.20299787 108.82744936 351.56420898 90.36645508 C330.06868177 68.85069678 300.13605926 64.93392461 271.1328125 64.90234375 C266.79682479 64.90528779 262.46095215 64.92055519 258.125 64.9375 C255.87630308 64.94252593 253.62760507 64.9470869 251.37890625 64.95117188 C245.9192467 64.96208883 240.45962857 64.97873999 235 65 Z "
        fill="#FFFFFF" transform="translate(266,18)" />
    <path
        d="M0 0 C1.14656067 0.12728485 1.14656067 0.12728485 2.31628418 0.25714111 C53.90072332 5.99718605 105.78118466 16.31145301 155 33 C154.43116177 37.6021761 153.56601348 41.83721958 152.14916992 46.25024414 C151.76716431 47.4496312 151.38515869 48.64901825 150.99157715 49.88475037 C150.57130127 51.18491592 150.15092903 52.48505032 149.73046875 53.78515625 C149.29274785 55.15279743 148.85554389 56.52060415 148.41882324 57.88856506 C147.49314629 60.78459879 146.56407474 63.67951117 145.63217163 66.57354736 C144.18471609 71.06864008 142.74458487 75.56605588 141.3059082 80.06396484 C139.87491715 84.53679125 138.44354705 89.00949311 137.00944519 93.48132324 C133.2026727 105.35224537 129.43259086 117.23446821 125.6875 129.125 C125.19235296 130.69541013 124.69715645 132.26580466 124.2019043 133.83618164 C123.13373127 137.2238469 122.06647948 140.61180114 121 144 C117.76403233 142.81706944 115.22885357 141.62031659 112.609375 139.3828125 C111.99151123 138.86452881 111.37364746 138.34624512 110.73706055 137.81225586 C110.08133057 137.25546143 109.42560059 136.69866699 108.75 136.125 C67.06015335 101.56688043 17.63696797 77.39019456 -36 69 C-36.70463379 68.8880127 -37.40926758 68.77602539 -38.13525391 68.66064453 C-94.66429741 61.04287047 -152.29692366 80.80607158 -197.20214844 114.61962891 C-206.82295307 122.00637923 -216.08318352 129.77800039 -225 138 C-225.9178125 138.8146875 -226.835625 139.629375 -227.78125 140.46875 C-255.83338617 165.56802973 -278.66223093 196.50926079 -299 228 C-299.50466797 228.78117188 -300.00933594 229.56234375 -300.52929688 230.3671875 C-349.79183104 307.14964933 -380.00708052 393.99694315 -412.875 550.625 C-412.9727774 551.3428064 -413.07055481 552.06061279 -413.17129517 552.8001709 C-415.94454947 573.46368128 -417.38856259 594.02447197 -417.3125 614.875 C-417.31067719 615.92138641 -417.30885437 616.96777283 -417.30697632 618.04586792 C-417.2616044 633.55227509 -416.85254302 648.71593537 -414 664 C-413.82839355 664.95970703 -413.65678711 665.91941406 -413.47998047 666.90820312 C-408.45281365 694.34871693 -398.87333451 720.96751689 -380 742 C-379.18917969 742.91007813 -378.37835937 743.82015625 -377.54296875 744.7578125 C-358.48572032 764.89261132 -328.74119405 776.97993698 -301.24975586 778.16113281 C-299.90485559 778.18076411 -298.55985964 778.19450024 -297.21484375 778.203125 C-296.48421219 778.20991272 -295.75358063 778.21670044 -295.00080872 778.22369385 C-292.64632873 778.24059296 -290.29203664 778.24688696 -287.9375 778.25 C-287.13807983 778.25233643 -286.33865967 778.25467285 -285.51501465 778.25708008 C-272.46973412 778.27147379 -259.85068896 777.37766051 -247 775 C-246.82862015 774.35227127 -246.6572403 773.70454254 -246.48066711 773.03718567 C-244.5294962 765.76228265 -242.36275319 758.57185767 -240.10546875 751.38671875 C-239.53625198 749.56654236 -239.53625198 749.56654236 -238.95553589 747.70959473 C-237.91919465 744.39605787 -236.88030526 741.08332506 -235.84090042 737.77074814 C-234.95553615 734.94792554 -234.07170506 732.12462387 -233.1878767 729.30132008 C-225.57420816 704.98056109 -217.9314623 680.66889914 -210.28588867 656.3581543 C-205.75642844 641.95542151 -201.22974191 627.55183656 -196.71484375 613.14453125 C-196.49876087 612.45501184 -196.28267799 611.76549244 -196.06004715 611.05507851 C-193.89617128 604.14985835 -191.73302904 597.2444087 -189.57069969 590.33870411 C-184.98174484 575.68391977 -180.38309571 561.03227418 -175.76401138 546.38695526 C-175.00691747 543.98611148 -174.25019528 541.5851509 -173.49362183 539.18414307 C-173.24592482 538.39807301 -172.99822781 537.61200294 -172.74302483 536.80211258 C-172.24626818 535.22559803 -171.74952965 533.64907778 -171.25280952 532.07255173 C-170.05424434 528.26913644 -168.85459178 524.46607125 -167.65234375 520.66381836 C-161.36899032 500.81662865 -161.36899032 500.81662865 -155.43359375 480.86328125 C-155.19423599 480.03430328 -154.95487823 479.20532532 -154.70826721 478.35122681 C-150.49065566 463.42466702 -151.57506802 448.8454302 -159 435 C-165.72066236 424.42459365 -174.94632352 417.64799407 -185.765625 411.76171875 C-188.56043876 410.23942285 -191.32057684 408.71744981 -194 407 C-194 406.67 -194 406.34 -194 406 C-86.09 406 21.82 406 133 406 C130.40350163 408.59649837 129.4298433 409.44736194 126.26171875 410.7265625 C125.53090088 411.03134521 124.80008301 411.33612793 124.04711914 411.65014648 C123.26844482 411.97184814 122.48977051 412.2935498 121.6875 412.625 C95.69639617 423.79828298 75.12244578 442.60005918 64.54818726 469.10310364 C60.35207755 480.01724033 57.01340972 491.24878252 53.51489258 502.40039062 C52.64481335 505.1703033 51.77027352 507.9387993 50.89570236 510.70729637 C43.92032175 532.78855587 37.0209797 554.89381457 30.12896538 577.00121212 C24.14712907 596.18711942 18.09505185 615.34978117 12 634.5 C5.60161966 654.60503535 -0.7516304 674.7234363 -7.04003906 694.86315918 C-8.09066782 698.22789115 -9.14270477 701.59218079 -10.19516945 704.95633888 C-13.95180706 716.96600622 -17.69725093 728.9786541 -21.36967468 741.01441956 C-22.75116566 745.5398965 -24.1410698 750.06276895 -25.53158569 754.58547974 C-26.47474048 757.66745862 -27.40416769 760.75335583 -28.33325195 763.83959961 C-28.8985191 765.67974982 -29.46447455 767.51968879 -30.03125 769.359375 C-30.27513962 770.18524612 -30.51902924 771.01111725 -30.77030945 771.86201477 C-32.51570657 777.45215816 -34.35301471 780.48890403 -39.58007812 783.47290039 C-41.0409082 784.15340454 -41.0409082 784.15340454 -42.53125 784.84765625 C-43.63645996 785.36457031 -44.74166992 785.88148438 -45.88037109 786.4140625 C-47.07484863 786.95804688 -48.26932617 787.50203125 -49.5 788.0625 C-50.43069305 788.48909912 -50.43069305 788.48909912 -51.38018799 788.92431641 C-88.82720575 806.06122883 -128.04257735 819.14971978 -168 829 C-169.02296173 829.25299866 -169.02296173 829.25299866 -170.06658936 829.5111084 C-199.75835892 836.81600503 -230.46876704 842.01244348 -261 844 C-262.19665283 844.0839502 -263.39330566 844.16790039 -264.6262207 844.25439453 C-275.85463009 845.00769331 -287.06041961 845.24252825 -298.3125 845.25 C-299.24009125 845.25067474 -300.1676825 845.25134949 -301.12338257 845.25204468 C-330.1043996 845.21897579 -358.55474776 842.65611707 -387 837 C-388.7953418 836.64494385 -388.7953418 836.64494385 -390.62695312 836.28271484 C-444.99986014 825.22864156 -497.55623676 803.65865921 -538 765 C-539.01513672 764.04673828 -539.01513672 764.04673828 -540.05078125 763.07421875 C-545.1848547 758.12898479 -549.63927569 752.62731139 -554 747 C-554.71567139 746.08226807 -554.71567139 746.08226807 -555.44580078 745.14599609 C-587.65596171 703.41802618 -604.15978568 651.77662228 -611 600 C-611.14953125 598.89205078 -611.2990625 597.78410156 -611.453125 596.64257812 C-616.50413321 557.25777705 -615.73506307 516.38062151 -611 477 C-610.86078125 475.77958008 -610.7215625 474.55916016 -610.578125 473.30175781 C-599.88547018 381.10236154 -566.36303579 289.93283894 -474.640625 167.75830078 C-472.90599794 165.89925553 -471.18676044 164.02674916 -469.46875 162.15234375 C-461.2673218 153.2453579 -452.73399771 144.82069199 -443.80126953 136.6484375 C-442.17234954 135.15772623 -440.55155343 133.65883279 -438.93359375 132.15625 C-433.78106886 127.40683873 -428.50982745 122.85833355 -423.05078125 118.46484375 C-420.82103455 116.66334546 -418.61403085 114.8454836 -416.41796875 113.00390625 C-407.83430481 105.84976505 -398.96002994 99.37211936 -389.66796875 93.16796875 C-386.26629839 90.89315851 -382.96661911 88.51164576 -379.6796875 86.07421875 C-373.96852306 81.89617937 -368.02501032 78.22534521 -361.9375 74.625 C-360.84187744 73.97362061 -359.74625488 73.32224121 -358.61743164 72.65112305 C-349.50560803 67.25604329 -340.36091269 61.95203838 -331 57 C-330.13181641 56.54061035 -329.26363281 56.0812207 -328.36914062 55.60791016 C-270.89165568 25.47144718 -207.50231618 7.61718112 -143.17053223 0.25 C-141.07210175 0.00830462 -138.97504542 -0.24328114 -136.87792969 -0.49609375 C-92.10289997 -5.7794229 -44.7603656 -5.09103451 0 0 Z "
        fill="#FFFFFF" transform="translate(1807,12)" />
    <path
        d="M0 0 C0.76724396 -0.00570007 1.53448792 -0.01140015 2.32498169 -0.01727295 C3.94352875 -0.02666225 5.56209441 -0.03323256 7.18066406 -0.03710938 C9.59216186 -0.04671311 12.00276761 -0.07775146 14.4140625 -0.109375 C28.89173037 -0.20888455 43.01994868 1.58242706 56.8828125 5.890625 C57.70700684 6.14263672 58.53120117 6.39464844 59.38037109 6.65429688 C67.64689087 9.29881852 75.18867654 12.9942781 82.7578125 17.203125 C84.17320312 17.9765625 84.17320312 17.9765625 85.6171875 18.765625 C91.82929468 22.31540053 97.26478342 26.63998042 102.7578125 31.203125 C103.7684375 31.96625 104.7790625 32.729375 105.8203125 33.515625 C117.19275129 43.92019666 125.7294265 57.69059457 130.7578125 72.203125 C131.15097656 73.30011719 131.54414062 74.39710938 131.94921875 75.52734375 C140.15119544 102.41953912 134.28184948 130.882552 121.69042969 155.27050781 C113.58529436 170.26983708 102.47760252 182.94216141 90.7578125 195.203125 C89.80455078 196.21826172 89.80455078 196.21826172 88.83203125 197.25390625 C83.88710549 202.38765972 78.34742158 206.7970465 72.7578125 211.203125 C72.13583984 211.69619141 71.51386719 212.18925781 70.87304688 212.69726562 C47.90216006 230.8368851 22.78373766 244.94095152 -3.2421875 258.203125 C-4.26731445 258.72664551 -5.29244141 259.25016602 -6.34863281 259.78955078 C-22.19936961 267.86227651 -38.22759658 275.48186348 -54.40332031 282.87548828 C-56.44877758 283.83207554 -58.47205472 284.83660864 -60.47949219 285.87060547 C-63.2421875 287.203125 -63.2421875 287.203125 -65.2421875 287.203125 C-59.52490554 319.64518954 -50.73480562 350.15979323 -37.2421875 380.203125 C-36.88930664 380.99541504 -36.53642578 381.78770508 -36.17285156 382.60400391 C-23.93174859 409.90976343 -8.16484598 436.25001908 9.7578125 460.203125 C27.10481341 437.65202381 37.473341 406.70635907 34.7578125 378.203125 C33.06310938 368.69573391 28.16869772 359.70710102 20.68359375 353.4765625 C19.06376728 352.35286949 17.41388867 351.2726742 15.7578125 350.203125 C15.7578125 349.543125 15.7578125 348.883125 15.7578125 348.203125 C51.0678125 348.203125 86.3778125 348.203125 122.7578125 348.203125 C120.40318606 371.74938942 120.40318606 371.74938942 118.5703125 380.953125 C118.35528076 382.03891846 118.14024902 383.12471191 117.91870117 384.2434082 C107.58706538 434.5459016 81.84825493 473.84137749 47.7578125 511.203125 C48.9412166 513.75117526 49.86293697 515.30824947 51.8828125 517.328125 C53.7578125 519.203125 53.7578125 519.203125 53.7578125 521.203125 C54.32371094 521.43902344 54.88960937 521.67492187 55.47265625 521.91796875 C58.28083302 523.49726816 60.10163731 525.42998506 62.3203125 527.765625 C67.4874313 533.03066297 72.98456815 537.62331617 78.7578125 542.203125 C79.89178156 543.12618516 81.02454026 544.0507337 82.15625 544.9765625 C109.83931915 567.53230446 140.24579652 587.44003197 171.7578125 604.203125 C172.62696289 604.66783203 173.49611328 605.13253906 174.39160156 605.61132812 C197.64669225 618.01077585 221.1276073 628.87511304 245.7578125 638.203125 C245.7578125 638.533125 245.7578125 638.863125 245.7578125 639.203125 C219.1407181 639.41367676 192.52374912 639.5722264 165.90598869 639.66943455 C153.54592875 639.7157765 141.18638726 639.77892004 128.82666016 639.88208008 C118.04971651 639.97198633 107.27314846 640.02989661 96.49584019 640.04992145 C90.79288473 640.06162111 85.09100344 640.08897689 79.3883934 640.15469551 C74.01187126 640.21614951 68.63685742 640.23455656 63.2600174 640.22109413 C61.29526931 640.223554 59.33046661 640.24124118 57.36602402 640.27597427 C44.03897468 640.49989146 36.25231986 638.67880277 25.7578125 630.203125 C24.57837829 629.31581581 23.39491053 628.43384217 22.20742607 627.55733585 C15.01654268 622.23549293 8.20185526 616.45893663 1.42138672 610.62841797 C-0.26017142 609.187717 -1.95110789 607.75875855 -3.64453125 606.33203125 C-10.67727001 600.38644082 -17.50012052 594.2620252 -24.18115234 587.92260742 C-27.42514872 584.85222213 -30.70024576 581.93490615 -34.2421875 579.203125 C-38.6681223 580.73132513 -42.29526925 583.12533606 -46.1171875 585.765625 C-53.66024904 590.87642649 -61.35454625 595.6438736 -69.2421875 600.203125 C-69.91024414 600.58936035 -70.57830078 600.9755957 -71.26660156 601.37353516 C-120.75064873 629.79138359 -175.50668099 651.40550443 -233.2421875 651.453125 C-233.98351929 651.45379974 -234.72485107 651.45447449 -235.48864746 651.45516968 C-286.39581802 651.38225825 -335.35999408 637.80848618 -372.3046875 601.453125 C-403.31676702 570.23558416 -416.08988259 529.06893617 -416.25146484 485.71386719 C-415.70104872 441.17680655 -399.55453624 399.89079807 -369.24609375 367.359375 C-367.38435983 365.35610576 -365.6248759 363.29739203 -363.8671875 361.203125 C-322.04889773 313.5872996 -255.19043678 291.72778847 -197.31640625 271.34375 C-196.45749283 271.0402211 -195.59857941 270.7366922 -194.71363831 270.42396545 C-193.52060341 270.00575783 -193.52060341 270.00575783 -192.3034668 269.57910156 C-191.61246384 269.33629456 -190.92146088 269.09348755 -190.20951843 268.84332275 C-188.23667988 268.20133274 -186.26033011 267.68160875 -184.2421875 267.203125 C-184.5721875 266.543125 -184.9021875 265.883125 -185.2421875 265.203125 C-185.3666966 262.35771483 -185.43023439 259.53794606 -185.4453125 256.69140625 C-185.45241745 255.82424988 -185.4595224 254.95709351 -185.46684265 254.06365967 C-185.73516018 211.39904099 -181.59224949 169.64738443 -167.2421875 129.203125 C-166.76894043 127.86773682 -166.76894043 127.86773682 -166.28613281 126.50537109 C-156.06270446 98.26646098 -140.6011825 74.15148392 -120.2421875 52.203125 C-119.41847656 51.29820312 -119.41847656 51.29820312 -118.578125 50.375 C-90.35083256 20.61814984 -40.75364256 0.24340175 0 0 Z M-31.2421875 67.203125 C-31.87511719 67.76386719 -32.50804687 68.32460938 -33.16015625 68.90234375 C-64.56551418 97.32381969 -75.11599362 149.16771911 -77.12109375 189.3515625 C-77.43901152 199.46339869 -77.3639171 209.53508058 -76.8671875 219.640625 C-76.83641113 220.36886475 -76.80563477 221.09710449 -76.77392578 221.84741211 C-76.63523543 225.97643496 -76.63523543 225.97643496 -74.2421875 229.203125 C-63.64190957 222.85672484 -53.74114579 216.10493727 -44.2421875 208.203125 C-43.67290527 207.73148926 -43.10362305 207.25985352 -42.51708984 206.77392578 C-6.89580123 177.11797278 36.00189895 134.90266808 41.7578125 86.203125 C42.55927969 74.94823581 42.16755911 64.25948197 34.7578125 55.203125 C29.08867446 49.17874072 23.43374974 46.57268316 15.19921875 45.921875 C-4.15258237 45.45415775 -17.87207545 53.99147354 -31.2421875 67.203125 Z M-250.9296875 386.578125 C-274.08724155 410.27976255 -290.71549069 440.23222 -290.5546875 473.890625 C-290.54904785 475.12651367 -290.5434082 476.36240234 -290.53759766 477.63574219 C-290.22963021 500.86441546 -283.40171459 523.02141178 -267.28515625 540.28125 C-253.49660985 553.25250206 -237.55306332 560.84117114 -219.2421875 565.203125 C-217.71658203 565.57244141 -217.71658203 565.57244141 -216.16015625 565.94921875 C-171.23714414 574.66921441 -117.16778879 555.46551934 -79.2421875 532.203125 C-80.64001311 528.17622843 -82.5442502 525.28912158 -85.1796875 521.953125 C-94.09099944 510.39809943 -101.67593621 497.82704787 -109.04248047 485.24658203 C-109.86464883 483.84618537 -110.69207074 482.44886362 -111.52392578 481.05419922 C-138.87695707 435.14195279 -158.83074833 385.57460161 -173.2421875 334.203125 C-197.55716028 334.203125 -234.05117295 370.22781432 -250.9296875 386.578125 Z "
        fill="#FFFFFF" transform="translate(1035.2421875,205.796875)" />
</svg>