<?xml version="1.0" standalone="no"?>
<!DOCTYPE svg PUBLIC "-//W3C//DTD SVG 20010904//EN" "http://www.w3.org/TR/2001/REC-SVG-20010904/DTD/svg10.dtd">
<svg version="1.0" xmlns="http://www.w3.org/2000/svg" width="3000.000000pt" height="2000.000000pt"
    viewBox="0 0 3000.000000 2000.000000" preserveAspectRatio="xMidYMid meet">

    <g transform="translate(0.000000,2000.000000) scale(0.100000,-0.100000)" fill="#FFFFFF" stroke="none">
        <path d="M9930 10777 c0 -3997 3 -5910 10 -5967 32 -258 142 -450 330 -575 87
-58 139 -81 390 -172 940 -341 2009 -570 3135 -672 451 -41 578 -46 1205 -46
608 0 741 5 1155 41 1182 102 2322 351 3300 718 202 76 281 122 386 226 74 72
93 99 132 180 51 106 71 175 86 300 8 58 11 1918 11 5967 l0 5883 -5070 0
-5070 0 0 -5883z m2860 5143 l0 -260 1495 0 1495 0 0 -468 c0 -674 -13 -796
-98 -928 -72 -111 -171 -172 -326 -199 -107 -18 -379 -20 -677 -4 -226 12
-313 5 -401 -33 -58 -25 -120 -91 -136 -146 -12 -39 -16 -112 -7 -112 2 0 32
18 66 40 110 71 241 110 370 110 87 0 146 -12 351 -73 206 -62 356 -75 462
-42 31 10 89 39 129 66 l72 47 13 -25 c16 -30 8 -44 -68 -120 l-53 -53 107 0
106 0 0 -586 c0 -535 1 -586 16 -580 9 3 162 94 341 201 l324 195 951 0 951 0
416 -217 c535 -278 569 -297 614 -341 49 -47 72 -92 87 -170 14 -68 3 -171
-24 -236 -7 -18 -97 -171 -200 -340 l-187 -307 65 -78 c355 -425 525 -993 462
-1537 -47 -406 -205 -777 -458 -1079 -71 -85 -194 -209 -265 -267 -35 -29 -40
-38 -20 -38 24 0 221 -101 281 -144 66 -47 222 -205 244 -248 13 -23 6 -52
-73 -319 -47 -162 -88 -302 -91 -311 -4 -14 -16 -18 -55 -18 l-49 0 0 41 c0
63 -29 178 -63 249 -21 43 -56 89 -103 137 -112 112 -277 182 -525 224 -112
19 -1859 25 -1859 7 0 -7 6 -49 14 -93 27 -155 39 -345 33 -525 -8 -217 -8
-220 -56 -220 l-37 0 -23 138 c-48 288 -122 524 -246 777 -234 481 -614 875
-1316 1363 -80 56 -149 102 -153 102 -3 0 -6 -119 -6 -265 l0 -265 -39 0 c-38
0 -40 2 -65 55 -14 31 -50 98 -81 151 -211 359 -533 712 -957 1051 -133 106
-638 473 -652 473 -3 0 -6 -129 -6 -286 l0 -285 -40 3 -41 3 -49 115 c-119
273 -284 522 -534 805 -147 166 -317 333 -636 627 -338 311 -523 504 -674 708
-227 304 -351 610 -387 948 -15 143 -6 410 16 512 35 158 103 318 192 452 50
74 186 211 246 245 l37 22 0 -108 0 -108 -50 -82 c-60 -100 -104 -213 -133
-335 -28 -122 -29 -367 -3 -506 23 -118 72 -272 120 -372 166 -350 613 -799
1331 -1338 336 -252 514 -376 1300 -903 369 -248 783 -527 920 -620 1190 -811
1504 -1104 1781 -1661 63 -126 101 -226 159 -423 2 -6 12 -10 22 -7 33 7 1777
273 1838 279 70 8 125 40 251 147 121 102 326 342 307 358 -8 7 -853 74 -857
68 -2 -2 -31 -58 -66 -126 l-63 -122 -39 0 c-31 0 -39 3 -35 14 16 41 59 237
53 243 -5 5 -108 16 -208 23 -14 0 -9 50 5 50 43 1 221 30 227 37 19 21 70
457 70 603 l0 87 -107 7 c-60 3 -265 15 -458 26 -192 11 -392 22 -442 26 l-93
6 0 -161 0 -161 -34 0 c-19 0 -36 6 -39 13 -2 7 -14 71 -26 142 -12 72 -24
140 -26 151 -4 20 -13 22 -125 29 l-120 7 0 37 0 38 112 6 c61 4 113 8 115 11
2 2 -2 55 -8 117 -7 63 -13 240 -13 395 l-1 280 -270 12 c-148 7 -291 12 -318
12 l-47 0 34 -68 c46 -90 91 -241 117 -387 35 -195 31 -596 -8 -753 -4 -18
-12 -22 -43 -22 l-38 0 -7 63 c-25 240 -99 517 -187 707 -163 353 -500 690
-1076 1079 l-152 102 0 -271 0 -270 -39 0 -38 0 -28 78 c-80 227 -215 446
-389 632 -251 267 -554 479 -1098 766 -112 59 -239 130 -283 157 -312 195
-506 422 -599 702 -44 134 -57 219 -63 424 l-6 194 34 -20 c19 -12 73 -44 122
-72 81 -48 87 -54 87 -84 0 -51 46 -225 80 -305 49 -116 109 -207 194 -298
127 -136 274 -227 449 -278 237 -69 581 -50 1175 64 318 62 419 74 602 74 154
-1 214 -8 328 -40 l22 -6 0 176 0 176 -115 0 c-115 0 -116 0 -168 -35 -122
-80 -288 -120 -476 -112 -153 6 -224 23 -360 89 -90 43 -116 62 -185 132 -128
128 -181 254 -192 451 -18 315 140 518 456 586 81 17 154 22 500 30 223 5 428
14 455 19 123 25 155 79 166 279 4 75 8 214 8 309 l1 172 -790 0 -790 0 0
-310 c0 -170 -3 -310 -6 -310 -4 0 -139 50 -300 112 l-294 112 0 73 0 73 145
0 145 0 0 125 0 125 -530 0 -530 0 0 261 0 261 -227 -4 c-200 -4 -235 -7 -285
-26 -219 -80 -325 -289 -273 -536 39 -184 142 -281 313 -295 l77 -6 3 -154 3
-154 -93 7 c-229 16 -397 93 -544 249 -112 118 -176 251 -204 419 -69 430 230
844 680 939 74 15 141 18 528 18 l442 1 0 -260z m-2042 -4047 c31 -20 58 -37
59 -38 2 -1 -8 -44 -21 -96 -112 -442 -3 -777 370 -1139 264 -256 639 -524
1409 -1010 728 -460 1130 -757 1446 -1070 161 -161 250 -266 353 -418 154
-228 270 -512 311 -759 l7 -43 -39 0 c-38 0 -38 0 -88 96 -110 213 -250 398
-446 589 -246 240 -521 435 -1009 719 l-215 125 -3 -284 -2 -285 -39 0 -39 0
-70 143 c-162 330 -398 648 -688 927 -136 131 -230 210 -459 385 -468 359
-657 541 -828 800 -230 348 -307 733 -217 1080 33 125 118 315 142 315 5 0 35
-17 66 -37z m7847 -4803 c148 -25 237 -51 338 -98 57 -26 77 -40 74 -51 -50
-186 -125 -421 -133 -421 -6 0 -24 18 -38 41 -70 106 -226 208 -373 244 -85
22 -221 33 -328 28 -204 -9 -354 -70 -476 -192 -149 -150 -216 -330 -241 -652
-19 -237 7 -457 75 -639 44 -117 88 -189 166 -272 108 -116 223 -185 382 -231
299 -87 707 -33 934 123 l46 31 -3 -152 -3 -152 -60 -34 c-84 -46 -247 -97
-400 -124 -112 -20 -163 -23 -370 -23 -201 1 -259 4 -357 22 -285 52 -507 156
-676 316 -224 213 -333 483 -348 866 -27 660 266 1121 831 1309 106 35 264 68
390 81 140 14 431 4 570 -20z m-5899 -33 c417 -76 603 -273 604 -637 0 -308
-177 -519 -544 -649 l-102 -36 462 -590 461 -590 -360 -3 c-213 -1 -364 2
-371 7 -6 5 -193 257 -416 560 l-405 551 -102 0 -103 0 -2 -557 -3 -558 -292
-3 -292 -2 -4 1067 c-3 1158 -2 1129 -58 1249 -30 64 -102 135 -167 165 -111
51 -118 50 776 46 717 -3 839 -5 918 -20z m2840 0 c336 -63 503 -182 555 -397
22 -90 18 -233 -10 -313 -56 -165 -202 -303 -376 -357 -53 -17 -66 -30 -29
-30 43 0 148 -27 223 -57 196 -78 327 -220 375 -409 23 -90 21 -270 -4 -370
-67 -264 -268 -442 -591 -523 -184 -46 -269 -51 -939 -51 l-619 0 -4 1068 c-4
1167 -2 1136 -62 1259 -31 63 -109 135 -170 159 -25 9 -45 23 -45 31 0 22
1577 13 1696 -10z" />
        <path d="M14505 13663 c-57 -21 -126 -60 -170 -97 -38 -32 -29 -39 74 -62 102
-23 220 -15 295 19 31 14 81 50 112 79 54 51 55 52 32 61 -13 5 -84 11 -158
14 -112 3 -144 1 -185 -14z" />
        <path d="M14820 12524 c-14 -2 -59 -9 -100 -14 -104 -15 -650 -124 -650 -130
0 -5 104 -73 442 -289 l207 -133 370 223 c204 122 371 225 371 229 0 12 -181
77 -265 95 -76 16 -321 29 -375 19z" />
        <path d="M15801 12102 l-673 -407 27 -20 c257 -188 382 -291 525 -435 l106
-105 54 74 c75 101 245 272 358 359 257 198 546 331 867 399 122 26 146 27
380 28 267 0 370 -11 550 -59 l86 -23 38 51 c73 99 74 81 -12 197 -42 56 -77
108 -77 114 0 6 6 19 13 28 11 15 34 5 232 -102 120 -65 221 -124 223 -130 2
-6 -17 -74 -43 -152 -26 -77 -45 -142 -44 -143 2 -2 27 -16 54 -31 28 -16 76
-46 107 -67 31 -21 59 -38 62 -38 2 0 64 98 137 218 73 119 139 227 146 238
13 21 3 27 -362 218 l-375 196 -853 -1 -852 0 -674 -407z" />
        <path d="M17281 11591 c-50 -7 -42 7 -132 -251 -48 -138 -132 -421 -127 -425
4 -3 762 38 766 41 14 10 -110 347 -191 517 l-60 127 -106 -2 c-58 0 -126 -4
-150 -7z" />
        <path d="M18050 11473 c0 -5 16 -56 35 -114 20 -57 52 -165 71 -239 20 -74 38
-137 39 -138 6 -7 500 21 514 28 21 11 -124 151 -259 252 -129 96 -400 239
-400 211z" />
        <path d="M16715 11426 c-154 -72 -310 -183 -442 -318 -88 -88 -209 -235 -202
-243 2 -1 142 4 311 13 l306 16 7 70 c9 98 43 337 59 416 8 36 13 66 12 67 -1
1 -24 -8 -51 -21z" />
        <path d="M16961 10668 c-40 -184 -86 -484 -104 -672 l-5 -49 137 7 c75 4 294
16 486 26 193 11 376 20 408 20 l57 0 0 63 c0 131 -58 572 -80 607 -5 9 -122
17 -401 31 -217 10 -415 18 -441 19 l-46 0 -11 -52z" />
        <path d="M18257 10563 c4 -54 8 -198 8 -321 l0 -222 60 5 c33 3 202 12 375 20
173 8 344 18 379 21 l63 6 -7 56 c-12 94 -61 274 -105 384 -22 56 -44 106 -48
110 -7 7 -558 38 -675 38 l-58 0 8 -97z" />
        <path d="M18207 9621 c-31 -150 -84 -335 -127 -447 -16 -43 -28 -79 -27 -81 3
-3 955 116 973 122 38 12 146 485 111 485 -7 0 -205 11 -442 25 -236 14 -437
25 -446 25 -12 0 -22 -29 -42 -129z" />
        <path d="M11820 6345 l0 -467 223 5 c163 3 238 9 282 21 248 69 375 231 375
480 0 100 -14 169 -50 243 -37 74 -86 116 -178 152 -65 25 -74 25 -359 29
l-293 4 0 -467z" />
        <path d="M14700 6424 l0 -386 223 5 c237 5 291 14 391 64 69 34 140 111 167
181 18 46 23 77 23 162 0 124 -23 195 -80 254 -85 87 -169 106 -486 106 l-238
0 0 -386z" />
        <path d="M14700 5284 l0 -516 263 5 c293 6 355 15 474 71 125 60 202 153 238
291 18 70 20 250 4 327 -25 118 -101 217 -203 264 -123 56 -257 74 -563 74
l-213 0 0 -516z" />
    </g>
</svg>