<?xml version='1.0' encoding='utf-8'?>
<svg xmlns="http://www.w3.org/2000/svg" version="1.1" width="881" height="242">
<path d="M0 0 C5.88049466 3.22218886 10.33525249 7.72101651 12.87890625 13.96875 C13.14055469 16.17140271 13.34641199 18.38120973 13.50390625 20.59375 C14.05996381 25.50579759 14.05996381 25.50579759 17.30859375 29.0390625 C19.38791565 30.17660501 21.49823709 31.25893127 23.6328125 32.2890625 C29.99519909 35.58127217 34.87406105 40.92013064 39.87890625 45.96875 C43.30829356 49.39813731 46.26305058 49.30651586 51.00390625 49.84375 C62.24212111 51.25235096 73.00302534 55.43994632 80.87890625 63.96875 C87.0646589 72.27836622 91.55058443 80.44579192 90.87890625 90.96875 C90.24726563 90.77539062 89.615625 90.58203125 88.96484375 90.3828125 C81.33773385 88.16281798 73.75254336 86.94941857 65.87890625 85.96875 C64.55826172 85.79859375 64.55826172 85.79859375 63.2109375 85.625 C61.4345484 85.39862829 59.65690511 85.18210986 57.87890625 84.96875 C58.10720845 81.01151182 58.32913143 78.63878806 60.87890625 75.53125 C64.95265321 73.40950679 68.37717716 73.61567321 72.87890625 73.96875 C71.8921778 71.50192888 71.29923554 70.21732256 68.9765625 68.84375 C68.28433594 68.555 67.59210938 68.26625 66.87890625 67.96875 C66.01072266 67.47375 66.01072266 67.47375 65.125 66.96875 C53.75736562 60.68340572 41.26922197 60.92066999 28.984375 63.98828125 C24.78164822 65.31517989 21.09837012 66.90259394 17.87890625 69.96875 C16.50556314 73.36171533 16.71774247 74.48525865 17.87890625 77.96875 C17.97627134 80.72933657 18.01805953 83.45885996 18.00390625 86.21875 C18.00777344 86.95738281 18.01164063 87.69601563 18.015625 88.45703125 C18.00922003 92.08864994 17.84038227 95.14337994 17.05078125 98.72265625 C16.4991951 102.10419075 16.4991951 102.10419075 19.01171875 104.48046875 C19.99914062 105.19847656 20.9865625 105.91648437 22.00390625 106.65625 C23.46183594 107.74486328 23.46183594 107.74486328 24.94921875 108.85546875 C25.91601562 109.55285156 26.8828125 110.25023437 27.87890625 110.96875 C29.55244632 112.29344589 31.22145998 113.62397217 32.87890625 114.96875 C33.84766464 113.14090398 34.80337498 111.30614059 35.75390625 109.46875 C36.28757813 108.4478125 36.82125 107.426875 37.37109375 106.375 C40.29852194 99.76174254 41.20751816 93.66173983 41.12890625 86.46875 C41.13664063 85.76105469 41.144375 85.05335937 41.15234375 84.32421875 C41.1337221 79.23119802 40.18039183 74.8854733 38.87890625 69.96875 C38.87890625 68.64875 38.87890625 67.32875 38.87890625 65.96875 C42.91536507 65.65216499 45.2022382 65.5477121 48.69140625 67.71875 C54.58204509 73.77769281 53.31542858 81.234419 53.31713867 89.1875 C53.1333716 100.44343564 50.84995807 109.19558129 45.00390625 118.90625 C42.83763944 122.54394333 42.43391625 124.86620248 43.28515625 129.0078125 C43.89415588 131.0191139 44.60653034 132.95213894 45.37890625 134.90625 C48.79678196 143.62014104 48.09414633 151.21160519 44.87890625 159.96875 C39.76488167 169.93414534 31.83104899 177.00177565 21.87890625 181.96875 C21.21890625 181.96875 20.55890625 181.96875 19.87890625 181.96875 C19.70500366 181.08352661 19.70500366 181.08352661 19.52758789 180.18041992 C19.00088058 177.5052943 18.4711776 174.83077044 17.94140625 172.15625 C17.66780273 170.7630957 17.66780273 170.7630957 17.38867188 169.34179688 C17.12280273 168.0027832 17.12280273 168.0027832 16.8515625 166.63671875 C16.68922119 165.81453857 16.52687988 164.9923584 16.35961914 164.14526367 C15.88271711 161.80653735 15.88271711 161.80653735 14.87890625 158.96875 C16.71687755 156.62023112 17.92656477 155.95353983 20.81640625 155.03125 C23.87890625 154.96875 23.87890625 154.96875 26.12890625 156.78125 C26.70640625 157.503125 27.28390625 158.225 27.87890625 158.96875 C28.53890625 159.62875 29.19890625 160.28875 29.87890625 160.96875 C34.20816703 153.56262174 36.4373096 147.99909341 34.25 139.53515625 C30.48004059 128.69863614 21.77142994 118.72090503 11.87890625 112.96875 C6.82598688 113.00872563 3.21881029 115.91595685 -0.4309082 119.18481445 C-6.93967573 126.42936545 -4.95150377 137.41143407 -4.5078125 146.44921875 C-4.38638918 148.28957149 -4.26043299 150.12966696 -4.12109375 151.96875 C9.3076503 142.94654901 9.3076503 142.94654901 20.5 131.70703125 C20.95503906 131.13339844 21.41007813 130.55976563 21.87890625 129.96875 C22.86890625 129.96875 23.85890625 129.96875 24.87890625 129.96875 C26.98827036 132.62498629 27.82075367 134.61983454 28.37890625 137.96875 C27.7116173 141.97248372 25.89960072 143.52309599 22.87890625 145.96875 C22.255 146.49597656 21.63109375 147.02320313 20.98828125 147.56640625 C12.90835465 154.21963252 4.36568402 160.29670278 -4.08154297 166.4699707 C-5.48806119 167.50356124 -6.86939777 168.57200563 -8.22827148 169.66748047 C-10.12109375 170.96875 -10.12109375 170.96875 -12.6015625 170.86328125 C-15.45687135 169.84953594 -17.13564319 168.62767117 -19.43359375 166.65625 C-23.92939188 162.90862817 -28.54298499 159.38562671 -33.24609375 155.90625 C-39.51203052 151.24632842 -45.59037832 146.49946543 -51.12109375 140.96875 C-51.62980411 136.39035679 -51.00159866 133.59605248 -48.12109375 129.96875 C-47.13109375 129.96875 -46.14109375 129.96875 -45.12109375 129.96875 C-45.12109375 130.62875 -45.12109375 131.28875 -45.12109375 131.96875 C-44.56421875 132.21625 -44.00734375 132.46375 -43.43359375 132.71875 C-40.69914703 134.19682931 -38.50968563 135.97825676 -36.12109375 137.96875 C-35.16589844 138.76152344 -34.21070312 139.55429688 -33.2265625 140.37109375 C-32.19135691 141.23692018 -31.15620258 142.10280789 -30.12109375 142.96875 C-28.99247603 143.90789893 -27.86356569 144.84669631 -26.734375 145.78515625 C-23.85982673 148.17557007 -20.98946667 150.5709304 -18.12109375 152.96875 C-16.06617506 136.77494423 -16.06617506 136.77494423 -20.39453125 121.796875 C-24.239121 117.55477468 -28.74564121 114.86539048 -34.12109375 112.96875 C-50.25997648 125.77773085 -50.25997648 125.77773085 -57.4375 144.48046875 C-57.71849962 150.39958985 -56.60187503 155.10327835 -53.12109375 159.96875 C-52.46109375 160.29875 -51.80109375 160.62875 -51.12109375 160.96875 C-50.85296875 160.35 -50.58484375 159.73125 -50.30859375 159.09375 C-49.12109375 156.96875 -49.12109375 156.96875 -46.12109375 154.96875 C-43.859375 155.2109375 -43.859375 155.2109375 -41.43359375 155.84375 C-40.62535156 156.04742187 -39.81710938 156.25109375 -38.984375 156.4609375 C-38.06205078 156.71230469 -38.06205078 156.71230469 -37.12109375 156.96875 C-37.63902406 160.17991795 -38.52009619 163.01274219 -39.68359375 166.03125 C-41.63187864 171.63020463 -41.3887584 177.10986819 -41.12109375 182.96875 C-51.27956733 180.15943762 -59.30358172 173.57549443 -65.1796875 164.9453125 C-69.86860239 156.55698994 -70.9571492 149.58881661 -70.12109375 139.96875 C-69.26712237 137.02273518 -68.24246545 134.30391489 -66.99609375 131.50390625 C-65.37803622 126.81587351 -65.75198274 123.41306635 -67.80078125 118.98046875 C-68.52107184 117.5332915 -69.25318215 116.09194596 -69.99609375 114.65625 C-74.77576521 105.37558051 -76.46635481 97.27483588 -76.37109375 86.84375 C-76.38269531 85.56177734 -76.38269531 85.56177734 -76.39453125 84.25390625 C-76.37562894 78.10120362 -76.29822396 72.26683188 -71.87109375 67.59375 C-68.84362021 65.80478836 -66.61662085 65.20178514 -63.12109375 64.96875 C-62.13109375 65.46375 -62.13109375 65.46375 -61.12109375 65.96875 C-61.26546875 66.63777344 -61.40984375 67.30679688 -61.55859375 67.99609375 C-64.0773825 81.02732719 -65.71737031 97.7641686 -58.515625 109.609375 C-57.12109375 111.96875 -57.12109375 111.96875 -57.12109375 114.96875 C-50.89329779 110.53158615 -44.83847735 106.05086875 -39.12109375 100.96875 C-39.45109375 99.916875 -39.78109375 98.865 -40.12109375 97.78125 C-41.93220249 90.54965979 -41.74354862 82.75390552 -40.30859375 75.46875 C-39.75178411 71.87046096 -39.75178411 71.87046096 -42.12109375 69.15625 C-51.44730957 62.3558843 -62.67605369 61.26803244 -73.94140625 62.4296875 C-81.83437907 63.7678082 -88.42761953 66.27527578 -94.12109375 71.96875 C-94.45109375 72.62875 -94.78109375 73.28875 -95.12109375 73.96875 C-94.445625 73.91074219 -93.77015625 73.85273437 -93.07421875 73.79296875 C-85.7812687 73.42410567 -85.7812687 73.42410567 -82.62109375 76.03125 C-80.96497996 79.27447284 -80.07893855 82.46353348 -79.12109375 85.96875 C-80.3534375 85.99453125 -81.58578125 86.0203125 -82.85546875 86.046875 C-92.65325889 86.34813202 -100.93099891 87.2988286 -110.12109375 90.96875 C-111.44801103 91.32677153 -112.7795996 91.66994852 -114.12109375 91.96875 C-115.2793334 82.00788897 -109.95852281 71.97196323 -104.1328125 64.1875 C-100.61976922 60.31292022 -96.61775881 57.59238921 -92.12109375 54.96875 C-91.47011719 54.56914063 -90.81914063 54.16953125 -90.1484375 53.7578125 C-85.56878274 51.33596724 -81.19734125 50.68032513 -76.1184082 50.08789062 C-66.75519217 49.2189053 -66.75519217 49.2189053 -59.49609375 43.71875 C-58.93535156 42.9246875 -58.37460938 42.130625 -57.796875 41.3125 C-53.90058599 35.86314475 -48.32193754 32.45672575 -42.24609375 29.90625 C-38.94216432 28.19988783 -38.25018845 27.34909353 -37.03125 23.7578125 C-36.55003582 21.27630805 -36.11231244 18.78596859 -35.71875 16.2890625 C-34.58024382 9.96402815 -30.89324938 6.17279187 -26.12109375 1.96875 C-18.57170226 -2.61878583 -8.33646057 -2.75447508 0 0 Z M-23.55859375 15.90625 C-24.34035825 18.41641503 -24.34035825 18.41641503 -24.12109375 22.96875 C-15.54109375 22.96875 -6.96109375 22.96875 1.87890625 22.96875 C0.92841805 15.43813642 0.92841805 15.43813642 -4.02734375 11.07421875 C-10.78491233 7.5063234 -19.05774119 9.83988351 -23.55859375 15.90625 Z M-6.12109375 33.96875 C-5.79109375 41.22875 -5.46109375 48.48875 -5.12109375 55.96875 C-3.26484375 57 -1.40859375 58.03125 0.50390625 59.09375 C2.07011719 59.96386719 2.07011719 59.96386719 3.66796875 60.8515625 C7.73573033 62.26686641 9.02350661 61.79909124 12.87890625 59.96875 C15.55951832 58.51160751 18.16133247 56.9515477 20.75390625 55.34375 C21.44226563 54.92351562 22.130625 54.50328125 22.83984375 54.0703125 C24.52282283 53.04182528 26.20133157 52.006029 27.87890625 50.96875 C20.72106068 41.57240216 9.49791295 35.85930024 -2.12109375 33.96875 C-3.44109375 33.96875 -4.76109375 33.96875 -6.12109375 33.96875 Z M-45.12109375 44.96875 C-46.90872531 46.89797018 -48.50199261 48.88997638 -50.12109375 50.96875 C-47.45266747 52.68792307 -44.75896276 54.36278378 -42.05859375 56.03125 C-40.9303418 56.75924805 -40.9303418 56.75924805 -39.77929688 57.50195312 C-35.98209231 59.81972734 -33.87606863 60.98199517 -29.3359375 60.90234375 C-26.60497309 60.10926903 -24.24263269 59.31076303 -21.74609375 57.96875 C-21.07835938 57.618125 -20.410625 57.2675 -19.72265625 56.90625 C-18.13638472 56.06838355 -18.13638472 56.06838355 -17.12109375 54.96875 C-17.03423772 53.40702255 -17.01407156 51.84145656 -17.0234375 50.27734375 C-17.02666016 49.33310547 -17.02988281 48.38886719 -17.03320312 47.41601562 C-17.04158203 46.42279297 -17.04996094 45.42957031 -17.05859375 44.40625 C-17.06310547 43.40916016 -17.06761719 42.41207031 -17.07226562 41.38476562 C-17.08409368 38.91270151 -17.10057526 36.44075482 -17.12109375 33.96875 C-26.7850483 33.96875 -37.58405559 39.28508188 -45.12109375 44.96875 Z M-25.49609375 73.34375 C-29.18245372 79.29863918 -29.9478657 85.08614198 -29.12109375 91.96875 C-27.26917845 98.44423908 -22.50965213 103.41564567 -18.2421875 108.453125 C-16.45182171 110.57650542 -14.75990116 112.72782486 -13.12109375 114.96875 C-6.15689983 113.76750258 -1.33235321 106.53159499 2.5859375 101.05859375 C6.47021496 94.78038094 7.47986758 88.92294887 6.5078125 81.6171875 C5.30814448 76.5651694 3.2321255 72.74372093 -0.94921875 69.58984375 C-9.73163454 64.6281246 -18.43259161 66.28024786 -25.49609375 73.34375 Z " fill="#FFFFFF" transform="translate(131.12109375,32.03125)" />
<path d="M0 0 C6.4229332 -0.71365924 10.27247284 0.55044357 15.6640625 4.1171875 C20.43846123 7.96544868 23.64541993 12.01501469 24.3828125 18.22265625 C24.50269531 19.90681641 24.50269531 19.90681641 24.625 21.625 C25.18105756 26.53704759 25.18105756 26.53704759 28.4296875 30.0703125 C30.5090094 31.20785501 32.61933084 32.29018127 34.75390625 33.3203125 C41.11629284 36.61252217 45.9951548 41.95138064 51 47 C54.42938731 50.42938731 57.38414433 50.33776586 62.125 50.875 C73.36321486 52.28360096 84.12411909 56.47119632 92 65 C98.18575265 73.30961622 102.67167818 81.47704192 102 92 C101.36835938 91.80664062 100.73671875 91.61328125 100.0859375 91.4140625 C92.4588276 89.19406798 84.87363711 87.98066857 77 87 C75.67935547 86.82984375 75.67935547 86.82984375 74.33203125 86.65625 C72.55564215 86.42987829 70.77799886 86.21335986 69 86 C69.2283022 82.04276182 69.45022518 79.67003806 72 76.5625 C76.07374696 74.44075679 79.49827091 74.64692321 84 75 C83.01327155 72.53317888 82.42032929 71.24857256 80.09765625 69.875 C79.40542969 69.58625 78.71320313 69.2975 78 69 C77.42121094 68.67 76.84242188 68.34 76.24609375 68 C64.87845937 61.71465572 52.39031572 61.95191999 40.10546875 65.01953125 C35.90274197 66.34642989 32.21946387 67.93384394 29 71 C27.62665689 74.39296533 27.83883622 75.51650865 29 79 C29.09736509 81.76058657 29.13915328 84.49010996 29.125 87.25 C29.13080078 88.35794922 29.13080078 88.35794922 29.13671875 89.48828125 C29.13031378 93.11989994 28.96147602 96.17462994 28.171875 99.75390625 C27.62028885 103.13544075 27.62028885 103.13544075 30.1328125 105.51171875 C31.12023437 106.22972656 32.10765625 106.94773437 33.125 107.6875 C34.58292969 108.77611328 34.58292969 108.77611328 36.0703125 109.88671875 C37.03710938 110.58410156 38.00390625 111.28148437 39 112 C40.67354007 113.32469589 42.34255373 114.65522217 44 116 C44.96875839 114.17215398 45.92446873 112.33739059 46.875 110.5 C47.40867188 109.4790625 47.94234375 108.458125 48.4921875 107.40625 C51.41961569 100.79299254 52.32861191 94.69298983 52.25 87.5 C52.26160156 86.43845703 52.26160156 86.43845703 52.2734375 85.35546875 C52.25481585 80.26244802 51.30148558 75.9167233 50 71 C50 69.68 50 68.36 50 67 C54.03645882 66.68341499 56.32333195 66.5789621 59.8125 68.75 C65.70313884 74.80894281 64.43652233 82.265669 64.43823242 90.21875 C64.25446535 101.47468564 61.97105182 110.22683129 56.125 119.9375 C53.95873319 123.57519333 53.55501 125.89745248 54.40625 130.0390625 C55.01524963 132.0503639 55.72762409 133.98338894 56.5 135.9375 C59.91787571 144.65139104 59.21524008 152.24285519 56 161 C50.88597542 170.96539534 42.95214274 178.03302565 33 183 C32.34 183 31.68 183 31 183 C30.88406494 182.40985107 30.76812988 181.81970215 30.64868164 181.21166992 C30.12197433 178.5365443 29.59227135 175.86202044 29.0625 173.1875 C28.88009766 172.25873047 28.69769531 171.32996094 28.50976562 170.37304688 C28.24389648 169.0340332 28.24389648 169.0340332 27.97265625 167.66796875 C27.72914429 166.43469849 27.72914429 166.43469849 27.48071289 165.17651367 C27.00381086 162.83778735 27.00381086 162.83778735 26 160 C27.8379713 157.65148112 29.04765852 156.98478983 31.9375 156.0625 C35 156 35 156 37.25 157.8125 C37.8275 158.534375 38.405 159.25625 39 160 C39.99 160.99 39.99 160.99 41 162 C45.32926078 154.59387174 47.55840335 149.03034341 45.37109375 140.56640625 C41.60113434 129.72988614 32.89252369 119.75215503 23 114 C17.94708063 114.03997563 14.33990404 116.94720685 10.69018555 120.21606445 C4.18141802 127.46061545 6.16958998 138.44268407 6.61328125 147.48046875 C6.73470457 149.32082149 6.86066076 151.16091696 7 153 C20.42874405 143.97779901 20.42874405 143.97779901 31.62109375 132.73828125 C32.30365234 131.87783203 32.30365234 131.87783203 33 131 C33.99 131 34.98 131 36 131 C38.10936411 133.65623629 38.94184742 135.65108454 39.5 139 C38.83271105 143.00373372 37.02069447 144.55434599 34 147 C33.37609375 147.52722656 32.7521875 148.05445313 32.109375 148.59765625 C26.29908221 153.38200573 20.23705321 157.83771644 14.1875 162.3125 C13.3629834 162.92343506 12.5384668 163.53437012 11.68896484 164.16381836 C10.50294678 165.03598999 10.50294678 165.03598999 9.29296875 165.92578125 C8.23372192 166.70562378 8.23372192 166.70562378 7.15307617 167.5012207 C4.83050935 169.11798425 2.43180848 170.55421118 0 172 C-0.20337499 164.17167714 -0.34316234 156.34403877 -0.43945312 148.51367188 C-0.47508565 145.85095037 -0.53410739 143.19169215 -0.60351562 140.52929688 C-0.70091936 136.69617355 -0.7460123 132.86538798 -0.78125 129.03125 C-0.82254028 127.84760864 -0.86383057 126.66396729 -0.90637207 125.44445801 C-0.91076506 117.29780138 -0.91076506 117.29780138 1.71777344 113.55224609 C3.72199723 111.55124749 5.81136423 109.79324235 8 108 C13.9982027 101.24345454 17.41893437 94.62866622 17 85.4375 C16.21146175 79.69243558 14.85556848 76.39534807 11 72 C7.37 70.68 3.74 69.36 0 68 C0 53.15 0 38.3 0 23 C4.29 23.33 8.58 23.66 13 24 C12.17082214 19.77119289 11.48200283 17.0129832 8.1875 14.125 C4.91897735 11.65381231 4.91897735 11.65381231 0 11 C0 7.37 0 3.74 0 0 Z M5 35 C5.33 42.26 5.66 49.52 6 57 C7.85625 58.03125 9.7125 59.0625 11.625 60.125 C13.19121094 60.99511719 13.19121094 60.99511719 14.7890625 61.8828125 C18.85682408 63.29811641 20.14460036 62.83034124 24 61 C26.68061207 59.54285751 29.28242622 57.9827977 31.875 56.375 C32.56335938 55.95476562 33.25171875 55.53453125 33.9609375 55.1015625 C35.64391658 54.07307528 37.32242532 53.037279 39 52 C31.84215443 42.60365216 20.6190067 36.89055024 9 35 C7.68 35 6.36 35 5 35 Z " fill="#FFFFFF" transform="translate(120,31)" />
<path d="M0 0 C7.486875 -0.061875 14.97375 -0.12375 22.6875 -0.1875 C26.19056763 -0.22846802 26.19056763 -0.22846802 29.7644043 -0.27026367 C58.83253823 -0.47049867 58.83253823 -0.47049867 69 9 C76.40216733 17.90174433 78.00665918 26.58700157 77 38 C75.05839879 46.15251874 70.62305539 52.58730299 63.8125 57.4375 C61 59 61 59 58 59 C65.30172193 69.68871634 72.61389908 80.36935863 80 91 C79.67 91.66 79.34 92.32 79 93 C70.9834152 94.48619187 62.61089652 95.38831707 55 92 C49.80493872 86.76817254 46.21623034 80.52110386 42.8581543 73.99707031 C39.69968163 67.48463139 39.69968163 67.48463139 34.14874268 63.30029297 C29.59115794 62.41244294 25.75889837 62.74290701 21 63 C21 72.57 21 82.14 21 92 C14.07 92 7.14 92 0 92 C0 61.64 0 31.28 0 0 Z M21 20 C21 27.92 21 35.84 21 44 C25.20872148 44.08105241 29.4158763 44.14053316 33.625 44.1875 C34.81480469 44.21263672 36.00460937 44.23777344 37.23046875 44.26367188 C45.58801841 44.47662565 45.58801841 44.47662565 53 41 C55.70955758 36.54234076 56.53282087 32.92391944 55.6484375 27.86328125 C54.55213044 24.71304951 52.5691448 23.01861377 50 21 C46.76248322 19.92082774 44.42248229 19.88574399 41.01953125 19.90234375 C39.27446289 19.90717773 39.27446289 19.90717773 37.49414062 19.91210938 C35.67172852 19.92467773 35.67172852 19.92467773 33.8125 19.9375 C31.97268555 19.94426758 31.97268555 19.94426758 30.09570312 19.95117188 C27.06378135 19.96296924 24.0318846 19.98090486 21 20 Z " fill="#FFFFFF" transform="translate(604,32)" />
<path d="M0 0 C57.95774648 0 57.95774648 0 68.23046875 8.94140625 C74.65592947 15.48390633 76.95913626 22.49347155 77.375 31.5625 C77.00484931 40.19934941 74.13512215 47.83754991 68 54 C61.46715328 59 61.46715328 59 58 59 C61.355819 64.50051535 64.86214606 69.84312132 68.6171875 75.078125 C69.57310791 76.41568848 69.57310791 76.41568848 70.54833984 77.78027344 C71.8446219 79.58670102 73.14960082 81.3869208 74.46337891 83.18066406 C75.3632251 84.4370166 75.3632251 84.4370166 76.28125 85.71875 C77.10206055 86.84700195 77.10206055 86.84700195 77.93945312 87.99804688 C78.28943359 88.65869141 78.63941406 89.31933594 79 90 C78.505 91.485 78.505 91.485 78 93 C57.67178725 93.84784253 57.67178725 93.84784253 51.97265625 89.90625 C49.95479128 87.03419679 48.48437699 84.17858737 47 81 C45.5925707 78.83432465 44.15495541 76.68796032 42.6875 74.5625 C42.05199219 73.59441406 41.41648437 72.62632813 40.76171875 71.62890625 C39.65246963 69.97364093 38.4936162 68.34958831 37.26953125 66.77734375 C36 65 36 65 36 63 C31.05 63 26.1 63 21 63 C21 72.57 21 82.14 21 92 C14.07 92 7.14 92 0 92 C0 61.64 0 31.28 0 0 Z M21 20 C21 27.92 21 35.84 21 44 C25.20902296 44.10807762 29.41526202 44.1873684 33.625 44.25 C34.81480469 44.28351563 36.00460937 44.31703125 37.23046875 44.3515625 C45.9480268 44.51264333 45.9480268 44.51264333 53 40 C55.8288298 35.7567553 55.65268001 31.98265471 55 27 C52.87859034 23.36329773 50.87319842 21.53458385 47 20 C44.09627521 19.72530453 44.09627521 19.72530453 40.921875 19.8046875 C39.76171875 19.81113281 38.6015625 19.81757812 37.40625 19.82421875 C36.1996875 19.84097656 34.993125 19.85773437 33.75 19.875 C32.52796875 19.88402344 31.3059375 19.89304687 30.046875 19.90234375 C27.03116634 19.92590397 24.01555842 19.96177461 21 20 Z " fill="#FFFFFF" transform="translate(253,32)" />
<path d="M0 0 C23.1 0 46.2 0 70 0 C70 6.27 70 12.54 70 19 C53.83 19 37.66 19 21 19 C21 24.94 21 30.88 21 37 C35.19 37 49.38 37 64 37 C64 43.27 64 49.54 64 56 C50.14 56 36.28 56 22 56 C21.67 61.61 21.34 67.22 21 73 C37.17 73 53.34 73 70 73 C70 79.27 70 85.54 70 92 C46.9 92 23.8 92 0 92 C0 61.64 0 31.28 0 0 Z " fill="#FFFFFF" transform="translate(793,32)" />
<path d="M0 0 C23.1 0 46.2 0 70 0 C70 6.27 70 12.54 70 19 C53.83 19 37.66 19 21 19 C21 24.94 21 30.88 21 37 C35.19 37 49.38 37 64 37 C64 43.27 64 49.54 64 56 C50.14 56 36.28 56 22 56 C21.67 61.61 21.34 67.22 21 73 C37.17 73 53.34 73 70 73 C70 79.27 70 85.54 70 92 C46.9 92 23.8 92 0 92 C0 61.64 0 31.28 0 0 Z " fill="#FFFFFF" transform="translate(517,32)" />
<path d="M0 0 C22.77 0 45.54 0 69 0 C69 6.27 69 12.54 69 19 C53.16 19 37.32 19 21 19 C21 24.94 21 30.88 21 37 C35.19 37 49.38 37 64 37 C64 42.94 64 48.88 64 55 C63 56 63 56 59.03100586 56.11352539 C57.25894393 56.1133662 55.4868774 56.10766785 53.71484375 56.09765625 C52.78402481 56.0962413 51.85320587 56.09482635 50.8941803 56.09336853 C47.90858809 56.08775172 44.92306971 56.0751964 41.9375 56.0625 C39.91862087 56.05748716 37.89974057 56.05292388 35.88085938 56.04882812 C30.92054428 56.03777683 25.96028468 56.02050095 21 56 C21 61.61 21 67.22 21 73 C37.17 73 53.34 73 70 73 C70 79.27 70 85.54 70 92 C46.9 92 23.8 92 0 92 C0 61.64 0 31.28 0 0 Z " fill="#FFFFFF" transform="translate(347,32)" />
<path d="M0 0 C-1.48635116 4.21654356 -3.61249159 7.62478605 -6.125 11.3125 C-6.84945312 12.38113281 -7.57390625 13.44976562 -8.3203125 14.55078125 C-8.87460937 15.35902344 -9.42890625 16.16726562 -10 17 C-14.36533848 15.32102366 -18.45110339 13.27423445 -22.59765625 11.12109375 C-26.6373708 9.23589363 -30.05211696 8.84304865 -34.5 8.8125 C-35.4384375 8.79832031 -36.376875 8.78414062 -37.34375 8.76953125 C-40.12108657 9.01050604 -41.71890532 9.40841803 -44 11 C-45.1716367 14.36760187 -45.1716367 14.36760187 -45 18 C-42.20825987 21.58036729 -39.58778078 22.74436752 -35.2734375 23.9296875 C-34.15839844 24.25066406 -33.04335938 24.57164063 -31.89453125 24.90234375 C-29.5719571 25.54420942 -27.24904683 26.18486027 -24.92578125 26.82421875 C-15.18428162 29.63147065 -5.69865274 33.19299122 0 42 C3.36362126 49.34253909 4.10203262 55.89689283 1.75 63.625 C-1.29709699 71.81144031 -6.22114561 77.16010584 -14.05078125 81.0078125 C-26.89063732 86.14375493 -41.74256451 84.71578726 -54.38671875 79.640625 C-59.98175514 76.91681807 -65.07920954 73.80242899 -70 70 C-69.50485982 65.65962225 -66.68886128 62.91387625 -63.9375 59.75 C-63.46505859 59.19570312 -62.99261719 58.64140625 -62.50585938 58.0703125 C-61.34341033 56.708251 -60.17252145 55.35340044 -59 54 C-55.80861311 55.19196378 -53.10377431 56.49390118 -50.3125 58.4375 C-43.28108506 62.90482753 -35.32378654 65.10778675 -27 64 C-24.11275923 63.34996455 -22.59081701 62.61926063 -20 61 C-18.5 58.16666667 -18.5 58.16666667 -19 55 C-23.2889509 48.90210382 -29.78637809 47.93340225 -36.6875 46.0625 C-58.36290471 40.15998786 -58.36290471 40.15998786 -63.5625 31.375 C-64.24505859 30.27285156 -64.24505859 30.27285156 -64.94140625 29.1484375 C-67.94632658 23.0498907 -68.01516242 15.7240155 -66.24609375 9.234375 C-62.70565812 -0.04017794 -57.80264885 -4.55841956 -49 -9 C-32.3241239 -15.1144879 -14.1880506 -9.4587004 0 0 Z " fill="#FFFFFF" transform="translate(498,42)" />
<path d="M0 0 C7.59 0 15.18 0 23 0 C25.15077403 5.77584813 27.30133872 11.55177344 29.45141602 17.32788086 C30.17949113 19.28365284 30.90767717 21.23938352 31.63598633 23.19506836 C36.44947331 36.12072594 41.24116266 49.05411799 46 62 C46.67204468 60.18749756 46.67204468 60.18749756 47.35766602 58.33837891 C49.05415635 53.76411834 50.75253142 49.19055932 52.45141602 44.6171875 C53.18010348 42.65480701 53.90831034 40.69224797 54.63598633 38.72949219 C58.36105293 28.68286674 62.10393359 18.64379481 65.96484375 8.6484375 C66.25774796 7.88560455 66.55065216 7.12277161 66.85243225 6.33682251 C68.8809916 1.1190084 68.8809916 1.1190084 70 0 C71.63472882 -0.08700342 73.27314055 -0.10701063 74.91015625 -0.09765625 C75.89951172 -0.09443359 76.88886719 -0.09121094 77.90820312 -0.08789062 C78.94912109 -0.07951172 79.99003906 -0.07113281 81.0625 -0.0625 C82.62967773 -0.05573242 82.62967773 -0.05573242 84.22851562 -0.04882812 C86.8190666 -0.03699913 89.40950559 -0.02051689 92 0 C91.30725786 4.40240736 89.78937697 8.35606652 88.12011719 12.46142578 C87.82564194 13.19551163 87.53116669 13.92959747 87.22776794 14.68592834 C86.25506745 17.10746349 85.27610839 19.52641257 84.296875 21.9453125 C83.6149445 23.63804848 82.93332913 25.33091144 82.25201416 27.02389526 C80.82225302 30.573998 79.38954554 34.12289225 77.95458984 37.67089844 C76.12658733 42.19105196 74.30452598 46.71356969 72.48453903 51.23695564 C71.07600915 54.73643546 69.66495017 58.23489106 68.2530899 61.73302841 C67.58116041 63.39833917 66.90983646 65.06389439 66.23915863 66.72970963 C62.67432128 75.57833458 59.03348614 84.35118243 55 93 C48.73 93 42.46 93 36 93 C35.11980675 90.79951688 34.23961616 88.59903269 33.35943604 86.39854431 C32.56370157 84.40923922 31.7679237 82.41995149 30.97210693 80.43067932 C28.73984578 74.85058794 26.50837601 69.27018216 24.27832031 63.68920898 C20.29086892 53.71222802 16.30220202 43.7358734 12.27844238 33.77346802 C10.78338313 30.07176405 9.29175612 26.36868141 7.80029297 22.66552734 C7.10130508 20.93316824 6.40046434 19.20155557 5.69775391 17.47070312 C4.72620571 15.07734312 3.76087322 12.68156505 2.796875 10.28515625 C2.51036072 9.5843544 2.22384644 8.88355255 1.9286499 8.16151428 C0.77343476 5.27449695 0 3.14188244 0 0 Z " fill="#FFFFFF" transform="translate(688,32)" />
<path d="M0 0 C1.98 0 3.96 0 6 0 C8.27280629 5.84857027 10.17801149 11.7233411 11.91796875 17.75 C12.18007645 18.64871826 12.44218414 19.54743652 12.7122345 20.47338867 C13.54020106 23.31476422 14.36391753 26.15735099 15.1875 29 C15.75167152 30.93888405 16.31612193 32.87768697 16.88085938 34.81640625 C18.25713178 39.54333918 19.62959663 44.27136238 21 49 C23.21430017 43.31708903 25.04429673 37.6352777 26.6640625 31.7578125 C26.90160248 30.90822968 27.13914246 30.05864685 27.38388062 29.18331909 C28.13425558 26.49812925 28.87998623 23.81168179 29.625 21.125 C30.37768892 18.41705022 31.13140883 15.70940083 31.88754272 13.00241089 C32.35600475 11.32472136 32.82240437 9.64645429 33.28652954 7.96755981 C34.88798918 2.22402164 34.88798918 2.22402164 36 0 C37.65 0 39.3 0 41 0 C45.13528435 13.34042353 49.10536028 26.71116391 52.77758789 40.18725586 C53.05465576 41.1953833 53.33172363 42.20351074 53.6171875 43.2421875 C53.86065918 44.1379248 54.10413086 45.03366211 54.35498047 45.95654297 C54.81841285 47.9722343 54.81841285 47.9722343 56 49 C56.17317245 48.40087296 56.34634491 47.80174591 56.52476501 47.1844635 C58.32143748 40.97087764 60.12263515 34.75861674 61.92651367 28.54711914 C62.59988653 26.22616989 63.27208938 23.90488085 63.94311523 21.58325195 C64.90564356 18.2538274 65.87231908 14.92563179 66.83984375 11.59765625 C67.14091537 10.55287613 67.441987 9.50809601 67.75218201 8.43165588 C68.032397 7.47073532 68.312612 6.50981476 68.60131836 5.51977539 C68.97105019 4.24403404 68.97105019 4.24403404 69.34825134 2.94252014 C70 1 70 1 71 0 C72.66617115 -0.04063832 74.33388095 -0.042721 76 0 C75.32562088 6.65533834 73.38948774 12.8262786 71.4375 19.20703125 C70.91047485 20.94964485 70.91047485 20.94964485 70.37280273 22.72746277 C69.63211379 25.17312004 68.88898066 27.61803825 68.14355469 30.06225586 C66.99915331 33.81527669 65.86222152 37.57049742 64.7265625 41.32617188 C64.00564138 43.70325638 63.28430183 46.08021403 62.5625 48.45703125 C62.22081787 49.5840596 61.87913574 50.71108795 61.52709961 51.87226868 C61.2100708 52.91062363 60.89304199 53.94897858 60.56640625 55.01879883 C60.28740479 55.93478348 60.00840332 56.85076813 59.72094727 57.79450989 C59 60 59 60 58 62 C56.35 62 54.7 62 53 62 C52.65219482 60.83017578 52.30438965 59.66035156 51.94604492 58.45507812 C50.64616057 54.08573614 49.34254562 49.71751443 48.0378418 45.34960938 C47.47531094 43.46449304 46.91377158 41.57908051 46.35327148 39.69335938 C45.5441568 36.97185718 44.73139858 34.25146512 43.91796875 31.53125 C43.67096725 30.69758911 43.42396576 29.86392822 43.16947937 29.00500488 C42.92945694 28.20477905 42.68943451 27.40455322 42.44213867 26.58007812 C42.13236336 25.54083191 42.13236336 25.54083191 41.81632996 24.48059082 C40.65412233 20.94897773 39.30545304 17.48120811 38 14 C33.38 29.84 28.76 45.68 24 62 C22.35 62 20.7 62 19 62 C16.48704531 55.56169303 14.4319258 49.04425714 12.4609375 42.421875 C11.97145126 40.78838104 11.97145126 40.78838104 11.47207642 39.12188721 C10.78673258 36.83294676 10.10270345 34.54361231 9.41992188 32.25390625 C8.37396531 28.7465304 7.324055 25.24035719 6.2734375 21.734375 C5.6065413 19.50527699 4.93986688 17.27611262 4.2734375 15.046875 C3.95990326 13.99892761 3.64636902 12.95098022 3.32333374 11.87127686 C3.03278107 10.89636292 2.74222839 9.92144897 2.44287109 8.91699219 C2.18766693 8.06175964 1.93246277 7.2065271 1.66952515 6.32537842 C1.06507859 4.22602938 0.51402078 2.12306774 0 0 Z " fill="#FFFFFF" transform="translate(521,154)" />
<path d="M0 0 C27 0 27 0 37 5 C40.59962451 9.65317315 42.09186961 14.17776318 42 20 C41.05418092 25.5803326 39.32443142 28.37954579 35 32 C30.65517241 35 30.65517241 35 27 35 C33.4216544 45.67116575 33.4216544 45.67116575 40.625 55.8125 C43 59 43 59 43 62 C40.69921875 62.22265625 40.69921875 62.22265625 38 62 C36.33203125 60.55859375 36.33203125 60.55859375 34.8125 58.4375 C34.21050781 57.633125 33.60851562 56.82875 32.98828125 56 C31.46835686 53.70667597 30.15223603 51.47681126 28.85546875 49.0625 C25.25457088 41.8878323 25.25457088 41.8878323 19.08496094 37.32910156 C14.64435229 36.70434516 10.406377 37.20685214 6 38 C6.00523682 38.69150146 6.01047363 39.38300293 6.01586914 40.09545898 C6.036575 43.20946352 6.04963963 46.32345361 6.0625 49.4375 C6.07087891 50.52611328 6.07925781 51.61472656 6.08789062 52.73632812 C6.09111328 53.77080078 6.09433594 54.80527344 6.09765625 55.87109375 C6.10289307 56.82943115 6.10812988 57.78776855 6.11352539 58.77514648 C6 61 6 61 5 62 C3.35 62 1.7 62 0 62 C0 41.54 0 21.08 0 0 Z M5 5 C5 13.91 5 22.82 5 32 C19.50614268 32.92517816 19.50614268 32.92517816 32.4375 27.5 C35.6246265 24.39060829 36.16312684 22.99496068 36.25 18.6875 C36.19795712 14.6346604 35.64195673 12.20809031 33 9 C29.03572901 5.41936813 25.45743447 4.8688626 20.234375 4.90234375 C19.43225586 4.90484131 18.63013672 4.90733887 17.80371094 4.90991211 C16.79598633 4.91901611 15.78826172 4.92812012 14.75 4.9375 C11.5325 4.958125 8.315 4.97875 5 5 Z " fill="#FFFFFF" transform="translate(819,154)" />
<path d="M0 0 C6.63608072 4.59510686 10.14553228 10.81173084 12.22265625 18.5390625 C14.05065742 29.40032493 13.49773222 40.17501724 7.22265625 49.5390625 C2.63202121 55.10143781 -2.01542209 59.1291095 -9.43359375 59.9375 C-10.70203125 59.92976563 -11.97046875 59.92203125 -13.27734375 59.9140625 C-14.54578125 59.92179687 -15.81421875 59.92953125 -17.12109375 59.9375 C-23.24041911 59.27065044 -28.76299652 56.24482686 -32.77734375 51.5390625 C-39.01904688 41.17987222 -41.40075938 31.23519336 -39.1640625 19.25390625 C-36.85716244 10.56492145 -33.19056094 4.18753123 -25.64453125 -0.8984375 C-17.0627409 -5.32774865 -8.28910438 -4.70285161 0 0 Z M-28.77734375 9.5390625 C-34.63175133 18.31081796 -35.04255652 28.02284087 -33.31640625 38.27734375 C-31.3826997 44.86332076 -27.61151946 49.49581955 -22.08984375 53.4765625 C-16.56532175 55.24857899 -10.99698418 55.71379617 -5.46484375 53.6953125 C0.8861964 50.1348809 3.87516748 44.87570137 6.53515625 38.2890625 C8.28628938 28.73742724 8.20632058 18.58146809 2.7109375 10.24609375 C-1.86669559 4.5986318 -5.93787191 1.95043448 -13.27734375 1.1640625 C-20.00400293 1.88477598 -24.44873064 4.39152258 -28.77734375 9.5390625 Z " fill="#FFFFFF" transform="translate(421.77734375,156.4609375)" />
<path d="M0 0 C12.21 0 24.42 0 37 0 C37 1.65 37 3.3 37 5 C26.44 5 15.88 5 5 5 C5 12.59 5 20.18 5 28 C14.57 28 24.14 28 34 28 C34 29.65 34 31.3 34 33 C24.43 33 14.86 33 5 33 C5 40.59 5 48.18 5 56 C15.89 56 26.78 56 38 56 C38 57.98 38 59.96 38 62 C25.46 62 12.92 62 0 62 C0 41.54 0 21.08 0 0 Z " fill="#FFFFFF" transform="translate(689,154)" />
<path d="M0 0 C24 0 24 0 33 4 C37.73971168 8.83845567 39.1493695 12.14572958 39.25 18.8125 C39.17333474 24.60421176 38.57166797 28.31143803 34.453125 32.6171875 C28.0610267 38.52846424 22.05647778 39.2984493 13.625 39.125 C9.355625 39.063125 9.355625 39.063125 5 39 C5 46.59 5 54.18 5 62 C3.35 62 1.7 62 0 62 C0 41.54 0 21.08 0 0 Z M5 5 C5 14.57 5 24.14 5 34 C18.23185243 34.93437462 18.23185243 34.93437462 30 30 C33.67294962 26.09008589 34.30258301 22.31503572 34.21484375 16.9921875 C33.76003053 12.77482858 31.57743759 10.53301932 28.5625 7.75 C25.02117425 5.33153363 22.12288711 4.87028116 17.890625 4.90234375 C16.8701709 4.90609009 16.8701709 4.90609009 15.82910156 4.90991211 C14.97799805 4.91901611 14.12689453 4.92812012 13.25 4.9375 C10.5275 4.958125 7.805 4.97875 5 5 Z " fill="#FFFFFF" transform="translate(254,154)" />
</svg>