<?xml version="1.0" encoding="UTF-8"?>
<svg version="1.1" xmlns="http://www.w3.org/2000/svg" width="1738" height="1067">
<path d="M0 0 C0.90278687 0.00060425 1.80557373 0.0012085 2.73571777 0.00183105 C47.04230619 0.08196561 96.48470738 3.25763192 136.4375 24.1875 C134.54095075 30.07614052 132.45421273 35.83843766 130.109375 41.5625 C129.79728088 42.33070068 129.48518677 43.09890137 129.16363525 43.89038086 C128.17422061 46.32383437 127.1809045 48.75567296 126.1875 51.1875 C125.53750988 52.78505434 124.88776872 54.38270999 124.23828125 55.98046875 C120.00124709 66.39511467 115.726001 76.79395685 111.4375 87.1875 C106.11557921 85.49845067 100.94677802 83.61300949 95.80664062 81.43457031 C53.75717461 63.73774228 -5.73335493 51.49008102 -49.5625 69.1875 C-55.26697629 72.08265828 -59.77635188 75.26693524 -62.5625 81.1875 C-63.93188458 86.02539159 -64.05215821 89.88385585 -61.9375 94.5 C-57.82542424 101.53931614 -50.73491657 104.74185274 -43.09634399 106.87677002 C-40.36036699 107.48887981 -37.61980315 108.02725025 -34.86328125 108.5390625 C-33.79942703 108.74423492 -32.73557281 108.94940735 -31.63948059 109.16079712 C-13.74379292 112.55170499 4.25491115 115.43139117 22.2277832 118.37988281 C115.53446096 133.70987466 115.53446096 133.70987466 140.43359375 166.84375 C144.70795441 173.24150274 147.90116968 179.93155135 150.4375 187.1875 C150.91896484 188.55841797 150.91896484 188.55841797 151.41015625 189.95703125 C158.24856371 213.71652136 153.18774864 241.64073273 141.41333008 262.98339844 C123.65897234 293.49144096 90.65439092 310.11906 57.65429688 318.93066406 C34.15704722 324.83371176 10.53854762 326.73596993 -13.625 326.5625 C-14.77548828 326.55817963 -15.92597656 326.55385925 -17.11132812 326.54940796 C-35.75064605 326.46769332 -54.08786178 325.801595 -72.5625 323.1875 C-73.77615234 323.01589355 -74.98980469 322.84428711 -76.24023438 322.66748047 C-94.28896341 320.01144052 -111.99803271 316.10002098 -129.5625 311.1875 C-130.20020325 311.0094281 -130.83790649 310.8313562 -131.49493408 310.64788818 C-136.07655117 309.36136728 -140.63413053 308.00822811 -145.1875 306.625 C-146.39801025 306.2734082 -147.60852051 305.92181641 -148.85571289 305.55957031 C-149.96809326 305.20862305 -151.08047363 304.85767578 -152.2265625 304.49609375 C-153.21092285 304.19501709 -154.1952832 303.89394043 -155.20947266 303.58374023 C-158.48771601 301.63849498 -158.57682428 299.81676989 -159.5625 296.1875 C-159.88569769 294.02658278 -160.14092304 291.85478964 -160.34033203 289.67895508 C-160.46030548 288.40776321 -160.58027893 287.13657135 -160.70388794 285.82685852 C-160.82622263 284.45359996 -160.94835946 283.08032376 -161.0703125 281.70703125 C-161.20139142 280.28784368 -161.33306379 278.8687108 -161.46530151 277.44963074 C-161.81034615 273.7277892 -162.14659064 270.00520167 -162.48120117 266.28240967 C-162.75618424 263.24010444 -163.03754194 260.1984045 -163.31921577 257.15671253 C-163.65511258 253.52785328 -163.98808784 249.89872832 -164.3203125 246.26953125 C-164.38371952 245.57795237 -164.44712654 244.88637348 -164.51245499 244.17383766 C-164.69102693 242.21865509 -164.86729588 240.26326259 -165.04345703 238.30786133 C-165.14401398 237.19566727 -165.24457092 236.08347321 -165.34817505 234.93757629 C-165.5625 232.1875 -165.5625 232.1875 -165.5625 229.1875 C-164.0234375 228.46484375 -164.0234375 228.46484375 -161.5625 228.1875 C-158.98835561 229.27929228 -156.6345037 230.42285109 -154.1875 231.75 C-152.73184724 232.50396945 -151.27479206 233.25523695 -149.81640625 234.00390625 C-149.09211426 234.37789551 -148.36782227 234.75188477 -147.62158203 235.13720703 C-118.40829417 250.03826992 -84.82127569 256.2117947 -52.5625 260.1875 C-51.74845703 260.2920752 -50.93441406 260.39665039 -50.09570312 260.50439453 C-41.09315326 261.498945 -32.02372764 261.40948996 -22.97753906 261.42773438 C-20.09670521 261.43738541 -17.21660318 261.46846346 -14.3359375 261.5 C4.82520937 261.60894074 27.79555997 260.76407816 43.4375 248.1875 C47.99387892 242.65475416 50.03015302 237.41786685 49.4375 230.1875 C48.0610562 225.56720776 45.9952724 222.19111269 42 219.4375 C30.99426489 213.62434925 18.54886206 211.95566273 6.41872406 209.98483658 C3.41009881 209.49573775 0.40356398 208.99517819 -2.60272217 208.49191284 C-10.07602497 207.24318896 -17.55241875 206.01340528 -25.02880859 204.7833252 C-111.55489451 190.53721105 -111.55489451 190.53721105 -138.5625 169.1875 C-139.19542969 168.71957031 -139.82835937 168.25164062 -140.48046875 167.76953125 C-155.10401331 156.35848161 -162.87763861 137.56959493 -165.3125 119.625 C-165.42591526 118.14783533 -165.50593864 116.66793213 -165.5625 115.1875 C-165.60246094 114.14335937 -165.64242188 113.09921875 -165.68359375 112.0234375 C-166.12067354 88.83249818 -159.96589307 65.89437177 -143.9375 48.625 C-142.16663222 46.79034969 -140.36714527 44.98936889 -138.5625 43.1875 C-137.99273437 42.54683594 -137.42296875 41.90617187 -136.8359375 41.24609375 C-112.18131444 13.99957442 -67.17834327 4.6589482 -32.5625 1.1875 C-31.1559314 1.04501831 -31.1559314 1.04501831 -29.72094727 0.8996582 C-19.82013328 0.01572711 -9.93192854 -0.01230158 0 0 Z " fill="#FFFFFF" transform="translate(440.5625,298.8125)"/>
<path d="M0 0 C37.64276803 -1.58310707 70.4562546 12.60234488 103.15625 29.71484375 C103.75068909 30.02559845 104.34512817 30.33635315 104.95758057 30.65652466 C107.8205295 32.15596231 110.67708909 33.66612951 113.52636719 35.19140625 C133.02840979 45.50296889 150.39892928 50.30136436 172 44 C175.91182809 42.4920683 179.63223517 40.69718794 183.375 38.8125 C184.42518311 38.2978418 185.47536621 37.78318359 186.55737305 37.25292969 C193.35736379 33.89576539 200.08405797 30.40478153 206.8034668 26.89016724 C253.17158018 2.6388518 299.81446099 -7.7545063 351.07861328 7.62353516 C366.92134813 12.68212079 381.79989398 20.91362511 396.63671875 28.3046875 C407.56588645 33.70971408 417.94170701 38.7774911 430 41 C430.87785156 41.185625 431.75570313 41.37125 432.66015625 41.5625 C445.08731508 43.19038513 458.57024609 43.0682211 470.8125 40.3125 C471.47282227 40.16401611 472.13314453 40.01553223 472.81347656 39.86254883 C483.34722652 37.17389198 493.20775878 32.04540507 502.9375 27.3125 C504.55277588 26.53410767 504.55277588 26.53410767 506.20068359 25.73999023 C511.39695141 23.23588912 516.58448376 20.71507815 521.76171875 18.171875 C563.90619806 -2.41805417 609.68092197 -5.81528335 654.296875 9.43359375 C662.86588445 12.55817366 671.01870392 16.46083013 679.15234375 20.56640625 C680.38734367 21.18929535 680.38734367 21.18929535 681.64729309 21.82476807 C685.80949946 23.92995836 689.96018488 26.05467037 694.09692383 28.20947266 C717.06370473 40.06274353 741.71361886 46.03158888 767.5 40.375 C768.14332275 40.23497559 768.78664551 40.09495117 769.44946289 39.95068359 C782.49060443 36.68673725 794.55486782 30.37244497 806.43112183 24.25326538 C839.32072865 7.36414821 878.298605 -6.63728951 916 1 C916.66 1.66 917.32 2.32 918 3 C917.42052612 4.18867676 917.42052612 4.18867676 916.8293457 5.40136719 C914.98775931 9.18296819 913.14908407 12.96596745 911.3125 16.75 C910.97730347 17.44051453 910.64210693 18.13102905 910.29675293 18.84246826 C904.77560767 30.22723955 899.3894824 41.66859133 894.1262207 53.17480469 C893.37538208 54.8091748 893.37538208 54.8091748 892.609375 56.4765625 C892.17592773 57.42611816 891.74248047 58.37567383 891.29589844 59.35400391 C887.70173438 66.69265313 887.70173438 66.69265313 884.90966797 67.91552734 C884.11189941 68.0542627 883.31413086 68.19299805 882.4921875 68.3359375 C881.58597656 68.51382813 880.67976563 68.69171875 879.74609375 68.875 C878.79863281 69.04 877.85117188 69.205 876.875 69.375 C859.17553502 72.49092313 843.52826145 81.03798661 827.72949219 89.24145508 C813.98635915 96.3570613 800.09360947 102.10660253 785 105.75 C784.1644458 105.95262451 783.3288916 106.15524902 782.46801758 106.36401367 C739.51111318 116.39313251 698.72594951 106.39775408 660.40673828 86.66455078 C631.83133226 71.98822225 602.76960502 61.49165036 570.4699707 71.16455078 C559.04687686 75.02832731 548.4281888 80.1662387 537.73944092 85.68988037 C518.15768453 95.77125287 498.82056835 104.20376934 477 108 C475.74832031 108.22429687 474.49664063 108.44859375 473.20703125 108.6796875 C436.47558462 114.23698409 401.55223888 106.37343075 368.8046875 89.9140625 C368.07018875 89.54498779 367.33569 89.17591309 366.57893372 88.7956543 C362.88737182 86.93633205 359.20375378 85.06321086 355.53100586 83.16699219 C328.49358796 69.30406954 300.54377145 62.85676639 270.72924805 72.00341797 C255.31269457 77.51095809 240.93442463 85.43780363 226.40478516 92.9140625 C191.76807766 110.71699253 158.25239686 120.50431224 119.4375 110.875 C118.7554248 110.71177246 118.07334961 110.54854492 117.37060547 110.38037109 C98.52867229 105.27473119 80.81456117 94.47855423 63.58056641 85.61889648 C47.72466717 77.48085679 32.87744788 70.39407179 15 68.1875 C14.11828125 68.06697266 13.2365625 67.94644531 12.328125 67.82226562 C10.2203833 67.53588768 8.11041477 67.26596416 6 67 C4.34476621 53.89828346 2.81562998 40.78534238 1.51309204 27.64382935 C1.31700495 25.67033939 1.11595802 23.69734424 0.91479492 21.72436523 C0.20875178 14.4551042 -0.17810492 7.303244 0 0 Z " fill="#FFFFFF" transform="translate(290,676)"/>
<path d="M0 0 C40.59 0 81.18 0 123 0 C122.1058909 4.4705455 121.27522892 6.302753 119 10 C116.27813724 18.20116818 118.82720719 27.2818479 121.53125 35.16015625 C121.92540855 36.32317513 121.92540855 36.32317513 122.32752991 37.50968933 C125.64071455 47.09952519 129.54406365 56.44744473 133.4375 65.8125 C134.23239064 67.73750358 135.02656797 69.66280184 135.82006836 71.58837891 C137.03098847 74.526794 138.24227298 77.46505067 139.45576477 80.40240479 C143.36861033 89.87555239 147.2214084 99.37257945 151.0625 108.875 C152.27298598 111.86867244 153.48384979 114.86219143 154.6953125 117.85546875 C154.97876526 118.55585266 155.26221802 119.25623657 155.55426025 119.97784424 C157.3308961 124.36264729 159.12416185 128.74027071 160.9296875 133.11328125 C161.36015381 134.15693848 161.79062012 135.2005957 162.23413086 136.27587891 C163.00785333 138.14794507 163.7844714 140.01881852 164.56469727 141.88818359 C167 147.78052747 167 147.78052747 167 150 C167.66 150 168.32 150 169 150 C169.09410156 149.36900391 169.18820312 148.73800781 169.28515625 148.08789062 C170.28452727 143.77093549 171.86633928 139.73181926 173.4375 135.59375 C173.7896759 134.65723099 174.14185181 133.72071198 174.50469971 132.7558136 C175.26739623 130.72934956 176.03188884 128.70356081 176.79797363 126.67837524 C178.01222973 123.46766238 179.22105032 120.25494697 180.42871094 117.04174805 C184.12588194 107.21381302 187.84253113 97.39361262 191.60119629 87.58901978 C193.12551289 83.61175831 194.64403939 79.63229499 196.16259766 75.65283203 C197.21499061 72.90394572 198.27717761 70.15898998 199.33984375 67.4140625 C211.57995606 38.65395108 211.57995606 38.65395108 211.10546875 8.60546875 C210.13373322 7.029403 209.07301973 5.508934 208 4 C208 2.68 208 1.36 208 0 C236.71 0 265.42 0 295 0 C294.1728295 4.13585248 293.48920392 6.32575424 291.578125 9.890625 C291.05822998 10.88408936 290.53833496 11.87755371 290.00268555 12.90112305 C289.42429932 14.00625244 288.84591309 15.11138184 288.25 16.25 C277.27676092 37.59650832 268.276336 59.88114245 259 82 C258.61545654 82.91622131 258.23091309 83.83244263 257.8347168 84.77642822 C246.9483419 110.72849146 236.34504048 136.79762643 225.72593689 162.85986328 C221.40963081 173.45192755 217.0813923 184.03909743 212.75 194.625 C212.3791629 195.53142242 212.00832581 196.43784485 211.62625122 197.37173462 C206.09902912 210.88092856 200.5618898 224.38603704 195.01940918 237.88897705 C189.66990741 250.92202431 184.33239785 263.9599461 179 277 C173.02142047 291.62025183 167.0346268 306.23708872 161.03561401 320.84896851 C157.02779762 330.61103188 153.0270278 340.37593567 149.03515625 350.14453125 C148.61954437 351.16139008 148.2039325 352.1782489 147.77572632 353.22592163 C145.74077464 358.20490021 143.70663655 363.1842085 141.67382812 368.1640625 C140.94013564 369.95964828 140.20641325 371.75522183 139.47265625 373.55078125 C139.13492691 374.3789888 138.79719757 375.20719635 138.44923401 376.0605011 C136.11350248 381.77299504 136.11350248 381.77299504 135 384 C106.62 384 78.24 384 49 384 C49 377.91718758 50.14103722 375.20759032 53 370.1875 C66.38809532 345.65409721 77.79684393 320.11878592 89.0078125 294.53710938 C91.02338424 289.94079203 93.05730087 285.35272219 95.09375 280.765625 C96.09651247 278.50408811 97.09897732 276.2424196 98.10128784 273.98068237 C98.72621227 272.57105587 99.35161338 271.16164056 99.97756958 269.75247192 C101.70808035 265.85399012 103.42017025 261.94821353 105.11309814 258.03326416 C105.73358355 256.61077223 106.36197535 255.19171479 106.99627686 253.77532959 C108.01193446 251.50653852 109.00544648 249.22902262 109.99609375 246.94921875 C110.31159683 246.25810501 110.62709991 245.56699127 110.9521637 244.85493469 C113.38581675 239.1588996 113.18059826 235.03451464 110.89941406 229.17114258 C110.44276367 228.25486084 109.98611328 227.3385791 109.515625 226.39453125 C108.99959717 225.34386475 108.48356934 224.29319824 107.9519043 223.21069336 C107.10946167 221.52858765 107.10946167 221.52858765 106.25 219.8125 C105.04893084 217.37457556 103.85499575 214.93316982 102.66015625 212.4921875 C102.35378738 211.86869919 102.04741852 211.24521088 101.73176575 210.60282898 C98.62002063 204.25917338 95.64568106 197.85405105 92.6875 191.4375 C87.85478624 180.97976391 82.9748792 170.54553155 78.0625 160.125 C73.02008996 149.42663591 67.99462662 138.7207579 63 128 C57.68913364 116.6011136 52.34430467 105.21853938 46.98352051 93.8430481 C42.80460886 84.97487427 38.64211939 76.09942803 34.5065918 67.2109375 C32.22634407 62.31038919 29.93639122 57.41439826 27.64501953 52.51904297 C26.55200416 50.18085307 25.46181412 47.84134028 24.37451172 45.50048828 C15.16055787 25.07028453 15.16055787 25.07028453 2.24609375 6.88671875 C0 4 0 4 0 0 Z " fill="#FFFFFF" transform="translate(1168,396)"/>
<path d="M0 0 C3.82784204 0.00317339 7.65491786 -0.02046048 11.48266602 -0.0456543 C45.17293332 -0.13286697 82.22407337 3.83460315 107.91821289 27.94067383 C128.06755463 48.32470008 130.54820469 73.52753652 130.57082939 100.77190208 C130.57453891 104.36987719 130.5913901 107.96758771 130.61158752 111.56550598 C130.66655712 121.78597048 130.6975736 132.00647271 130.72216797 142.22705078 C130.73817951 148.50677769 130.76853533 154.78631502 130.80693245 161.06594276 C130.81845986 163.43659747 130.82451171 165.80728625 130.82461357 168.17796898 C130.82560551 185.11934007 130.84704178 202.69609164 137.39086914 218.62817383 C139.20035579 223.24898486 140.43754848 227.34574986 141.26586914 232.31567383 C107.93586914 232.31567383 74.60586914 232.31567383 40.26586914 232.31567383 C39.93586914 220.10567383 39.60586914 207.89567383 39.26586914 195.31567383 C36.62586914 198.61567383 33.98586914 201.91567383 31.26586914 205.31567383 C13.613521 225.43053749 -11.10155104 236.43951723 -37.73413086 238.31567383 C-64.27264219 239.83537022 -92.88603559 235.11598163 -113.6171875 217.34008789 C-124.95314481 207.1346996 -133.62009394 193.43714322 -134.93896484 177.90307617 C-135.03777159 175.28683437 -135.06327142 172.68370984 -135.04663086 170.06567383 C-135.04099121 169.13907959 -135.03535156 168.21248535 -135.02954102 167.2578125 C-134.77627334 152.93063576 -130.51350087 141.81293762 -120.76928711 131.19067383 C-107.03293544 118.53530185 -87.59896948 113.58159181 -69.68725586 110.37817383 C-68.74055527 110.20756943 -67.79385468 110.03696503 -66.81846619 109.8611908 C-54.66255533 107.71608128 -42.42888767 106.0983486 -30.19580078 104.46386719 C-18.79739021 102.93335444 -7.50300445 101.20696578 3.74243164 98.77661133 C4.66966537 98.57665054 5.59689911 98.37668976 6.55223083 98.17066956 C17.60196878 95.69202383 30.04888168 92.60758822 38.26586914 84.31567383 C39.82531253 81.19678705 39.54903189 78.77025933 39.26586914 75.31567383 C36.99893934 69.44226479 33.84865503 66.69542519 28.37524414 63.66723633 C-8.41523762 47.67539375 -57.8489613 58.80682756 -93.61352539 72.42602539 C-96.50157254 73.63763531 -99.25478276 75.06440279 -102.00537109 76.55932617 C-103.73413086 77.31567383 -103.73413086 77.31567383 -106.73413086 77.31567383 C-106.73413086 56.85567383 -106.73413086 36.39567383 -106.73413086 15.31567383 C-92.02884698 9.80119237 -76.59352088 6.5993486 -61.10913086 4.06567383 C-60.20751221 3.91493408 -59.30589355 3.76419434 -58.37695312 3.60888672 C-39.00338198 0.61446766 -19.57359665 -0.0338275 0 0 Z M37.01586914 120.00317383 C22.21165017 129.84953961 1.44610882 132.24874503 -15.7434082 134.79638672 C-25.00011084 136.25722827 -34.48911901 138.86141566 -40.73413086 146.31567383 C-43.55018985 150.89672753 -44.25218413 154.83746043 -44.17163086 160.12817383 C-44.16260742 160.83449951 -44.15358398 161.5408252 -44.14428711 162.26855469 C-43.8766553 170.35791195 -41.87725628 175.55098844 -36.10913086 181.19067383 C-29.54958768 187.12004256 -20.12270239 187.85470501 -11.67163086 187.75317383 C-10.7626001 187.74487549 -9.85356934 187.73657715 -8.91699219 187.72802734 C3.07264086 187.43344949 13.82705198 184.60832945 24.82836914 179.94067383 C25.77450073 179.53933228 25.77450073 179.53933228 26.73974609 179.12988281 C28.6343137 178.26857879 30.43879935 177.31232747 32.26586914 176.31567383 C32.95301498 175.95761658 33.64016083 175.59955933 34.34812927 175.23065186 C37.68984527 173.17551923 39.89773396 171.65390267 40.96656799 167.76852417 C41.19258666 164.60167006 41.16551789 161.52750508 41.04711914 158.35473633 C41.03013977 156.63617935 41.03013977 156.63617935 41.01281738 154.88290405 C40.96813478 151.23377258 40.8677749 147.58861168 40.76586914 143.94067383 C40.72573222 141.4628661 40.68923184 138.98499661 40.65649414 136.50708008 C40.56842599 130.44192982 40.43466671 124.37908545 40.26586914 118.31567383 C38.93045247 118.21567383 38.93045247 118.21567383 37.01586914 120.00317383 Z " fill="#FFFFFF" transform="translate(747.734130859375,387.684326171875)"/>
<path d="M0 0 C-0.10546143 0.56356201 -0.21092285 1.12712402 -0.31958008 1.70776367 C-7.05959893 38.56027042 -7.46190605 75.45861815 -7.40297651 112.81407332 C-7.3952439 119.27305046 -7.40246081 125.73201647 -7.40713501 132.19099426 C-7.41289015 143.69188931 -7.40373751 155.19271447 -7.388357 166.69359849 C-7.37490072 177.07726052 -7.3773435 187.46082209 -7.39111328 197.84448242 C-7.40722965 210.00282089 -7.41311569 222.16108093 -7.40427649 234.31943208 C-7.39963146 240.72015785 -7.39888848 247.12081469 -7.40888596 253.52153587 C-7.4176135 259.52448553 -7.41142901 265.52724666 -7.39420319 271.53017616 C-7.39027247 273.71733412 -7.39131293 275.90450825 -7.39799118 278.09165955 C-7.44323363 294.42576985 -6.60146874 310.37513669 -0.9375 325.875 C-0.55368164 326.99068359 -0.55368164 326.99068359 -0.16210938 328.12890625 C0.8141226 330.92459372 1.80718226 333.63218267 3.18359375 336.2578125 C4 338 4 338 4 342 C-33.29 342 -70.58 342 -109 342 C-108.05442858 335.38100008 -106.57108729 331.7025061 -103.5703125 325.96484375 C-97.92940799 312.98066248 -98.56462915 298.94736342 -98.59594727 285.1081543 C-98.5902356 282.81842721 -98.58326827 280.52870297 -98.57514954 278.23898315 C-98.55729004 272.0549422 -98.55837307 265.87104371 -98.56409192 259.68698478 C-98.56719458 254.50845036 -98.56107929 249.32994288 -98.55505317 244.15141231 C-98.54023309 231.22847054 -98.5438013 218.30561742 -98.55591648 205.38267723 C-98.56584251 194.19819763 -98.55291252 183.01388361 -98.52898229 171.82942953 C-98.50451092 160.30388499 -98.4954015 148.77843613 -98.50163502 137.25286418 C-98.50499256 130.79870383 -98.50266986 124.34468018 -98.48538399 117.89053917 C-98.46982642 111.81727157 -98.47396774 105.74431806 -98.49268913 99.67106247 C-98.49635087 97.45447534 -98.49333795 95.23786448 -98.48280334 93.02129936 C-98.41487608 77.5350187 -98.74957313 61.65587896 -107 48 C-107.33 47.67 -107.66 47.34 -108 47 C-108.04063832 45.33382885 -108.042721 43.66611905 -108 42 C-106.78957031 41.84917969 -106.78957031 41.84917969 -105.5546875 41.6953125 C-72.11846203 36.5130525 -34.3933429 21.21885525 -7.6640625 0.51953125 C-4.45790487 -1.30920089 -3.45364448 -0.88057456 0 0 Z " fill="#FFFFFF" transform="translate(1158,278)"/>
<path d="M0 0 C0.99 0.33 1.98 0.66 3 1 C3.00238835 1.9677706 3.00477671 2.93554119 3.00723743 3.93263817 C3.06619286 27.54759725 3.1421739 51.16245562 3.23571491 74.7773037 C3.28056301 86.19755502 3.32000268 97.61777592 3.34643555 109.03808594 C3.36950495 118.99915297 3.40300183 128.96012283 3.44870156 138.92111266 C3.4725138 144.18890202 3.49132083 149.45659587 3.49761391 154.72443771 C3.50371953 159.69686544 3.52391367 164.66904916 3.55427551 169.64138603 C3.56296891 171.45277261 3.56679671 173.2641912 3.56500816 175.07559776 C3.55470982 190.33728211 4.78008983 205.41929954 10.0625 219.875 C10.44631836 220.99068359 10.44631836 220.99068359 10.83789062 222.12890625 C11.8141226 224.92459372 12.80718226 227.63218267 14.18359375 230.2578125 C15 232 15 232 15 236 C-22.29 236 -59.58 236 -98 236 C-97.05442858 229.38100008 -95.57108729 225.7025061 -92.5703125 219.96484375 C-88.21048386 210.13568788 -87.5558541 199.2320458 -87.61181641 188.63916016 C-87.60655945 187.38509872 -87.60130249 186.13103729 -87.59588623 184.838974 C-87.58505211 181.44401164 -87.58744033 178.04960817 -87.59702349 174.65467882 C-87.60471273 171.07075376 -87.59754884 167.48684975 -87.59286499 163.90292358 C-87.58743262 157.8864116 -87.59453087 151.87001068 -87.60888672 145.85351562 C-87.62519351 138.94043799 -87.61992893 132.02762616 -87.6034075 125.114555 C-87.58970237 119.13612999 -87.58791707 113.15778403 -87.59572351 107.17934835 C-87.60035281 103.62766579 -87.60115856 100.07610726 -87.59111404 96.52443314 C-87.39365403 70.35819869 -87.39365403 70.35819869 -94.9140625 45.55078125 C-95.99234843 43.01797293 -96.50210368 40.69679774 -97 38 C-96.07610474 37.7980603 -96.07610474 37.7980603 -95.13354492 37.59204102 C-65.10322727 30.93491069 -26.47966169 21.97030851 -2.2265625 1.6796875 C-1.49179687 1.12539063 -0.75703125 0.57109375 0 0 Z " fill="#FFFFFF" transform="translate(1010,384)"/>
<path d="M0 0 C0.25547573 9.3793455 0.45061333 18.75748479 0.56993389 28.13955688 C0.62722035 32.49679893 0.70483072 36.85165244 0.82983398 41.20751953 C0.94983897 45.41581439 1.01521897 49.6218212 1.04364967 53.83169556 C1.06389276 55.43311594 1.10343042 57.03441822 1.16303062 58.63485718 C1.61038355 71.15159467 1.61038355 71.15159467 -2.37402344 75.72491455 C-5.1678124 77.78719919 -7.90702973 79.43126468 -11 81 C-12.40702551 81.84334518 -13.81150327 82.690992 -15.2109375 83.546875 C-16.59196234 84.29432324 -17.98033021 85.02833203 -19.375 85.75 C-20.15681641 86.15702148 -20.93863281 86.56404297 -21.74414062 86.98339844 C-39.63564158 96.05197386 -58.65571543 103.69208745 -78 109 C-78.67208496 109.19432617 -79.34416992 109.38865234 -80.03662109 109.58886719 C-81.04523193 109.86585449 -81.04523193 109.86585449 -82.07421875 110.1484375 C-82.66162842 110.31263184 -83.24903809 110.47682617 -83.85424805 110.64599609 C-86.86442436 111.14261182 -89.94913314 111 -93 111 C-93 86.91 -93 62.82 -93 38 C-84.09 35.03 -75.18 32.06 -66 29 C-61.47018048 27.30512179 -57.01415862 25.61371285 -52.5625 23.75 C-51.48178223 23.30382324 -50.40106445 22.85764648 -49.28759766 22.39794922 C-33.87870053 15.95784878 -18.11974274 9.34192807 -3.71142578 0.87841797 C-2 0 -2 0 0 0 Z " fill="#FFFFFF" transform="translate(1013,277)"/>
</svg>
