<?xml version="1.0" encoding="UTF-8"?>
<svg version="1.1" xmlns="http://www.w3.org/2000/svg" width="512" height="512">
    <path
        d="M0 0 C6.17198387 3.22538823 11.71758576 6.82374365 17.1875 11.125 C17.9194458 11.693396 18.6513916 12.26179199 19.40551758 12.84741211 C20.89751151 14.00763605 22.38736906 15.17061289 23.875 16.33642578 C25.81658235 17.85640994 27.76583313 19.36572033 29.71875 20.87109375 C51.53906574 37.75296755 73.75092667 56.54796632 90.84765625 78.29296875 C92.77480671 80.71677142 94.77927693 83.04782959 96.82324219 85.37304688 C125.08444579 117.78138487 145.23857037 158.92782048 154.3125 200.875 C154.45977539 201.54982422 154.60705078 202.22464844 154.75878906 202.91992188 C157.61372989 217.10770745 158.3787456 231.31807771 158.3125 245.75 C158.30976578 246.99458481 158.30976578 246.99458481 158.30697632 248.26431274 C158.23949253 266.55725658 156.10075352 283.3828437 151.0859375 300.99609375 C150.90144043 301.68872314 150.71694336 302.38135254 150.52685547 303.0949707 C150.06891523 304.75081301 149.5259391 306.38267763 148.96875 308.0078125 C149.01996779 312.91191608 152.1183537 315.74988434 155.125 319.4375 C170.48732522 339.29107143 182.71906243 362.32076698 188 387 C188.17587646 387.82008545 188.35175293 388.6401709 188.53295898 389.48510742 C189.86375669 396.13909593 190.35104355 402.53343792 190.3125 409.3125 C190.30903564 410.31216797 190.30557129 411.31183594 190.30200195 412.34179688 C190.14972962 422.75352302 188.70555737 432.58888526 184 442 C183.14921875 440.9171875 183.14921875 440.9171875 182.28125 439.8125 C180.09966251 437.12287159 177.83392905 434.55773047 175.5 432 C173.26270886 429.5481741 171.09691517 427.12691742 169.08203125 424.48828125 C157.10949996 410.17964629 137.66323641 401.54519286 119.44140625 399.625 C100.11360364 398.92296858 83.27417011 407.77722221 66.52026367 416.2915802 C53.93697005 422.68578043 41.50051643 428.75404068 28 433 C27.26700684 433.23509277 26.53401367 433.47018555 25.77880859 433.71240234 C-35.8414131 453.15796259 -109.07598933 439.70232476 -166 412 C-166.96131836 411.5349707 -167.92263672 411.06994141 -168.91308594 410.59082031 C-194.16893211 398.25017135 -218.83685368 382.80507046 -239.375 363.44921875 C-241.42550709 361.5360224 -243.50170845 359.70345286 -245.62890625 357.87890625 C-250.45100371 353.67582364 -254.98693549 349.19914216 -259.50854492 344.67675781 C-260.92668284 343.26080053 -262.35296665 341.85301711 -263.77929688 340.4453125 C-269.96190296 334.2755958 -275.57675404 327.84157181 -281 321 C-282.04817683 319.72181813 -283.09864306 318.44550698 -284.15234375 317.171875 C-300.05515807 297.71382418 -300.05515807 297.71382418 -305 287 C-301.95122487 287.62264912 -299.71174028 288.62105301 -297.078125 290.265625 C-296.31282471 290.73685791 -295.54752441 291.20809082 -294.7590332 291.69360352 C-293.93105225 292.20721436 -293.10307129 292.7208252 -292.25 293.25 C-254.92905748 315.94132492 -215.19379912 333.39295415 -172 341 C-171.00758301 341.17499023 -170.01516602 341.34998047 -168.99267578 341.53027344 C-121.20679831 349.49853103 -69.24686715 343.40064831 -27 319 C-28.07636719 318.26136719 -29.15273438 317.52273438 -30.26171875 316.76171875 C-39.61693275 310.28503213 -48.46446147 303.51940299 -57 296 C-58.10214844 295.04673828 -58.10214844 295.04673828 -59.2265625 294.07421875 C-61.16321898 292.39604033 -63.08427391 290.7020196 -65 289 C-65.81210938 288.28070313 -66.62421875 287.56140625 -67.4609375 286.8203125 C-71.87483712 282.88359121 -76.16189885 278.88392629 -80.3046875 274.6640625 C-82.05876742 272.94231585 -83.88136018 271.34628746 -85.75 269.75 C-93.08295155 263.41376031 -99.84148253 256.46479934 -106.125 249.09375 C-108.4834657 246.46012997 -110.98466712 243.98196406 -113.5 241.5 C-117.13510556 237.90806094 -120.60853836 234.24689451 -123.92578125 230.359375 C-126.87633691 227.00318739 -129.94185254 223.75802378 -133 220.5 C-137.19983908 216.0207185 -141.36695548 211.5314415 -145.37109375 206.875 C-147.33665089 204.61248819 -149.35673309 202.40309317 -151.375 200.1875 C-154.50422827 196.72469918 -157.50500349 193.19320997 -160.4375 189.5625 C-163.51336588 185.75912497 -166.68753166 182.09917348 -170 178.5 C-174.03633055 174.10971431 -177.84030529 169.5882438 -181.5859375 164.94921875 C-184.33862193 161.5863114 -187.16192121 158.29079763 -190 155 C-195.09995254 149.07907948 -200.07749252 143.0695872 -205 137 C-206.4159632 135.27025724 -207.8326473 133.54110439 -209.25 131.8125 C-210.83386697 129.87543621 -212.41714358 127.93788964 -214 126 C-214.49016602 125.40026367 -214.98033203 124.80052734 -215.48535156 124.18261719 C-221.69293995 116.58281551 -227.8597958 108.95651545 -233.90136719 101.22387695 C-237.27305166 96.91132845 -240.69311667 92.63972759 -244.125 88.375 C-249.23084848 82.0226339 -254.16293695 75.55935065 -259 69 C-254.86804819 69 -253.07167379 71.20423362 -250.125 73.8125 C-248.95455776 74.82567181 -247.78398102 75.83868827 -246.61328125 76.8515625 C-246.01467285 77.37395508 -245.41606445 77.89634766 -244.79931641 78.43457031 C-241.99161052 80.87731253 -239.15369367 83.28386878 -236.3125 85.6875 C-235.7664209 86.15027344 -235.2203418 86.61304687 -234.65771484 87.08984375 C-230.77936812 90.3671226 -226.83851341 93.55362908 -222.859375 96.70703125 C-219.04238602 99.76792269 -215.27255921 102.88462265 -211.5 106 C-201.97637478 113.8577902 -192.3298324 121.54691075 -182.61328125 129.1640625 C-180.31489692 130.96621173 -178.02042099 132.77308749 -175.73046875 134.5859375 C-159.09143512 147.74388723 -142.16399291 160.53521551 -125 173 C-124.03755371 173.70092773 -124.03755371 173.70092773 -123.05566406 174.41601562 C-112.49846354 182.07483511 -101.6504796 189.31003723 -90.8125 196.5625 C-90.07723083 197.05588867 -89.34196167 197.54927734 -88.58441162 198.05761719 C-86.46115878 199.48106135 -84.33463366 200.89947389 -82.20703125 202.31640625 C-81.57010849 202.74405777 -80.93318573 203.17170929 -80.27696228 203.61231995 C-76.63081735 206.03079237 -72.96457839 208.12268121 -69 210 C-69.61746094 209.40574219 -70.23492187 208.81148437 -70.87109375 208.19921875 C-76.14201132 203.04061906 -80.93344077 197.79364101 -85.53515625 192.02734375 C-87.83125719 189.20725148 -90.19608281 186.4736615 -92.60058594 183.74682617 C-98.41979831 177.14293314 -103.89743876 170.3604637 -109.1965332 163.33300781 C-112.69536026 158.69315596 -116.27619109 154.13739466 -119.9375 149.625 C-126.29350881 141.75535565 -132.25720914 133.61040691 -138.21777344 125.43945312 C-141.13230265 121.45014136 -144.06708937 117.47580538 -147 113.5 C-148.16152478 111.92322603 -149.322983 110.34640302 -150.484375 108.76953125 C-152.86699685 105.5356878 -155.25277377 102.30420254 -157.640625 99.07421875 C-164.06851029 90.37502038 -170.4582634 81.6539621 -176.70654297 72.82470703 C-178.14505166 70.79537257 -179.59011529 68.77078134 -181.03515625 66.74609375 C-186.57903663 58.95907937 -191.99994128 51.15150418 -197 43 C-193.97022571 44.35231187 -191.91527387 45.85480543 -189.609375 48.23046875 C-188.98667725 48.86484863 -188.36397949 49.49922852 -187.72241211 50.15283203 C-187.07151611 50.82427246 -186.42062012 51.49571289 -185.75 52.1875 C-184.39373589 53.56558459 -183.03568598 54.94191413 -181.67578125 56.31640625 C-181.06903564 56.93459229 -180.46229004 57.55277832 -179.8371582 58.18969727 C-177.37165549 60.6191594 -174.7960536 62.89983219 -172.15234375 65.1328125 C-169.02812454 67.84311519 -166.02209693 70.67682391 -163 73.5 C-158.07398411 78.09113181 -153.11658191 82.62094341 -148 87 C-146.95430999 87.8996035 -145.90874931 88.79935733 -144.86328125 89.69921875 C-134.35211865 98.73655116 -123.81924969 107.7466913 -113.06640625 116.49609375 C-110.71303941 118.41776017 -108.36757233 120.34759522 -106.02734375 122.28515625 C-97.67352009 129.19859983 -89.2580436 136.01234218 -80.70166016 142.67333984 C-77.794188 144.94008356 -74.89779929 147.22091348 -72 149.5 C-70.83466933 150.41540776 -69.66930477 151.33077237 -68.50390625 152.24609375 C-66.15612327 154.09063996 -63.80992813 155.93718056 -61.46484375 157.78515625 C-54.33254776 163.403135 -47.17294723 168.98340756 -39.96142578 174.49951172 C-38.53734796 175.58892948 -37.11393201 176.67921261 -35.69091797 177.77001953 C-23.9987039 186.72987588 -12.23056214 195.57327684 -0.34716797 204.27783203 C2.03121911 206.02290613 4.40499134 207.77407617 6.77734375 209.52734375 C14.78657071 215.44617879 22.81238115 221.3415447 30.875 227.1875 C31.6182251 227.72834229 32.3614502 228.26918457 33.12719727 228.82641602 C36.66821183 231.38642689 40.19933702 233.83138642 44 236 C44.40412109 234.12828125 44.40412109 234.12828125 44.81640625 232.21875 C45.61067233 228.63651917 46.48025171 225.08264298 47.40234375 221.53125 C64.58244529 154.69876707 50.64909105 85.62478776 16.26171875 26.44921875 C11.5486191 18.553087 6.80956407 10.79047135 1.08178711 3.58276367 C0 2 0 2 0 0 Z "
        fill="#FFFFFF" transform="translate(312,41)" />
</svg>