<?xml version="1.0" encoding="UTF-8"?>
<svg version="1.1" xmlns="http://www.w3.org/2000/svg" width="387" height="140">
<path d="M0 0 C3.5 -0.3125 3.5 -0.3125 7 0 C9.46191922 2.46191922 9.26326083 3.17761351 9.30639648 6.56640625 C9.32238388 7.51499512 9.33837128 8.46358398 9.35484314 9.44091797 C9.36020584 10.47104004 9.36556854 11.50116211 9.37109375 12.5625 C9.38463646 14.15408936 9.38463646 14.15408936 9.39845276 15.77783203 C9.41298794 18.03073292 9.42185006 20.28367633 9.42553711 22.53662109 C9.43735753 25.95875205 9.48644796 29.37903529 9.53710938 32.80078125 C9.54658236 34.99217873 9.5538132 37.18358726 9.55859375 39.375 C9.57812607 40.38892822 9.59765839 41.40285645 9.61778259 42.44750977 C9.56858016 50.33098652 7.63197003 56.93488601 2.29075623 62.91308594 C-3.49118752 68.41069525 -9.5145 70.15149589 -17.375 70.4375 C-24.92282944 70.24486398 -30.8932109 68.48543128 -36.8125 63.75 C-37.534375 62.8425 -38.25625 61.935 -39 61 C-39.45246094 60.43539062 -39.90492188 59.87078125 -40.37109375 59.2890625 C-44.81078478 53.12631858 -45.7308744 46.77504606 -44.58984375 39.3203125 C-42.69843941 31.8679529 -38.98149864 26.59457 -32.375 22.625 C-25.80751432 19.46287726 -18.43720343 18.60052328 -11.38671875 20.82421875 C-8.02132661 22.30587257 -5.06359179 23.95760547 -2 26 C-2.01571045 24.97845825 -2.01571045 24.97845825 -2.03173828 23.9362793 C-2.07328878 20.85339034 -2.09932311 17.77056029 -2.125 14.6875 C-2.14175781 13.61564453 -2.15851563 12.54378906 -2.17578125 11.43945312 C-2.18544922 9.89741211 -2.18544922 9.89741211 -2.1953125 8.32421875 C-2.21102295 6.9024231 -2.21102295 6.9024231 -2.22705078 5.4519043 C-2 3 -2 3 0 0 Z M-30.8125 35.0625 C-34.51883453 40.0395778 -34.64041301 43.89777888 -34 50 C-32.67600684 54.23518295 -30.37856886 56.70471629 -26.875 59.4375 C-22.39478039 61.67279236 -17.88785033 61.65548986 -13 61 C-7.71902596 59.20646165 -5.20104749 56.39000798 -2 52 C-0.29891933 46.89675799 -0.43478753 42.68126566 -2.6875 37.8125 C-5.16301505 33.28283417 -8.06009122 30.64663626 -13 29 C-20.3524063 28.27176166 -25.82132532 29.24657281 -30.8125 35.0625 Z " fill="#FEFEFE" transform="translate(315,35)"/>
<path d="M0 0 C6.04965141 4.37757885 9.03230686 9.88694322 11 17 C11.51463345 21.49583784 11.5165351 25.91720197 11.4375 30.4375 C11.44458984 31.60732422 11.45167969 32.77714844 11.45898438 33.98242188 C11.3956965 42.42891853 11.3956965 42.42891853 9.70336914 44.87133789 C8 46 8 46 4.3125 45.6875 C3.219375 45.460625 2.12625 45.23375 1 45 C0.34 43.35 -0.32 41.7 -1 40 C-2.051875 40.928125 -2.051875 40.928125 -3.125 41.875 C-9.52325396 46.60414423 -16.28088412 46.76693151 -24 46 C-31.66463242 44.21278524 -36.58172708 39.33033724 -41 33 C-43.63466836 26.96221835 -44.19323142 19.88107746 -42.2421875 13.53515625 C-38.7203489 5.20198697 -34.20440087 0.75553561 -26 -3 C-17.31795926 -5.79442202 -7.79206395 -4.55099749 0 0 Z M-30.9375 12.3125 C-33.32939669 18.36259162 -33.63209552 23.22042846 -31.08984375 29.171875 C-28.7118529 33.16076288 -25.40355221 35.53214926 -21 37 C-14.14275595 37.73127952 -9.53398851 37.20583127 -4 33 C-0.53172033 29.35385984 0.29195462 26.46163303 0.5 21.5625 C0.27366555 16.18888198 -0.64338611 13.21728412 -4 9 C-8.71774605 5.32015808 -12.52322846 4.2917689 -18.5 4.546875 C-23.77582106 5.50311757 -27.54282995 8.26079704 -30.9375 12.3125 Z " fill="#FEFEFE" transform="translate(86,59)"/>
<path d="M0 0 C5.73710697 4.63625988 9.37515929 9.48137823 10.16870117 16.94897461 C10.28197943 20.24912004 10.32217409 23.53285313 10.27124023 26.83447266 C10.24195181 28.91518139 10.25072469 30.99338682 10.26367188 33.07421875 C10.21543024 40.62217911 10.21543024 40.62217911 9.8046875 43.5234375 C6.8046875 45.5234375 6.8046875 45.5234375 3.7421875 45.4609375 C0.8046875 44.5234375 0.8046875 44.5234375 -0.5703125 41.9609375 C-0.7765625 41.1565625 -0.9828125 40.3521875 -1.1953125 39.5234375 C-1.73800781 39.87277344 -2.28070313 40.22210938 -2.83984375 40.58203125 C-3.55527344 41.03707031 -4.27070313 41.49210937 -5.0078125 41.9609375 C-6.06935547 42.63962891 -6.06935547 42.63962891 -7.15234375 43.33203125 C-12.69913407 46.56677512 -18.98355035 46.1453204 -25.1953125 45.5234375 C-33.37094653 42.97061503 -37.66510074 38.71137421 -42.0078125 31.5234375 C-44.6003625 24.83346653 -44.58344561 15.65804484 -41.6953125 9.0859375 C-37.74171003 2.62145066 -31.914979 -2.01960672 -24.61328125 -4.04296875 C-15.93500505 -5.59917014 -7.43614419 -5.0015347 0 0 Z M-30.0078125 10.5234375 C-33.30573507 15.04630274 -33.7574635 19.04767036 -33.1953125 24.5234375 C-31.19234582 30.19850975 -27.58181071 33.83018839 -22.1953125 36.5234375 C-16.93956085 37.0472951 -12.55005155 37.18849122 -7.7578125 34.8359375 C-2.41580743 30.06236924 -2.41580743 30.06236924 0.0078125 23.5703125 C0.11255156 18.4380988 -0.21410229 14.89587914 -3.1953125 10.5234375 C-7.20889973 6.47695202 -10.76225153 4.39251648 -16.5078125 4.2734375 C-22.35513876 4.36820778 -26.15600366 6.11196413 -30.0078125 10.5234375 Z " fill="#FEFEFE" transform="translate(250.1953125,59.4765625)"/>
<path d="M0 0 C5.60512532 5.85990374 7.19610364 11.81477205 7.18359375 19.80859375 C6.75 21.875 6.75 21.875 3.75 23.875 C0.92016801 24.04693073 -1.80881873 24.10708437 -4.63671875 24.0703125 C-5.45372757 24.0674826 -6.27073639 24.06465271 -7.11250305 24.06173706 C-9.72098459 24.05054541 -12.3291223 24.0254429 -14.9375 24 C-16.70637525 23.98996888 -18.47525588 23.98084326 -20.24414062 23.97265625 C-24.57955949 23.95060942 -28.91472145 23.9160867 -33.25 23.875 C-32.46666428 25.1706542 -31.67784781 26.46299592 -30.88671875 27.75390625 C-30.44803467 28.47392822 -30.00935059 29.1939502 -29.55737305 29.93579102 C-27.26485235 33.33625635 -24.98795849 34.45292437 -21.0625 35.40625 C-15.01762131 36.38854279 -11.01629002 35.42202838 -5.57421875 32.6875 C-2.69897936 31.6823743 -1.1246281 31.95049649 1.75 32.875 C3.75 34.875 3.75 34.875 3.875 37.25 C2.34236961 40.82613757 0.29330529 41.50433116 -3.14453125 43.078125 C-10.84694024 45.99332247 -20.52510137 46.43385874 -28.1875 43.25 C-34.12935219 40.11863283 -39.33029644 36.03881862 -42.25 29.875 C-44.55227131 22.38037212 -44.24029732 13.89402754 -40.640625 6.91015625 C-31.09681624 -7.05704701 -13.68408335 -8.94728527 0 0 Z M-31.0625 9.875 C-33.54458608 12.66019765 -33.54458608 12.66019765 -33.25 15.875 C-23.02 15.875 -12.79 15.875 -2.25 15.875 C-5.24716489 8.39829248 -5.24716489 8.39829248 -11.25 3.875 C-13.18359586 3.72648156 -15.12342097 3.65369167 -17.0625 3.625 C-18.10019531 3.59921875 -19.13789063 3.5734375 -20.20703125 3.546875 C-24.94280915 4.05753654 -28.08006446 6.23926906 -31.0625 9.875 Z " fill="#FEFEFE" transform="translate(380.25,60.125)"/>
<path d="M0 0 C3.5625 0.1875 3.5625 0.1875 5.5625 2.1875 C5.80806371 4.90750357 5.93606486 7.53324257 5.9765625 10.2578125 C5.99592865 11.05404022 6.0152948 11.85026794 6.0352478 12.67062378 C6.09510474 15.21780634 6.14145279 17.76503395 6.1875 20.3125 C6.22567421 22.0377803 6.26472561 23.76304143 6.3046875 25.48828125 C6.40081109 29.72119876 6.48481908 33.95420549 6.5625 38.1875 C7.55507812 37.32753418 8.54765625 36.46756836 9.5703125 35.58154297 C13.2152729 32.42739279 16.88386673 29.30227037 20.5625 26.1875 C21.3875 25.48367187 22.2125 24.77984375 23.0625 24.0546875 C26.27822342 21.45447364 27.86169631 20.26258611 32.0625 19.8125 C32.8875 19.93625 33.7125 20.06 34.5625 20.1875 C35.2225 21.8375 35.8825 23.4875 36.5625 25.1875 C33.02848313 29.72648212 29.36762302 33.15462214 24.75 36.5625 C24.15251953 37.01238281 23.55503906 37.46226563 22.93945312 37.92578125 C21.48521849 39.0193657 20.0245285 40.10435736 18.5625 41.1875 C20.15044878 44.95446739 22.53801512 47.52793817 25.3125 50.5 C26.20195312 51.46808594 27.09140625 52.43617187 28.0078125 53.43359375 C29.51516629 55.05849347 31.02838141 56.67804572 32.5546875 58.28515625 C34.88123312 60.81764011 36.45129055 62.56194684 37.0625 66 C36.5625 68.1875 36.5625 68.1875 34.5625 70.1875 C31.84765625 70.7265625 31.84765625 70.7265625 28.5625 70.1875 C26.02928521 68.28055009 24.05330742 65.96649007 22 63.5625 C21.44892578 62.94503906 20.89785156 62.32757813 20.33007812 61.69140625 C16.99015931 57.92755943 13.7672245 54.06658924 10.5625 50.1875 C8.5825 50.6825 8.5825 50.6825 6.5625 51.1875 C6.52511719 52.30769531 6.48773438 53.42789063 6.44921875 54.58203125 C6.38355743 56.0547209 6.31711014 57.52737566 6.25 59 C6.21616211 60.10698242 6.21616211 60.10698242 6.18164062 61.23632812 C5.91156544 66.66238417 5.91156544 66.66238417 4.21484375 69.21484375 C2.5625 70.1875 2.5625 70.1875 -0.5625 69.9375 C-3.4375 69.1875 -3.4375 69.1875 -4.4375 68.1875 C-4.53693972 66.10674591 -4.56549596 64.02258152 -4.56689453 61.93945312 C-4.56864685 61.28742416 -4.57039917 60.6353952 -4.57220459 59.96360779 C-4.57662204 57.79862847 -4.57368551 55.63373021 -4.5703125 53.46875 C-4.57098557 51.97041813 -4.57195562 50.47208637 -4.57321167 48.97375488 C-4.5746885 45.82966067 -4.57253458 42.68559483 -4.56787109 39.54150391 C-4.5621738 35.50263461 -4.56545289 31.46383176 -4.57144356 27.4249649 C-4.57504958 24.3298492 -4.57391039 21.23474935 -4.57131577 18.13963318 C-4.57064661 16.65001925 -4.57147452 15.1604039 -4.57379532 13.67079163 C-4.57632253 11.59233765 -4.57248033 9.51399269 -4.56689453 7.43554688 C-4.56609894 6.25053589 -4.56530334 5.0655249 -4.56448364 3.84460449 C-4.37353208 -0.15101455 -4.11774711 0.22460439 0 0 Z " fill="#FEFEFE" transform="translate(165.4375,34.8125)"/>
<path d="M0 0 C2.6875 1.9375 2.6875 1.9375 4 4 C3.7 8.3 3.7 8.3 2 10 C-2.78873941 10.57008803 -4.95734975 9.40877794 -8.9375 6.89453125 C-14.11724225 4.64801425 -20.68349555 5.4685479 -26 7 C-25.77611195 9.984318 -25.77611195 9.984318 -24 13 C-20.75009231 14.54525691 -17.31614559 15.23246709 -13.8125 16 C-6.52673009 17.62911625 -1.08586279 19.28872026 4 25 C5.60937584 28.21875167 5.4623984 31.5092177 5 35 C2.42928392 40.14143216 -1.19919593 43.72456239 -6.74609375 45.5859375 C-16.21557242 47.32556443 -26.49765941 46.74140852 -35 42 C-37.3046875 40.0234375 -37.3046875 40.0234375 -39 38 C-38.9375 35.375 -38.9375 35.375 -38 33 C-35 31 -35 31 -32.8125 31.125 C-30.32751203 31.89810737 -28.65461087 32.76995196 -26.4375 34.0625 C-21.26552954 36.76177601 -15.7023347 36.90422736 -10 36 C-7.6807719 34.58588763 -7.6807719 34.58588763 -6 33 C-6.33665915 30.51751876 -6.33665915 30.51751876 -8 28 C-10.85077426 26.54146433 -13.91590053 25.8241616 -17 25 C-19.2535776 24.36676332 -21.50349481 23.72038688 -23.75 23.0625 C-24.81734375 22.76472656 -25.8846875 22.46695313 -26.984375 22.16015625 C-31.02670667 20.60501052 -33.89990312 18.66163887 -36.30859375 15.0234375 C-37.6056041 11.22766709 -37.23183156 7.78067451 -36 4 C-27.49948968 -7.04599281 -11.1832083 -6.23431727 0 0 Z " fill="#FEFEFE" transform="translate(145,59)"/>
<path d="M0 0 C6.875 0.875 6.875 0.875 8 2 C8.07313567 4.53049402 8.09247527 7.03304837 8.0625 9.5625 C8.05798828 10.27341797 8.05347656 10.98433594 8.04882812 11.71679688 C8.03700864 13.47790013 8.01907263 15.23896036 8 17 C8.68707031 16.96519531 9.37414062 16.93039063 10.08203125 16.89453125 C10.98308594 16.86746094 11.88414063 16.84039062 12.8125 16.8125 C14.15248047 16.76029297 14.15248047 16.76029297 15.51953125 16.70703125 C18.41647515 17.04918998 19.22555028 17.75393573 21 20 C19.25 24.875 19.25 24.875 17 26 C15.45976004 26.06950541 13.91665012 26.08452357 12.375 26.0625 C11.14910156 26.04896484 11.14910156 26.04896484 9.8984375 26.03515625 C9.27195312 26.02355469 8.64546875 26.01195313 8 26 C8.08090706 29.91751068 8.19374932 33.83346816 8.3125 37.75 C8.33505859 38.86117187 8.35761719 39.97234375 8.38085938 41.1171875 C8.4340332 42.72207031 8.4340332 42.72207031 8.48828125 44.359375 C8.51446533 45.34389648 8.54064941 46.32841797 8.56762695 47.34277344 C9.06075146 50.37335906 9.90300126 51.78734255 12 54 C13.93945442 54.54455929 13.93945442 54.54455929 16 54.5 C19.76388889 54.80555556 19.76388889 54.80555556 22.125 56.75 C23 59 23 59 22.3125 61.6875 C21 64 21 64 19 65 C12.6278083 65.54932687 8.32489132 64.60909301 3 61 C-1.56001605 56.67998479 -2.80146415 51.39282497 -3.15869141 45.28808594 C-3.19594909 42.35615462 -3.17501599 39.43170624 -3.125 36.5 C-3.11597656 35.48679688 -3.10695313 34.47359375 -3.09765625 33.4296875 C-3.07429007 30.95287199 -3.04153168 28.47656621 -3 26 C-4.134375 25.855625 -5.26875 25.71125 -6.4375 25.5625 C-10 25 -10 25 -11 24 C-11.1875 21.5625 -11.1875 21.5625 -11 19 C-9 17 -9 17 -5.875 16.875 C-4.451875 16.936875 -4.451875 16.936875 -3 17 C-3.03480469 16.10796875 -3.06960937 15.2159375 -3.10546875 14.296875 C-3.13253906 13.12640625 -3.15960937 11.9559375 -3.1875 10.75 C-3.22230469 9.58984375 -3.25710937 8.4296875 -3.29296875 7.234375 C-2.97982934 3.77731593 -2.34290892 2.48434437 0 0 Z " fill="#FEFEFE" transform="translate(13,40)"/>
</svg>
