<?xml version="1.0" standalone="no"?>
<!DOCTYPE svg PUBLIC "-//W3C//DTD SVG 20010904//EN" "http://www.w3.org/TR/2001/REC-SVG-20010904/DTD/svg10.dtd">
<svg version="1.0" xmlns="http://www.w3.org/2000/svg" width="3000.000000pt" height="2000.000000pt"
    viewBox="0 0 3000.000000 2000.000000" preserveAspectRatio="xMidYMid meet">

    <g transform="translate(0.000000,2000.000000) scale(0.100000,-0.100000)" fill="#FFFFFF" stroke="none">
        <path d="M23430 10660 l0 -1690 565 0 565 0 0 570 c0 314 4 570 9 570 4 0 142
-240 306 -532 165 -293 309 -550 322 -570 l23 -38 656 0 c560 0 655 2 651 14
-3 8 -186 301 -407 652 -220 350 -402 640 -403 644 -1 4 172 233 384 511 212
277 389 510 393 517 6 9 -123 12 -631 12 l-638 0 -324 -465 c-177 -256 -327
-465 -332 -465 -5 0 -9 407 -9 980 l0 980 -565 0 -565 0 0 -1690z" />
        <path d="M14070 10540 l0 -1570 913 0 c501 0 1003 5 1113 10 340 16 506 50
693 141 87 43 118 65 182 129 63 63 85 94 122 171 25 52 53 123 62 159 22 89
31 301 16 382 -16 81 -86 227 -145 300 -104 130 -278 237 -453 280 -51 12 -90
25 -85 28 4 4 39 17 77 29 174 56 340 163 418 268 94 129 137 276 137 470 0
147 -18 235 -69 338 -103 209 -298 335 -627 407 -98 21 -113 22 -1226 25
l-1128 4 0 -1571z m1618 965 c172 -41 255 -135 255 -290 0 -88 -24 -146 -83
-198 -88 -80 -162 -97 -437 -104 l-223 -6 0 307 0 306 213 0 c152 0 230 -4
275 -15z m45 -1259 c170 -47 241 -134 241 -296 1 -76 -3 -91 -29 -139 -32 -59
-90 -112 -151 -137 -95 -41 -137 -46 -366 -51 l-228 -5 0 327 0 328 238 -6
c172 -4 253 -9 295 -21z" />
        <path d="M18315 11363 c-176 -11 -391 -48 -594 -103 l-81 -22 0 -324 c0 -178
2 -324 4 -324 2 0 37 14 77 31 276 118 528 168 789 156 231 -11 356 -51 435
-140 44 -48 75 -121 75 -175 0 -23 -2 -24 -47 -19 -387 50 -778 26 -1039 -62
-157 -53 -252 -109 -355 -211 -71 -70 -94 -101 -127 -170 -58 -121 -73 -185
-79 -341 -4 -108 -2 -153 12 -214 64 -288 311 -471 697 -516 340 -39 667 71
835 282 26 34 56 71 65 82 17 21 17 14 18 -150 l0 -173 525 0 526 0 -3 813
c-3 806 -4 813 -26 891 -116 415 -462 633 -1085 685 -115 10 -495 12 -622 4z
m705 -1418 c0 -183 -90 -347 -223 -406 -68 -30 -199 -33 -269 -6 -144 56 -175
255 -58 369 77 75 194 101 478 107 l72 1 0 -65z" />
        <path d="M22027 11354 c-234 -42 -438 -183 -534 -370 l-38 -74 -5 203 -5 202
-532 3 -533 2 0 -1175 0 -1175 565 0 564 0 3 763 3 763 26 49 c37 74 82 97
181 93 92 -4 121 -21 158 -94 l25 -49 5 -760 5 -760 563 -3 563 -2 -3 917 c-4
1028 1 954 -79 1122 -68 145 -199 255 -369 311 -147 48 -401 63 -563 34z" />
    </g>
</svg>