<?xml version="1.0" standalone="no"?>
<!DOCTYPE svg PUBLIC "-//W3C//DTD SVG 20010904//EN"
 "http://www.w3.org/TR/2001/REC-SVG-20010904/DTD/svg10.dtd">
<svg version="1.0" xmlns="http://www.w3.org/2000/svg"
 width="250.000000pt" height="61.000000pt" viewBox="0 0 250.000000 61.000000"
 preserveAspectRatio="xMidYMid meet">

<g transform="translate(0.000000,61.000000) scale(0.100000,-0.100000)"
fill="#FFFFFF" stroke="none">
<path d="M335 568 c-3 -7 -25 -98 -50 -203 -25 -104 -48 -198 -51 -207 -5 -17
9 -18 189 -18 250 0 231 -17 235 211 l3 169 -30 30 -29 30 -132 0 c-95 0 -132
-3 -135 -12z"/>
<path d="M1459 479 c-34 -20 -69 -64 -69 -87 0 -5 12 -12 26 -15 20 -3 27 1
34 18 21 57 103 73 145 30 14 -13 25 -33 25 -44 0 -16 -10 -20 -62 -26 -109
-12 -163 -44 -174 -100 -12 -65 47 -125 121 -125 31 0 101 34 108 52 3 7 6 1
6 -14 1 -24 5 -28 31 -28 l30 0 0 133 c0 111 -3 137 -19 163 -37 62 -134 82
-202 43z m161 -194 c0 -60 -47 -105 -110 -105 -31 0 -70 30 -70 53 0 43 56 74
138 76 39 1 42 -1 42 -24z"/>
<path d="M1895 488 c-11 -6 -30 -20 -42 -31 l-23 -20 0 26 c0 23 -4 27 -30 27
l-30 0 0 -175 0 -175 30 0 30 0 0 100 c0 107 12 151 48 183 43 39 137 15 144
-35 2 -18 9 -22 28 -20 37 4 41 13 21 58 -28 62 -118 94 -176 62z"/>
<path d="M2270 489 c-13 -6 -33 -17 -42 -26 -17 -15 -18 -15 -18 5 0 18 -6 22
-30 22 l-30 0 0 -240 0 -240 30 0 30 0 0 86 0 85 31 -22 c71 -50 184 -27 231
49 33 54 33 161 -1 216 -39 62 -132 92 -201 65z m118 -65 c51 -34 65 -132 27
-190 -42 -64 -147 -64 -185 -1 -26 43 -26 121 0 164 31 51 102 63 158 27z"/>
<path d="M22 467 c-21 -22 -22 -32 -22 -196 0 -169 0 -172 25 -196 23 -24 29
-25 158 -25 126 0 135 1 140 20 5 19 0 20 -69 20 -51 0 -74 4 -74 12 0 11 74
327 86 371 5 15 -5 17 -109 17 -106 0 -115 -2 -135 -23z"/>
<path d="M850 484 c0 -4 23 -82 52 -175 l51 -169 31 0 31 0 39 130 c22 72 41
128 43 126 3 -2 22 -60 43 -128 37 -120 38 -123 68 -126 l31 -3 41 133 c23 73
47 152 55 176 l14 42 -32 0 -32 0 -34 -122 c-19 -68 -37 -126 -40 -130 -3 -4
-24 51 -45 123 l-39 129 -31 0 -31 0 -39 -131 c-22 -71 -43 -124 -46 -117 -4
7 -22 66 -40 131 -32 114 -33 117 -61 117 -16 0 -29 -3 -29 -6z"/>
</g>
</svg>
