<?xml version="1.0" encoding="UTF-8"?>
<svg version="1.1" xmlns="http://www.w3.org/2000/svg" width="250" height="61">
<path d="M0 0 C4.05664947 -0.0990914 8.1128277 -0.17157106 12.17041016 -0.21972656 C13.5497668 -0.23980642 14.92903869 -0.26707666 16.30810547 -0.30175781 C18.29356979 -0.35042817 20.27966254 -0.37086418 22.265625 -0.390625 C24.05661621 -0.4220459 24.05661621 -0.4220459 25.88378906 -0.45410156 C29 -0 29 -0 31.38549805 1.51879883 C33.62645388 4.96274774 33.59268982 8.10944339 33.56640625 12.08984375 C33.57570412 13.26215294 33.57570412 13.26215294 33.58518982 14.45814514 C33.59228103 16.10807044 33.58912605 17.7580674 33.57641602 19.40795898 C33.56256154 21.9263144 33.59660976 24.44094345 33.63476562 26.95898438 C33.63571702 28.56510507 33.63385691 30.1712304 33.62890625 31.77734375 C33.64216446 32.52644516 33.65542267 33.27554657 33.66908264 34.04734802 C33.60306636 37.77378013 33.08981307 39.86530245 31.01074219 42.98339844 C26.93889634 45.7107295 23.99023116 45.64179422 19.19921875 45.48828125 C17.9446563 45.47766914 17.9446563 45.47766914 16.66474915 45.46684265 C14.00473948 45.43894985 11.34686861 45.37622481 8.6875 45.3125 C6.87958779 45.28741034 5.07164243 45.26459833 3.26367188 45.24414062 C-1.15837073 45.18914042 -5.57882331 45.10290643 -10 45 C-9.42798804 38.90293244 -8.46586861 33.16892309 -6.93359375 27.24609375 C-6.73524429 26.45977066 -6.53689484 25.67344757 -6.33253479 24.86329651 C-5.70643592 22.38657585 -5.0721292 19.91204697 -4.4375 17.4375 C-4.0079156 15.74427955 -3.57887424 14.05092122 -3.15039062 12.35742188 C-2.10652271 8.23666296 -1.05529554 4.11784652 0 0 Z " fill="#FFFFFF" transform="translate(33,3)"/>
<path d="M0 0 C0.92143799 0.00999023 1.84287598 0.01998047 2.79223633 0.03027344 C3.94747803 0.06668945 5.10271973 0.10310547 6.29296875 0.140625 C9.98484375 0.223125 13.67671875 0.305625 17.48046875 0.390625 C14.51046875 13.260625 11.54046875 26.130625 8.48046875 39.390625 C15.41046875 39.885625 15.41046875 39.885625 22.48046875 40.390625 C22.15046875 42.040625 21.82046875 43.690625 21.48046875 45.390625 C16.89734791 45.50667598 12.31460426 45.57782862 7.73046875 45.640625 C6.42851562 45.67414062 5.1265625 45.70765625 3.78515625 45.7421875 C2.53476563 45.75507812 1.284375 45.76796875 -0.00390625 45.78125 C-1.73205566 45.8126709 -1.73205566 45.8126709 -3.49511719 45.84472656 C-6.51953125 45.390625 -6.51953125 45.390625 -8.89135742 43.88769531 C-11.18303363 40.37303581 -11.11190533 37.11040583 -11.0859375 33.046875 C-11.09213608 32.24076782 -11.09833466 31.43466064 -11.10472107 30.60412598 C-11.11181249 28.90292568 -11.10865695 27.20165588 -11.09594727 25.50048828 C-11.08207466 22.89876613 -11.11616373 20.30063746 -11.15429688 17.69921875 C-11.15524806 16.04426995 -11.15338926 14.38931666 -11.1484375 12.734375 C-11.16169571 11.95823853 -11.17495392 11.18210205 -11.18861389 10.38244629 C-11.12373543 6.61621109 -10.84475386 4.76071589 -8.32519531 1.89355469 C-5.22702055 0.23393375 -3.48721433 -0.07792658 0 0 Z " fill="#FFFFFF" transform="translate(10.51953125,10.609375)"/>
<path d="M0 0 C2.31 0 4.62 0 7 0 C7.17128418 0.55461914 7.34256836 1.10923828 7.51904297 1.68066406 C8.30080459 4.20489368 9.08784628 6.72744691 9.875 9.25 C10.14441406 10.12269531 10.41382812 10.99539062 10.69140625 11.89453125 C10.95566406 12.73886719 11.21992187 13.58320313 11.4921875 14.453125 C11.73308105 15.22817383 11.97397461 16.00322266 12.22216797 16.80175781 C13.0748306 19.35506023 13.0748306 19.35506023 15 23 C17.31 15.41 19.62 7.82 22 0 C24.31 0 26.62 0 29 0 C33 12 33 12 37 24 C40.465 12.12 40.465 12.12 44 0 C46.31 0 48.62 0 51 0 C50.40858852 4.85592172 49.42430833 9.32451741 47.96875 13.9921875 C47.67478333 14.93930099 47.67478333 14.93930099 47.37487793 15.9055481 C46.96390228 17.22559156 46.55033994 18.5448323 46.13427734 19.86328125 C45.4957021 21.88863153 44.86641693 23.91670309 44.23828125 25.9453125 C41.14289794 35.85710206 41.14289794 35.85710206 40 37 C38.00041636 37.04080783 35.99954746 37.04254356 34 37 C30.80801153 29.47845271 28.30861576 21.83455774 26 14 C22.80801153 21.52154729 20.30861576 29.16544226 18 37 C15.69 37 13.38 37 11 37 C6.77165204 24.77843439 2.87265642 12.61470865 0 0 Z " fill="#FFFFFF" transform="translate(84,11)"/>
<path d="M0 0 C2.31 0 4.62 0 7 0 C7.33 0.66 7.66 1.32 8 2 C8.54011719 1.67773438 9.08023438 1.35546875 9.63671875 1.0234375 C14.64143987 -1.14389628 21.01299187 -0.88602195 26.19921875 0.65234375 C29.78609202 2.46523197 32.53316806 5.07803007 34.34375 8.67578125 C36.12275612 14.97642791 36.14710608 22.20267113 33.6640625 28.2578125 C31.23312356 32.26372596 28.23523831 34.88238084 24 37 C22.25430713 37.14832685 20.50174763 37.22128283 18.75 37.25 C17.81671875 37.27578125 16.8834375 37.3015625 15.921875 37.328125 C12.44002454 36.93711506 10.03430028 35.70567176 7 34 C7.01160156 35.07121094 7.02320313 36.14242187 7.03515625 37.24609375 C7.04453299 38.64322743 7.05363331 40.04036299 7.0625 41.4375 C7.07087891 42.14455078 7.07925781 42.85160156 7.08789062 43.58007812 C7.09653588 45.38693559 7.05220011 47.19387603 7 49 C6.505 49.495 6.505 49.495 6 50 C4.02 50 2.04 50 0 50 C0 33.5 0 17 0 0 Z M9 9 C6.10449569 13.39317896 5.44121634 16.78468583 6 22 C7.5611641 26.05902667 9.01426566 29.06099411 13 31 C18.13635325 31.70114392 18.13635325 31.70114392 22.81640625 29.9453125 C25.89958808 27.43419091 27.8172046 25.59815407 28.2734375 21.609375 C28.6013666 15.01852993 28.6013666 15.01852993 25.625 9.375 C22.53495461 6.57924465 21.82395282 6.06218512 17.6875 5.75 C13.70107385 6.02026618 12.04454416 6.46287986 9 9 Z " fill="#FFFFFF" transform="translate(215,11)"/>
<path d="M0 0 C3.68134154 3.06778461 4.95345759 5.93746565 6 10.5 C6.34207473 14.84286176 6.28472562 19.1472836 6.1875 23.5 C6.16719727 25.23443359 6.16719727 25.23443359 6.14648438 27.00390625 C6.11137044 29.83643004 6.06219 32.66796307 6 35.5 C3.69 35.5 1.38 35.5 -1 35.5 C-1.33 34.18 -1.66 32.86 -2 31.5 C-2.598125 32.16 -3.19625 32.82 -3.8125 33.5 C-8.45509172 36.41299873 -12.65205673 36.29866796 -18 35.5 C-21.1499545 34.19108687 -23.43610174 32.62779651 -25 29.5 C-25.63590718 24.87604639 -25.71515872 21.56120327 -23.0625 17.625 C-16.58565714 13.13086414 -9.73101423 12.11357256 -2 11.5 C-3.08784968 8.25016865 -3.08784968 8.25016865 -5 5.5 C-8.0722941 5.00768512 -10.94025092 4.9062375 -14 5.5 C-16.63844898 8.32857071 -16.63844898 8.32857071 -18 11.5 C-20.31 11.17 -22.62 10.84 -25 10.5 C-23.25038544 5.95100213 -21.87333999 2.64708874 -18 -0.5 C-12.32069944 -2.39310019 -5.48476178 -2.66034386 0 0 Z M-16.75390625 20.9140625 C-18.22512339 22.504631 -18.22512339 22.504631 -18.3125 25.0625 C-18.22966747 27.67796419 -18.22966747 27.67796419 -16 29.5 C-12.56186318 30.77702225 -10.9467516 30.48439271 -7.375 29.4375 C-3.46016934 27.19009721 -2.46201696 25.71404887 -1 21.5 C-1 20.18 -1 18.86 -1 17.5 C-6.12174384 17.16956491 -12.64310965 17.59978996 -16.75390625 20.9140625 Z " fill="#FFFFFF" transform="translate(163,12.5)"/>
<path d="M0 0 C2.31 0 4.62 0 7 0 C7.33 1.32 7.66 2.64 8 4 C8.763125 3.34 9.52625 2.68 10.3125 2 C14.86218192 -0.99718382 19.76403457 -0.99263599 25 0 C28.03145186 1.50245337 30.08155495 3.21008464 32 6 C32.9375 9.875 32.9375 9.875 33 13 C30.69 13.33 28.38 13.66 26 14 C25.54625 13.030625 25.0925 12.06125 24.625 11.0625 C23.34213779 7.92920418 23.34213779 7.92920418 21 7 C17.51449234 6.84845619 14.27936444 6.73709493 11 8 C7.52018707 13.76756773 7.48043944 21.02245824 7.3125 27.5625 C7.27833984 28.47580078 7.24417969 29.38910156 7.20898438 30.33007812 C7.12750642 32.55326229 7.05804262 34.77610197 7 37 C4.69 37 2.38 37 0 37 C0 24.79 0 12.58 0 0 Z " fill="#FFFFFF" transform="translate(176,11)"/>
</svg>
