<svg width="168" height="242" viewBox="0 0 168 242" fill="none" xmlns="http://www.w3.org/2000/svg">
<g filter="url(#filter0_d_349_256)">
<rect x="69" y="198" width="27" height="36" fill="#876A59"/>
</g>
<g filter="url(#filter1_d_349_256)">
<path d="M83.3646 81.0138L145.552 178.014L154.848 192.514L161.74 203.264H4.98926L21.8183 177.014L31.1144 162.514L83.3646 81.0138Z" fill="#82A169"/>
<path d="M31.1144 162.514C28.0312 165.847 21.0647 172.614 17.8647 173.014C14.6647 173.414 19.1671 175.847 21.8183 177.014L31.1144 162.514Z" fill="#82A169"/>
<path d="M158.365 189.014C155.665 188.614 148.698 181.514 145.552 178.014L154.848 192.514C157.145 191.514 161.065 189.414 158.365 189.014Z" fill="#82A169"/>
</g>
<g filter="url(#filter2_d_349_256)">
<path d="M83.3118 59.0138L130.585 125.014L141.329 140.014L154.759 158.764H11.8647L83.3118 59.0138Z" fill="#82A169"/>
<path d="M148.312 140.014C145.312 138.014 138.312 132.014 130.585 125.014L141.329 140.014C143.323 140.014 149.56 140.846 148.312 140.014Z" fill="#82A169"/>
</g>
<g filter="url(#filter3_d_349_256)">
<path d="M83.365 28.0138L139.224 114.264H27.5063L36.8264 99.8729L46.8647 84.373L83.365 28.0138Z" fill="#82A169"/>
<path d="M46.8647 84.373C42.9745 88.873 34.5941 98.0729 32.1941 98.8729C29.7941 99.673 34.2823 99.8729 36.8264 99.8729L46.8647 84.373Z" fill="#82A169"/>
</g>
<g filter="url(#filter4_d_349_256)">
<path d="M83.2905 0.0137939L126.592 75.0138H39.9893L83.2905 0.0137939Z" fill="#82A169"/>
<path d="M57.8871 44.0138L68.8568 25.0138C65.493 29.0138 56.0327 36.7138 51.2327 37.5138C46.4327 38.3138 53.7785 42.5138 57.8871 44.0138Z" fill="#82A169"/>
<path d="M109.118 44.748L117.932 60.0138C120.862 59.0138 126.832 59.0138 123.791 57.0138C120.75 55.0138 111.959 47.0813 109.118 44.748Z" fill="#82A169"/>
</g>
<g filter="url(#filter5_d_349_256)">
<path d="M104.489 102.014C109.49 103.014 116.99 110.473 124.49 107.993C131.99 105.514 141.254 112.014 140.489 114.264C139.724 116.514 30.5241 115.514 27.507 114.264C24.4899 113.014 29.9893 107.493 34.9893 107.993C39.9893 108.493 45.9893 99.3342 54.4893 102.014C62.9893 104.694 69.9893 103.514 76.4893 107.014C82.9893 110.514 99.4886 101.014 104.489 102.014Z" fill="#EBDEFC"/>
</g>
<g filter="url(#filter6_d_349_256)">
<path d="M56.5137 147.503C50.0591 148.498 40.3785 155.914 30.6979 153.448C21.0173 150.983 9.05914 157.446 10.0466 159.683C11.0341 161.92 151.984 160.926 155.879 159.683C159.773 158.44 152.674 152.951 146.221 153.448C139.767 153.946 132.023 144.839 121.051 147.503C110.08 150.168 101.045 148.994 92.6547 152.474C84.2648 155.954 62.9683 146.509 56.5137 147.503Z" fill="#EBDEFC"/>
</g>
<g filter="url(#filter7_d_349_256)">
<path d="M54.6278 190.573C49.2664 188.132 33.989 199.362 26.529 197.368C19.069 195.373 2.97662 201.936 4.05144 204.493C5.12625 207.05 158.541 205.913 162.78 204.493C167.019 203.072 158.489 197.368 151.489 195.014C144.488 192.66 140.931 195.969 128.989 199.014C117.047 202.059 104.621 189.037 95.489 193.014C86.3571 196.991 59.9893 193.014 54.6278 190.573Z" fill="#EBDEFC"/>
</g>
<g filter="url(#filter8_d_349_256)">
<path d="M83.2906 0.0137194C87.4893 1.01372 119.989 61.0137 119.989 61.0137C117.489 61.5138 89.4893 41.5137 82.9893 41.5137C76.4894 41.5137 55.9893 53.0137 51.9893 53.0137C47.9893 53.0137 79.092 -0.986281 83.2906 0.0137194Z" fill="#EBDEFC"/>
<path d="M57.8872 44.0137L63.372 34.5137L68.8569 25.0137C65.4931 29.0137 56.0328 36.7137 51.2328 37.5137C46.4328 38.3137 53.7786 42.5137 57.8872 44.0137Z" fill="#EBDEFC"/>
<path d="M109.118 44.7479L119.989 61.0137C120.989 61.0138 126.832 59.0137 123.791 57.0137C120.75 55.0137 111.959 47.0812 109.118 44.7479Z" fill="#EBDEFC"/>
</g>
<defs>
<filter id="filter0_d_349_256" x="65" y="198" width="35" height="44" filterUnits="userSpaceOnUse" color-interpolation-filters="sRGB">
<feFlood flood-opacity="0" result="BackgroundImageFix"/>
<feColorMatrix in="SourceAlpha" type="matrix" values="0 0 0 0 0 0 0 0 0 0 0 0 0 0 0 0 0 0 127 0" result="hardAlpha"/>
<feOffset dy="4"/>
<feGaussianBlur stdDeviation="2"/>
<feComposite in2="hardAlpha" operator="out"/>
<feColorMatrix type="matrix" values="0 0 0 0 0 0 0 0 0 0 0 0 0 0 0 0 0 0 0.25 0"/>
<feBlend mode="normal" in2="BackgroundImageFix" result="effect1_dropShadow_349_256"/>
<feBlend mode="normal" in="SourceGraphic" in2="effect1_dropShadow_349_256" result="shape"/>
</filter>
<filter id="filter1_d_349_256" x="0.989258" y="81.0138" width="164.75" height="130.25" filterUnits="userSpaceOnUse" color-interpolation-filters="sRGB">
<feFlood flood-opacity="0" result="BackgroundImageFix"/>
<feColorMatrix in="SourceAlpha" type="matrix" values="0 0 0 0 0 0 0 0 0 0 0 0 0 0 0 0 0 0 127 0" result="hardAlpha"/>
<feOffset dy="4"/>
<feGaussianBlur stdDeviation="2"/>
<feComposite in2="hardAlpha" operator="out"/>
<feColorMatrix type="matrix" values="0 0 0 0 0 0 0 0 0 0 0 0 0 0 0 0 0 0 0.25 0"/>
<feBlend mode="normal" in2="BackgroundImageFix" result="effect1_dropShadow_349_256"/>
<feBlend mode="normal" in="SourceGraphic" in2="effect1_dropShadow_349_256" result="shape"/>
</filter>
<filter id="filter2_d_349_256" x="7.86475" y="59.0138" width="150.894" height="107.75" filterUnits="userSpaceOnUse" color-interpolation-filters="sRGB">
<feFlood flood-opacity="0" result="BackgroundImageFix"/>
<feColorMatrix in="SourceAlpha" type="matrix" values="0 0 0 0 0 0 0 0 0 0 0 0 0 0 0 0 0 0 127 0" result="hardAlpha"/>
<feOffset dy="4"/>
<feGaussianBlur stdDeviation="2"/>
<feComposite in2="hardAlpha" operator="out"/>
<feColorMatrix type="matrix" values="0 0 0 0 0 0 0 0 0 0 0 0 0 0 0 0 0 0 0.25 0"/>
<feBlend mode="normal" in2="BackgroundImageFix" result="effect1_dropShadow_349_256"/>
<feBlend mode="normal" in="SourceGraphic" in2="effect1_dropShadow_349_256" result="shape"/>
</filter>
<filter id="filter3_d_349_256" x="23.5063" y="28.0138" width="119.717" height="94.25" filterUnits="userSpaceOnUse" color-interpolation-filters="sRGB">
<feFlood flood-opacity="0" result="BackgroundImageFix"/>
<feColorMatrix in="SourceAlpha" type="matrix" values="0 0 0 0 0 0 0 0 0 0 0 0 0 0 0 0 0 0 127 0" result="hardAlpha"/>
<feOffset dy="4"/>
<feGaussianBlur stdDeviation="2"/>
<feComposite in2="hardAlpha" operator="out"/>
<feColorMatrix type="matrix" values="0 0 0 0 0 0 0 0 0 0 0 0 0 0 0 0 0 0 0.25 0"/>
<feBlend mode="normal" in2="BackgroundImageFix" result="effect1_dropShadow_349_256"/>
<feBlend mode="normal" in="SourceGraphic" in2="effect1_dropShadow_349_256" result="shape"/>
</filter>
<filter id="filter4_d_349_256" x="35.9893" y="0.0137939" width="94.6025" height="83" filterUnits="userSpaceOnUse" color-interpolation-filters="sRGB">
<feFlood flood-opacity="0" result="BackgroundImageFix"/>
<feColorMatrix in="SourceAlpha" type="matrix" values="0 0 0 0 0 0 0 0 0 0 0 0 0 0 0 0 0 0 127 0" result="hardAlpha"/>
<feOffset dy="4"/>
<feGaussianBlur stdDeviation="2"/>
<feComposite in2="hardAlpha" operator="out"/>
<feColorMatrix type="matrix" values="0 0 0 0 0 0 0 0 0 0 0 0 0 0 0 0 0 0 0.25 0"/>
<feBlend mode="normal" in2="BackgroundImageFix" result="effect1_dropShadow_349_256"/>
<feBlend mode="normal" in="SourceGraphic" in2="effect1_dropShadow_349_256" result="shape"/>
</filter>
<filter id="filter5_d_349_256" x="22.6465" y="101.522" width="121.887" height="22.0807" filterUnits="userSpaceOnUse" color-interpolation-filters="sRGB">
<feFlood flood-opacity="0" result="BackgroundImageFix"/>
<feColorMatrix in="SourceAlpha" type="matrix" values="0 0 0 0 0 0 0 0 0 0 0 0 0 0 0 0 0 0 127 0" result="hardAlpha"/>
<feOffset dy="4"/>
<feGaussianBlur stdDeviation="2"/>
<feComposite in2="hardAlpha" operator="out"/>
<feColorMatrix type="matrix" values="0 0 0 0 0 0 0 0 0 0 0 0 0 0 0 0 0 0 0.25 0"/>
<feBlend mode="normal" in2="BackgroundImageFix" result="effect1_dropShadow_349_256"/>
<feBlend mode="normal" in="SourceGraphic" in2="effect1_dropShadow_349_256" result="shape"/>
</filter>
<filter id="filter6_d_349_256" x="5.98926" y="147.014" width="155" height="22" filterUnits="userSpaceOnUse" color-interpolation-filters="sRGB">
<feFlood flood-opacity="0" result="BackgroundImageFix"/>
<feColorMatrix in="SourceAlpha" type="matrix" values="0 0 0 0 0 0 0 0 0 0 0 0 0 0 0 0 0 0 127 0" result="hardAlpha"/>
<feOffset dy="4"/>
<feGaussianBlur stdDeviation="2"/>
<feComposite in2="hardAlpha" operator="out"/>
<feColorMatrix type="matrix" values="0 0 0 0 0 0 0 0 0 0 0 0 0 0 0 0 0 0 0.25 0"/>
<feBlend mode="normal" in2="BackgroundImageFix" result="effect1_dropShadow_349_256"/>
<feBlend mode="normal" in="SourceGraphic" in2="effect1_dropShadow_349_256" result="shape"/>
</filter>
<filter id="filter7_d_349_256" x="0" y="190.224" width="167.912" height="23.7898" filterUnits="userSpaceOnUse" color-interpolation-filters="sRGB">
<feFlood flood-opacity="0" result="BackgroundImageFix"/>
<feColorMatrix in="SourceAlpha" type="matrix" values="0 0 0 0 0 0 0 0 0 0 0 0 0 0 0 0 0 0 127 0" result="hardAlpha"/>
<feOffset dy="4"/>
<feGaussianBlur stdDeviation="2"/>
<feComposite in2="hardAlpha" operator="out"/>
<feColorMatrix type="matrix" values="0 0 0 0 0 0 0 0 0 0 0 0 0 0 0 0 0 0 0.25 0"/>
<feBlend mode="normal" in2="BackgroundImageFix" result="effect1_dropShadow_349_256"/>
<feBlend mode="normal" in="SourceGraphic" in2="effect1_dropShadow_349_256" result="shape"/>
</filter>
<filter id="filter8_d_349_256" x="45.6611" y="0" width="82.9985" height="69.0229" filterUnits="userSpaceOnUse" color-interpolation-filters="sRGB">
<feFlood flood-opacity="0" result="BackgroundImageFix"/>
<feColorMatrix in="SourceAlpha" type="matrix" values="0 0 0 0 0 0 0 0 0 0 0 0 0 0 0 0 0 0 127 0" result="hardAlpha"/>
<feOffset dy="4"/>
<feGaussianBlur stdDeviation="2"/>
<feComposite in2="hardAlpha" operator="out"/>
<feColorMatrix type="matrix" values="0 0 0 0 0 0 0 0 0 0 0 0 0 0 0 0 0 0 0.25 0"/>
<feBlend mode="normal" in2="BackgroundImageFix" result="effect1_dropShadow_349_256"/>
<feBlend mode="normal" in="SourceGraphic" in2="effect1_dropShadow_349_256" result="shape"/>
</filter>
</defs>
</svg>
