<svg width="157" height="204" viewBox="0 0 157 204" fill="none" xmlns="http://www.w3.org/2000/svg">
<g filter="url(#filter0_d_349_255)">
<rect x="64.0107" y="150" width="27" height="36" fill="#876A59"/>
</g>
<g filter="url(#filter1_d_349_255)">
<path d="M78.3224 59.0138L31.0492 125.014L20.3052 140.014L6.87534 158.764H149.77L78.3224 59.0138Z" fill="#82A169"/>
<path d="M13.3223 140.014C16.3223 138.014 23.3223 132.014 31.0492 125.014L20.3052 140.014C18.3109 140.014 12.0742 140.846 13.3223 140.014Z" fill="#82A169"/>
</g>
<g filter="url(#filter2_d_349_255)">
<path d="M78.3757 28.0138L22.5171 114.264H134.234L124.914 99.8729L114.876 84.373L78.3757 28.0138Z" fill="#82A169"/>
<path d="M114.876 84.373C118.766 88.873 127.147 98.0729 129.547 98.8729C131.947 99.673 127.458 99.8729 124.914 99.8729L114.876 84.373Z" fill="#82A169"/>
</g>
<g filter="url(#filter3_d_349_255)">
<path d="M78.3013 0.0137939L35 75.0138H121.603L78.3013 0.0137939Z" fill="#82A169"/>
<path d="M103.705 44.0138L92.735 25.0138C96.0988 29.0138 105.559 36.7138 110.359 37.5138C115.159 38.3138 107.813 42.5138 103.705 44.0138Z" fill="#82A169"/>
<path d="M52.474 44.748L43.6602 60.0138C40.7296 59.0138 34.7598 59.0138 37.8008 57.0138C40.8418 55.0138 49.6324 47.0813 52.474 44.748Z" fill="#82A169"/>
</g>
<defs>
<filter id="filter0_d_349_255" x="60.0107" y="150" width="35" height="44" filterUnits="userSpaceOnUse" color-interpolation-filters="sRGB">
<feFlood flood-opacity="0" result="BackgroundImageFix"/>
<feColorMatrix in="SourceAlpha" type="matrix" values="0 0 0 0 0 0 0 0 0 0 0 0 0 0 0 0 0 0 127 0" result="hardAlpha"/>
<feOffset dy="4"/>
<feGaussianBlur stdDeviation="2"/>
<feComposite in2="hardAlpha" operator="out"/>
<feColorMatrix type="matrix" values="0 0 0 0 0 0 0 0 0 0 0 0 0 0 0 0 0 0 0.25 0"/>
<feBlend mode="normal" in2="BackgroundImageFix" result="effect1_dropShadow_349_255"/>
<feBlend mode="normal" in="SourceGraphic" in2="effect1_dropShadow_349_255" result="shape"/>
</filter>
<filter id="filter1_d_349_255" x="2.87549" y="59.0138" width="150.894" height="107.75" filterUnits="userSpaceOnUse" color-interpolation-filters="sRGB">
<feFlood flood-opacity="0" result="BackgroundImageFix"/>
<feColorMatrix in="SourceAlpha" type="matrix" values="0 0 0 0 0 0 0 0 0 0 0 0 0 0 0 0 0 0 127 0" result="hardAlpha"/>
<feOffset dy="4"/>
<feGaussianBlur stdDeviation="2"/>
<feComposite in2="hardAlpha" operator="out"/>
<feColorMatrix type="matrix" values="0 0 0 0 0 0 0 0 0 0 0 0 0 0 0 0 0 0 0.25 0"/>
<feBlend mode="normal" in2="BackgroundImageFix" result="effect1_dropShadow_349_255"/>
<feBlend mode="normal" in="SourceGraphic" in2="effect1_dropShadow_349_255" result="shape"/>
</filter>
<filter id="filter2_d_349_255" x="18.5171" y="28.0138" width="119.717" height="94.25" filterUnits="userSpaceOnUse" color-interpolation-filters="sRGB">
<feFlood flood-opacity="0" result="BackgroundImageFix"/>
<feColorMatrix in="SourceAlpha" type="matrix" values="0 0 0 0 0 0 0 0 0 0 0 0 0 0 0 0 0 0 127 0" result="hardAlpha"/>
<feOffset dy="4"/>
<feGaussianBlur stdDeviation="2"/>
<feComposite in2="hardAlpha" operator="out"/>
<feColorMatrix type="matrix" values="0 0 0 0 0 0 0 0 0 0 0 0 0 0 0 0 0 0 0.25 0"/>
<feBlend mode="normal" in2="BackgroundImageFix" result="effect1_dropShadow_349_255"/>
<feBlend mode="normal" in="SourceGraphic" in2="effect1_dropShadow_349_255" result="shape"/>
</filter>
<filter id="filter3_d_349_255" x="31" y="0.0137939" width="94.6025" height="83" filterUnits="userSpaceOnUse" color-interpolation-filters="sRGB">
<feFlood flood-opacity="0" result="BackgroundImageFix"/>
<feColorMatrix in="SourceAlpha" type="matrix" values="0 0 0 0 0 0 0 0 0 0 0 0 0 0 0 0 0 0 127 0" result="hardAlpha"/>
<feOffset dy="4"/>
<feGaussianBlur stdDeviation="2"/>
<feComposite in2="hardAlpha" operator="out"/>
<feColorMatrix type="matrix" values="0 0 0 0 0 0 0 0 0 0 0 0 0 0 0 0 0 0 0.25 0"/>
<feBlend mode="normal" in2="BackgroundImageFix" result="effect1_dropShadow_349_255"/>
<feBlend mode="normal" in="SourceGraphic" in2="effect1_dropShadow_349_255" result="shape"/>
</filter>
</defs>
</svg>
