<svg width="37" height="36" viewBox="0 0 37 36" fill="none" xmlns="http://www.w3.org/2000/svg"><path d="M18.11 13.5a4.5 4.5 0 1 0 0 9 4.5 4.5 0 0 0 0-9m0-3a7.5 7.5 0 1 1 0 15 7.5 7.5 0 0 1 0-15m9.75-.375a1.875 1.875 0 1 1-3.75 0 1.875 1.875 0 0 1 3.75 0M18.11 6c-3.711 0-4.317.01-6.043.087-1.177.056-1.966.213-2.697.498A4.35 4.35 0 0 0 7.75 7.64a4.35 4.35 0 0 0-1.056 1.62c-.285.735-.443 1.522-.497 2.697-.078 1.656-.088 2.234-.088 6.043 0 3.712.01 4.317.087 6.044.055 1.174.213 1.965.496 2.695a4.4 4.4 0 0 0 1.053 1.62c.506.504.975.805 1.62 1.054.741.287 1.53.446 2.7.5 1.656.078 2.235.087 6.044.087 3.712 0 4.316-.01 6.043-.087 1.173-.055 1.962-.213 2.695-.497a4.35 4.35 0 0 0 1.62-1.054 4.3 4.3 0 0 0 1.056-1.62c.285-.738.445-1.527.498-2.7.078-1.655.087-2.235.087-6.042 0-3.711-.01-4.317-.087-6.043-.055-1.174-.214-1.966-.498-2.698a4.35 4.35 0 0 0-1.054-1.62 4.35 4.35 0 0 0-1.62-1.056c-.735-.285-1.524-.442-2.697-.496C22.497 6.009 21.919 6 18.108 6m0-3c4.076 0 4.584.015 6.185.09 1.596.075 2.685.326 3.64.698.99.38 1.825.897 2.659 1.729a7.35 7.35 0 0 1 1.729 2.658c.37.955.623 2.044.698 3.642.07 1.599.09 2.108.09 6.183 0 4.076-.016 4.584-.09 6.183-.075 1.599-.328 2.685-.698 3.642a7.35 7.35 0 0 1-1.73 2.658 7.35 7.35 0 0 1-2.658 1.73c-.955.37-2.044.622-3.64.697-1.6.07-2.109.09-6.184.09s-4.585-.015-6.185-.09c-1.596-.075-2.683-.327-3.64-.697a7.35 7.35 0 0 1-2.658-1.73 7.35 7.35 0 0 1-1.73-2.658c-.372-.956-.622-2.044-.697-3.642-.072-1.599-.09-2.107-.09-6.183s.015-4.584.09-6.183.325-2.685.697-3.642a7.35 7.35 0 0 1 1.73-2.658 7.35 7.35 0 0 1 2.658-1.73c.955-.371 2.042-.622 3.64-.697 1.602-.07 2.11-.09 6.186-.09" fill="#533688"/></svg>