<svg viewBox="0 0 580 282" fill="none" xmlns="http://www.w3.org/2000/svg"><path d="M.647 281.118H580L344.178 136.44l-54.777 31.693-54.43-31.693z" fill="#553C8B"/><path fill-rule="evenodd" clip-rule="evenodd" d="M234.971 136.44.647 0v281.118zM580 281.118 344.178 136.44 580 0z" fill="#553C8B"/><path d="M580 0H.647L234.97 136.44l54.43 31.693 54.777-31.693z" fill="#856ABF"/><path d="M234.933 133.525 9.909 2.5h560.778L344.216 133.53l-1.29.746-3.631 2.101-49.89 28.865-49.573-28.865-3.603-2.097zm114.129 2.978L577.5 4.335V276.65zm-4.921 2.847 227.003 139.268H9.454L235.01 139.355l53.134 30.938 1.254.73 1.256-.726zm-114.03-2.847L3.147 276.637V4.349z" stroke="#fff" stroke-width="5"/><path d="M289.505 134a4.06 4.06 0 0 1 4.071 4.062v3.822l1.909-1.905a3.045 3.045 0 0 1 4.312 0c1.184 1.194 1.196 3.124 0 4.304l-6.234 6.221v8.925l7.812-4.545 2.252-8.392a3.06 3.06 0 0 1 3.74-2.158 3.05 3.05 0 0 1 2.163 3.732l-.661 2.451 3.002-1.752a4.09 4.09 0 0 1 5.573 1.46 4.06 4.06 0 0 1-1.464 5.56l-3.218 1.879 2.76.736a3.05 3.05 0 0 1 2.163 3.733 3.06 3.06 0 0 1-3.74 2.158l-8.613-2.298-7.748 4.507 7.748 4.507 8.613-2.298a3.06 3.06 0 0 1 3.74 2.158 3.05 3.05 0 0 1-2.163 3.733l-2.76.736 3.218 1.879a4.057 4.057 0 0 1 1.464 5.56c-1.133 1.943-3.626 2.59-5.573 1.46l-3.002-1.752.661 2.451a3.05 3.05 0 0 1-2.163 3.732 3.06 3.06 0 0 1-3.74-2.158l-2.252-8.392-7.799-4.545v8.925l6.234 6.221a3.03 3.03 0 0 1 0 4.304c-1.196 1.18-3.13 1.193-4.313 0l-1.908-1.905v3.822a4.06 4.06 0 0 1-4.071 4.062 4.063 4.063 0 0 1-4.072-4.062v-3.822l-1.908 1.905a3.046 3.046 0 0 1-4.313 0c-1.183-1.194-1.196-3.124 0-4.304l6.234-6.221v-8.925l-7.811 4.545-2.252 8.392a3.06 3.06 0 0 1-3.741 2.158 3.05 3.05 0 0 1-2.162-3.732l.661-2.451-3.028 1.74a4.087 4.087 0 0 1-5.572-1.46c-1.133-1.93-.471-4.431 1.463-5.561l3.219-1.879-2.761-.736a3.05 3.05 0 0 1-2.163-3.733 3.06 3.06 0 0 1 3.74-2.158l8.613 2.298 7.761-4.494-7.748-4.507-8.613 2.298a3.06 3.06 0 0 1-3.74-2.158 3.05 3.05 0 0 1 2.162-3.733l2.761-.736-3.219-1.879a4.047 4.047 0 0 1-1.463-5.548 4.09 4.09 0 0 1 5.573-1.46l3.002 1.752-.661-2.45a3.05 3.05 0 0 1 2.163-3.732 3.06 3.06 0 0 1 3.74 2.158l2.252 8.391 7.799 4.533v-8.925l-6.234-6.221a3.03 3.03 0 0 1 0-4.304c1.196-1.18 3.129-1.193 4.313 0l1.908 1.905.013-3.822a4.06 4.06 0 0 1 4.071-4.062" fill="#EBDEFC"/></svg>