<svg fill="none" height="25px" viewBox="0 0 60 25" width="60px" xmlns="http://www.w3.org/2000/svg" xmlns:xlink="http://www.w3.org/1999/xlink" transform="rotate(0) scale(1, 1)"><clipPath id="a"><path d="m.5 0h59v25h-59z"/></clipPath><g clip-path="url(#a)" clip-rule="evenodd" fill="#ffffff" fill-rule="evenodd"><path d="m19.386.258621c.3956.172414.7396.413793 1.0321.706896.2924.293103.516.637933.7052 1.034483.172.39655.258.82759.258 1.27586v16.34484c0 .1552-.0516.2759-.1548.3793s-.2236.1552-.3784.1552h-3.9047c-.1548 0-.2752-.0518-.3612-.1552s-.1376-.2241-.1376-.3793v-14.86208h-3.1478v14.86208c0 .1552-.0516.2759-.1376.3793s-.2237.1552-.3613.1552h-3.5434c-.15481 0-.27522-.0518-.37842-.1552-.10321-.1034-.15482-.2241-.15482-.3793v-14.86208h-3.14781v14.86208c0 .3621-.17201.5345-.53323.5345h-3.87027c-.36122 0-.533231-.1724-.533231-.5345v-19.086217c0-.362069.172011-.534483.533231-.534483h16.92595c.4644 0 .8773.0862069 1.2901.258621z"/><path d="m38.3939 15.2586c.1548 0 .2924.0517.3784.1552.1032.1034.1548.2414.1548.3965v3.8104c0 .1552-.0516.2758-.1548.3965-.1032.1035-.2236.1552-.3784.1552h-13.3653c-.3784 0-.5677-.1896-.5677-.5517v-19.068976c0-.362069.1893-.551724.5677-.551724h4.0939c.3784 0 .5676.189655.5676.551724v14.206876c0 .1552.0516.2759.172.3793.1032.1035.2408.138.3956.138h8.1362z"/><path d="m58.9314 0c.1548 0 .2924.0517241.3956.155172.1032.103449.1721.24138.1721.396552v19.120676c0 .1552-.0516.2759-.1721.3966-.1032.1034-.2408.1551-.3956.1551h-4.1627c-.1548 0-.2924-.0517-.3956-.1551-.1032-.1035-.172-.2414-.172-.3966v-6.6724c0-.1552-.0516-.2759-.1548-.3793-.1032-.1035-.2236-.1379-.3956-.1379h-5.8312c-.1548 0-.2924.0517-.3957.1379-.1032.1034-.172.2241-.172.3793v6.6724c0 .3621-.1892.5517-.5676.5517h-4.1283c-.3784 0-.5676-.1896-.5676-.5517v-19.120676c0-.362069.1892-.551724.5676-.551724h4.1283c.3784 0 .5676.189655.5676.551724v6.465516c0 .36207.1892.55173.5677.55173h5.8312c.1548 0 .2924-.05173.3956-.15518.1032-.10344.1548-.24138.1548-.39655v-6.465516c0-.155172.0516-.275862.172-.396552.1032-.1034479.2408-.155172.3956-.155172z"/></g></svg>