<svg width="37" height="36" viewBox="0 0 37 36" fill="none" xmlns="http://www.w3.org/2000/svg">
<g id="mdi:linkedin">
<path id="Vector" d="M29.2798 4.5C30.0754 4.5 30.8385 4.81607 31.4011 5.37868C31.9637 5.94129 32.2798 6.70435 32.2798 7.5V28.5C32.2798 29.2956 31.9637 30.0587 31.4011 30.6213C30.8385 31.1839 30.0754 31.5 29.2798 31.5L8.27979 31.5C7.48414 31.5 6.72107 31.1839 6.15846 30.6213C5.59586 30.0587 5.27979 29.2956 5.27979 28.5L5.27979 7.5C5.27979 6.70435 5.59586 5.94129 6.15846 5.37868C6.72107 4.81607 7.48414 4.5 8.27979 4.5L29.2798 4.5ZM28.5298 27.75V19.8C28.5298 18.5031 28.0146 17.2593 27.0975 16.3422C26.1805 15.4252 24.9367 14.91 23.6398 14.91C22.3648 14.91 20.8798 15.69 20.1598 16.86V15.195H15.9748L15.9748 27.75L20.1598 27.75L20.1598 20.355C20.1598 19.2 21.0898 18.255 22.2448 18.255C22.8017 18.255 23.3359 18.4762 23.7297 18.8701C24.1235 19.2639 24.3448 19.798 24.3448 20.355V27.75H28.5298ZM11.0998 12.84C11.7681 12.84 12.4091 12.5745 12.8817 12.1019C13.3543 11.6293 13.6198 10.9883 13.6198 10.32C13.6198 8.925 12.4948 7.785 11.0998 7.785C10.4275 7.785 9.78267 8.05208 9.30727 8.52748C8.83186 9.00289 8.56479 9.64768 8.56479 10.32C8.56479 11.715 9.70479 12.84 11.0998 12.84ZM13.1848 27.75L13.1848 15.195L9.02979 15.195L9.02979 27.75H13.1848Z" fill="#F8F8F8"/>
</g>
</svg>
