<svg width="37" height="36" viewBox="0 0 37 36" fill="none" xmlns="http://www.w3.org/2000/svg">
<g id="ri:instagram-line">
<path id="Vector" d="M18.7813 13.5C17.5878 13.5 16.4432 13.9741 15.5993 14.818C14.7554 15.6619 14.2813 16.8065 14.2813 18C14.2813 19.1935 14.7554 20.3381 15.5993 21.182C16.4432 22.0259 17.5878 22.5 18.7813 22.5C19.9748 22.5 21.1194 22.0259 21.9633 21.182C22.8072 20.3381 23.2813 19.1935 23.2813 18C23.2813 16.8065 22.8072 15.6619 21.9633 14.818C21.1194 13.9741 19.9748 13.5 18.7813 13.5ZM18.7813 10.5C20.7704 10.5 22.6781 11.2902 24.0846 12.6967C25.4911 14.1032 26.2813 16.0109 26.2813 18C26.2813 19.9891 25.4911 21.8968 24.0846 23.3033C22.6781 24.7098 20.7704 25.5 18.7813 25.5C16.7922 25.5 14.8845 24.7098 13.478 23.3033C12.0715 21.8968 11.2813 19.9891 11.2813 18C11.2813 16.0109 12.0715 14.1032 13.478 12.6967C14.8845 11.2902 16.7922 10.5 18.7813 10.5ZM28.5313 10.125C28.5313 10.6223 28.3337 11.0992 27.9821 11.4508C27.6305 11.8025 27.1536 12 26.6563 12C26.159 12 25.6821 11.8025 25.3305 11.4508C24.9788 11.0992 24.7813 10.6223 24.7813 10.125C24.7813 9.62772 24.9788 9.15081 25.3305 8.79917C25.6821 8.44754 26.159 8.25 26.6563 8.25C27.1536 8.25 27.6305 8.44754 27.9821 8.79917C28.3337 9.15081 28.5313 9.62772 28.5313 10.125ZM18.7813 6C15.0703 6 14.4643 6.0105 12.7378 6.087C11.5618 6.1425 10.7728 6.3 10.0408 6.585C9.42853 6.81056 8.87487 7.17095 8.42078 7.6395C7.95169 8.09343 7.59078 8.64711 7.36478 9.2595C7.07978 9.9945 6.92229 10.782 6.86829 11.9565C6.79029 13.6125 6.77979 14.1915 6.77979 18C6.77979 21.7125 6.79029 22.317 6.86679 24.0435C6.92229 25.218 7.07979 26.0085 7.36329 26.739C7.61829 27.3915 7.91829 27.861 8.41629 28.359C8.92179 28.863 9.39128 29.1645 10.0363 29.4135C10.7773 29.7 11.5663 29.859 12.7363 29.913C14.3923 29.991 14.9713 30 18.7798 30C22.4923 30 23.0968 29.9895 24.8233 29.913C25.9963 29.8575 26.7853 29.7 27.5188 29.4165C28.131 29.1909 28.6847 28.8305 29.1388 28.362C29.6443 27.858 29.9458 27.3885 30.1948 26.742C30.4798 26.004 30.6388 25.215 30.6928 24.042C30.7708 22.3875 30.7798 21.807 30.7798 18C30.7798 14.289 30.7693 13.683 30.6928 11.9565C30.6373 10.7835 30.4783 9.9915 30.1948 9.2595C29.9692 8.64725 29.6088 8.09358 29.1403 7.6395C28.6864 7.17041 28.1327 6.80949 27.5203 6.5835C26.7853 6.2985 25.9963 6.141 24.8233 6.087C23.1688 6.009 22.5898 6 18.7798 6M18.7798 3C22.8553 3 23.3638 3.015 24.9643 3.09C26.5603 3.165 27.6493 3.4155 28.6048 3.7875C29.5948 4.1685 30.4288 4.6845 31.2628 5.517C32.0258 6.2666 32.6161 7.17371 32.9923 8.175C33.3628 9.1305 33.6148 10.2195 33.6898 11.817C33.7603 13.416 33.7798 13.9245 33.7798 18C33.7798 22.0755 33.7648 22.584 33.6898 24.183C33.6148 25.782 33.3628 26.868 32.9923 27.825C32.6161 28.8263 32.0258 29.7334 31.2628 30.483C30.5132 31.246 29.6061 31.8363 28.6048 32.2125C27.6493 32.583 26.5603 32.835 24.9643 32.91C23.3638 32.9805 22.8553 33 18.7798 33C14.7043 33 14.1958 32.985 12.5953 32.91C10.9993 32.835 9.91179 32.583 8.95478 32.2125C7.95349 31.8363 7.04638 31.246 6.29679 30.483C5.53374 29.7334 4.94351 28.8263 4.56729 27.825C4.19529 26.8695 3.94479 25.7805 3.86979 24.183C3.79779 22.584 3.77979 22.0755 3.77979 18C3.77979 13.9245 3.79479 13.416 3.86979 11.817C3.94479 10.218 4.19529 9.132 4.56729 8.175C4.94351 7.17371 5.53374 6.2666 6.29679 5.517C7.04638 4.75396 7.95349 4.16372 8.95478 3.7875C9.91028 3.4155 10.9978 3.165 12.5953 3.09C14.1973 3.0195 14.7058 3 18.7813 3" fill="#F8F8F8"/>
</g>
</svg>
