<svg width="37" height="36" viewBox="0 0 37 36" fill="none" xmlns="http://www.w3.org/2000/svg">
<g id="ic:baseline-tiktok">
<path id="Vector" d="M25.6798 8.73C24.6547 7.55929 24.0896 6.0561 24.0898 4.5L19.4548 4.5L19.4548 23.1C19.4198 24.1068 18.9951 25.0606 18.2702 25.7602C17.5454 26.4599 16.5772 26.8506 15.5698 26.85C13.4398 26.85 11.6698 25.11 11.6698 22.95C11.6698 20.37 14.1598 18.435 16.7248 19.23V14.49C11.5498 13.8 7.01978 17.82 7.01978 22.95C7.01978 27.945 11.1598 31.5 15.5548 31.5C20.2648 31.5 24.0898 27.675 24.0898 22.95L24.0898 13.515C25.9693 14.8648 28.2258 15.589 30.5398 15.585L30.5398 10.95C30.5398 10.95 27.7198 11.085 25.6798 8.73Z" fill="#F8F8F8"/>
</g>
</svg>
