<svg width="115" height="152" viewBox="0 0 115 152" fill="none" xmlns="http://www.w3.org/2000/svg">
<path d="M61.7202 149.568C70.3041 150.782 90.5413 148.475 102.819 129.539C118.166 105.868 118.946 83.4979 102.819 68.6712C86.6915 53.8444 87.9921 50.723 83.5701 48.1218C87.9054 57.0526 92.9343 74.6539 90.0731 81.417C86.4898 89.8867 83.5701 91.5616 78.1076 91.5616C70.2436 91.5616 84.0903 68.4111 80.7088 56.9659C77.3272 45.5207 56.7779 29.6535 59.1189 19.5089C60.9918 11.3932 64.3213 3.03471 66.4023 0C54.6969 7.37001 29.2054 34.3356 28.1649 40.8385C26.084 53.8444 37.5292 71.342 37.5292 79.0759C37.5292 84.2783 27.345 89.0087 25.0436 84.2783C20.3614 74.6539 25.0436 68.6712 20.3614 56.9659C18.0203 52.9774 14.5348 44.2721 12.0377 43.4397C11.6909 51.5901 10.0088 69.2434 6.05498 74.6539C1.11274 81.417 -3.30927 106.909 3.4538 120.175C10.2169 133.441 35.1057 155.551 61.7202 149.568Z" fill="#EB7347"/>
<path d="M77.3272 33.035C79.8417 30.6072 83.6221 24.139 78.6278 17.688C78.9746 19.5956 79.2001 23.1505 77.3272 22.11C74.9862 20.8094 69.5237 14.5666 73.4254 5.20236C69.6104 6.67636 62.5525 12.3296 64.8415 23.1505C67.1306 33.9714 74.1191 34.2489 77.3272 33.035Z" fill="#EB7347"/>
<g filter="url(#filter0_d_273_3031)">
<path d="M61.98 143.845C69.9569 144.365 87.7837 139.943 95.2751 118.094C102.767 96.2436 98.3965 83.151 95.2751 79.336C96.8358 86.4459 88.7722 101.706 81.2288 102.747C66.142 104.828 67.9627 86.099 69.7835 79.336C71.6044 72.5729 74.986 64.5092 65.6217 51.7634C58.8993 42.6134 52.529 39.2778 51.055 38.2373C53.136 43.4397 54.1764 58.9947 51.055 62.9485C47.1533 67.8908 42.2111 73.3532 42.2111 81.4169C42.2111 88.4929 47.6736 102.226 37.529 106.648C27.3844 111.07 28.685 107.429 22.9624 94.4228C18.3843 84.0181 15.1588 82.8042 12.8177 83.4979C14.8987 88.0933 16.3554 98.3766 15.9392 102.747C15.4189 108.209 12.5576 124.336 24.5231 133.441C36.4885 142.545 48.974 143.845 61.98 143.845Z" fill="#EBA333"/>
</g>
<g filter="url(#filter1_d_273_3031)">
<path d="M64.0613 138.903C69.3504 138.73 82.2175 130.579 85.1308 112.891C81.0556 115.666 73.9457 120.435 68.4833 116.013C61.4216 110.296 65.8821 98.0647 62.2404 91.3016C59.1004 85.4701 55.8243 82.7177 54.6971 82.9778C55.4775 85.6657 56.2058 92.0299 52.8763 95.9837C48.7144 100.926 37.2692 113.672 42.9918 127.718C47.5699 138.955 58.9457 139.857 64.0613 138.903Z" fill="#F1C727"/>
</g>
<defs>
<filter id="filter0_d_273_3031" x="8.81775" y="38.2373" width="94.5938" height="113.647" filterUnits="userSpaceOnUse" color-interpolation-filters="sRGB">
<feFlood flood-opacity="0" result="BackgroundImageFix"/>
<feColorMatrix in="SourceAlpha" type="matrix" values="0 0 0 0 0 0 0 0 0 0 0 0 0 0 0 0 0 0 127 0" result="hardAlpha"/>
<feOffset dy="4"/>
<feGaussianBlur stdDeviation="2"/>
<feComposite in2="hardAlpha" operator="out"/>
<feColorMatrix type="matrix" values="0 0 0 0 0 0 0 0 0 0 0 0 0 0 0 0 0 0 0.25 0"/>
<feBlend mode="normal" in2="BackgroundImageFix" result="effect1_dropShadow_273_3031"/>
<feBlend mode="normal" in="SourceGraphic" in2="effect1_dropShadow_273_3031" result="shape"/>
</filter>
<filter id="filter1_d_273_3031" x="37.4211" y="82.9609" width="51.7097" height="64.2275" filterUnits="userSpaceOnUse" color-interpolation-filters="sRGB">
<feFlood flood-opacity="0" result="BackgroundImageFix"/>
<feColorMatrix in="SourceAlpha" type="matrix" values="0 0 0 0 0 0 0 0 0 0 0 0 0 0 0 0 0 0 127 0" result="hardAlpha"/>
<feOffset dy="4"/>
<feGaussianBlur stdDeviation="2"/>
<feComposite in2="hardAlpha" operator="out"/>
<feColorMatrix type="matrix" values="0 0 0 0 0 0 0 0 0 0 0 0 0 0 0 0 0 0 0.25 0"/>
<feBlend mode="normal" in2="BackgroundImageFix" result="effect1_dropShadow_273_3031"/>
<feBlend mode="normal" in="SourceGraphic" in2="effect1_dropShadow_273_3031" result="shape"/>
</filter>
</defs>
</svg>
