<svg width="214" height="519" viewBox="0 0 214 519" fill="none" xmlns="http://www.w3.org/2000/svg">
<g filter="url(#filter0_d_289_1523)">
<path d="M67.8572 424.636H13.0536V501.843H67.8572V424.636Z" fill="#876A59"/>
</g>
<g filter="url(#filter1_d_289_1523)">
<path d="M42.2103 173.744L168.436 381.774L187.305 412.871L201.294 435.926H-116.873L-82.714 379.629L-63.8452 348.532L42.2103 173.744Z" fill="#6C8558"/>
<path d="M194.443 405.365C188.963 404.507 174.822 389.28 168.436 381.774L187.305 412.871C191.967 410.726 199.924 406.223 194.443 405.365Z" fill="#6C8558"/>
</g>
<g filter="url(#filter2_d_289_1523)">
<path d="M42.1031 126.562L138.056 268.109L159.864 300.278L187.124 340.49H-102.917L42.1031 126.562Z" fill="#6C8558"/>
<path d="M174.038 300.278C167.949 295.989 153.74 283.121 138.056 268.109L159.864 300.278C163.912 300.278 176.571 302.062 174.038 300.278Z" fill="#6C8558"/>
</g>
<g filter="url(#filter3_d_289_1523)">
<path d="M42.2111 60.079L155.592 245.054H-71.1688L-52.2512 214.19L-31.8758 180.948L42.2111 60.079Z" fill="#6C8558"/>
</g>
<g filter="url(#filter4_d_289_1523)">
<path d="M42.0599 0.0293217L129.952 160.876H-45.8312L42.0599 0.0293217Z" fill="#6C8558"/>
<path d="M-9.50295 94.393L12.7629 53.6451C5.93521 62.2236 -13.2669 78.7372 -23.0098 80.4529C-32.7527 82.1686 -17.8424 91.1761 -9.50295 94.393Z" fill="#6C8558"/>
<path d="M94.4835 95.9676L112.374 128.707C118.321 126.562 130.439 126.562 124.266 122.273C118.094 117.984 100.25 100.972 94.4835 95.9676Z" fill="#6C8558"/>
</g>
<g filter="url(#filter5_d_289_1523)">
<path d="M85.0878 218.782C95.2386 220.927 110.462 236.923 125.685 231.605C140.908 226.288 159.712 240.228 158.159 245.054C156.606 249.879 -65.0433 247.735 -71.1673 245.054C-77.2913 242.373 -66.1289 230.533 -55.98 231.605C-45.8312 232.677 -33.6527 213.035 -16.3997 218.782C0.853294 224.53 15.0616 221.999 28.2551 229.505C41.4485 237.011 74.9382 216.637 85.0878 218.782Z" fill="#EBDEFC"/>
</g>
<g filter="url(#filter6_d_289_1523)">
<path d="M-12.2907 316.339C-25.392 318.473 -45.0413 334.378 -64.6906 329.089C-84.3399 323.802 -108.612 337.663 -106.608 342.461C-104.603 347.258 181.491 345.126 189.397 342.461C197.301 339.795 182.892 328.023 169.794 329.089C156.694 330.155 140.975 310.626 118.705 316.339C96.4362 322.052 78.0973 319.537 61.067 327C44.0375 334.463 0.810646 314.205 -12.2907 316.339Z" fill="#EBDEFC"/>
</g>
<g filter="url(#filter7_d_289_1523)">
<path d="M-16.1186 408.708C-27.001 403.473 -58.0105 427.557 -73.1525 423.281C-88.2945 419.002 -120.958 433.078 -118.777 438.561C-116.595 444.045 194.8 441.607 203.405 438.561C212.009 435.514 194.695 423.281 180.487 418.233C166.276 413.184 159.056 420.281 134.817 426.811C110.577 433.341 85.3557 405.414 66.8199 413.943C48.2843 422.472 -5.23604 413.943 -16.1186 408.708Z" fill="#EBDEFC"/>
</g>
<g filter="url(#filter8_d_289_1523)">
<path d="M42.0601 0.029423C50.5824 2.17405 116.549 130.852 116.549 130.852C111.475 131.924 54.642 89.0314 41.4485 89.0314C28.2553 89.0314 -13.3551 113.695 -21.4741 113.695C-29.5932 113.695 33.5379 -2.11521 42.0601 0.029423Z" fill="#EBDEFC"/>
<path d="M-9.50277 94.393L1.63008 74.019L12.7631 53.6451C5.93541 62.2236 -13.2668 78.7372 -23.0096 80.4529C-32.7525 82.1686 -17.8422 91.1761 -9.50277 94.393Z" fill="#EBDEFC"/>
<path d="M94.4835 95.9676L116.549 130.852C118.579 130.852 130.439 126.562 124.266 122.273C118.094 117.984 100.25 100.972 94.4835 95.9676Z" fill="#EBDEFC"/>
</g>
<defs>
<filter id="filter0_d_289_1523" x="9.05359" y="424.636" width="62.8036" height="85.2067" filterUnits="userSpaceOnUse" color-interpolation-filters="sRGB">
<feFlood flood-opacity="0" result="BackgroundImageFix"/>
<feColorMatrix in="SourceAlpha" type="matrix" values="0 0 0 0 0 0 0 0 0 0 0 0 0 0 0 0 0 0 127 0" result="hardAlpha"/>
<feOffset dy="4"/>
<feGaussianBlur stdDeviation="2"/>
<feComposite in2="hardAlpha" operator="out"/>
<feColorMatrix type="matrix" values="0 0 0 0 0 0 0 0 0 0 0 0 0 0 0 0 0 0 0.25 0"/>
<feBlend mode="normal" in2="BackgroundImageFix" result="effect1_dropShadow_289_1523"/>
<feBlend mode="normal" in="SourceGraphic" in2="effect1_dropShadow_289_1523" result="shape"/>
</filter>
<filter id="filter1_d_289_1523" x="-120.873" y="173.744" width="326.167" height="270.181" filterUnits="userSpaceOnUse" color-interpolation-filters="sRGB">
<feFlood flood-opacity="0" result="BackgroundImageFix"/>
<feColorMatrix in="SourceAlpha" type="matrix" values="0 0 0 0 0 0 0 0 0 0 0 0 0 0 0 0 0 0 127 0" result="hardAlpha"/>
<feOffset dy="4"/>
<feGaussianBlur stdDeviation="2"/>
<feComposite in2="hardAlpha" operator="out"/>
<feColorMatrix type="matrix" values="0 0 0 0 0 0 0 0 0 0 0 0 0 0 0 0 0 0 0.25 0"/>
<feBlend mode="normal" in2="BackgroundImageFix" result="effect1_dropShadow_289_1523"/>
<feBlend mode="normal" in="SourceGraphic" in2="effect1_dropShadow_289_1523" result="shape"/>
</filter>
<filter id="filter2_d_289_1523" x="-106.917" y="126.562" width="298.041" height="221.927" filterUnits="userSpaceOnUse" color-interpolation-filters="sRGB">
<feFlood flood-opacity="0" result="BackgroundImageFix"/>
<feColorMatrix in="SourceAlpha" type="matrix" values="0 0 0 0 0 0 0 0 0 0 0 0 0 0 0 0 0 0 127 0" result="hardAlpha"/>
<feOffset dy="4"/>
<feGaussianBlur stdDeviation="2"/>
<feComposite in2="hardAlpha" operator="out"/>
<feColorMatrix type="matrix" values="0 0 0 0 0 0 0 0 0 0 0 0 0 0 0 0 0 0 0.25 0"/>
<feBlend mode="normal" in2="BackgroundImageFix" result="effect1_dropShadow_289_1523"/>
<feBlend mode="normal" in="SourceGraphic" in2="effect1_dropShadow_289_1523" result="shape"/>
</filter>
<filter id="filter3_d_289_1523" x="-75.1688" y="60.079" width="234.76" height="192.975" filterUnits="userSpaceOnUse" color-interpolation-filters="sRGB">
<feFlood flood-opacity="0" result="BackgroundImageFix"/>
<feColorMatrix in="SourceAlpha" type="matrix" values="0 0 0 0 0 0 0 0 0 0 0 0 0 0 0 0 0 0 127 0" result="hardAlpha"/>
<feOffset dy="4"/>
<feGaussianBlur stdDeviation="2"/>
<feComposite in2="hardAlpha" operator="out"/>
<feColorMatrix type="matrix" values="0 0 0 0 0 0 0 0 0 0 0 0 0 0 0 0 0 0 0.25 0"/>
<feBlend mode="normal" in2="BackgroundImageFix" result="effect1_dropShadow_289_1523"/>
<feBlend mode="normal" in="SourceGraphic" in2="effect1_dropShadow_289_1523" result="shape"/>
</filter>
<filter id="filter4_d_289_1523" x="-49.8312" y="0.0293217" width="183.783" height="168.847" filterUnits="userSpaceOnUse" color-interpolation-filters="sRGB">
<feFlood flood-opacity="0" result="BackgroundImageFix"/>
<feColorMatrix in="SourceAlpha" type="matrix" values="0 0 0 0 0 0 0 0 0 0 0 0 0 0 0 0 0 0 127 0" result="hardAlpha"/>
<feOffset dy="4"/>
<feGaussianBlur stdDeviation="2"/>
<feComposite in2="hardAlpha" operator="out"/>
<feColorMatrix type="matrix" values="0 0 0 0 0 0 0 0 0 0 0 0 0 0 0 0 0 0 0.25 0"/>
<feBlend mode="normal" in2="BackgroundImageFix" result="effect1_dropShadow_289_1523"/>
<feBlend mode="normal" in="SourceGraphic" in2="effect1_dropShadow_289_1523" result="shape"/>
</filter>
<filter id="filter5_d_289_1523" x="-76.9139" y="217.726" width="239.163" height="38.1975" filterUnits="userSpaceOnUse" color-interpolation-filters="sRGB">
<feFlood flood-opacity="0" result="BackgroundImageFix"/>
<feColorMatrix in="SourceAlpha" type="matrix" values="0 0 0 0 0 0 0 0 0 0 0 0 0 0 0 0 0 0 127 0" result="hardAlpha"/>
<feOffset dy="4"/>
<feGaussianBlur stdDeviation="2"/>
<feComposite in2="hardAlpha" operator="out"/>
<feColorMatrix type="matrix" values="0 0 0 0 0 0 0 0 0 0 0 0 0 0 0 0 0 0 0.25 0"/>
<feBlend mode="normal" in2="BackgroundImageFix" result="effect1_dropShadow_289_1523"/>
<feBlend mode="normal" in="SourceGraphic" in2="effect1_dropShadow_289_1523" result="shape"/>
</filter>
<filter id="filter6_d_289_1523" x="-110.724" y="315.29" width="306.375" height="38.0246" filterUnits="userSpaceOnUse" color-interpolation-filters="sRGB">
<feFlood flood-opacity="0" result="BackgroundImageFix"/>
<feColorMatrix in="SourceAlpha" type="matrix" values="0 0 0 0 0 0 0 0 0 0 0 0 0 0 0 0 0 0 127 0" result="hardAlpha"/>
<feOffset dy="4"/>
<feGaussianBlur stdDeviation="2"/>
<feComposite in2="hardAlpha" operator="out"/>
<feColorMatrix type="matrix" values="0 0 0 0 0 0 0 0 0 0 0 0 0 0 0 0 0 0 0.25 0"/>
<feBlend mode="normal" in2="BackgroundImageFix" result="effect1_dropShadow_289_1523"/>
<feBlend mode="normal" in="SourceGraphic" in2="effect1_dropShadow_289_1523" result="shape"/>
</filter>
<filter id="filter7_d_289_1523" x="-122.881" y="407.96" width="332.583" height="41.8633" filterUnits="userSpaceOnUse" color-interpolation-filters="sRGB">
<feFlood flood-opacity="0" result="BackgroundImageFix"/>
<feColorMatrix in="SourceAlpha" type="matrix" values="0 0 0 0 0 0 0 0 0 0 0 0 0 0 0 0 0 0 127 0" result="hardAlpha"/>
<feOffset dy="4"/>
<feGaussianBlur stdDeviation="2"/>
<feComposite in2="hardAlpha" operator="out"/>
<feColorMatrix type="matrix" values="0 0 0 0 0 0 0 0 0 0 0 0 0 0 0 0 0 0 0.25 0"/>
<feBlend mode="normal" in2="BackgroundImageFix" result="effect1_dropShadow_289_1523"/>
<feBlend mode="normal" in="SourceGraphic" in2="effect1_dropShadow_289_1523" result="shape"/>
</filter>
<filter id="filter8_d_289_1523" x="-30.1998" y="0" width="160.229" height="138.871" filterUnits="userSpaceOnUse" color-interpolation-filters="sRGB">
<feFlood flood-opacity="0" result="BackgroundImageFix"/>
<feColorMatrix in="SourceAlpha" type="matrix" values="0 0 0 0 0 0 0 0 0 0 0 0 0 0 0 0 0 0 127 0" result="hardAlpha"/>
<feOffset dy="4"/>
<feGaussianBlur stdDeviation="2"/>
<feComposite in2="hardAlpha" operator="out"/>
<feColorMatrix type="matrix" values="0 0 0 0 0 0 0 0 0 0 0 0 0 0 0 0 0 0 0.25 0"/>
<feBlend mode="normal" in2="BackgroundImageFix" result="effect1_dropShadow_289_1523"/>
<feBlend mode="normal" in="SourceGraphic" in2="effect1_dropShadow_289_1523" result="shape"/>
</filter>
</defs>
</svg>
