<svg width="78" height="166" viewBox="0 0 78 166" fill="none" xmlns="http://www.w3.org/2000/svg">
<g clip-path="url(#clip0_397_3746)">
<g filter="url(#filter0_d_397_3746)">
<path d="M22.7143 135.818H1.98218V160.512H22.7143V135.818Z" fill="#876A59"/>
</g>
<g filter="url(#filter1_d_397_3746)">
<path d="M13.0121 55.5715L60.7632 122.109L67.9012 132.055L73.1932 139.429H-47.1689L-34.2466 121.423L-27.1086 111.477L13.0121 55.5715Z" fill="#82A169"/>
<path d="M70.6017 129.654C68.5285 129.38 63.1789 124.51 60.7632 122.109L67.9012 132.055C69.665 131.369 72.675 129.929 70.6017 129.654Z" fill="#82A169"/>
</g>
<g filter="url(#filter2_d_397_3746)">
<path d="M12.9715 40.4805L49.2706 85.7533L57.5204 96.0426L67.8328 108.904H-41.8896L12.9715 40.4805Z" fill="#82A169"/>
<path d="M62.8824 96.0427C60.5789 94.6708 55.2039 90.5551 49.2706 85.7534L57.5205 96.0427C59.0516 96.0427 63.8407 96.6134 62.8824 96.0427Z" fill="#82A169"/>
</g>
<g filter="url(#filter3_d_397_3746)">
<path d="M13.0123 19.2161L55.9041 78.3794H-29.8792L-22.7226 68.5078L-15.0147 57.8757L13.0123 19.2161Z" fill="#82A169"/>
</g>
<g filter="url(#filter4_d_397_3746)">
<path d="M12.9552 0.00952148L46.2046 51.4558H-20.2939L12.9552 0.00952148Z" fill="#82A169"/>
<path d="M-6.55097 30.1913L1.87219 17.1582C-0.710726 19.902 -7.97488 25.1838 -11.6606 25.7326C-15.3463 26.2813 -9.70579 29.1623 -6.55097 30.1913Z" fill="#82A169"/>
<path d="M32.787 30.6951L39.5549 41.1667C41.8047 40.4807 46.3888 40.4807 44.0538 39.1088C41.7187 37.7369 34.9685 32.2956 32.787 30.6951Z" fill="#82A169"/>
</g>
<g filter="url(#filter5_d_397_3746)">
<path d="M29.2326 69.9766C33.0727 70.6625 38.8316 75.779 44.5905 74.0779C50.3494 72.3774 57.4629 76.8361 56.8755 78.3795C56.2881 79.9228 -27.5619 79.2369 -29.8786 78.3795C-32.1953 77.522 -27.9725 73.7349 -24.1332 74.0779C-20.2939 74.4208 -15.6868 68.1384 -9.16001 69.9766C-2.63323 71.8149 2.74178 71.0055 7.73285 73.4063C12.7239 75.8071 25.393 69.2906 29.2326 69.9766Z" fill="#EBDEFC"/>
</g>
<g filter="url(#filter6_d_397_3746)">
<path d="M-7.60557 101.18C-12.5618 101.862 -19.9951 106.949 -27.4284 105.258C-34.8617 103.567 -44.0439 108 -43.2857 109.535C-42.5274 111.069 65.702 110.387 68.6928 109.535C71.6828 108.682 66.2318 104.917 61.2768 105.258C56.3211 105.599 50.3748 99.3525 41.9499 101.18C33.5257 103.008 26.5881 102.203 20.1456 104.59C13.7033 106.977 -2.64936 100.498 -7.60557 101.18Z" fill="#EBDEFC"/>
</g>
<g filter="url(#filter7_d_397_3746)">
<path d="M-9.05367 130.724C-13.1705 129.049 -24.9013 136.752 -30.6295 135.385C-36.3577 134.016 -48.7144 138.518 -47.8891 140.272C-47.0638 142.026 70.7368 141.246 73.9918 140.272C77.2467 139.297 70.6969 135.385 65.3219 133.77C59.9461 132.155 57.2149 134.425 48.0451 136.514C38.8754 138.602 29.334 129.67 22.3219 132.398C15.3099 135.126 -4.9368 132.398 -9.05367 130.724Z" fill="#EBDEFC"/>
</g>
<g filter="url(#filter8_d_397_3746)">
<path d="M12.9553 0.00941083C16.1793 0.695362 41.1344 41.8524 41.1344 41.8524C39.2148 42.1954 17.715 28.4763 12.7239 28.4763C7.73294 28.4763 -8.00821 36.3648 -11.0796 36.3648C-14.1511 36.3648 9.73136 -0.67654 12.9553 0.00941083Z" fill="#EBDEFC"/>
<path d="M-6.55085 30.1913L-2.3393 23.6747L1.87232 17.1582C-0.7106 19.902 -7.97476 25.1838 -11.6605 25.7326C-15.3462 26.2813 -9.70567 29.1623 -6.55085 30.1913Z" fill="#EBDEFC"/>
<path d="M32.7871 30.6948L41.1345 41.8524C41.9023 41.8524 46.3889 40.4805 44.0539 39.1086C41.7188 37.7367 34.9686 32.2954 32.7871 30.6948Z" fill="#EBDEFC"/>
</g>
</g>
<defs>
<filter id="filter0_d_397_3746" x="-2.01782" y="135.818" width="28.7322" height="32.6941" filterUnits="userSpaceOnUse" color-interpolation-filters="sRGB">
<feFlood flood-opacity="0" result="BackgroundImageFix"/>
<feColorMatrix in="SourceAlpha" type="matrix" values="0 0 0 0 0 0 0 0 0 0 0 0 0 0 0 0 0 0 127 0" result="hardAlpha"/>
<feOffset dy="4"/>
<feGaussianBlur stdDeviation="2"/>
<feComposite in2="hardAlpha" operator="out"/>
<feColorMatrix type="matrix" values="0 0 0 0 0 0 0 0 0 0 0 0 0 0 0 0 0 0 0.25 0"/>
<feBlend mode="normal" in2="BackgroundImageFix" result="effect1_dropShadow_397_3746"/>
<feBlend mode="normal" in="SourceGraphic" in2="effect1_dropShadow_397_3746" result="shape"/>
</filter>
<filter id="filter1_d_397_3746" x="-51.1689" y="55.5715" width="128.362" height="91.8577" filterUnits="userSpaceOnUse" color-interpolation-filters="sRGB">
<feFlood flood-opacity="0" result="BackgroundImageFix"/>
<feColorMatrix in="SourceAlpha" type="matrix" values="0 0 0 0 0 0 0 0 0 0 0 0 0 0 0 0 0 0 127 0" result="hardAlpha"/>
<feOffset dy="4"/>
<feGaussianBlur stdDeviation="2"/>
<feComposite in2="hardAlpha" operator="out"/>
<feColorMatrix type="matrix" values="0 0 0 0 0 0 0 0 0 0 0 0 0 0 0 0 0 0 0.25 0"/>
<feBlend mode="normal" in2="BackgroundImageFix" result="effect1_dropShadow_397_3746"/>
<feBlend mode="normal" in="SourceGraphic" in2="effect1_dropShadow_397_3746" result="shape"/>
</filter>
<filter id="filter2_d_397_3746" x="-45.8896" y="40.4805" width="117.722" height="76.4236" filterUnits="userSpaceOnUse" color-interpolation-filters="sRGB">
<feFlood flood-opacity="0" result="BackgroundImageFix"/>
<feColorMatrix in="SourceAlpha" type="matrix" values="0 0 0 0 0 0 0 0 0 0 0 0 0 0 0 0 0 0 127 0" result="hardAlpha"/>
<feOffset dy="4"/>
<feGaussianBlur stdDeviation="2"/>
<feComposite in2="hardAlpha" operator="out"/>
<feColorMatrix type="matrix" values="0 0 0 0 0 0 0 0 0 0 0 0 0 0 0 0 0 0 0.25 0"/>
<feBlend mode="normal" in2="BackgroundImageFix" result="effect1_dropShadow_397_3746"/>
<feBlend mode="normal" in="SourceGraphic" in2="effect1_dropShadow_397_3746" result="shape"/>
</filter>
<filter id="filter3_d_397_3746" x="-33.8792" y="19.2161" width="93.7832" height="67.1633" filterUnits="userSpaceOnUse" color-interpolation-filters="sRGB">
<feFlood flood-opacity="0" result="BackgroundImageFix"/>
<feColorMatrix in="SourceAlpha" type="matrix" values="0 0 0 0 0 0 0 0 0 0 0 0 0 0 0 0 0 0 127 0" result="hardAlpha"/>
<feOffset dy="4"/>
<feGaussianBlur stdDeviation="2"/>
<feComposite in2="hardAlpha" operator="out"/>
<feColorMatrix type="matrix" values="0 0 0 0 0 0 0 0 0 0 0 0 0 0 0 0 0 0 0.25 0"/>
<feBlend mode="normal" in2="BackgroundImageFix" result="effect1_dropShadow_397_3746"/>
<feBlend mode="normal" in="SourceGraphic" in2="effect1_dropShadow_397_3746" result="shape"/>
</filter>
<filter id="filter4_d_397_3746" x="-24.2939" y="0.00952148" width="74.4985" height="59.4463" filterUnits="userSpaceOnUse" color-interpolation-filters="sRGB">
<feFlood flood-opacity="0" result="BackgroundImageFix"/>
<feColorMatrix in="SourceAlpha" type="matrix" values="0 0 0 0 0 0 0 0 0 0 0 0 0 0 0 0 0 0 127 0" result="hardAlpha"/>
<feOffset dy="4"/>
<feGaussianBlur stdDeviation="2"/>
<feComposite in2="hardAlpha" operator="out"/>
<feColorMatrix type="matrix" values="0 0 0 0 0 0 0 0 0 0 0 0 0 0 0 0 0 0 0.25 0"/>
<feBlend mode="normal" in2="BackgroundImageFix" result="effect1_dropShadow_397_3746"/>
<feBlend mode="normal" in="SourceGraphic" in2="effect1_dropShadow_397_3746" result="shape"/>
</filter>
<filter id="filter5_d_397_3746" x="-34.5393" y="69.6389" width="95.4489" height="17.6584" filterUnits="userSpaceOnUse" color-interpolation-filters="sRGB">
<feFlood flood-opacity="0" result="BackgroundImageFix"/>
<feColorMatrix in="SourceAlpha" type="matrix" values="0 0 0 0 0 0 0 0 0 0 0 0 0 0 0 0 0 0 127 0" result="hardAlpha"/>
<feOffset dy="4"/>
<feGaussianBlur stdDeviation="2"/>
<feComposite in2="hardAlpha" operator="out"/>
<feColorMatrix type="matrix" values="0 0 0 0 0 0 0 0 0 0 0 0 0 0 0 0 0 0 0.25 0"/>
<feBlend mode="normal" in2="BackgroundImageFix" result="effect1_dropShadow_397_3746"/>
<feBlend mode="normal" in="SourceGraphic" in2="effect1_dropShadow_397_3746" result="shape"/>
</filter>
<filter id="filter6_d_397_3746" x="-47.3297" y="100.844" width="120.875" height="17.6033" filterUnits="userSpaceOnUse" color-interpolation-filters="sRGB">
<feFlood flood-opacity="0" result="BackgroundImageFix"/>
<feColorMatrix in="SourceAlpha" type="matrix" values="0 0 0 0 0 0 0 0 0 0 0 0 0 0 0 0 0 0 127 0" result="hardAlpha"/>
<feOffset dy="4"/>
<feGaussianBlur stdDeviation="2"/>
<feComposite in2="hardAlpha" operator="out"/>
<feColorMatrix type="matrix" values="0 0 0 0 0 0 0 0 0 0 0 0 0 0 0 0 0 0 0.25 0"/>
<feBlend mode="normal" in2="BackgroundImageFix" result="effect1_dropShadow_397_3746"/>
<feBlend mode="normal" in="SourceGraphic" in2="effect1_dropShadow_397_3746" result="shape"/>
</filter>
<filter id="filter7_d_397_3746" x="-51.9285" y="130.484" width="130.79" height="18.8311" filterUnits="userSpaceOnUse" color-interpolation-filters="sRGB">
<feFlood flood-opacity="0" result="BackgroundImageFix"/>
<feColorMatrix in="SourceAlpha" type="matrix" values="0 0 0 0 0 0 0 0 0 0 0 0 0 0 0 0 0 0 127 0" result="hardAlpha"/>
<feOffset dy="4"/>
<feGaussianBlur stdDeviation="2"/>
<feComposite in2="hardAlpha" operator="out"/>
<feColorMatrix type="matrix" values="0 0 0 0 0 0 0 0 0 0 0 0 0 0 0 0 0 0 0.25 0"/>
<feBlend mode="normal" in2="BackgroundImageFix" result="effect1_dropShadow_397_3746"/>
<feBlend mode="normal" in="SourceGraphic" in2="effect1_dropShadow_397_3746" result="shape"/>
</filter>
<filter id="filter8_d_397_3746" x="-16.8673" y="0" width="65.5881" height="49.8586" filterUnits="userSpaceOnUse" color-interpolation-filters="sRGB">
<feFlood flood-opacity="0" result="BackgroundImageFix"/>
<feColorMatrix in="SourceAlpha" type="matrix" values="0 0 0 0 0 0 0 0 0 0 0 0 0 0 0 0 0 0 127 0" result="hardAlpha"/>
<feOffset dy="4"/>
<feGaussianBlur stdDeviation="2"/>
<feComposite in2="hardAlpha" operator="out"/>
<feColorMatrix type="matrix" values="0 0 0 0 0 0 0 0 0 0 0 0 0 0 0 0 0 0 0.25 0"/>
<feBlend mode="normal" in2="BackgroundImageFix" result="effect1_dropShadow_397_3746"/>
<feBlend mode="normal" in="SourceGraphic" in2="effect1_dropShadow_397_3746" result="shape"/>
</filter>
<clipPath id="clip0_397_3746">
<rect width="129" height="166" fill="white" transform="translate(-51)"/>
</clipPath>
</defs>
</svg>
