<svg width="1907" height="1199" viewBox="0 0 1907 1199" fill="none" xmlns="http://www.w3.org/2000/svg">
<g filter="url(#filter0_di_514_5803)">
<path d="M4 1167.61C34.4425 1124.33 163.814 923.717 217.761 914.927C285.195 903.94 304.841 972.859 411.035 914.927C517.23 856.996 575.106 660.173 704.664 684.645C834.221 709.116 1823.35 55.4348 1870.08 0L1902.5 228.188C1840.91 246.333 828.013 899.554 757.5 871.187C669.358 835.729 646.788 914.927 528.911 972.859C411.035 1030.79 251.412 945.694 201.5 1014.61C161.571 1069.75 90.3274 1168.97 59 1190.11L4 1167.61Z" fill="#D3B7FC"/>
</g>
<defs>
<filter id="filter0_di_514_5803" x="0" y="0" width="1906.5" height="1198.11" filterUnits="userSpaceOnUse" color-interpolation-filters="sRGB">
<feFlood flood-opacity="0" result="BackgroundImageFix"/>
<feColorMatrix in="SourceAlpha" type="matrix" values="0 0 0 0 0 0 0 0 0 0 0 0 0 0 0 0 0 0 127 0" result="hardAlpha"/>
<feOffset dy="4"/>
<feGaussianBlur stdDeviation="2"/>
<feComposite in2="hardAlpha" operator="out"/>
<feColorMatrix type="matrix" values="0 0 0 0 0 0 0 0 0 0 0 0 0 0 0 0 0 0 0.25 0"/>
<feBlend mode="normal" in2="BackgroundImageFix" result="effect1_dropShadow_514_5803"/>
<feBlend mode="normal" in="SourceGraphic" in2="effect1_dropShadow_514_5803" result="shape"/>
<feColorMatrix in="SourceAlpha" type="matrix" values="0 0 0 0 0 0 0 0 0 0 0 0 0 0 0 0 0 0 127 0" result="hardAlpha"/>
<feOffset dy="11"/>
<feGaussianBlur stdDeviation="2"/>
<feComposite in2="hardAlpha" operator="arithmetic" k2="-1" k3="1"/>
<feColorMatrix type="matrix" values="0 0 0 0 0.32549 0 0 0 0 0.211765 0 0 0 0 0.533333 0 0 0 0.35 0"/>
<feBlend mode="normal" in2="shape" result="effect2_innerShadow_514_5803"/>
</filter>
</defs>
</svg>
